G04 #@! TF.GenerationSoftware,KiCad,Pcbnew,(5.99.0-11336-g5116fa6d12)*
G04 #@! TF.CreationDate,2021-07-24T21:06:12+02:00*
G04 #@! TF.ProjectId,plain60-flex-mkd-ansi,706c6169-6e36-4302-9d66-6c65782d6d6b,rev?*
G04 #@! TF.SameCoordinates,Original*
G04 #@! TF.FileFunction,AssemblyDrawing,Bot*
%FSLAX46Y46*%
G04 Gerber Fmt 4.6, Leading zero omitted, Abs format (unit mm)*
G04 Created by KiCad (PCBNEW (5.99.0-11336-g5116fa6d12)) date 2021-07-24 21:06:12*
%MOMM*%
%LPD*%
G01*
G04 APERTURE LIST*
%ADD10C,0.150000*%
%ADD11C,0.030000*%
%ADD12C,0.080000*%
%ADD13C,0.075000*%
%ADD14C,0.125000*%
%ADD15C,0.100000*%
%ADD16C,0.100000*%
G04 #@! TD*
G04 APERTURE END LIST*
D10*
X238284797Y-83813656D02*
X237284797Y-83813656D01*
X237284797Y-84051751D01*
X237332417Y-84194608D01*
X237427655Y-84289846D01*
X237522893Y-84337465D01*
X237713369Y-84385084D01*
X237856226Y-84385084D01*
X238046702Y-84337465D01*
X238141940Y-84289846D01*
X238237178Y-84194608D01*
X238284797Y-84051751D01*
X238284797Y-83813656D01*
X242384797Y-82861275D02*
X241384797Y-82861275D01*
X241384797Y-83099370D01*
X241432417Y-83242227D01*
X241527655Y-83337465D01*
X241622893Y-83385084D01*
X241813369Y-83432703D01*
X241956226Y-83432703D01*
X242146702Y-83385084D01*
X242241940Y-83337465D01*
X242337178Y-83242227D01*
X242384797Y-83099370D01*
X242384797Y-82861275D01*
X241384797Y-83766037D02*
X241384797Y-84432703D01*
X242384797Y-84004132D01*
X241384797Y-84718418D02*
X241384797Y-85337465D01*
X241765750Y-85004132D01*
X241765750Y-85146989D01*
X241813369Y-85242227D01*
X241860988Y-85289846D01*
X241956226Y-85337465D01*
X242194321Y-85337465D01*
X242289559Y-85289846D01*
X242337178Y-85242227D01*
X242384797Y-85146989D01*
X242384797Y-84861275D01*
X242337178Y-84766037D01*
X242289559Y-84718418D01*
X214450999Y-83813656D02*
X213450999Y-83813656D01*
X213450999Y-84051751D01*
X213498619Y-84194608D01*
X213593857Y-84289846D01*
X213689095Y-84337465D01*
X213879571Y-84385084D01*
X214022428Y-84385084D01*
X214212904Y-84337465D01*
X214308142Y-84289846D01*
X214403380Y-84194608D01*
X214450999Y-84051751D01*
X214450999Y-83813656D01*
X218550999Y-82861275D02*
X217550999Y-82861275D01*
X217550999Y-83099370D01*
X217598619Y-83242227D01*
X217693857Y-83337465D01*
X217789095Y-83385084D01*
X217979571Y-83432703D01*
X218122428Y-83432703D01*
X218312904Y-83385084D01*
X218408142Y-83337465D01*
X218503380Y-83242227D01*
X218550999Y-83099370D01*
X218550999Y-82861275D01*
X217550999Y-83766037D02*
X217550999Y-84432703D01*
X218550999Y-84004132D01*
X217646238Y-84766037D02*
X217598619Y-84813656D01*
X217550999Y-84908894D01*
X217550999Y-85146989D01*
X217598619Y-85242227D01*
X217646238Y-85289846D01*
X217741476Y-85337465D01*
X217836714Y-85337465D01*
X217979571Y-85289846D01*
X218550999Y-84718418D01*
X218550999Y-85337465D01*
X148966569Y-83813656D02*
X147966569Y-83813656D01*
X147966569Y-84051751D01*
X148014189Y-84194608D01*
X148109427Y-84289846D01*
X148204665Y-84337465D01*
X148395141Y-84385084D01*
X148537998Y-84385084D01*
X148728474Y-84337465D01*
X148823712Y-84289846D01*
X148918950Y-84194608D01*
X148966569Y-84051751D01*
X148966569Y-83813656D01*
X153066569Y-82861275D02*
X152066569Y-82861275D01*
X152066569Y-83099370D01*
X152114189Y-83242227D01*
X152209427Y-83337465D01*
X152304665Y-83385084D01*
X152495141Y-83432703D01*
X152637998Y-83432703D01*
X152828474Y-83385084D01*
X152923712Y-83337465D01*
X153018950Y-83242227D01*
X153066569Y-83099370D01*
X153066569Y-82861275D01*
X152066569Y-84289846D02*
X152066569Y-84099370D01*
X152114189Y-84004132D01*
X152161808Y-83956513D01*
X152304665Y-83861275D01*
X152495141Y-83813656D01*
X152876093Y-83813656D01*
X152971331Y-83861275D01*
X153018950Y-83908894D01*
X153066569Y-84004132D01*
X153066569Y-84194608D01*
X153018950Y-84289846D01*
X152971331Y-84337465D01*
X152876093Y-84385084D01*
X152637998Y-84385084D01*
X152542760Y-84337465D01*
X152495141Y-84289846D01*
X152447522Y-84194608D01*
X152447522Y-84004132D01*
X152495141Y-83908894D01*
X152542760Y-83861275D01*
X152637998Y-83813656D01*
X152066569Y-84718418D02*
X152066569Y-85385084D01*
X153066569Y-84956513D01*
X68031667Y-83813656D02*
X67031667Y-83813656D01*
X67031667Y-84051751D01*
X67079287Y-84194608D01*
X67174525Y-84289846D01*
X67269763Y-84337465D01*
X67460239Y-84385084D01*
X67603096Y-84385084D01*
X67793572Y-84337465D01*
X67888810Y-84289846D01*
X67984048Y-84194608D01*
X68031667Y-84051751D01*
X68031667Y-83813656D01*
X72131667Y-82861275D02*
X71131667Y-82861275D01*
X71131667Y-83099370D01*
X71179287Y-83242227D01*
X71274525Y-83337465D01*
X71369763Y-83385084D01*
X71560239Y-83432703D01*
X71703096Y-83432703D01*
X71893572Y-83385084D01*
X71988810Y-83337465D01*
X72084048Y-83242227D01*
X72131667Y-83099370D01*
X72131667Y-82861275D01*
X71131667Y-84289846D02*
X71131667Y-84099370D01*
X71179287Y-84004132D01*
X71226906Y-83956513D01*
X71369763Y-83861275D01*
X71560239Y-83813656D01*
X71941191Y-83813656D01*
X72036429Y-83861275D01*
X72084048Y-83908894D01*
X72131667Y-84004132D01*
X72131667Y-84194608D01*
X72084048Y-84289846D01*
X72036429Y-84337465D01*
X71941191Y-84385084D01*
X71703096Y-84385084D01*
X71607858Y-84337465D01*
X71560239Y-84289846D01*
X71512620Y-84194608D01*
X71512620Y-84004132D01*
X71560239Y-83908894D01*
X71607858Y-83861275D01*
X71703096Y-83813656D01*
X71131667Y-84718418D02*
X71131667Y-85337465D01*
X71512620Y-85004132D01*
X71512620Y-85146989D01*
X71560239Y-85242227D01*
X71607858Y-85289846D01*
X71703096Y-85337465D01*
X71941191Y-85337465D01*
X72036429Y-85289846D01*
X72084048Y-85242227D01*
X72131667Y-85146989D01*
X72131667Y-84861275D01*
X72084048Y-84766037D01*
X72036429Y-84718418D01*
X266577380Y-68413095D02*
X265577380Y-68413095D01*
X265577380Y-68651190D01*
X265625000Y-68794047D01*
X265720238Y-68889285D01*
X265815476Y-68936904D01*
X266005952Y-68984523D01*
X266148809Y-68984523D01*
X266339285Y-68936904D01*
X266434523Y-68889285D01*
X266529761Y-68794047D01*
X266577380Y-68651190D01*
X266577380Y-68413095D01*
X270677380Y-67460714D02*
X269677380Y-67460714D01*
X269677380Y-67698809D01*
X269725000Y-67841666D01*
X269820238Y-67936904D01*
X269915476Y-67984523D01*
X270105952Y-68032142D01*
X270248809Y-68032142D01*
X270439285Y-67984523D01*
X270534523Y-67936904D01*
X270629761Y-67841666D01*
X270677380Y-67698809D01*
X270677380Y-67460714D01*
X269677380Y-68936904D02*
X269677380Y-68460714D01*
X270153571Y-68413095D01*
X270105952Y-68460714D01*
X270058333Y-68555952D01*
X270058333Y-68794047D01*
X270105952Y-68889285D01*
X270153571Y-68936904D01*
X270248809Y-68984523D01*
X270486904Y-68984523D01*
X270582142Y-68936904D01*
X270629761Y-68889285D01*
X270677380Y-68794047D01*
X270677380Y-68555952D01*
X270629761Y-68460714D01*
X270582142Y-68413095D01*
X270677380Y-69460714D02*
X270677380Y-69651190D01*
X270629761Y-69746428D01*
X270582142Y-69794047D01*
X270439285Y-69889285D01*
X270248809Y-69936904D01*
X269867857Y-69936904D01*
X269772619Y-69889285D01*
X269725000Y-69841666D01*
X269677380Y-69746428D01*
X269677380Y-69555952D01*
X269725000Y-69460714D01*
X269772619Y-69413095D01*
X269867857Y-69365476D01*
X270105952Y-69365476D01*
X270201190Y-69413095D01*
X270248809Y-69460714D01*
X270296428Y-69555952D01*
X270296428Y-69746428D01*
X270248809Y-69841666D01*
X270201190Y-69889285D01*
X270105952Y-69936904D01*
X240383840Y-68413151D02*
X239383840Y-68413151D01*
X239383840Y-68651246D01*
X239431460Y-68794103D01*
X239526698Y-68889341D01*
X239621936Y-68936960D01*
X239812412Y-68984579D01*
X239955269Y-68984579D01*
X240145745Y-68936960D01*
X240240983Y-68889341D01*
X240336221Y-68794103D01*
X240383840Y-68651246D01*
X240383840Y-68413151D01*
X244483840Y-67460770D02*
X243483840Y-67460770D01*
X243483840Y-67698865D01*
X243531460Y-67841722D01*
X243626698Y-67936960D01*
X243721936Y-67984579D01*
X243912412Y-68032198D01*
X244055269Y-68032198D01*
X244245745Y-67984579D01*
X244340983Y-67936960D01*
X244436221Y-67841722D01*
X244483840Y-67698865D01*
X244483840Y-67460770D01*
X243483840Y-68936960D02*
X243483840Y-68460770D01*
X243960031Y-68413151D01*
X243912412Y-68460770D01*
X243864793Y-68556008D01*
X243864793Y-68794103D01*
X243912412Y-68889341D01*
X243960031Y-68936960D01*
X244055269Y-68984579D01*
X244293364Y-68984579D01*
X244388602Y-68936960D01*
X244436221Y-68889341D01*
X244483840Y-68794103D01*
X244483840Y-68556008D01*
X244436221Y-68460770D01*
X244388602Y-68413151D01*
X243912412Y-69556008D02*
X243864793Y-69460770D01*
X243817174Y-69413151D01*
X243721936Y-69365532D01*
X243674317Y-69365532D01*
X243579079Y-69413151D01*
X243531460Y-69460770D01*
X243483840Y-69556008D01*
X243483840Y-69746484D01*
X243531460Y-69841722D01*
X243579079Y-69889341D01*
X243674317Y-69936960D01*
X243721936Y-69936960D01*
X243817174Y-69889341D01*
X243864793Y-69841722D01*
X243912412Y-69746484D01*
X243912412Y-69556008D01*
X243960031Y-69460770D01*
X244007650Y-69413151D01*
X244102888Y-69365532D01*
X244293364Y-69365532D01*
X244388602Y-69413151D01*
X244436221Y-69460770D01*
X244483840Y-69556008D01*
X244483840Y-69746484D01*
X244436221Y-69841722D01*
X244388602Y-69889341D01*
X244293364Y-69936960D01*
X244102888Y-69936960D01*
X244007650Y-69889341D01*
X243960031Y-69841722D01*
X243912412Y-69746484D01*
X214189880Y-68413095D02*
X213189880Y-68413095D01*
X213189880Y-68651190D01*
X213237500Y-68794047D01*
X213332738Y-68889285D01*
X213427976Y-68936904D01*
X213618452Y-68984523D01*
X213761309Y-68984523D01*
X213951785Y-68936904D01*
X214047023Y-68889285D01*
X214142261Y-68794047D01*
X214189880Y-68651190D01*
X214189880Y-68413095D01*
X218289880Y-67460714D02*
X217289880Y-67460714D01*
X217289880Y-67698809D01*
X217337500Y-67841666D01*
X217432738Y-67936904D01*
X217527976Y-67984523D01*
X217718452Y-68032142D01*
X217861309Y-68032142D01*
X218051785Y-67984523D01*
X218147023Y-67936904D01*
X218242261Y-67841666D01*
X218289880Y-67698809D01*
X218289880Y-67460714D01*
X217289880Y-68936904D02*
X217289880Y-68460714D01*
X217766071Y-68413095D01*
X217718452Y-68460714D01*
X217670833Y-68555952D01*
X217670833Y-68794047D01*
X217718452Y-68889285D01*
X217766071Y-68936904D01*
X217861309Y-68984523D01*
X218099404Y-68984523D01*
X218194642Y-68936904D01*
X218242261Y-68889285D01*
X218289880Y-68794047D01*
X218289880Y-68555952D01*
X218242261Y-68460714D01*
X218194642Y-68413095D01*
X217289880Y-69317857D02*
X217289880Y-69984523D01*
X218289880Y-69555952D01*
X195139880Y-68413095D02*
X194139880Y-68413095D01*
X194139880Y-68651190D01*
X194187500Y-68794047D01*
X194282738Y-68889285D01*
X194377976Y-68936904D01*
X194568452Y-68984523D01*
X194711309Y-68984523D01*
X194901785Y-68936904D01*
X194997023Y-68889285D01*
X195092261Y-68794047D01*
X195139880Y-68651190D01*
X195139880Y-68413095D01*
X199239880Y-67460714D02*
X198239880Y-67460714D01*
X198239880Y-67698809D01*
X198287500Y-67841666D01*
X198382738Y-67936904D01*
X198477976Y-67984523D01*
X198668452Y-68032142D01*
X198811309Y-68032142D01*
X199001785Y-67984523D01*
X199097023Y-67936904D01*
X199192261Y-67841666D01*
X199239880Y-67698809D01*
X199239880Y-67460714D01*
X198239880Y-68936904D02*
X198239880Y-68460714D01*
X198716071Y-68413095D01*
X198668452Y-68460714D01*
X198620833Y-68555952D01*
X198620833Y-68794047D01*
X198668452Y-68889285D01*
X198716071Y-68936904D01*
X198811309Y-68984523D01*
X199049404Y-68984523D01*
X199144642Y-68936904D01*
X199192261Y-68889285D01*
X199239880Y-68794047D01*
X199239880Y-68555952D01*
X199192261Y-68460714D01*
X199144642Y-68413095D01*
X198239880Y-69841666D02*
X198239880Y-69651190D01*
X198287500Y-69555952D01*
X198335119Y-69508333D01*
X198477976Y-69413095D01*
X198668452Y-69365476D01*
X199049404Y-69365476D01*
X199144642Y-69413095D01*
X199192261Y-69460714D01*
X199239880Y-69555952D01*
X199239880Y-69746428D01*
X199192261Y-69841666D01*
X199144642Y-69889285D01*
X199049404Y-69936904D01*
X198811309Y-69936904D01*
X198716071Y-69889285D01*
X198668452Y-69841666D01*
X198620833Y-69746428D01*
X198620833Y-69555952D01*
X198668452Y-69460714D01*
X198716071Y-69413095D01*
X198811309Y-69365476D01*
X137989880Y-68413095D02*
X136989880Y-68413095D01*
X136989880Y-68651190D01*
X137037500Y-68794047D01*
X137132738Y-68889285D01*
X137227976Y-68936904D01*
X137418452Y-68984523D01*
X137561309Y-68984523D01*
X137751785Y-68936904D01*
X137847023Y-68889285D01*
X137942261Y-68794047D01*
X137989880Y-68651190D01*
X137989880Y-68413095D01*
X142089880Y-67460714D02*
X141089880Y-67460714D01*
X141089880Y-67698809D01*
X141137500Y-67841666D01*
X141232738Y-67936904D01*
X141327976Y-67984523D01*
X141518452Y-68032142D01*
X141661309Y-68032142D01*
X141851785Y-67984523D01*
X141947023Y-67936904D01*
X142042261Y-67841666D01*
X142089880Y-67698809D01*
X142089880Y-67460714D01*
X141089880Y-68936904D02*
X141089880Y-68460714D01*
X141566071Y-68413095D01*
X141518452Y-68460714D01*
X141470833Y-68555952D01*
X141470833Y-68794047D01*
X141518452Y-68889285D01*
X141566071Y-68936904D01*
X141661309Y-68984523D01*
X141899404Y-68984523D01*
X141994642Y-68936904D01*
X142042261Y-68889285D01*
X142089880Y-68794047D01*
X142089880Y-68555952D01*
X142042261Y-68460714D01*
X141994642Y-68413095D01*
X141089880Y-69317857D02*
X141089880Y-69936904D01*
X141470833Y-69603571D01*
X141470833Y-69746428D01*
X141518452Y-69841666D01*
X141566071Y-69889285D01*
X141661309Y-69936904D01*
X141899404Y-69936904D01*
X141994642Y-69889285D01*
X142042261Y-69841666D01*
X142089880Y-69746428D01*
X142089880Y-69460714D01*
X142042261Y-69365476D01*
X141994642Y-69317857D01*
X99889880Y-68413095D02*
X98889880Y-68413095D01*
X98889880Y-68651190D01*
X98937500Y-68794047D01*
X99032738Y-68889285D01*
X99127976Y-68936904D01*
X99318452Y-68984523D01*
X99461309Y-68984523D01*
X99651785Y-68936904D01*
X99747023Y-68889285D01*
X99842261Y-68794047D01*
X99889880Y-68651190D01*
X99889880Y-68413095D01*
X103989880Y-67460714D02*
X102989880Y-67460714D01*
X102989880Y-67698809D01*
X103037500Y-67841666D01*
X103132738Y-67936904D01*
X103227976Y-67984523D01*
X103418452Y-68032142D01*
X103561309Y-68032142D01*
X103751785Y-67984523D01*
X103847023Y-67936904D01*
X103942261Y-67841666D01*
X103989880Y-67698809D01*
X103989880Y-67460714D01*
X102989880Y-68936904D02*
X102989880Y-68460714D01*
X103466071Y-68413095D01*
X103418452Y-68460714D01*
X103370833Y-68555952D01*
X103370833Y-68794047D01*
X103418452Y-68889285D01*
X103466071Y-68936904D01*
X103561309Y-68984523D01*
X103799404Y-68984523D01*
X103894642Y-68936904D01*
X103942261Y-68889285D01*
X103989880Y-68794047D01*
X103989880Y-68555952D01*
X103942261Y-68460714D01*
X103894642Y-68413095D01*
X103989880Y-69936904D02*
X103989880Y-69365476D01*
X103989880Y-69651190D02*
X102989880Y-69651190D01*
X103132738Y-69555952D01*
X103227976Y-69460714D01*
X103275595Y-69365476D01*
X80839880Y-68413095D02*
X79839880Y-68413095D01*
X79839880Y-68651190D01*
X79887500Y-68794047D01*
X79982738Y-68889285D01*
X80077976Y-68936904D01*
X80268452Y-68984523D01*
X80411309Y-68984523D01*
X80601785Y-68936904D01*
X80697023Y-68889285D01*
X80792261Y-68794047D01*
X80839880Y-68651190D01*
X80839880Y-68413095D01*
X84939880Y-67460714D02*
X83939880Y-67460714D01*
X83939880Y-67698809D01*
X83987500Y-67841666D01*
X84082738Y-67936904D01*
X84177976Y-67984523D01*
X84368452Y-68032142D01*
X84511309Y-68032142D01*
X84701785Y-67984523D01*
X84797023Y-67936904D01*
X84892261Y-67841666D01*
X84939880Y-67698809D01*
X84939880Y-67460714D01*
X83939880Y-68936904D02*
X83939880Y-68460714D01*
X84416071Y-68413095D01*
X84368452Y-68460714D01*
X84320833Y-68555952D01*
X84320833Y-68794047D01*
X84368452Y-68889285D01*
X84416071Y-68936904D01*
X84511309Y-68984523D01*
X84749404Y-68984523D01*
X84844642Y-68936904D01*
X84892261Y-68889285D01*
X84939880Y-68794047D01*
X84939880Y-68555952D01*
X84892261Y-68460714D01*
X84844642Y-68413095D01*
X83939880Y-69603571D02*
X83939880Y-69698809D01*
X83987500Y-69794047D01*
X84035119Y-69841666D01*
X84130357Y-69889285D01*
X84320833Y-69936904D01*
X84558928Y-69936904D01*
X84749404Y-69889285D01*
X84844642Y-69841666D01*
X84892261Y-69794047D01*
X84939880Y-69698809D01*
X84939880Y-69603571D01*
X84892261Y-69508333D01*
X84844642Y-69460714D01*
X84749404Y-69413095D01*
X84558928Y-69365476D01*
X84320833Y-69365476D01*
X84130357Y-69413095D01*
X84035119Y-69460714D01*
X83987500Y-69508333D01*
X83939880Y-69603571D01*
X218952380Y-30313095D02*
X217952380Y-30313095D01*
X217952380Y-30551190D01*
X218000000Y-30694047D01*
X218095238Y-30789285D01*
X218190476Y-30836904D01*
X218380952Y-30884523D01*
X218523809Y-30884523D01*
X218714285Y-30836904D01*
X218809523Y-30789285D01*
X218904761Y-30694047D01*
X218952380Y-30551190D01*
X218952380Y-30313095D01*
X223052380Y-29360714D02*
X222052380Y-29360714D01*
X222052380Y-29598809D01*
X222100000Y-29741666D01*
X222195238Y-29836904D01*
X222290476Y-29884523D01*
X222480952Y-29932142D01*
X222623809Y-29932142D01*
X222814285Y-29884523D01*
X222909523Y-29836904D01*
X223004761Y-29741666D01*
X223052380Y-29598809D01*
X223052380Y-29360714D01*
X222147619Y-30313095D02*
X222100000Y-30360714D01*
X222052380Y-30455952D01*
X222052380Y-30694047D01*
X222100000Y-30789285D01*
X222147619Y-30836904D01*
X222242857Y-30884523D01*
X222338095Y-30884523D01*
X222480952Y-30836904D01*
X223052380Y-30265476D01*
X223052380Y-30884523D01*
X222052380Y-31217857D02*
X222052380Y-31884523D01*
X223052380Y-31455952D01*
X223714880Y-49363095D02*
X222714880Y-49363095D01*
X222714880Y-49601190D01*
X222762500Y-49744047D01*
X222857738Y-49839285D01*
X222952976Y-49886904D01*
X223143452Y-49934523D01*
X223286309Y-49934523D01*
X223476785Y-49886904D01*
X223572023Y-49839285D01*
X223667261Y-49744047D01*
X223714880Y-49601190D01*
X223714880Y-49363095D01*
X227814880Y-48410714D02*
X226814880Y-48410714D01*
X226814880Y-48648809D01*
X226862500Y-48791666D01*
X226957738Y-48886904D01*
X227052976Y-48934523D01*
X227243452Y-48982142D01*
X227386309Y-48982142D01*
X227576785Y-48934523D01*
X227672023Y-48886904D01*
X227767261Y-48791666D01*
X227814880Y-48648809D01*
X227814880Y-48410714D01*
X227148214Y-49839285D02*
X227814880Y-49839285D01*
X226767261Y-49601190D02*
X227481547Y-49363095D01*
X227481547Y-49982142D01*
X226910119Y-50315476D02*
X226862500Y-50363095D01*
X226814880Y-50458333D01*
X226814880Y-50696428D01*
X226862500Y-50791666D01*
X226910119Y-50839285D01*
X227005357Y-50886904D01*
X227100595Y-50886904D01*
X227243452Y-50839285D01*
X227814880Y-50267857D01*
X227814880Y-50886904D01*
X47502380Y-30313095D02*
X46502380Y-30313095D01*
X46502380Y-30551190D01*
X46550000Y-30694047D01*
X46645238Y-30789285D01*
X46740476Y-30836904D01*
X46930952Y-30884523D01*
X47073809Y-30884523D01*
X47264285Y-30836904D01*
X47359523Y-30789285D01*
X47454761Y-30694047D01*
X47502380Y-30551190D01*
X47502380Y-30313095D01*
X51602380Y-29360714D02*
X50602380Y-29360714D01*
X50602380Y-29598809D01*
X50650000Y-29741666D01*
X50745238Y-29836904D01*
X50840476Y-29884523D01*
X51030952Y-29932142D01*
X51173809Y-29932142D01*
X51364285Y-29884523D01*
X51459523Y-29836904D01*
X51554761Y-29741666D01*
X51602380Y-29598809D01*
X51602380Y-29360714D01*
X51602380Y-30884523D02*
X51602380Y-30313095D01*
X51602380Y-30598809D02*
X50602380Y-30598809D01*
X50745238Y-30503571D01*
X50840476Y-30408333D01*
X50888095Y-30313095D01*
X51030952Y-31455952D02*
X50983333Y-31360714D01*
X50935714Y-31313095D01*
X50840476Y-31265476D01*
X50792857Y-31265476D01*
X50697619Y-31313095D01*
X50650000Y-31360714D01*
X50602380Y-31455952D01*
X50602380Y-31646428D01*
X50650000Y-31741666D01*
X50697619Y-31789285D01*
X50792857Y-31836904D01*
X50840476Y-31836904D01*
X50935714Y-31789285D01*
X50983333Y-31741666D01*
X51030952Y-31646428D01*
X51030952Y-31455952D01*
X51078571Y-31360714D01*
X51126190Y-31313095D01*
X51221428Y-31265476D01*
X51411904Y-31265476D01*
X51507142Y-31313095D01*
X51554761Y-31360714D01*
X51602380Y-31455952D01*
X51602380Y-31646428D01*
X51554761Y-31741666D01*
X51507142Y-31789285D01*
X51411904Y-31836904D01*
X51221428Y-31836904D01*
X51126190Y-31789285D01*
X51078571Y-31741666D01*
X51030952Y-31646428D01*
X180852380Y-30313095D02*
X179852380Y-30313095D01*
X179852380Y-30551190D01*
X179900000Y-30694047D01*
X179995238Y-30789285D01*
X180090476Y-30836904D01*
X180280952Y-30884523D01*
X180423809Y-30884523D01*
X180614285Y-30836904D01*
X180709523Y-30789285D01*
X180804761Y-30694047D01*
X180852380Y-30551190D01*
X180852380Y-30313095D01*
X184952380Y-29360714D02*
X183952380Y-29360714D01*
X183952380Y-29598809D01*
X184000000Y-29741666D01*
X184095238Y-29836904D01*
X184190476Y-29884523D01*
X184380952Y-29932142D01*
X184523809Y-29932142D01*
X184714285Y-29884523D01*
X184809523Y-29836904D01*
X184904761Y-29741666D01*
X184952380Y-29598809D01*
X184952380Y-29360714D01*
X184047619Y-30313095D02*
X184000000Y-30360714D01*
X183952380Y-30455952D01*
X183952380Y-30694047D01*
X184000000Y-30789285D01*
X184047619Y-30836904D01*
X184142857Y-30884523D01*
X184238095Y-30884523D01*
X184380952Y-30836904D01*
X184952380Y-30265476D01*
X184952380Y-30884523D01*
X183952380Y-31789285D02*
X183952380Y-31313095D01*
X184428571Y-31265476D01*
X184380952Y-31313095D01*
X184333333Y-31408333D01*
X184333333Y-31646428D01*
X184380952Y-31741666D01*
X184428571Y-31789285D01*
X184523809Y-31836904D01*
X184761904Y-31836904D01*
X184857142Y-31789285D01*
X184904761Y-31741666D01*
X184952380Y-31646428D01*
X184952380Y-31408333D01*
X184904761Y-31313095D01*
X184857142Y-31265476D01*
X204664880Y-49363095D02*
X203664880Y-49363095D01*
X203664880Y-49601190D01*
X203712500Y-49744047D01*
X203807738Y-49839285D01*
X203902976Y-49886904D01*
X204093452Y-49934523D01*
X204236309Y-49934523D01*
X204426785Y-49886904D01*
X204522023Y-49839285D01*
X204617261Y-49744047D01*
X204664880Y-49601190D01*
X204664880Y-49363095D01*
X208764880Y-48410714D02*
X207764880Y-48410714D01*
X207764880Y-48648809D01*
X207812500Y-48791666D01*
X207907738Y-48886904D01*
X208002976Y-48934523D01*
X208193452Y-48982142D01*
X208336309Y-48982142D01*
X208526785Y-48934523D01*
X208622023Y-48886904D01*
X208717261Y-48791666D01*
X208764880Y-48648809D01*
X208764880Y-48410714D01*
X208098214Y-49839285D02*
X208764880Y-49839285D01*
X207717261Y-49601190D02*
X208431547Y-49363095D01*
X208431547Y-49982142D01*
X208764880Y-50886904D02*
X208764880Y-50315476D01*
X208764880Y-50601190D02*
X207764880Y-50601190D01*
X207907738Y-50505952D01*
X208002976Y-50410714D01*
X208050595Y-50315476D01*
X109414880Y-49363095D02*
X108414880Y-49363095D01*
X108414880Y-49601190D01*
X108462500Y-49744047D01*
X108557738Y-49839285D01*
X108652976Y-49886904D01*
X108843452Y-49934523D01*
X108986309Y-49934523D01*
X109176785Y-49886904D01*
X109272023Y-49839285D01*
X109367261Y-49744047D01*
X109414880Y-49601190D01*
X109414880Y-49363095D01*
X113514880Y-48410714D02*
X112514880Y-48410714D01*
X112514880Y-48648809D01*
X112562500Y-48791666D01*
X112657738Y-48886904D01*
X112752976Y-48934523D01*
X112943452Y-48982142D01*
X113086309Y-48982142D01*
X113276785Y-48934523D01*
X113372023Y-48886904D01*
X113467261Y-48791666D01*
X113514880Y-48648809D01*
X113514880Y-48410714D01*
X112514880Y-49315476D02*
X112514880Y-49934523D01*
X112895833Y-49601190D01*
X112895833Y-49744047D01*
X112943452Y-49839285D01*
X112991071Y-49886904D01*
X113086309Y-49934523D01*
X113324404Y-49934523D01*
X113419642Y-49886904D01*
X113467261Y-49839285D01*
X113514880Y-49744047D01*
X113514880Y-49458333D01*
X113467261Y-49363095D01*
X113419642Y-49315476D01*
X112514880Y-50791666D02*
X112514880Y-50601190D01*
X112562500Y-50505952D01*
X112610119Y-50458333D01*
X112752976Y-50363095D01*
X112943452Y-50315476D01*
X113324404Y-50315476D01*
X113419642Y-50363095D01*
X113467261Y-50410714D01*
X113514880Y-50505952D01*
X113514880Y-50696428D01*
X113467261Y-50791666D01*
X113419642Y-50839285D01*
X113324404Y-50886904D01*
X113086309Y-50886904D01*
X112991071Y-50839285D01*
X112943452Y-50791666D01*
X112895833Y-50696428D01*
X112895833Y-50505952D01*
X112943452Y-50410714D01*
X112991071Y-50363095D01*
X113086309Y-50315476D01*
X52264880Y-49363095D02*
X51264880Y-49363095D01*
X51264880Y-49601190D01*
X51312500Y-49744047D01*
X51407738Y-49839285D01*
X51502976Y-49886904D01*
X51693452Y-49934523D01*
X51836309Y-49934523D01*
X52026785Y-49886904D01*
X52122023Y-49839285D01*
X52217261Y-49744047D01*
X52264880Y-49601190D01*
X52264880Y-49363095D01*
X56364880Y-48410714D02*
X55364880Y-48410714D01*
X55364880Y-48648809D01*
X55412500Y-48791666D01*
X55507738Y-48886904D01*
X55602976Y-48934523D01*
X55793452Y-48982142D01*
X55936309Y-48982142D01*
X56126785Y-48934523D01*
X56222023Y-48886904D01*
X56317261Y-48791666D01*
X56364880Y-48648809D01*
X56364880Y-48410714D01*
X55364880Y-49315476D02*
X55364880Y-49934523D01*
X55745833Y-49601190D01*
X55745833Y-49744047D01*
X55793452Y-49839285D01*
X55841071Y-49886904D01*
X55936309Y-49934523D01*
X56174404Y-49934523D01*
X56269642Y-49886904D01*
X56317261Y-49839285D01*
X56364880Y-49744047D01*
X56364880Y-49458333D01*
X56317261Y-49363095D01*
X56269642Y-49315476D01*
X56364880Y-50886904D02*
X56364880Y-50315476D01*
X56364880Y-50601190D02*
X55364880Y-50601190D01*
X55507738Y-50505952D01*
X55602976Y-50410714D01*
X55650595Y-50315476D01*
X185614880Y-49363095D02*
X184614880Y-49363095D01*
X184614880Y-49601190D01*
X184662500Y-49744047D01*
X184757738Y-49839285D01*
X184852976Y-49886904D01*
X185043452Y-49934523D01*
X185186309Y-49934523D01*
X185376785Y-49886904D01*
X185472023Y-49839285D01*
X185567261Y-49744047D01*
X185614880Y-49601190D01*
X185614880Y-49363095D01*
X189714880Y-48410714D02*
X188714880Y-48410714D01*
X188714880Y-48648809D01*
X188762500Y-48791666D01*
X188857738Y-48886904D01*
X188952976Y-48934523D01*
X189143452Y-48982142D01*
X189286309Y-48982142D01*
X189476785Y-48934523D01*
X189572023Y-48886904D01*
X189667261Y-48791666D01*
X189714880Y-48648809D01*
X189714880Y-48410714D01*
X189048214Y-49839285D02*
X189714880Y-49839285D01*
X188667261Y-49601190D02*
X189381547Y-49363095D01*
X189381547Y-49982142D01*
X188714880Y-50553571D02*
X188714880Y-50648809D01*
X188762500Y-50744047D01*
X188810119Y-50791666D01*
X188905357Y-50839285D01*
X189095833Y-50886904D01*
X189333928Y-50886904D01*
X189524404Y-50839285D01*
X189619642Y-50791666D01*
X189667261Y-50744047D01*
X189714880Y-50648809D01*
X189714880Y-50553571D01*
X189667261Y-50458333D01*
X189619642Y-50410714D01*
X189524404Y-50363095D01*
X189333928Y-50315476D01*
X189095833Y-50315476D01*
X188905357Y-50363095D01*
X188810119Y-50410714D01*
X188762500Y-50458333D01*
X188714880Y-50553571D01*
X144464880Y-49363095D02*
X143464880Y-49363095D01*
X143464880Y-49601190D01*
X143512500Y-49744047D01*
X143607738Y-49839285D01*
X143702976Y-49886904D01*
X143893452Y-49934523D01*
X144036309Y-49934523D01*
X144226785Y-49886904D01*
X144322023Y-49839285D01*
X144417261Y-49744047D01*
X144464880Y-49601190D01*
X144464880Y-49363095D01*
X148564880Y-48410714D02*
X147564880Y-48410714D01*
X147564880Y-48648809D01*
X147612500Y-48791666D01*
X147707738Y-48886904D01*
X147802976Y-48934523D01*
X147993452Y-48982142D01*
X148136309Y-48982142D01*
X148326785Y-48934523D01*
X148422023Y-48886904D01*
X148517261Y-48791666D01*
X148564880Y-48648809D01*
X148564880Y-48410714D01*
X147564880Y-49315476D02*
X147564880Y-49934523D01*
X147945833Y-49601190D01*
X147945833Y-49744047D01*
X147993452Y-49839285D01*
X148041071Y-49886904D01*
X148136309Y-49934523D01*
X148374404Y-49934523D01*
X148469642Y-49886904D01*
X148517261Y-49839285D01*
X148564880Y-49744047D01*
X148564880Y-49458333D01*
X148517261Y-49363095D01*
X148469642Y-49315476D01*
X147564880Y-50267857D02*
X147564880Y-50934523D01*
X148564880Y-50505952D01*
X49214880Y-49363095D02*
X48214880Y-49363095D01*
X48214880Y-49601190D01*
X48262500Y-49744047D01*
X48357738Y-49839285D01*
X48452976Y-49886904D01*
X48643452Y-49934523D01*
X48786309Y-49934523D01*
X48976785Y-49886904D01*
X49072023Y-49839285D01*
X49167261Y-49744047D01*
X49214880Y-49601190D01*
X49214880Y-49363095D01*
X53314880Y-48410714D02*
X52314880Y-48410714D01*
X52314880Y-48648809D01*
X52362500Y-48791666D01*
X52457738Y-48886904D01*
X52552976Y-48934523D01*
X52743452Y-48982142D01*
X52886309Y-48982142D01*
X53076785Y-48934523D01*
X53172023Y-48886904D01*
X53267261Y-48791666D01*
X53314880Y-48648809D01*
X53314880Y-48410714D01*
X52314880Y-49315476D02*
X52314880Y-49934523D01*
X52695833Y-49601190D01*
X52695833Y-49744047D01*
X52743452Y-49839285D01*
X52791071Y-49886904D01*
X52886309Y-49934523D01*
X53124404Y-49934523D01*
X53219642Y-49886904D01*
X53267261Y-49839285D01*
X53314880Y-49744047D01*
X53314880Y-49458333D01*
X53267261Y-49363095D01*
X53219642Y-49315476D01*
X52410119Y-50315476D02*
X52362500Y-50363095D01*
X52314880Y-50458333D01*
X52314880Y-50696428D01*
X52362500Y-50791666D01*
X52410119Y-50839285D01*
X52505357Y-50886904D01*
X52600595Y-50886904D01*
X52743452Y-50839285D01*
X53314880Y-50267857D01*
X53314880Y-50886904D01*
X71314880Y-49363095D02*
X70314880Y-49363095D01*
X70314880Y-49601190D01*
X70362500Y-49744047D01*
X70457738Y-49839285D01*
X70552976Y-49886904D01*
X70743452Y-49934523D01*
X70886309Y-49934523D01*
X71076785Y-49886904D01*
X71172023Y-49839285D01*
X71267261Y-49744047D01*
X71314880Y-49601190D01*
X71314880Y-49363095D01*
X75414880Y-48410714D02*
X74414880Y-48410714D01*
X74414880Y-48648809D01*
X74462500Y-48791666D01*
X74557738Y-48886904D01*
X74652976Y-48934523D01*
X74843452Y-48982142D01*
X74986309Y-48982142D01*
X75176785Y-48934523D01*
X75272023Y-48886904D01*
X75367261Y-48791666D01*
X75414880Y-48648809D01*
X75414880Y-48410714D01*
X74414880Y-49315476D02*
X74414880Y-49934523D01*
X74795833Y-49601190D01*
X74795833Y-49744047D01*
X74843452Y-49839285D01*
X74891071Y-49886904D01*
X74986309Y-49934523D01*
X75224404Y-49934523D01*
X75319642Y-49886904D01*
X75367261Y-49839285D01*
X75414880Y-49744047D01*
X75414880Y-49458333D01*
X75367261Y-49363095D01*
X75319642Y-49315476D01*
X74748214Y-50791666D02*
X75414880Y-50791666D01*
X74367261Y-50553571D02*
X75081547Y-50315476D01*
X75081547Y-50934523D01*
X104652380Y-30313095D02*
X103652380Y-30313095D01*
X103652380Y-30551190D01*
X103700000Y-30694047D01*
X103795238Y-30789285D01*
X103890476Y-30836904D01*
X104080952Y-30884523D01*
X104223809Y-30884523D01*
X104414285Y-30836904D01*
X104509523Y-30789285D01*
X104604761Y-30694047D01*
X104652380Y-30551190D01*
X104652380Y-30313095D01*
X108752380Y-29360714D02*
X107752380Y-29360714D01*
X107752380Y-29598809D01*
X107800000Y-29741666D01*
X107895238Y-29836904D01*
X107990476Y-29884523D01*
X108180952Y-29932142D01*
X108323809Y-29932142D01*
X108514285Y-29884523D01*
X108609523Y-29836904D01*
X108704761Y-29741666D01*
X108752380Y-29598809D01*
X108752380Y-29360714D01*
X107847619Y-30313095D02*
X107800000Y-30360714D01*
X107752380Y-30455952D01*
X107752380Y-30694047D01*
X107800000Y-30789285D01*
X107847619Y-30836904D01*
X107942857Y-30884523D01*
X108038095Y-30884523D01*
X108180952Y-30836904D01*
X108752380Y-30265476D01*
X108752380Y-30884523D01*
X108752380Y-31836904D02*
X108752380Y-31265476D01*
X108752380Y-31551190D02*
X107752380Y-31551190D01*
X107895238Y-31455952D01*
X107990476Y-31360714D01*
X108038095Y-31265476D01*
X199902380Y-30313095D02*
X198902380Y-30313095D01*
X198902380Y-30551190D01*
X198950000Y-30694047D01*
X199045238Y-30789285D01*
X199140476Y-30836904D01*
X199330952Y-30884523D01*
X199473809Y-30884523D01*
X199664285Y-30836904D01*
X199759523Y-30789285D01*
X199854761Y-30694047D01*
X199902380Y-30551190D01*
X199902380Y-30313095D01*
X204002380Y-29360714D02*
X203002380Y-29360714D01*
X203002380Y-29598809D01*
X203050000Y-29741666D01*
X203145238Y-29836904D01*
X203240476Y-29884523D01*
X203430952Y-29932142D01*
X203573809Y-29932142D01*
X203764285Y-29884523D01*
X203859523Y-29836904D01*
X203954761Y-29741666D01*
X204002380Y-29598809D01*
X204002380Y-29360714D01*
X203097619Y-30313095D02*
X203050000Y-30360714D01*
X203002380Y-30455952D01*
X203002380Y-30694047D01*
X203050000Y-30789285D01*
X203097619Y-30836904D01*
X203192857Y-30884523D01*
X203288095Y-30884523D01*
X203430952Y-30836904D01*
X204002380Y-30265476D01*
X204002380Y-30884523D01*
X203002380Y-31741666D02*
X203002380Y-31551190D01*
X203050000Y-31455952D01*
X203097619Y-31408333D01*
X203240476Y-31313095D01*
X203430952Y-31265476D01*
X203811904Y-31265476D01*
X203907142Y-31313095D01*
X203954761Y-31360714D01*
X204002380Y-31455952D01*
X204002380Y-31646428D01*
X203954761Y-31741666D01*
X203907142Y-31789285D01*
X203811904Y-31836904D01*
X203573809Y-31836904D01*
X203478571Y-31789285D01*
X203430952Y-31741666D01*
X203383333Y-31646428D01*
X203383333Y-31455952D01*
X203430952Y-31360714D01*
X203478571Y-31313095D01*
X203573809Y-31265476D01*
X123702380Y-30313095D02*
X122702380Y-30313095D01*
X122702380Y-30551190D01*
X122750000Y-30694047D01*
X122845238Y-30789285D01*
X122940476Y-30836904D01*
X123130952Y-30884523D01*
X123273809Y-30884523D01*
X123464285Y-30836904D01*
X123559523Y-30789285D01*
X123654761Y-30694047D01*
X123702380Y-30551190D01*
X123702380Y-30313095D01*
X127802380Y-29360714D02*
X126802380Y-29360714D01*
X126802380Y-29598809D01*
X126850000Y-29741666D01*
X126945238Y-29836904D01*
X127040476Y-29884523D01*
X127230952Y-29932142D01*
X127373809Y-29932142D01*
X127564285Y-29884523D01*
X127659523Y-29836904D01*
X127754761Y-29741666D01*
X127802380Y-29598809D01*
X127802380Y-29360714D01*
X126897619Y-30313095D02*
X126850000Y-30360714D01*
X126802380Y-30455952D01*
X126802380Y-30694047D01*
X126850000Y-30789285D01*
X126897619Y-30836904D01*
X126992857Y-30884523D01*
X127088095Y-30884523D01*
X127230952Y-30836904D01*
X127802380Y-30265476D01*
X127802380Y-30884523D01*
X126897619Y-31265476D02*
X126850000Y-31313095D01*
X126802380Y-31408333D01*
X126802380Y-31646428D01*
X126850000Y-31741666D01*
X126897619Y-31789285D01*
X126992857Y-31836904D01*
X127088095Y-31836904D01*
X127230952Y-31789285D01*
X127802380Y-31217857D01*
X127802380Y-31836904D01*
X161802380Y-30313095D02*
X160802380Y-30313095D01*
X160802380Y-30551190D01*
X160850000Y-30694047D01*
X160945238Y-30789285D01*
X161040476Y-30836904D01*
X161230952Y-30884523D01*
X161373809Y-30884523D01*
X161564285Y-30836904D01*
X161659523Y-30789285D01*
X161754761Y-30694047D01*
X161802380Y-30551190D01*
X161802380Y-30313095D01*
X165902380Y-29360714D02*
X164902380Y-29360714D01*
X164902380Y-29598809D01*
X164950000Y-29741666D01*
X165045238Y-29836904D01*
X165140476Y-29884523D01*
X165330952Y-29932142D01*
X165473809Y-29932142D01*
X165664285Y-29884523D01*
X165759523Y-29836904D01*
X165854761Y-29741666D01*
X165902380Y-29598809D01*
X165902380Y-29360714D01*
X164997619Y-30313095D02*
X164950000Y-30360714D01*
X164902380Y-30455952D01*
X164902380Y-30694047D01*
X164950000Y-30789285D01*
X164997619Y-30836904D01*
X165092857Y-30884523D01*
X165188095Y-30884523D01*
X165330952Y-30836904D01*
X165902380Y-30265476D01*
X165902380Y-30884523D01*
X165235714Y-31741666D02*
X165902380Y-31741666D01*
X164854761Y-31503571D02*
X165569047Y-31265476D01*
X165569047Y-31884523D01*
X147514880Y-49363095D02*
X146514880Y-49363095D01*
X146514880Y-49601190D01*
X146562500Y-49744047D01*
X146657738Y-49839285D01*
X146752976Y-49886904D01*
X146943452Y-49934523D01*
X147086309Y-49934523D01*
X147276785Y-49886904D01*
X147372023Y-49839285D01*
X147467261Y-49744047D01*
X147514880Y-49601190D01*
X147514880Y-49363095D01*
X151614880Y-48410714D02*
X150614880Y-48410714D01*
X150614880Y-48648809D01*
X150662500Y-48791666D01*
X150757738Y-48886904D01*
X150852976Y-48934523D01*
X151043452Y-48982142D01*
X151186309Y-48982142D01*
X151376785Y-48934523D01*
X151472023Y-48886904D01*
X151567261Y-48791666D01*
X151614880Y-48648809D01*
X151614880Y-48410714D01*
X150614880Y-49315476D02*
X150614880Y-49934523D01*
X150995833Y-49601190D01*
X150995833Y-49744047D01*
X151043452Y-49839285D01*
X151091071Y-49886904D01*
X151186309Y-49934523D01*
X151424404Y-49934523D01*
X151519642Y-49886904D01*
X151567261Y-49839285D01*
X151614880Y-49744047D01*
X151614880Y-49458333D01*
X151567261Y-49363095D01*
X151519642Y-49315476D01*
X151043452Y-50505952D02*
X150995833Y-50410714D01*
X150948214Y-50363095D01*
X150852976Y-50315476D01*
X150805357Y-50315476D01*
X150710119Y-50363095D01*
X150662500Y-50410714D01*
X150614880Y-50505952D01*
X150614880Y-50696428D01*
X150662500Y-50791666D01*
X150710119Y-50839285D01*
X150805357Y-50886904D01*
X150852976Y-50886904D01*
X150948214Y-50839285D01*
X150995833Y-50791666D01*
X151043452Y-50696428D01*
X151043452Y-50505952D01*
X151091071Y-50410714D01*
X151138690Y-50363095D01*
X151233928Y-50315476D01*
X151424404Y-50315476D01*
X151519642Y-50363095D01*
X151567261Y-50410714D01*
X151614880Y-50505952D01*
X151614880Y-50696428D01*
X151567261Y-50791666D01*
X151519642Y-50839285D01*
X151424404Y-50886904D01*
X151233928Y-50886904D01*
X151138690Y-50839285D01*
X151091071Y-50791666D01*
X151043452Y-50696428D01*
X90364880Y-49363095D02*
X89364880Y-49363095D01*
X89364880Y-49601190D01*
X89412500Y-49744047D01*
X89507738Y-49839285D01*
X89602976Y-49886904D01*
X89793452Y-49934523D01*
X89936309Y-49934523D01*
X90126785Y-49886904D01*
X90222023Y-49839285D01*
X90317261Y-49744047D01*
X90364880Y-49601190D01*
X90364880Y-49363095D01*
X94464880Y-48410714D02*
X93464880Y-48410714D01*
X93464880Y-48648809D01*
X93512500Y-48791666D01*
X93607738Y-48886904D01*
X93702976Y-48934523D01*
X93893452Y-48982142D01*
X94036309Y-48982142D01*
X94226785Y-48934523D01*
X94322023Y-48886904D01*
X94417261Y-48791666D01*
X94464880Y-48648809D01*
X94464880Y-48410714D01*
X93464880Y-49315476D02*
X93464880Y-49934523D01*
X93845833Y-49601190D01*
X93845833Y-49744047D01*
X93893452Y-49839285D01*
X93941071Y-49886904D01*
X94036309Y-49934523D01*
X94274404Y-49934523D01*
X94369642Y-49886904D01*
X94417261Y-49839285D01*
X94464880Y-49744047D01*
X94464880Y-49458333D01*
X94417261Y-49363095D01*
X94369642Y-49315476D01*
X93464880Y-50839285D02*
X93464880Y-50363095D01*
X93941071Y-50315476D01*
X93893452Y-50363095D01*
X93845833Y-50458333D01*
X93845833Y-50696428D01*
X93893452Y-50791666D01*
X93941071Y-50839285D01*
X94036309Y-50886904D01*
X94274404Y-50886904D01*
X94369642Y-50839285D01*
X94417261Y-50791666D01*
X94464880Y-50696428D01*
X94464880Y-50458333D01*
X94417261Y-50363095D01*
X94369642Y-50315476D01*
X58739880Y-68413095D02*
X57739880Y-68413095D01*
X57739880Y-68651190D01*
X57787500Y-68794047D01*
X57882738Y-68889285D01*
X57977976Y-68936904D01*
X58168452Y-68984523D01*
X58311309Y-68984523D01*
X58501785Y-68936904D01*
X58597023Y-68889285D01*
X58692261Y-68794047D01*
X58739880Y-68651190D01*
X58739880Y-68413095D01*
X62839880Y-67460714D02*
X61839880Y-67460714D01*
X61839880Y-67698809D01*
X61887500Y-67841666D01*
X61982738Y-67936904D01*
X62077976Y-67984523D01*
X62268452Y-68032142D01*
X62411309Y-68032142D01*
X62601785Y-67984523D01*
X62697023Y-67936904D01*
X62792261Y-67841666D01*
X62839880Y-67698809D01*
X62839880Y-67460714D01*
X62173214Y-68889285D02*
X62839880Y-68889285D01*
X61792261Y-68651190D02*
X62506547Y-68413095D01*
X62506547Y-69032142D01*
X62268452Y-69555952D02*
X62220833Y-69460714D01*
X62173214Y-69413095D01*
X62077976Y-69365476D01*
X62030357Y-69365476D01*
X61935119Y-69413095D01*
X61887500Y-69460714D01*
X61839880Y-69555952D01*
X61839880Y-69746428D01*
X61887500Y-69841666D01*
X61935119Y-69889285D01*
X62030357Y-69936904D01*
X62077976Y-69936904D01*
X62173214Y-69889285D01*
X62220833Y-69841666D01*
X62268452Y-69746428D01*
X62268452Y-69555952D01*
X62316071Y-69460714D01*
X62363690Y-69413095D01*
X62458928Y-69365476D01*
X62649404Y-69365476D01*
X62744642Y-69413095D01*
X62792261Y-69460714D01*
X62839880Y-69555952D01*
X62839880Y-69746428D01*
X62792261Y-69841666D01*
X62744642Y-69889285D01*
X62649404Y-69936904D01*
X62458928Y-69936904D01*
X62363690Y-69889285D01*
X62316071Y-69841666D01*
X62268452Y-69746428D01*
X157039880Y-68413095D02*
X156039880Y-68413095D01*
X156039880Y-68651190D01*
X156087500Y-68794047D01*
X156182738Y-68889285D01*
X156277976Y-68936904D01*
X156468452Y-68984523D01*
X156611309Y-68984523D01*
X156801785Y-68936904D01*
X156897023Y-68889285D01*
X156992261Y-68794047D01*
X157039880Y-68651190D01*
X157039880Y-68413095D01*
X161139880Y-67460714D02*
X160139880Y-67460714D01*
X160139880Y-67698809D01*
X160187500Y-67841666D01*
X160282738Y-67936904D01*
X160377976Y-67984523D01*
X160568452Y-68032142D01*
X160711309Y-68032142D01*
X160901785Y-67984523D01*
X160997023Y-67936904D01*
X161092261Y-67841666D01*
X161139880Y-67698809D01*
X161139880Y-67460714D01*
X160139880Y-68936904D02*
X160139880Y-68460714D01*
X160616071Y-68413095D01*
X160568452Y-68460714D01*
X160520833Y-68555952D01*
X160520833Y-68794047D01*
X160568452Y-68889285D01*
X160616071Y-68936904D01*
X160711309Y-68984523D01*
X160949404Y-68984523D01*
X161044642Y-68936904D01*
X161092261Y-68889285D01*
X161139880Y-68794047D01*
X161139880Y-68555952D01*
X161092261Y-68460714D01*
X161044642Y-68413095D01*
X160473214Y-69841666D02*
X161139880Y-69841666D01*
X160092261Y-69603571D02*
X160806547Y-69365476D01*
X160806547Y-69984523D01*
X270671080Y-49363095D02*
X269671080Y-49363095D01*
X269671080Y-49601190D01*
X269718700Y-49744047D01*
X269813938Y-49839285D01*
X269909176Y-49886904D01*
X270099652Y-49934523D01*
X270242509Y-49934523D01*
X270432985Y-49886904D01*
X270528223Y-49839285D01*
X270623461Y-49744047D01*
X270671080Y-49601190D01*
X270671080Y-49363095D01*
X274771080Y-48410714D02*
X273771080Y-48410714D01*
X273771080Y-48648809D01*
X273818700Y-48791666D01*
X273913938Y-48886904D01*
X274009176Y-48934523D01*
X274199652Y-48982142D01*
X274342509Y-48982142D01*
X274532985Y-48934523D01*
X274628223Y-48886904D01*
X274723461Y-48791666D01*
X274771080Y-48648809D01*
X274771080Y-48410714D01*
X274104414Y-49839285D02*
X274771080Y-49839285D01*
X273723461Y-49601190D02*
X274437747Y-49363095D01*
X274437747Y-49982142D01*
X274104414Y-50791666D02*
X274771080Y-50791666D01*
X273723461Y-50553571D02*
X274437747Y-50315476D01*
X274437747Y-50934523D01*
X44256679Y-82988156D02*
X43256679Y-82988156D01*
X43256679Y-83226251D01*
X43304299Y-83369108D01*
X43399537Y-83464346D01*
X43494775Y-83511965D01*
X43685251Y-83559584D01*
X43828108Y-83559584D01*
X44018584Y-83511965D01*
X44113822Y-83464346D01*
X44209060Y-83369108D01*
X44256679Y-83226251D01*
X44256679Y-82988156D01*
X48356679Y-82035775D02*
X47356679Y-82035775D01*
X47356679Y-82273870D01*
X47404299Y-82416727D01*
X47499537Y-82511965D01*
X47594775Y-82559584D01*
X47785251Y-82607203D01*
X47928108Y-82607203D01*
X48118584Y-82559584D01*
X48213822Y-82511965D01*
X48309060Y-82416727D01*
X48356679Y-82273870D01*
X48356679Y-82035775D01*
X47356679Y-83464346D02*
X47356679Y-83273870D01*
X47404299Y-83178632D01*
X47451918Y-83131013D01*
X47594775Y-83035775D01*
X47785251Y-82988156D01*
X48166203Y-82988156D01*
X48261441Y-83035775D01*
X48309060Y-83083394D01*
X48356679Y-83178632D01*
X48356679Y-83369108D01*
X48309060Y-83464346D01*
X48261441Y-83511965D01*
X48166203Y-83559584D01*
X47928108Y-83559584D01*
X47832870Y-83511965D01*
X47785251Y-83464346D01*
X47737632Y-83369108D01*
X47737632Y-83178632D01*
X47785251Y-83083394D01*
X47832870Y-83035775D01*
X47928108Y-82988156D01*
X47451918Y-83940537D02*
X47404299Y-83988156D01*
X47356679Y-84083394D01*
X47356679Y-84321489D01*
X47404299Y-84416727D01*
X47451918Y-84464346D01*
X47547156Y-84511965D01*
X47642394Y-84511965D01*
X47785251Y-84464346D01*
X48356679Y-83892918D01*
X48356679Y-84511965D01*
X166564880Y-49363095D02*
X165564880Y-49363095D01*
X165564880Y-49601190D01*
X165612500Y-49744047D01*
X165707738Y-49839285D01*
X165802976Y-49886904D01*
X165993452Y-49934523D01*
X166136309Y-49934523D01*
X166326785Y-49886904D01*
X166422023Y-49839285D01*
X166517261Y-49744047D01*
X166564880Y-49601190D01*
X166564880Y-49363095D01*
X170664880Y-48410714D02*
X169664880Y-48410714D01*
X169664880Y-48648809D01*
X169712500Y-48791666D01*
X169807738Y-48886904D01*
X169902976Y-48934523D01*
X170093452Y-48982142D01*
X170236309Y-48982142D01*
X170426785Y-48934523D01*
X170522023Y-48886904D01*
X170617261Y-48791666D01*
X170664880Y-48648809D01*
X170664880Y-48410714D01*
X169664880Y-49315476D02*
X169664880Y-49934523D01*
X170045833Y-49601190D01*
X170045833Y-49744047D01*
X170093452Y-49839285D01*
X170141071Y-49886904D01*
X170236309Y-49934523D01*
X170474404Y-49934523D01*
X170569642Y-49886904D01*
X170617261Y-49839285D01*
X170664880Y-49744047D01*
X170664880Y-49458333D01*
X170617261Y-49363095D01*
X170569642Y-49315476D01*
X170664880Y-50410714D02*
X170664880Y-50601190D01*
X170617261Y-50696428D01*
X170569642Y-50744047D01*
X170426785Y-50839285D01*
X170236309Y-50886904D01*
X169855357Y-50886904D01*
X169760119Y-50839285D01*
X169712500Y-50791666D01*
X169664880Y-50696428D01*
X169664880Y-50505952D01*
X169712500Y-50410714D01*
X169760119Y-50363095D01*
X169855357Y-50315476D01*
X170093452Y-50315476D01*
X170188690Y-50363095D01*
X170236309Y-50410714D01*
X170283928Y-50505952D01*
X170283928Y-50696428D01*
X170236309Y-50791666D01*
X170188690Y-50839285D01*
X170093452Y-50886904D01*
X85602380Y-30313095D02*
X84602380Y-30313095D01*
X84602380Y-30551190D01*
X84650000Y-30694047D01*
X84745238Y-30789285D01*
X84840476Y-30836904D01*
X85030952Y-30884523D01*
X85173809Y-30884523D01*
X85364285Y-30836904D01*
X85459523Y-30789285D01*
X85554761Y-30694047D01*
X85602380Y-30551190D01*
X85602380Y-30313095D01*
X89702380Y-29360714D02*
X88702380Y-29360714D01*
X88702380Y-29598809D01*
X88750000Y-29741666D01*
X88845238Y-29836904D01*
X88940476Y-29884523D01*
X89130952Y-29932142D01*
X89273809Y-29932142D01*
X89464285Y-29884523D01*
X89559523Y-29836904D01*
X89654761Y-29741666D01*
X89702380Y-29598809D01*
X89702380Y-29360714D01*
X88797619Y-30313095D02*
X88750000Y-30360714D01*
X88702380Y-30455952D01*
X88702380Y-30694047D01*
X88750000Y-30789285D01*
X88797619Y-30836904D01*
X88892857Y-30884523D01*
X88988095Y-30884523D01*
X89130952Y-30836904D01*
X89702380Y-30265476D01*
X89702380Y-30884523D01*
X88702380Y-31503571D02*
X88702380Y-31598809D01*
X88750000Y-31694047D01*
X88797619Y-31741666D01*
X88892857Y-31789285D01*
X89083333Y-31836904D01*
X89321428Y-31836904D01*
X89511904Y-31789285D01*
X89607142Y-31741666D01*
X89654761Y-31694047D01*
X89702380Y-31598809D01*
X89702380Y-31503571D01*
X89654761Y-31408333D01*
X89607142Y-31360714D01*
X89511904Y-31313095D01*
X89321428Y-31265476D01*
X89083333Y-31265476D01*
X88892857Y-31313095D01*
X88797619Y-31360714D01*
X88750000Y-31408333D01*
X88702380Y-31503571D01*
X238002380Y-30313095D02*
X237002380Y-30313095D01*
X237002380Y-30551190D01*
X237050000Y-30694047D01*
X237145238Y-30789285D01*
X237240476Y-30836904D01*
X237430952Y-30884523D01*
X237573809Y-30884523D01*
X237764285Y-30836904D01*
X237859523Y-30789285D01*
X237954761Y-30694047D01*
X238002380Y-30551190D01*
X238002380Y-30313095D01*
X242102380Y-29360714D02*
X241102380Y-29360714D01*
X241102380Y-29598809D01*
X241150000Y-29741666D01*
X241245238Y-29836904D01*
X241340476Y-29884523D01*
X241530952Y-29932142D01*
X241673809Y-29932142D01*
X241864285Y-29884523D01*
X241959523Y-29836904D01*
X242054761Y-29741666D01*
X242102380Y-29598809D01*
X242102380Y-29360714D01*
X241197619Y-30313095D02*
X241150000Y-30360714D01*
X241102380Y-30455952D01*
X241102380Y-30694047D01*
X241150000Y-30789285D01*
X241197619Y-30836904D01*
X241292857Y-30884523D01*
X241388095Y-30884523D01*
X241530952Y-30836904D01*
X242102380Y-30265476D01*
X242102380Y-30884523D01*
X241530952Y-31455952D02*
X241483333Y-31360714D01*
X241435714Y-31313095D01*
X241340476Y-31265476D01*
X241292857Y-31265476D01*
X241197619Y-31313095D01*
X241150000Y-31360714D01*
X241102380Y-31455952D01*
X241102380Y-31646428D01*
X241150000Y-31741666D01*
X241197619Y-31789285D01*
X241292857Y-31836904D01*
X241340476Y-31836904D01*
X241435714Y-31789285D01*
X241483333Y-31741666D01*
X241530952Y-31646428D01*
X241530952Y-31455952D01*
X241578571Y-31360714D01*
X241626190Y-31313095D01*
X241721428Y-31265476D01*
X241911904Y-31265476D01*
X242007142Y-31313095D01*
X242054761Y-31360714D01*
X242102380Y-31455952D01*
X242102380Y-31646428D01*
X242054761Y-31741666D01*
X242007142Y-31789285D01*
X241911904Y-31836904D01*
X241721428Y-31836904D01*
X241626190Y-31789285D01*
X241578571Y-31741666D01*
X241530952Y-31646428D01*
X68264880Y-49363095D02*
X67264880Y-49363095D01*
X67264880Y-49601190D01*
X67312500Y-49744047D01*
X67407738Y-49839285D01*
X67502976Y-49886904D01*
X67693452Y-49934523D01*
X67836309Y-49934523D01*
X68026785Y-49886904D01*
X68122023Y-49839285D01*
X68217261Y-49744047D01*
X68264880Y-49601190D01*
X68264880Y-49363095D01*
X72364880Y-48410714D02*
X71364880Y-48410714D01*
X71364880Y-48648809D01*
X71412500Y-48791666D01*
X71507738Y-48886904D01*
X71602976Y-48934523D01*
X71793452Y-48982142D01*
X71936309Y-48982142D01*
X72126785Y-48934523D01*
X72222023Y-48886904D01*
X72317261Y-48791666D01*
X72364880Y-48648809D01*
X72364880Y-48410714D01*
X71364880Y-49315476D02*
X71364880Y-49934523D01*
X71745833Y-49601190D01*
X71745833Y-49744047D01*
X71793452Y-49839285D01*
X71841071Y-49886904D01*
X71936309Y-49934523D01*
X72174404Y-49934523D01*
X72269642Y-49886904D01*
X72317261Y-49839285D01*
X72364880Y-49744047D01*
X72364880Y-49458333D01*
X72317261Y-49363095D01*
X72269642Y-49315476D01*
X71364880Y-50267857D02*
X71364880Y-50886904D01*
X71745833Y-50553571D01*
X71745833Y-50696428D01*
X71793452Y-50791666D01*
X71841071Y-50839285D01*
X71936309Y-50886904D01*
X72174404Y-50886904D01*
X72269642Y-50839285D01*
X72317261Y-50791666D01*
X72364880Y-50696428D01*
X72364880Y-50410714D01*
X72317261Y-50315476D01*
X72269642Y-50267857D01*
X142752380Y-30313095D02*
X141752380Y-30313095D01*
X141752380Y-30551190D01*
X141800000Y-30694047D01*
X141895238Y-30789285D01*
X141990476Y-30836904D01*
X142180952Y-30884523D01*
X142323809Y-30884523D01*
X142514285Y-30836904D01*
X142609523Y-30789285D01*
X142704761Y-30694047D01*
X142752380Y-30551190D01*
X142752380Y-30313095D01*
X146852380Y-29360714D02*
X145852380Y-29360714D01*
X145852380Y-29598809D01*
X145900000Y-29741666D01*
X145995238Y-29836904D01*
X146090476Y-29884523D01*
X146280952Y-29932142D01*
X146423809Y-29932142D01*
X146614285Y-29884523D01*
X146709523Y-29836904D01*
X146804761Y-29741666D01*
X146852380Y-29598809D01*
X146852380Y-29360714D01*
X145947619Y-30313095D02*
X145900000Y-30360714D01*
X145852380Y-30455952D01*
X145852380Y-30694047D01*
X145900000Y-30789285D01*
X145947619Y-30836904D01*
X146042857Y-30884523D01*
X146138095Y-30884523D01*
X146280952Y-30836904D01*
X146852380Y-30265476D01*
X146852380Y-30884523D01*
X145852380Y-31217857D02*
X145852380Y-31836904D01*
X146233333Y-31503571D01*
X146233333Y-31646428D01*
X146280952Y-31741666D01*
X146328571Y-31789285D01*
X146423809Y-31836904D01*
X146661904Y-31836904D01*
X146757142Y-31789285D01*
X146804761Y-31741666D01*
X146852380Y-31646428D01*
X146852380Y-31360714D01*
X146804761Y-31265476D01*
X146757142Y-31217857D01*
X176089880Y-68413095D02*
X175089880Y-68413095D01*
X175089880Y-68651190D01*
X175137500Y-68794047D01*
X175232738Y-68889285D01*
X175327976Y-68936904D01*
X175518452Y-68984523D01*
X175661309Y-68984523D01*
X175851785Y-68936904D01*
X175947023Y-68889285D01*
X176042261Y-68794047D01*
X176089880Y-68651190D01*
X176089880Y-68413095D01*
X180189880Y-67460714D02*
X179189880Y-67460714D01*
X179189880Y-67698809D01*
X179237500Y-67841666D01*
X179332738Y-67936904D01*
X179427976Y-67984523D01*
X179618452Y-68032142D01*
X179761309Y-68032142D01*
X179951785Y-67984523D01*
X180047023Y-67936904D01*
X180142261Y-67841666D01*
X180189880Y-67698809D01*
X180189880Y-67460714D01*
X179189880Y-68936904D02*
X179189880Y-68460714D01*
X179666071Y-68413095D01*
X179618452Y-68460714D01*
X179570833Y-68555952D01*
X179570833Y-68794047D01*
X179618452Y-68889285D01*
X179666071Y-68936904D01*
X179761309Y-68984523D01*
X179999404Y-68984523D01*
X180094642Y-68936904D01*
X180142261Y-68889285D01*
X180189880Y-68794047D01*
X180189880Y-68555952D01*
X180142261Y-68460714D01*
X180094642Y-68413095D01*
X179189880Y-69889285D02*
X179189880Y-69413095D01*
X179666071Y-69365476D01*
X179618452Y-69413095D01*
X179570833Y-69508333D01*
X179570833Y-69746428D01*
X179618452Y-69841666D01*
X179666071Y-69889285D01*
X179761309Y-69936904D01*
X179999404Y-69936904D01*
X180094642Y-69889285D01*
X180142261Y-69841666D01*
X180189880Y-69746428D01*
X180189880Y-69508333D01*
X180142261Y-69413095D01*
X180094642Y-69365476D01*
X118939880Y-68413095D02*
X117939880Y-68413095D01*
X117939880Y-68651190D01*
X117987500Y-68794047D01*
X118082738Y-68889285D01*
X118177976Y-68936904D01*
X118368452Y-68984523D01*
X118511309Y-68984523D01*
X118701785Y-68936904D01*
X118797023Y-68889285D01*
X118892261Y-68794047D01*
X118939880Y-68651190D01*
X118939880Y-68413095D01*
X123039880Y-67460714D02*
X122039880Y-67460714D01*
X122039880Y-67698809D01*
X122087500Y-67841666D01*
X122182738Y-67936904D01*
X122277976Y-67984523D01*
X122468452Y-68032142D01*
X122611309Y-68032142D01*
X122801785Y-67984523D01*
X122897023Y-67936904D01*
X122992261Y-67841666D01*
X123039880Y-67698809D01*
X123039880Y-67460714D01*
X122039880Y-68936904D02*
X122039880Y-68460714D01*
X122516071Y-68413095D01*
X122468452Y-68460714D01*
X122420833Y-68555952D01*
X122420833Y-68794047D01*
X122468452Y-68889285D01*
X122516071Y-68936904D01*
X122611309Y-68984523D01*
X122849404Y-68984523D01*
X122944642Y-68936904D01*
X122992261Y-68889285D01*
X123039880Y-68794047D01*
X123039880Y-68555952D01*
X122992261Y-68460714D01*
X122944642Y-68413095D01*
X122135119Y-69365476D02*
X122087500Y-69413095D01*
X122039880Y-69508333D01*
X122039880Y-69746428D01*
X122087500Y-69841666D01*
X122135119Y-69889285D01*
X122230357Y-69936904D01*
X122325595Y-69936904D01*
X122468452Y-69889285D01*
X123039880Y-69317857D01*
X123039880Y-69936904D01*
X66552380Y-30313095D02*
X65552380Y-30313095D01*
X65552380Y-30551190D01*
X65600000Y-30694047D01*
X65695238Y-30789285D01*
X65790476Y-30836904D01*
X65980952Y-30884523D01*
X66123809Y-30884523D01*
X66314285Y-30836904D01*
X66409523Y-30789285D01*
X66504761Y-30694047D01*
X66552380Y-30551190D01*
X66552380Y-30313095D01*
X70652380Y-29360714D02*
X69652380Y-29360714D01*
X69652380Y-29598809D01*
X69700000Y-29741666D01*
X69795238Y-29836904D01*
X69890476Y-29884523D01*
X70080952Y-29932142D01*
X70223809Y-29932142D01*
X70414285Y-29884523D01*
X70509523Y-29836904D01*
X70604761Y-29741666D01*
X70652380Y-29598809D01*
X70652380Y-29360714D01*
X70652380Y-30884523D02*
X70652380Y-30313095D01*
X70652380Y-30598809D02*
X69652380Y-30598809D01*
X69795238Y-30503571D01*
X69890476Y-30408333D01*
X69938095Y-30313095D01*
X70652380Y-31360714D02*
X70652380Y-31551190D01*
X70604761Y-31646428D01*
X70557142Y-31694047D01*
X70414285Y-31789285D01*
X70223809Y-31836904D01*
X69842857Y-31836904D01*
X69747619Y-31789285D01*
X69700000Y-31741666D01*
X69652380Y-31646428D01*
X69652380Y-31455952D01*
X69700000Y-31360714D01*
X69747619Y-31313095D01*
X69842857Y-31265476D01*
X70080952Y-31265476D01*
X70176190Y-31313095D01*
X70223809Y-31360714D01*
X70271428Y-31455952D01*
X70271428Y-31646428D01*
X70223809Y-31741666D01*
X70176190Y-31789285D01*
X70080952Y-31836904D01*
X111334501Y-87399931D02*
X111671219Y-87736649D01*
X111469188Y-87130557D02*
X110997784Y-88073366D01*
X111940593Y-87601962D01*
X111368173Y-88443756D02*
X111772234Y-88847817D01*
X112277311Y-87938679D02*
X111570204Y-88645786D01*
X112715043Y-88376412D02*
X112243639Y-88847817D01*
X112310982Y-88780473D02*
X112310982Y-88847817D01*
X112344654Y-88948832D01*
X112445669Y-89049847D01*
X112546685Y-89083519D01*
X112647700Y-89049847D01*
X113018089Y-88679458D01*
X112647700Y-89049847D02*
X112614028Y-89150862D01*
X112647700Y-89251878D01*
X112748715Y-89352893D01*
X112849730Y-89386565D01*
X112950746Y-89352893D01*
X113321135Y-88982504D01*
X113893555Y-89622267D02*
X113859883Y-89521252D01*
X113725196Y-89386565D01*
X113624181Y-89352893D01*
X113523165Y-89386565D01*
X113253791Y-89655939D01*
X113220120Y-89756954D01*
X113253791Y-89857969D01*
X113388478Y-89992656D01*
X113489494Y-90026328D01*
X113590509Y-89992656D01*
X113657852Y-89925313D01*
X113388478Y-89521252D01*
X114095585Y-90699763D02*
X114668005Y-90127343D01*
X114701677Y-90026328D01*
X114701677Y-89958984D01*
X114668005Y-89857969D01*
X114566990Y-89756954D01*
X114465974Y-89723282D01*
X114533318Y-90262030D02*
X114499646Y-90161015D01*
X114364959Y-90026328D01*
X114263944Y-89992656D01*
X114196600Y-89992656D01*
X114095585Y-90026328D01*
X113893555Y-90228358D01*
X113859883Y-90329374D01*
X113859883Y-90396717D01*
X113893555Y-90497732D01*
X114028242Y-90632419D01*
X114129257Y-90666091D01*
X115206753Y-90868122D02*
X114836364Y-91238511D01*
X114735348Y-91272183D01*
X114634333Y-91238511D01*
X114499646Y-91103824D01*
X114465974Y-91002809D01*
X115173081Y-90901793D02*
X115139409Y-90800778D01*
X114971051Y-90632419D01*
X114870035Y-90598748D01*
X114769020Y-90632419D01*
X114701677Y-90699763D01*
X114668005Y-90800778D01*
X114701677Y-90901793D01*
X114870035Y-91070152D01*
X114903707Y-91171167D01*
X114769020Y-91844602D02*
X115206753Y-92282335D01*
X115240425Y-91777259D01*
X115341440Y-91878274D01*
X115442455Y-91911946D01*
X115509799Y-91911946D01*
X115610814Y-91878274D01*
X115779173Y-91709915D01*
X115812844Y-91608900D01*
X115812844Y-91541557D01*
X115779173Y-91440541D01*
X115577142Y-91238511D01*
X115476127Y-91204839D01*
X115408783Y-91204839D01*
X115543470Y-92484366D02*
X115543470Y-92551709D01*
X115577142Y-92652724D01*
X115745501Y-92821083D01*
X115846516Y-92854755D01*
X115913860Y-92854755D01*
X116014875Y-92821083D01*
X116082218Y-92753740D01*
X116149562Y-92619053D01*
X116149562Y-91810931D01*
X116587295Y-92248663D01*
X116183234Y-93258816D02*
X116755653Y-92686396D01*
X116856669Y-92652724D01*
X116924012Y-92652724D01*
X117025027Y-92686396D01*
X117159714Y-92821083D01*
X117193386Y-92922098D01*
X117193386Y-92989442D01*
X117159714Y-93090457D01*
X116587295Y-93662877D01*
X117462760Y-94066938D02*
X117934165Y-93595534D01*
X117025027Y-94167953D02*
X117361745Y-93494518D01*
X117799478Y-93932251D01*
X118791111Y-85330802D02*
X119363531Y-84758382D01*
X119464546Y-84724710D01*
X119531890Y-84724710D01*
X119632905Y-84758382D01*
X119767592Y-84893069D01*
X119801264Y-84994084D01*
X119801264Y-85061428D01*
X119767592Y-85162443D01*
X119195172Y-85734863D01*
X120609386Y-85734863D02*
X120205325Y-85330802D01*
X120407355Y-85532832D02*
X119700249Y-86239939D01*
X119733920Y-86071580D01*
X119733920Y-85936893D01*
X119700249Y-85835878D01*
D11*
X106969763Y-89690537D02*
X106836429Y-89890537D01*
X106836429Y-89690537D02*
X106969763Y-89890537D01*
X106788810Y-89690537D02*
X106674525Y-89690537D01*
X106731667Y-89890537D02*
X106731667Y-89690537D01*
X106617382Y-89833394D02*
X106522144Y-89833394D01*
X106636429Y-89890537D02*
X106569763Y-89690537D01*
X106503096Y-89890537D01*
X106341191Y-89890537D02*
X106436429Y-89890537D01*
X106436429Y-89690537D01*
X106322144Y-89909584D02*
X106169763Y-89909584D01*
X106017382Y-89700061D02*
X106036429Y-89690537D01*
X106065001Y-89690537D01*
X106093572Y-89700061D01*
X106112620Y-89719108D01*
X106122144Y-89738156D01*
X106131667Y-89776251D01*
X106131667Y-89804822D01*
X106122144Y-89842918D01*
X106112620Y-89861965D01*
X106093572Y-89881013D01*
X106065001Y-89890537D01*
X106045953Y-89890537D01*
X106017382Y-89881013D01*
X106007858Y-89871489D01*
X106007858Y-89804822D01*
X106045953Y-89804822D01*
X105922144Y-89890537D02*
X105922144Y-89690537D01*
X105807858Y-89890537D01*
X105807858Y-89690537D01*
X105712620Y-89890537D02*
X105712620Y-89690537D01*
X105665001Y-89690537D01*
X105636429Y-89700061D01*
X105617382Y-89719108D01*
X105607858Y-89738156D01*
X105598334Y-89776251D01*
X105598334Y-89804822D01*
X105607858Y-89842918D01*
X105617382Y-89861965D01*
X105636429Y-89881013D01*
X105665001Y-89890537D01*
X105712620Y-89890537D01*
D12*
X106865001Y-91321489D02*
X106465001Y-91921489D01*
X106465001Y-91321489D02*
X106865001Y-91921489D01*
X105922144Y-91921489D02*
X106265001Y-91921489D01*
X106093572Y-91921489D02*
X106093572Y-91321489D01*
X106150715Y-91407203D01*
X106207858Y-91464346D01*
X106265001Y-91492918D01*
D10*
X205562620Y-83854822D02*
X205419763Y-83902441D01*
X205181667Y-83902441D01*
X205086429Y-83854822D01*
X205038810Y-83807203D01*
X204991191Y-83711965D01*
X204991191Y-83616727D01*
X205038810Y-83521489D01*
X205086429Y-83473870D01*
X205181667Y-83426251D01*
X205372144Y-83378632D01*
X205467382Y-83331013D01*
X205515001Y-83283394D01*
X205562620Y-83188156D01*
X205562620Y-83092918D01*
X205515001Y-82997680D01*
X205467382Y-82950061D01*
X205372144Y-82902441D01*
X205134048Y-82902441D01*
X204991191Y-82950061D01*
X204657858Y-82902441D02*
X204419763Y-83902441D01*
X204229287Y-83188156D01*
X204038810Y-83902441D01*
X203800715Y-82902441D01*
X202895953Y-83902441D02*
X203467382Y-83902441D01*
X203181667Y-83902441D02*
X203181667Y-82902441D01*
X203276906Y-83045299D01*
X203372144Y-83140537D01*
X203467382Y-83188156D01*
D13*
X107662620Y-78926251D02*
X107829287Y-78688156D01*
X107948334Y-78926251D02*
X107948334Y-78426251D01*
X107757858Y-78426251D01*
X107710239Y-78450061D01*
X107686429Y-78473870D01*
X107662620Y-78521489D01*
X107662620Y-78592918D01*
X107686429Y-78640537D01*
X107710239Y-78664346D01*
X107757858Y-78688156D01*
X107948334Y-78688156D01*
X107234048Y-78426251D02*
X107329287Y-78426251D01*
X107376906Y-78450061D01*
X107400715Y-78473870D01*
X107448334Y-78545299D01*
X107472144Y-78640537D01*
X107472144Y-78831013D01*
X107448334Y-78878632D01*
X107424525Y-78902441D01*
X107376906Y-78926251D01*
X107281667Y-78926251D01*
X107234048Y-78902441D01*
X107210239Y-78878632D01*
X107186429Y-78831013D01*
X107186429Y-78711965D01*
X107210239Y-78664346D01*
X107234048Y-78640537D01*
X107281667Y-78616727D01*
X107376906Y-78616727D01*
X107424525Y-78640537D01*
X107448334Y-78664346D01*
X107472144Y-78711965D01*
D10*
X171327380Y-11263095D02*
X170327380Y-11263095D01*
X170327380Y-11501190D01*
X170375000Y-11644047D01*
X170470238Y-11739285D01*
X170565476Y-11786904D01*
X170755952Y-11834523D01*
X170898809Y-11834523D01*
X171089285Y-11786904D01*
X171184523Y-11739285D01*
X171279761Y-11644047D01*
X171327380Y-11501190D01*
X171327380Y-11263095D01*
X175427380Y-10310714D02*
X174427380Y-10310714D01*
X174427380Y-10548809D01*
X174475000Y-10691666D01*
X174570238Y-10786904D01*
X174665476Y-10834523D01*
X174855952Y-10882142D01*
X174998809Y-10882142D01*
X175189285Y-10834523D01*
X175284523Y-10786904D01*
X175379761Y-10691666D01*
X175427380Y-10548809D01*
X175427380Y-10310714D01*
X175427380Y-11834523D02*
X175427380Y-11263095D01*
X175427380Y-11548809D02*
X174427380Y-11548809D01*
X174570238Y-11453571D01*
X174665476Y-11358333D01*
X174713095Y-11263095D01*
X174427380Y-12453571D02*
X174427380Y-12548809D01*
X174475000Y-12644047D01*
X174522619Y-12691666D01*
X174617857Y-12739285D01*
X174808333Y-12786904D01*
X175046428Y-12786904D01*
X175236904Y-12739285D01*
X175332142Y-12691666D01*
X175379761Y-12644047D01*
X175427380Y-12548809D01*
X175427380Y-12453571D01*
X175379761Y-12358333D01*
X175332142Y-12310714D01*
X175236904Y-12263095D01*
X175046428Y-12215476D01*
X174808333Y-12215476D01*
X174617857Y-12263095D01*
X174522619Y-12310714D01*
X174475000Y-12358333D01*
X174427380Y-12453571D01*
X152277380Y-11263095D02*
X151277380Y-11263095D01*
X151277380Y-11501190D01*
X151325000Y-11644047D01*
X151420238Y-11739285D01*
X151515476Y-11786904D01*
X151705952Y-11834523D01*
X151848809Y-11834523D01*
X152039285Y-11786904D01*
X152134523Y-11739285D01*
X152229761Y-11644047D01*
X152277380Y-11501190D01*
X152277380Y-11263095D01*
X156377380Y-10786904D02*
X155377380Y-10786904D01*
X155377380Y-11025000D01*
X155425000Y-11167857D01*
X155520238Y-11263095D01*
X155615476Y-11310714D01*
X155805952Y-11358333D01*
X155948809Y-11358333D01*
X156139285Y-11310714D01*
X156234523Y-11263095D01*
X156329761Y-11167857D01*
X156377380Y-11025000D01*
X156377380Y-10786904D01*
X156377380Y-11834523D02*
X156377380Y-12025000D01*
X156329761Y-12120238D01*
X156282142Y-12167857D01*
X156139285Y-12263095D01*
X155948809Y-12310714D01*
X155567857Y-12310714D01*
X155472619Y-12263095D01*
X155425000Y-12215476D01*
X155377380Y-12120238D01*
X155377380Y-11929761D01*
X155425000Y-11834523D01*
X155472619Y-11786904D01*
X155567857Y-11739285D01*
X155805952Y-11739285D01*
X155901190Y-11786904D01*
X155948809Y-11834523D01*
X155996428Y-11929761D01*
X155996428Y-12120238D01*
X155948809Y-12215476D01*
X155901190Y-12263095D01*
X155805952Y-12310714D01*
X228477380Y-11263095D02*
X227477380Y-11263095D01*
X227477380Y-11501190D01*
X227525000Y-11644047D01*
X227620238Y-11739285D01*
X227715476Y-11786904D01*
X227905952Y-11834523D01*
X228048809Y-11834523D01*
X228239285Y-11786904D01*
X228334523Y-11739285D01*
X228429761Y-11644047D01*
X228477380Y-11501190D01*
X228477380Y-11263095D01*
X232577380Y-10310714D02*
X231577380Y-10310714D01*
X231577380Y-10548809D01*
X231625000Y-10691666D01*
X231720238Y-10786904D01*
X231815476Y-10834523D01*
X232005952Y-10882142D01*
X232148809Y-10882142D01*
X232339285Y-10834523D01*
X232434523Y-10786904D01*
X232529761Y-10691666D01*
X232577380Y-10548809D01*
X232577380Y-10310714D01*
X232577380Y-11834523D02*
X232577380Y-11263095D01*
X232577380Y-11548809D02*
X231577380Y-11548809D01*
X231720238Y-11453571D01*
X231815476Y-11358333D01*
X231863095Y-11263095D01*
X231577380Y-12167857D02*
X231577380Y-12786904D01*
X231958333Y-12453571D01*
X231958333Y-12596428D01*
X232005952Y-12691666D01*
X232053571Y-12739285D01*
X232148809Y-12786904D01*
X232386904Y-12786904D01*
X232482142Y-12739285D01*
X232529761Y-12691666D01*
X232577380Y-12596428D01*
X232577380Y-12310714D01*
X232529761Y-12215476D01*
X232482142Y-12167857D01*
X190377380Y-11263095D02*
X189377380Y-11263095D01*
X189377380Y-11501190D01*
X189425000Y-11644047D01*
X189520238Y-11739285D01*
X189615476Y-11786904D01*
X189805952Y-11834523D01*
X189948809Y-11834523D01*
X190139285Y-11786904D01*
X190234523Y-11739285D01*
X190329761Y-11644047D01*
X190377380Y-11501190D01*
X190377380Y-11263095D01*
X194477380Y-10310714D02*
X193477380Y-10310714D01*
X193477380Y-10548809D01*
X193525000Y-10691666D01*
X193620238Y-10786904D01*
X193715476Y-10834523D01*
X193905952Y-10882142D01*
X194048809Y-10882142D01*
X194239285Y-10834523D01*
X194334523Y-10786904D01*
X194429761Y-10691666D01*
X194477380Y-10548809D01*
X194477380Y-10310714D01*
X194477380Y-11834523D02*
X194477380Y-11263095D01*
X194477380Y-11548809D02*
X193477380Y-11548809D01*
X193620238Y-11453571D01*
X193715476Y-11358333D01*
X193763095Y-11263095D01*
X194477380Y-12786904D02*
X194477380Y-12215476D01*
X194477380Y-12501190D02*
X193477380Y-12501190D01*
X193620238Y-12405952D01*
X193715476Y-12310714D01*
X193763095Y-12215476D01*
X244477380Y-11263095D02*
X243477380Y-11263095D01*
X243477380Y-11501190D01*
X243525000Y-11644047D01*
X243620238Y-11739285D01*
X243715476Y-11786904D01*
X243905952Y-11834523D01*
X244048809Y-11834523D01*
X244239285Y-11786904D01*
X244334523Y-11739285D01*
X244429761Y-11644047D01*
X244477380Y-11501190D01*
X244477380Y-11263095D01*
X248577380Y-10310714D02*
X247577380Y-10310714D01*
X247577380Y-10548809D01*
X247625000Y-10691666D01*
X247720238Y-10786904D01*
X247815476Y-10834523D01*
X248005952Y-10882142D01*
X248148809Y-10882142D01*
X248339285Y-10834523D01*
X248434523Y-10786904D01*
X248529761Y-10691666D01*
X248577380Y-10548809D01*
X248577380Y-10310714D01*
X248577380Y-11834523D02*
X248577380Y-11263095D01*
X248577380Y-11548809D02*
X247577380Y-11548809D01*
X247720238Y-11453571D01*
X247815476Y-11358333D01*
X247863095Y-11263095D01*
X247577380Y-12739285D02*
X247577380Y-12263095D01*
X248053571Y-12215476D01*
X248005952Y-12263095D01*
X247958333Y-12358333D01*
X247958333Y-12596428D01*
X248005952Y-12691666D01*
X248053571Y-12739285D01*
X248148809Y-12786904D01*
X248386904Y-12786904D01*
X248482142Y-12739285D01*
X248529761Y-12691666D01*
X248577380Y-12596428D01*
X248577380Y-12358333D01*
X248529761Y-12263095D01*
X248482142Y-12215476D01*
X44452380Y-30313095D02*
X43452380Y-30313095D01*
X43452380Y-30551190D01*
X43500000Y-30694047D01*
X43595238Y-30789285D01*
X43690476Y-30836904D01*
X43880952Y-30884523D01*
X44023809Y-30884523D01*
X44214285Y-30836904D01*
X44309523Y-30789285D01*
X44404761Y-30694047D01*
X44452380Y-30551190D01*
X44452380Y-30313095D01*
X48552380Y-29360714D02*
X47552380Y-29360714D01*
X47552380Y-29598809D01*
X47600000Y-29741666D01*
X47695238Y-29836904D01*
X47790476Y-29884523D01*
X47980952Y-29932142D01*
X48123809Y-29932142D01*
X48314285Y-29884523D01*
X48409523Y-29836904D01*
X48504761Y-29741666D01*
X48552380Y-29598809D01*
X48552380Y-29360714D01*
X48552380Y-30884523D02*
X48552380Y-30313095D01*
X48552380Y-30598809D02*
X47552380Y-30598809D01*
X47695238Y-30503571D01*
X47790476Y-30408333D01*
X47838095Y-30313095D01*
X47552380Y-31217857D02*
X47552380Y-31884523D01*
X48552380Y-31455952D01*
X4639880Y-30313095D02*
X3639880Y-30313095D01*
X3639880Y-30551190D01*
X3687500Y-30694047D01*
X3782738Y-30789285D01*
X3877976Y-30836904D01*
X4068452Y-30884523D01*
X4211309Y-30884523D01*
X4401785Y-30836904D01*
X4497023Y-30789285D01*
X4592261Y-30694047D01*
X4639880Y-30551190D01*
X4639880Y-30313095D01*
X8739880Y-29360714D02*
X7739880Y-29360714D01*
X7739880Y-29598809D01*
X7787500Y-29741666D01*
X7882738Y-29836904D01*
X7977976Y-29884523D01*
X8168452Y-29932142D01*
X8311309Y-29932142D01*
X8501785Y-29884523D01*
X8597023Y-29836904D01*
X8692261Y-29741666D01*
X8739880Y-29598809D01*
X8739880Y-29360714D01*
X8739880Y-30884523D02*
X8739880Y-30313095D01*
X8739880Y-30598809D02*
X7739880Y-30598809D01*
X7882738Y-30503571D01*
X7977976Y-30408333D01*
X8025595Y-30313095D01*
X7739880Y-31741666D02*
X7739880Y-31551190D01*
X7787500Y-31455952D01*
X7835119Y-31408333D01*
X7977976Y-31313095D01*
X8168452Y-31265476D01*
X8549404Y-31265476D01*
X8644642Y-31313095D01*
X8692261Y-31360714D01*
X8739880Y-31455952D01*
X8739880Y-31646428D01*
X8692261Y-31741666D01*
X8644642Y-31789285D01*
X8549404Y-31836904D01*
X8311309Y-31836904D01*
X8216071Y-31789285D01*
X8168452Y-31741666D01*
X8120833Y-31646428D01*
X8120833Y-31455952D01*
X8168452Y-31360714D01*
X8216071Y-31313095D01*
X8311309Y-31265476D01*
X209427380Y-11263095D02*
X208427380Y-11263095D01*
X208427380Y-11501190D01*
X208475000Y-11644047D01*
X208570238Y-11739285D01*
X208665476Y-11786904D01*
X208855952Y-11834523D01*
X208998809Y-11834523D01*
X209189285Y-11786904D01*
X209284523Y-11739285D01*
X209379761Y-11644047D01*
X209427380Y-11501190D01*
X209427380Y-11263095D01*
X213527380Y-10310714D02*
X212527380Y-10310714D01*
X212527380Y-10548809D01*
X212575000Y-10691666D01*
X212670238Y-10786904D01*
X212765476Y-10834523D01*
X212955952Y-10882142D01*
X213098809Y-10882142D01*
X213289285Y-10834523D01*
X213384523Y-10786904D01*
X213479761Y-10691666D01*
X213527380Y-10548809D01*
X213527380Y-10310714D01*
X213527380Y-11834523D02*
X213527380Y-11263095D01*
X213527380Y-11548809D02*
X212527380Y-11548809D01*
X212670238Y-11453571D01*
X212765476Y-11358333D01*
X212813095Y-11263095D01*
X212622619Y-12215476D02*
X212575000Y-12263095D01*
X212527380Y-12358333D01*
X212527380Y-12596428D01*
X212575000Y-12691666D01*
X212622619Y-12739285D01*
X212717857Y-12786904D01*
X212813095Y-12786904D01*
X212955952Y-12739285D01*
X213527380Y-12167857D01*
X213527380Y-12786904D01*
X114177380Y-11263095D02*
X113177380Y-11263095D01*
X113177380Y-11501190D01*
X113225000Y-11644047D01*
X113320238Y-11739285D01*
X113415476Y-11786904D01*
X113605952Y-11834523D01*
X113748809Y-11834523D01*
X113939285Y-11786904D01*
X114034523Y-11739285D01*
X114129761Y-11644047D01*
X114177380Y-11501190D01*
X114177380Y-11263095D01*
X118277380Y-10786904D02*
X117277380Y-10786904D01*
X117277380Y-11025000D01*
X117325000Y-11167857D01*
X117420238Y-11263095D01*
X117515476Y-11310714D01*
X117705952Y-11358333D01*
X117848809Y-11358333D01*
X118039285Y-11310714D01*
X118134523Y-11263095D01*
X118229761Y-11167857D01*
X118277380Y-11025000D01*
X118277380Y-10786904D01*
X117277380Y-11691666D02*
X117277380Y-12358333D01*
X118277380Y-11929761D01*
X53977380Y-11263095D02*
X52977380Y-11263095D01*
X52977380Y-11501190D01*
X53025000Y-11644047D01*
X53120238Y-11739285D01*
X53215476Y-11786904D01*
X53405952Y-11834523D01*
X53548809Y-11834523D01*
X53739285Y-11786904D01*
X53834523Y-11739285D01*
X53929761Y-11644047D01*
X53977380Y-11501190D01*
X53977380Y-11263095D01*
X58077380Y-10786904D02*
X57077380Y-10786904D01*
X57077380Y-11025000D01*
X57125000Y-11167857D01*
X57220238Y-11263095D01*
X57315476Y-11310714D01*
X57505952Y-11358333D01*
X57648809Y-11358333D01*
X57839285Y-11310714D01*
X57934523Y-11263095D01*
X58029761Y-11167857D01*
X58077380Y-11025000D01*
X58077380Y-10786904D01*
X57077380Y-11691666D02*
X57077380Y-12310714D01*
X57458333Y-11977380D01*
X57458333Y-12120238D01*
X57505952Y-12215476D01*
X57553571Y-12263095D01*
X57648809Y-12310714D01*
X57886904Y-12310714D01*
X57982142Y-12263095D01*
X58029761Y-12215476D01*
X58077380Y-12120238D01*
X58077380Y-11834523D01*
X58029761Y-11739285D01*
X57982142Y-11691666D01*
X76077380Y-11263095D02*
X75077380Y-11263095D01*
X75077380Y-11501190D01*
X75125000Y-11644047D01*
X75220238Y-11739285D01*
X75315476Y-11786904D01*
X75505952Y-11834523D01*
X75648809Y-11834523D01*
X75839285Y-11786904D01*
X75934523Y-11739285D01*
X76029761Y-11644047D01*
X76077380Y-11501190D01*
X76077380Y-11263095D01*
X80177380Y-10786904D02*
X79177380Y-10786904D01*
X79177380Y-11025000D01*
X79225000Y-11167857D01*
X79320238Y-11263095D01*
X79415476Y-11310714D01*
X79605952Y-11358333D01*
X79748809Y-11358333D01*
X79939285Y-11310714D01*
X80034523Y-11263095D01*
X80129761Y-11167857D01*
X80177380Y-11025000D01*
X80177380Y-10786904D01*
X79177380Y-12263095D02*
X79177380Y-11786904D01*
X79653571Y-11739285D01*
X79605952Y-11786904D01*
X79558333Y-11882142D01*
X79558333Y-12120238D01*
X79605952Y-12215476D01*
X79653571Y-12263095D01*
X79748809Y-12310714D01*
X79986904Y-12310714D01*
X80082142Y-12263095D01*
X80129761Y-12215476D01*
X80177380Y-12120238D01*
X80177380Y-11882142D01*
X80129761Y-11786904D01*
X80082142Y-11739285D01*
X133227380Y-11263095D02*
X132227380Y-11263095D01*
X132227380Y-11501190D01*
X132275000Y-11644047D01*
X132370238Y-11739285D01*
X132465476Y-11786904D01*
X132655952Y-11834523D01*
X132798809Y-11834523D01*
X132989285Y-11786904D01*
X133084523Y-11739285D01*
X133179761Y-11644047D01*
X133227380Y-11501190D01*
X133227380Y-11263095D01*
X137327380Y-10786904D02*
X136327380Y-10786904D01*
X136327380Y-11025000D01*
X136375000Y-11167857D01*
X136470238Y-11263095D01*
X136565476Y-11310714D01*
X136755952Y-11358333D01*
X136898809Y-11358333D01*
X137089285Y-11310714D01*
X137184523Y-11263095D01*
X137279761Y-11167857D01*
X137327380Y-11025000D01*
X137327380Y-10786904D01*
X136755952Y-11929761D02*
X136708333Y-11834523D01*
X136660714Y-11786904D01*
X136565476Y-11739285D01*
X136517857Y-11739285D01*
X136422619Y-11786904D01*
X136375000Y-11834523D01*
X136327380Y-11929761D01*
X136327380Y-12120238D01*
X136375000Y-12215476D01*
X136422619Y-12263095D01*
X136517857Y-12310714D01*
X136565476Y-12310714D01*
X136660714Y-12263095D01*
X136708333Y-12215476D01*
X136755952Y-12120238D01*
X136755952Y-11929761D01*
X136803571Y-11834523D01*
X136851190Y-11786904D01*
X136946428Y-11739285D01*
X137136904Y-11739285D01*
X137232142Y-11786904D01*
X137279761Y-11834523D01*
X137327380Y-11929761D01*
X137327380Y-12120238D01*
X137279761Y-12215476D01*
X137232142Y-12263095D01*
X137136904Y-12310714D01*
X136946428Y-12310714D01*
X136851190Y-12263095D01*
X136803571Y-12215476D01*
X136755952Y-12120238D01*
X95127380Y-11263095D02*
X94127380Y-11263095D01*
X94127380Y-11501190D01*
X94175000Y-11644047D01*
X94270238Y-11739285D01*
X94365476Y-11786904D01*
X94555952Y-11834523D01*
X94698809Y-11834523D01*
X94889285Y-11786904D01*
X94984523Y-11739285D01*
X95079761Y-11644047D01*
X95127380Y-11501190D01*
X95127380Y-11263095D01*
X99227380Y-10786904D02*
X98227380Y-10786904D01*
X98227380Y-11025000D01*
X98275000Y-11167857D01*
X98370238Y-11263095D01*
X98465476Y-11310714D01*
X98655952Y-11358333D01*
X98798809Y-11358333D01*
X98989285Y-11310714D01*
X99084523Y-11263095D01*
X99179761Y-11167857D01*
X99227380Y-11025000D01*
X99227380Y-10786904D01*
X98227380Y-12215476D02*
X98227380Y-12025000D01*
X98275000Y-11929761D01*
X98322619Y-11882142D01*
X98465476Y-11786904D01*
X98655952Y-11739285D01*
X99036904Y-11739285D01*
X99132142Y-11786904D01*
X99179761Y-11834523D01*
X99227380Y-11929761D01*
X99227380Y-12120238D01*
X99179761Y-12215476D01*
X99132142Y-12263095D01*
X99036904Y-12310714D01*
X98798809Y-12310714D01*
X98703571Y-12263095D01*
X98655952Y-12215476D01*
X98608333Y-12120238D01*
X98608333Y-11929761D01*
X98655952Y-11834523D01*
X98703571Y-11786904D01*
X98798809Y-11739285D01*
X57027380Y-11263095D02*
X56027380Y-11263095D01*
X56027380Y-11501190D01*
X56075000Y-11644047D01*
X56170238Y-11739285D01*
X56265476Y-11786904D01*
X56455952Y-11834523D01*
X56598809Y-11834523D01*
X56789285Y-11786904D01*
X56884523Y-11739285D01*
X56979761Y-11644047D01*
X57027380Y-11501190D01*
X57027380Y-11263095D01*
X61127380Y-10786904D02*
X60127380Y-10786904D01*
X60127380Y-11025000D01*
X60175000Y-11167857D01*
X60270238Y-11263095D01*
X60365476Y-11310714D01*
X60555952Y-11358333D01*
X60698809Y-11358333D01*
X60889285Y-11310714D01*
X60984523Y-11263095D01*
X61079761Y-11167857D01*
X61127380Y-11025000D01*
X61127380Y-10786904D01*
X60460714Y-12215476D02*
X61127380Y-12215476D01*
X60079761Y-11977380D02*
X60794047Y-11739285D01*
X60794047Y-12358333D01*
X232331667Y-83813656D02*
X231331667Y-83813656D01*
X231331667Y-84051751D01*
X231379287Y-84194608D01*
X231474525Y-84289846D01*
X231569763Y-84337465D01*
X231760239Y-84385084D01*
X231903096Y-84385084D01*
X232093572Y-84337465D01*
X232188810Y-84289846D01*
X232284048Y-84194608D01*
X232331667Y-84051751D01*
X232331667Y-83813656D01*
X236431667Y-82861275D02*
X235431667Y-82861275D01*
X235431667Y-83099370D01*
X235479287Y-83242227D01*
X235574525Y-83337465D01*
X235669763Y-83385084D01*
X235860239Y-83432703D01*
X236003096Y-83432703D01*
X236193572Y-83385084D01*
X236288810Y-83337465D01*
X236384048Y-83242227D01*
X236431667Y-83099370D01*
X236431667Y-82861275D01*
X235431667Y-83766037D02*
X235431667Y-84432703D01*
X236431667Y-84004132D01*
X235765001Y-85242227D02*
X236431667Y-85242227D01*
X235384048Y-85004132D02*
X236098334Y-84766037D01*
X236098334Y-85385084D01*
D13*
X18085580Y-17180743D02*
X17847485Y-17014077D01*
X18085580Y-16895029D02*
X17585580Y-16895029D01*
X17585580Y-17085505D01*
X17609390Y-17133124D01*
X17633199Y-17156934D01*
X17680818Y-17180743D01*
X17752247Y-17180743D01*
X17799866Y-17156934D01*
X17823675Y-17133124D01*
X17847485Y-17085505D01*
X17847485Y-16895029D01*
X18085580Y-17656934D02*
X18085580Y-17371219D01*
X18085580Y-17514077D02*
X17585580Y-17514077D01*
X17657009Y-17466457D01*
X17704628Y-17418838D01*
X17728437Y-17371219D01*
D10*
X18901333Y-2428945D02*
X18901333Y-3143231D01*
X18948952Y-3286088D01*
X19044190Y-3381326D01*
X19187047Y-3428945D01*
X19282285Y-3428945D01*
X17901333Y-3428945D02*
X18472761Y-3428945D01*
X18187047Y-3428945D02*
X18187047Y-2428945D01*
X18282285Y-2571803D01*
X18377523Y-2667041D01*
X18472761Y-2714660D01*
X61789880Y-68413095D02*
X60789880Y-68413095D01*
X60789880Y-68651190D01*
X60837500Y-68794047D01*
X60932738Y-68889285D01*
X61027976Y-68936904D01*
X61218452Y-68984523D01*
X61361309Y-68984523D01*
X61551785Y-68936904D01*
X61647023Y-68889285D01*
X61742261Y-68794047D01*
X61789880Y-68651190D01*
X61789880Y-68413095D01*
X65889880Y-67460714D02*
X64889880Y-67460714D01*
X64889880Y-67698809D01*
X64937500Y-67841666D01*
X65032738Y-67936904D01*
X65127976Y-67984523D01*
X65318452Y-68032142D01*
X65461309Y-68032142D01*
X65651785Y-67984523D01*
X65747023Y-67936904D01*
X65842261Y-67841666D01*
X65889880Y-67698809D01*
X65889880Y-67460714D01*
X65223214Y-68889285D02*
X65889880Y-68889285D01*
X64842261Y-68651190D02*
X65556547Y-68413095D01*
X65556547Y-69032142D01*
X65889880Y-69460714D02*
X65889880Y-69651190D01*
X65842261Y-69746428D01*
X65794642Y-69794047D01*
X65651785Y-69889285D01*
X65461309Y-69936904D01*
X65080357Y-69936904D01*
X64985119Y-69889285D01*
X64937500Y-69841666D01*
X64889880Y-69746428D01*
X64889880Y-69555952D01*
X64937500Y-69460714D01*
X64985119Y-69413095D01*
X65080357Y-69365476D01*
X65318452Y-69365476D01*
X65413690Y-69413095D01*
X65461309Y-69460714D01*
X65508928Y-69555952D01*
X65508928Y-69746428D01*
X65461309Y-69841666D01*
X65413690Y-69889285D01*
X65318452Y-69936904D01*
D14*
X111312620Y-92328632D02*
X111336429Y-92352441D01*
X111407858Y-92376251D01*
X111455477Y-92376251D01*
X111526906Y-92352441D01*
X111574525Y-92304822D01*
X111598334Y-92257203D01*
X111622144Y-92161965D01*
X111622144Y-92090537D01*
X111598334Y-91995299D01*
X111574525Y-91947680D01*
X111526906Y-91900061D01*
X111455477Y-91876251D01*
X111407858Y-91876251D01*
X111336429Y-91900061D01*
X111312620Y-91923870D01*
X110884048Y-92042918D02*
X110884048Y-92376251D01*
X111003096Y-91852441D02*
X111122144Y-92209584D01*
X110812620Y-92209584D01*
X130707858Y-85416727D02*
X130731667Y-85392918D01*
X130755477Y-85321489D01*
X130755477Y-85273870D01*
X130731667Y-85202441D01*
X130684048Y-85154822D01*
X130636429Y-85131013D01*
X130541191Y-85107203D01*
X130469763Y-85107203D01*
X130374525Y-85131013D01*
X130326906Y-85154822D01*
X130279287Y-85202441D01*
X130255477Y-85273870D01*
X130255477Y-85321489D01*
X130279287Y-85392918D01*
X130303096Y-85416727D01*
X130255477Y-85869108D02*
X130255477Y-85631013D01*
X130493572Y-85607203D01*
X130469763Y-85631013D01*
X130445953Y-85678632D01*
X130445953Y-85797680D01*
X130469763Y-85845299D01*
X130493572Y-85869108D01*
X130541191Y-85892918D01*
X130660239Y-85892918D01*
X130707858Y-85869108D01*
X130731667Y-85845299D01*
X130755477Y-85797680D01*
X130755477Y-85678632D01*
X130731667Y-85631013D01*
X130707858Y-85607203D01*
D10*
X27783630Y-68413095D02*
X26783630Y-68413095D01*
X26783630Y-68651190D01*
X26831250Y-68794047D01*
X26926488Y-68889285D01*
X27021726Y-68936904D01*
X27212202Y-68984523D01*
X27355059Y-68984523D01*
X27545535Y-68936904D01*
X27640773Y-68889285D01*
X27736011Y-68794047D01*
X27783630Y-68651190D01*
X27783630Y-68413095D01*
X31883630Y-67460714D02*
X30883630Y-67460714D01*
X30883630Y-67698809D01*
X30931250Y-67841666D01*
X31026488Y-67936904D01*
X31121726Y-67984523D01*
X31312202Y-68032142D01*
X31455059Y-68032142D01*
X31645535Y-67984523D01*
X31740773Y-67936904D01*
X31836011Y-67841666D01*
X31883630Y-67698809D01*
X31883630Y-67460714D01*
X31216964Y-68889285D02*
X31883630Y-68889285D01*
X30836011Y-68651190D02*
X31550297Y-68413095D01*
X31550297Y-69032142D01*
X30883630Y-69841666D02*
X30883630Y-69651190D01*
X30931250Y-69555952D01*
X30978869Y-69508333D01*
X31121726Y-69413095D01*
X31312202Y-69365476D01*
X31693154Y-69365476D01*
X31788392Y-69413095D01*
X31836011Y-69460714D01*
X31883630Y-69555952D01*
X31883630Y-69746428D01*
X31836011Y-69841666D01*
X31788392Y-69889285D01*
X31693154Y-69936904D01*
X31455059Y-69936904D01*
X31359821Y-69889285D01*
X31312202Y-69841666D01*
X31264583Y-69746428D01*
X31264583Y-69555952D01*
X31312202Y-69460714D01*
X31359821Y-69413095D01*
X31455059Y-69365476D01*
X234952380Y-30313095D02*
X233952380Y-30313095D01*
X233952380Y-30551190D01*
X234000000Y-30694047D01*
X234095238Y-30789285D01*
X234190476Y-30836904D01*
X234380952Y-30884523D01*
X234523809Y-30884523D01*
X234714285Y-30836904D01*
X234809523Y-30789285D01*
X234904761Y-30694047D01*
X234952380Y-30551190D01*
X234952380Y-30313095D01*
X239052380Y-29360714D02*
X238052380Y-29360714D01*
X238052380Y-29598809D01*
X238100000Y-29741666D01*
X238195238Y-29836904D01*
X238290476Y-29884523D01*
X238480952Y-29932142D01*
X238623809Y-29932142D01*
X238814285Y-29884523D01*
X238909523Y-29836904D01*
X239004761Y-29741666D01*
X239052380Y-29598809D01*
X239052380Y-29360714D01*
X238147619Y-30313095D02*
X238100000Y-30360714D01*
X238052380Y-30455952D01*
X238052380Y-30694047D01*
X238100000Y-30789285D01*
X238147619Y-30836904D01*
X238242857Y-30884523D01*
X238338095Y-30884523D01*
X238480952Y-30836904D01*
X239052380Y-30265476D01*
X239052380Y-30884523D01*
X239052380Y-31360714D02*
X239052380Y-31551190D01*
X239004761Y-31646428D01*
X238957142Y-31694047D01*
X238814285Y-31789285D01*
X238623809Y-31836904D01*
X238242857Y-31836904D01*
X238147619Y-31789285D01*
X238100000Y-31741666D01*
X238052380Y-31646428D01*
X238052380Y-31455952D01*
X238100000Y-31360714D01*
X238147619Y-31313095D01*
X238242857Y-31265476D01*
X238480952Y-31265476D01*
X238576190Y-31313095D01*
X238623809Y-31360714D01*
X238671428Y-31455952D01*
X238671428Y-31646428D01*
X238623809Y-31741666D01*
X238576190Y-31789285D01*
X238480952Y-31836904D01*
D13*
X15442423Y-17692723D02*
X15442423Y-17526056D01*
X15704328Y-17526056D02*
X15204328Y-17526056D01*
X15204328Y-17764151D01*
X15704328Y-18216532D02*
X15704328Y-17930818D01*
X15704328Y-18073675D02*
X15204328Y-18073675D01*
X15275757Y-18026056D01*
X15323376Y-17978437D01*
X15347185Y-17930818D01*
D10*
X34927380Y-11263095D02*
X33927380Y-11263095D01*
X33927380Y-11501190D01*
X33975000Y-11644047D01*
X34070238Y-11739285D01*
X34165476Y-11786904D01*
X34355952Y-11834523D01*
X34498809Y-11834523D01*
X34689285Y-11786904D01*
X34784523Y-11739285D01*
X34879761Y-11644047D01*
X34927380Y-11501190D01*
X34927380Y-11263095D01*
X39027380Y-10786904D02*
X38027380Y-10786904D01*
X38027380Y-11025000D01*
X38075000Y-11167857D01*
X38170238Y-11263095D01*
X38265476Y-11310714D01*
X38455952Y-11358333D01*
X38598809Y-11358333D01*
X38789285Y-11310714D01*
X38884523Y-11263095D01*
X38979761Y-11167857D01*
X39027380Y-11025000D01*
X39027380Y-10786904D01*
X39027380Y-12310714D02*
X39027380Y-11739285D01*
X39027380Y-12025000D02*
X38027380Y-12025000D01*
X38170238Y-11929761D01*
X38265476Y-11834523D01*
X38313095Y-11739285D01*
D13*
X20466832Y-17180743D02*
X20228737Y-17014077D01*
X20466832Y-16895029D02*
X19966832Y-16895029D01*
X19966832Y-17085505D01*
X19990642Y-17133124D01*
X20014451Y-17156934D01*
X20062070Y-17180743D01*
X20133499Y-17180743D01*
X20181118Y-17156934D01*
X20204927Y-17133124D01*
X20228737Y-17085505D01*
X20228737Y-16895029D01*
X20014451Y-17371219D02*
X19990642Y-17395029D01*
X19966832Y-17442648D01*
X19966832Y-17561696D01*
X19990642Y-17609315D01*
X20014451Y-17633124D01*
X20062070Y-17656934D01*
X20109689Y-17656934D01*
X20181118Y-17633124D01*
X20466832Y-17347410D01*
X20466832Y-17656934D01*
D14*
X172372620Y-91549884D02*
X172396429Y-91573693D01*
X172467858Y-91597503D01*
X172515477Y-91597503D01*
X172586906Y-91573693D01*
X172634525Y-91526074D01*
X172658334Y-91478455D01*
X172682144Y-91383217D01*
X172682144Y-91311789D01*
X172658334Y-91216551D01*
X172634525Y-91168932D01*
X172586906Y-91121313D01*
X172515477Y-91097503D01*
X172467858Y-91097503D01*
X172396429Y-91121313D01*
X172372620Y-91145122D01*
X171896429Y-91597503D02*
X172182144Y-91597503D01*
X172039287Y-91597503D02*
X172039287Y-91097503D01*
X172086906Y-91168932D01*
X172134525Y-91216551D01*
X172182144Y-91240360D01*
X107107858Y-85366727D02*
X107131667Y-85342918D01*
X107155477Y-85271489D01*
X107155477Y-85223870D01*
X107131667Y-85152441D01*
X107084048Y-85104822D01*
X107036429Y-85081013D01*
X106941191Y-85057203D01*
X106869763Y-85057203D01*
X106774525Y-85081013D01*
X106726906Y-85104822D01*
X106679287Y-85152441D01*
X106655477Y-85223870D01*
X106655477Y-85271489D01*
X106679287Y-85342918D01*
X106703096Y-85366727D01*
X106703096Y-85557203D02*
X106679287Y-85581013D01*
X106655477Y-85628632D01*
X106655477Y-85747680D01*
X106679287Y-85795299D01*
X106703096Y-85819108D01*
X106750715Y-85842918D01*
X106798334Y-85842918D01*
X106869763Y-85819108D01*
X107155477Y-85533394D01*
X107155477Y-85842918D01*
D13*
X172372620Y-89216251D02*
X172539287Y-88978156D01*
X172658334Y-89216251D02*
X172658334Y-88716251D01*
X172467858Y-88716251D01*
X172420239Y-88740061D01*
X172396429Y-88763870D01*
X172372620Y-88811489D01*
X172372620Y-88882918D01*
X172396429Y-88930537D01*
X172420239Y-88954346D01*
X172467858Y-88978156D01*
X172658334Y-88978156D01*
X171920239Y-88716251D02*
X172158334Y-88716251D01*
X172182144Y-88954346D01*
X172158334Y-88930537D01*
X172110715Y-88906727D01*
X171991667Y-88906727D01*
X171944048Y-88930537D01*
X171920239Y-88954346D01*
X171896429Y-89001965D01*
X171896429Y-89121013D01*
X171920239Y-89168632D01*
X171944048Y-89192441D01*
X171991667Y-89216251D01*
X172110715Y-89216251D01*
X172158334Y-89192441D01*
X172182144Y-89168632D01*
X22848084Y-13013552D02*
X22609989Y-12846886D01*
X22848084Y-12727838D02*
X22348084Y-12727838D01*
X22348084Y-12918314D01*
X22371894Y-12965933D01*
X22395703Y-12989743D01*
X22443322Y-13013552D01*
X22514751Y-13013552D01*
X22562370Y-12989743D01*
X22586179Y-12965933D01*
X22609989Y-12918314D01*
X22609989Y-12727838D01*
X22514751Y-13442124D02*
X22848084Y-13442124D01*
X22324274Y-13323076D02*
X22681417Y-13204028D01*
X22681417Y-13513552D01*
D10*
X37977380Y-11263095D02*
X36977380Y-11263095D01*
X36977380Y-11501190D01*
X37025000Y-11644047D01*
X37120238Y-11739285D01*
X37215476Y-11786904D01*
X37405952Y-11834523D01*
X37548809Y-11834523D01*
X37739285Y-11786904D01*
X37834523Y-11739285D01*
X37929761Y-11644047D01*
X37977380Y-11501190D01*
X37977380Y-11263095D01*
X42077380Y-10786904D02*
X41077380Y-10786904D01*
X41077380Y-11025000D01*
X41125000Y-11167857D01*
X41220238Y-11263095D01*
X41315476Y-11310714D01*
X41505952Y-11358333D01*
X41648809Y-11358333D01*
X41839285Y-11310714D01*
X41934523Y-11263095D01*
X42029761Y-11167857D01*
X42077380Y-11025000D01*
X42077380Y-10786904D01*
X41172619Y-11739285D02*
X41125000Y-11786904D01*
X41077380Y-11882142D01*
X41077380Y-12120238D01*
X41125000Y-12215476D01*
X41172619Y-12263095D01*
X41267857Y-12310714D01*
X41363095Y-12310714D01*
X41505952Y-12263095D01*
X42077380Y-11691666D01*
X42077380Y-12310714D01*
X52481199Y-82988156D02*
X51481199Y-82988156D01*
X51481199Y-83226251D01*
X51528819Y-83369108D01*
X51624057Y-83464346D01*
X51719295Y-83511965D01*
X51909771Y-83559584D01*
X52052628Y-83559584D01*
X52243104Y-83511965D01*
X52338342Y-83464346D01*
X52433580Y-83369108D01*
X52481199Y-83226251D01*
X52481199Y-82988156D01*
X56581199Y-82035775D02*
X55581199Y-82035775D01*
X55581199Y-82273870D01*
X55628819Y-82416727D01*
X55724057Y-82511965D01*
X55819295Y-82559584D01*
X56009771Y-82607203D01*
X56152628Y-82607203D01*
X56343104Y-82559584D01*
X56438342Y-82511965D01*
X56533580Y-82416727D01*
X56581199Y-82273870D01*
X56581199Y-82035775D01*
X55581199Y-83464346D02*
X55581199Y-83273870D01*
X55628819Y-83178632D01*
X55676438Y-83131013D01*
X55819295Y-83035775D01*
X56009771Y-82988156D01*
X56390723Y-82988156D01*
X56485961Y-83035775D01*
X56533580Y-83083394D01*
X56581199Y-83178632D01*
X56581199Y-83369108D01*
X56533580Y-83464346D01*
X56485961Y-83511965D01*
X56390723Y-83559584D01*
X56152628Y-83559584D01*
X56057390Y-83511965D01*
X56009771Y-83464346D01*
X55962152Y-83369108D01*
X55962152Y-83178632D01*
X56009771Y-83083394D01*
X56057390Y-83035775D01*
X56152628Y-82988156D01*
X56581199Y-84511965D02*
X56581199Y-83940537D01*
X56581199Y-84226251D02*
X55581199Y-84226251D01*
X55724057Y-84131013D01*
X55819295Y-84035775D01*
X55866914Y-83940537D01*
X24240492Y-9053953D02*
X24240492Y-9863477D01*
X24192873Y-9958715D01*
X24145254Y-10006334D01*
X24050016Y-10053953D01*
X23859539Y-10053953D01*
X23764301Y-10006334D01*
X23716682Y-9958715D01*
X23669063Y-9863477D01*
X23669063Y-9053953D01*
X23240492Y-10006334D02*
X23097635Y-10053953D01*
X22859539Y-10053953D01*
X22764301Y-10006334D01*
X22716682Y-9958715D01*
X22669063Y-9863477D01*
X22669063Y-9768239D01*
X22716682Y-9673001D01*
X22764301Y-9625382D01*
X22859539Y-9577763D01*
X23050016Y-9530144D01*
X23145254Y-9482525D01*
X23192873Y-9434906D01*
X23240492Y-9339668D01*
X23240492Y-9244430D01*
X23192873Y-9149192D01*
X23145254Y-9101573D01*
X23050016Y-9053953D01*
X22811920Y-9053953D01*
X22669063Y-9101573D01*
X21907158Y-9530144D02*
X21764301Y-9577763D01*
X21716682Y-9625382D01*
X21669063Y-9720620D01*
X21669063Y-9863477D01*
X21716682Y-9958715D01*
X21764301Y-10006334D01*
X21859539Y-10053953D01*
X22240492Y-10053953D01*
X22240492Y-9053953D01*
X21907158Y-9053953D01*
X21811920Y-9101573D01*
X21764301Y-9149192D01*
X21716682Y-9244430D01*
X21716682Y-9339668D01*
X21764301Y-9434906D01*
X21811920Y-9482525D01*
X21907158Y-9530144D01*
X22240492Y-9530144D01*
X20764301Y-10053953D02*
X21240492Y-10053953D01*
X21240492Y-9053953D01*
X19859539Y-9958715D02*
X19907158Y-10006334D01*
X20050016Y-10053953D01*
X20145254Y-10053953D01*
X20288111Y-10006334D01*
X20383349Y-9911096D01*
X20430968Y-9815858D01*
X20478587Y-9625382D01*
X20478587Y-9482525D01*
X20430968Y-9292049D01*
X20383349Y-9196811D01*
X20288111Y-9101573D01*
X20145254Y-9053953D01*
X20050016Y-9053953D01*
X19907158Y-9101573D01*
X19859539Y-9149192D01*
X19002396Y-9053953D02*
X19192873Y-9053953D01*
X19288111Y-9101573D01*
X19335730Y-9149192D01*
X19430968Y-9292049D01*
X19478587Y-9482525D01*
X19478587Y-9863477D01*
X19430968Y-9958715D01*
X19383349Y-10006334D01*
X19288111Y-10053953D01*
X19097635Y-10053953D01*
X19002396Y-10006334D01*
X18954777Y-9958715D01*
X18907158Y-9863477D01*
X18907158Y-9625382D01*
X18954777Y-9530144D01*
X19002396Y-9482525D01*
X19097635Y-9434906D01*
X19288111Y-9434906D01*
X19383349Y-9482525D01*
X19430968Y-9530144D01*
X19478587Y-9625382D01*
X18478587Y-9673001D02*
X17716682Y-9673001D01*
X17288111Y-9149192D02*
X17240492Y-9101573D01*
X17145254Y-9053953D01*
X16907158Y-9053953D01*
X16811920Y-9101573D01*
X16764301Y-9149192D01*
X16716682Y-9244430D01*
X16716682Y-9339668D01*
X16764301Y-9482525D01*
X17335730Y-10053953D01*
X16716682Y-10053953D01*
X16335730Y-10006334D02*
X16192873Y-10053953D01*
X15954777Y-10053953D01*
X15859539Y-10006334D01*
X15811920Y-9958715D01*
X15764301Y-9863477D01*
X15764301Y-9768239D01*
X15811920Y-9673001D01*
X15859539Y-9625382D01*
X15954777Y-9577763D01*
X16145254Y-9530144D01*
X16240492Y-9482525D01*
X16288111Y-9434906D01*
X16335730Y-9339668D01*
X16335730Y-9244430D01*
X16288111Y-9149192D01*
X16240492Y-9101573D01*
X16145254Y-9053953D01*
X15907158Y-9053953D01*
X15764301Y-9101573D01*
X14764301Y-9958715D02*
X14811920Y-10006334D01*
X14954777Y-10053953D01*
X15050016Y-10053953D01*
X15192873Y-10006334D01*
X15288111Y-9911096D01*
X15335730Y-9815858D01*
X15383349Y-9625382D01*
X15383349Y-9482525D01*
X15335730Y-9292049D01*
X15288111Y-9196811D01*
X15192873Y-9101573D01*
X15050016Y-9053953D01*
X14954777Y-9053953D01*
X14811920Y-9101573D01*
X14764301Y-9149192D01*
X13907158Y-9053953D02*
X14097635Y-9053953D01*
X14192873Y-9101573D01*
X14240492Y-9149192D01*
X14335730Y-9292049D01*
X14383349Y-9482525D01*
X14383349Y-9863477D01*
X14335730Y-9958715D01*
X14288111Y-10006334D01*
X14192873Y-10053953D01*
X14002396Y-10053953D01*
X13907158Y-10006334D01*
X13859539Y-9958715D01*
X13811920Y-9863477D01*
X13811920Y-9625382D01*
X13859539Y-9530144D01*
X13907158Y-9482525D01*
X14002396Y-9434906D01*
X14192873Y-9434906D01*
X14288111Y-9482525D01*
X14335730Y-9530144D01*
X14383349Y-9625382D01*
D13*
X19430968Y-12227763D02*
X19430968Y-12632525D01*
X19407158Y-12680144D01*
X19383349Y-12703953D01*
X19335730Y-12727763D01*
X19240492Y-12727763D01*
X19192873Y-12703953D01*
X19169063Y-12680144D01*
X19145254Y-12632525D01*
X19145254Y-12227763D01*
X18930968Y-12275382D02*
X18907158Y-12251573D01*
X18859539Y-12227763D01*
X18740492Y-12227763D01*
X18692873Y-12251573D01*
X18669063Y-12275382D01*
X18645254Y-12323001D01*
X18645254Y-12370620D01*
X18669063Y-12442049D01*
X18954777Y-12727763D01*
X18645254Y-12727763D01*
D10*
X177451667Y-87636727D02*
X178165953Y-87636727D01*
X178308810Y-87589108D01*
X178404048Y-87493870D01*
X178451667Y-87351013D01*
X178451667Y-87255775D01*
X177546906Y-88065299D02*
X177499287Y-88112918D01*
X177451667Y-88208156D01*
X177451667Y-88446251D01*
X177499287Y-88541489D01*
X177546906Y-88589108D01*
X177642144Y-88636727D01*
X177737382Y-88636727D01*
X177880239Y-88589108D01*
X178451667Y-88017680D01*
X178451667Y-88636727D01*
D13*
X15704328Y-13013552D02*
X15466233Y-12846886D01*
X15704328Y-12727838D02*
X15204328Y-12727838D01*
X15204328Y-12918314D01*
X15228138Y-12965933D01*
X15251947Y-12989743D01*
X15299566Y-13013552D01*
X15370995Y-13013552D01*
X15418614Y-12989743D01*
X15442423Y-12965933D01*
X15466233Y-12918314D01*
X15466233Y-12727838D01*
X15204328Y-13180219D02*
X15204328Y-13489743D01*
X15394804Y-13323076D01*
X15394804Y-13394505D01*
X15418614Y-13442124D01*
X15442423Y-13465933D01*
X15490042Y-13489743D01*
X15609090Y-13489743D01*
X15656709Y-13465933D01*
X15680518Y-13442124D01*
X15704328Y-13394505D01*
X15704328Y-13251647D01*
X15680518Y-13204028D01*
X15656709Y-13180219D01*
D10*
X160949170Y-85820310D02*
X161092027Y-85772691D01*
X161330122Y-85772691D01*
X161425360Y-85820310D01*
X161472979Y-85867929D01*
X161520598Y-85963167D01*
X161520598Y-86058405D01*
X161472979Y-86153643D01*
X161425360Y-86201262D01*
X161330122Y-86248881D01*
X161139646Y-86296500D01*
X161044408Y-86344119D01*
X160996789Y-86391738D01*
X160949170Y-86486976D01*
X160949170Y-86582214D01*
X160996789Y-86677452D01*
X161044408Y-86725072D01*
X161139646Y-86772691D01*
X161377741Y-86772691D01*
X161520598Y-86725072D01*
X161949170Y-86439357D02*
X161949170Y-85439357D01*
X161949170Y-86391738D02*
X162044408Y-86439357D01*
X162234884Y-86439357D01*
X162330122Y-86391738D01*
X162377741Y-86344119D01*
X162425360Y-86248881D01*
X162425360Y-85963167D01*
X162377741Y-85867929D01*
X162330122Y-85820310D01*
X162234884Y-85772691D01*
X162044408Y-85772691D01*
X161949170Y-85820310D01*
X163234884Y-85820310D02*
X163139646Y-85772691D01*
X162949170Y-85772691D01*
X162853932Y-85820310D01*
X162806313Y-85915548D01*
X162806313Y-86296500D01*
X162853932Y-86391738D01*
X162949170Y-86439357D01*
X163139646Y-86439357D01*
X163234884Y-86391738D01*
X163282503Y-86296500D01*
X163282503Y-86201262D01*
X162806313Y-86106024D01*
X164139646Y-85772691D02*
X164139646Y-86296500D01*
X164092027Y-86391738D01*
X163996789Y-86439357D01*
X163806313Y-86439357D01*
X163711075Y-86391738D01*
X164139646Y-85820310D02*
X164044408Y-85772691D01*
X163806313Y-85772691D01*
X163711075Y-85820310D01*
X163663455Y-85915548D01*
X163663455Y-86010786D01*
X163711075Y-86106024D01*
X163806313Y-86153643D01*
X164044408Y-86153643D01*
X164139646Y-86201262D01*
X164615836Y-85772691D02*
X164615836Y-86772691D01*
X164711075Y-86153643D02*
X164996789Y-85772691D01*
X164996789Y-86439357D02*
X164615836Y-86058405D01*
X165806313Y-85820310D02*
X165711075Y-85772691D01*
X165520598Y-85772691D01*
X165425360Y-85820310D01*
X165377741Y-85915548D01*
X165377741Y-86296500D01*
X165425360Y-86391738D01*
X165520598Y-86439357D01*
X165711075Y-86439357D01*
X165806313Y-86391738D01*
X165853932Y-86296500D01*
X165853932Y-86201262D01*
X165377741Y-86106024D01*
X166282503Y-85772691D02*
X166282503Y-86439357D01*
X166282503Y-86248881D02*
X166330122Y-86344119D01*
X166377741Y-86391738D01*
X166472979Y-86439357D01*
X166568217Y-86439357D01*
D14*
X132707858Y-85416727D02*
X132731667Y-85392918D01*
X132755477Y-85321489D01*
X132755477Y-85273870D01*
X132731667Y-85202441D01*
X132684048Y-85154822D01*
X132636429Y-85131013D01*
X132541191Y-85107203D01*
X132469763Y-85107203D01*
X132374525Y-85131013D01*
X132326906Y-85154822D01*
X132279287Y-85202441D01*
X132255477Y-85273870D01*
X132255477Y-85321489D01*
X132279287Y-85392918D01*
X132303096Y-85416727D01*
X132255477Y-85845299D02*
X132255477Y-85750061D01*
X132279287Y-85702441D01*
X132303096Y-85678632D01*
X132374525Y-85631013D01*
X132469763Y-85607203D01*
X132660239Y-85607203D01*
X132707858Y-85631013D01*
X132731667Y-85654822D01*
X132755477Y-85702441D01*
X132755477Y-85797680D01*
X132731667Y-85845299D01*
X132707858Y-85869108D01*
X132660239Y-85892918D01*
X132541191Y-85892918D01*
X132493572Y-85869108D01*
X132469763Y-85845299D01*
X132445953Y-85797680D01*
X132445953Y-85702441D01*
X132469763Y-85654822D01*
X132493572Y-85631013D01*
X132541191Y-85607203D01*
X112812620Y-78878632D02*
X112836429Y-78902441D01*
X112907858Y-78926251D01*
X112955477Y-78926251D01*
X113026906Y-78902441D01*
X113074525Y-78854822D01*
X113098334Y-78807203D01*
X113122144Y-78711965D01*
X113122144Y-78640537D01*
X113098334Y-78545299D01*
X113074525Y-78497680D01*
X113026906Y-78450061D01*
X112955477Y-78426251D01*
X112907858Y-78426251D01*
X112836429Y-78450061D01*
X112812620Y-78473870D01*
X112645953Y-78426251D02*
X112336429Y-78426251D01*
X112503096Y-78616727D01*
X112431667Y-78616727D01*
X112384048Y-78640537D01*
X112360239Y-78664346D01*
X112336429Y-78711965D01*
X112336429Y-78831013D01*
X112360239Y-78878632D01*
X112384048Y-78902441D01*
X112431667Y-78926251D01*
X112574525Y-78926251D01*
X112622144Y-78902441D01*
X112645953Y-78878632D01*
D10*
X42150653Y-17716215D02*
X42864939Y-17716215D01*
X43007796Y-17668596D01*
X43103034Y-17573358D01*
X43150653Y-17430501D01*
X43150653Y-17335263D01*
X42150653Y-18097168D02*
X42150653Y-18716215D01*
X42531606Y-18382882D01*
X42531606Y-18525739D01*
X42579225Y-18620977D01*
X42626844Y-18668596D01*
X42722082Y-18716215D01*
X42960177Y-18716215D01*
X43055415Y-18668596D01*
X43103034Y-18620977D01*
X43150653Y-18525739D01*
X43150653Y-18240025D01*
X43103034Y-18144787D01*
X43055415Y-18097168D01*
X247527357Y-11263156D02*
X246527357Y-11263156D01*
X246527357Y-11501251D01*
X246574977Y-11644108D01*
X246670215Y-11739346D01*
X246765453Y-11786965D01*
X246955929Y-11834584D01*
X247098786Y-11834584D01*
X247289262Y-11786965D01*
X247384500Y-11739346D01*
X247479738Y-11644108D01*
X247527357Y-11501251D01*
X247527357Y-11263156D01*
X251627357Y-10310775D02*
X250627357Y-10310775D01*
X250627357Y-10548870D01*
X250674977Y-10691727D01*
X250770215Y-10786965D01*
X250865453Y-10834584D01*
X251055929Y-10882203D01*
X251198786Y-10882203D01*
X251389262Y-10834584D01*
X251484500Y-10786965D01*
X251579738Y-10691727D01*
X251627357Y-10548870D01*
X251627357Y-10310775D01*
X251627357Y-11834584D02*
X251627357Y-11263156D01*
X251627357Y-11548870D02*
X250627357Y-11548870D01*
X250770215Y-11453632D01*
X250865453Y-11358394D01*
X250913072Y-11263156D01*
X250960691Y-12691727D02*
X251627357Y-12691727D01*
X250579738Y-12453632D02*
X251294024Y-12215537D01*
X251294024Y-12834584D01*
D15*
X240832417Y-82675561D02*
X239032417Y-82675561D01*
X239032417Y-85475561D02*
X240832417Y-85475561D01*
X239932417Y-84425561D02*
X239382417Y-84425561D01*
X239932417Y-84825561D02*
X239932417Y-84425561D01*
X240832417Y-85475561D02*
X240832417Y-82675561D01*
X239932417Y-84425561D02*
X240482417Y-84425561D01*
X239932417Y-83825561D02*
X239932417Y-83325561D01*
X240332417Y-83825561D02*
X239532417Y-83825561D01*
X239032417Y-82675561D02*
X239032417Y-85475561D01*
X239532417Y-83825561D02*
X239932417Y-84425561D01*
X239932417Y-84425561D02*
X240332417Y-83825561D01*
X215198619Y-85475561D02*
X216998619Y-85475561D01*
X216098619Y-84425561D02*
X216498619Y-83825561D01*
X215198619Y-82675561D02*
X215198619Y-85475561D01*
X216098619Y-84825561D02*
X216098619Y-84425561D01*
X216498619Y-83825561D02*
X215698619Y-83825561D01*
X216998619Y-82675561D02*
X215198619Y-82675561D01*
X216098619Y-84425561D02*
X216648619Y-84425561D01*
X216998619Y-85475561D02*
X216998619Y-82675561D01*
X216098619Y-83825561D02*
X216098619Y-83325561D01*
X216098619Y-84425561D02*
X215548619Y-84425561D01*
X215698619Y-83825561D02*
X216098619Y-84425561D01*
X149714189Y-82675561D02*
X149714189Y-85475561D01*
X150614189Y-84425561D02*
X150064189Y-84425561D01*
X151514189Y-85475561D02*
X151514189Y-82675561D01*
X150214189Y-83825561D02*
X150614189Y-84425561D01*
X150614189Y-84825561D02*
X150614189Y-84425561D01*
X150614189Y-83825561D02*
X150614189Y-83325561D01*
X151014189Y-83825561D02*
X150214189Y-83825561D01*
X151514189Y-82675561D02*
X149714189Y-82675561D01*
X150614189Y-84425561D02*
X151014189Y-83825561D01*
X150614189Y-84425561D02*
X151164189Y-84425561D01*
X149714189Y-85475561D02*
X151514189Y-85475561D01*
X69679287Y-84825561D02*
X69679287Y-84425561D01*
X69679287Y-84425561D02*
X70079287Y-83825561D01*
X69679287Y-84425561D02*
X70229287Y-84425561D01*
X70579287Y-85475561D02*
X70579287Y-82675561D01*
X68779287Y-82675561D02*
X68779287Y-85475561D01*
X70079287Y-83825561D02*
X69279287Y-83825561D01*
X69679287Y-84425561D02*
X69129287Y-84425561D01*
X69679287Y-83825561D02*
X69679287Y-83325561D01*
X69279287Y-83825561D02*
X69679287Y-84425561D01*
X68779287Y-85475561D02*
X70579287Y-85475561D01*
X70579287Y-82675561D02*
X68779287Y-82675561D01*
X268625000Y-68425000D02*
X267825000Y-68425000D01*
X267325000Y-70075000D02*
X269125000Y-70075000D01*
X269125000Y-67275000D02*
X267325000Y-67275000D01*
X268225000Y-69025000D02*
X267675000Y-69025000D01*
X268225000Y-68425000D02*
X268225000Y-67925000D01*
X268225000Y-69425000D02*
X268225000Y-69025000D01*
X268225000Y-69025000D02*
X268625000Y-68425000D01*
X267825000Y-68425000D02*
X268225000Y-69025000D01*
X269125000Y-70075000D02*
X269125000Y-67275000D01*
X267325000Y-67275000D02*
X267325000Y-70075000D01*
X268225000Y-69025000D02*
X268775000Y-69025000D01*
X242031460Y-69025056D02*
X241481460Y-69025056D01*
X241631460Y-68425056D02*
X242031460Y-69025056D01*
X242031460Y-68425056D02*
X242031460Y-67925056D01*
X242931460Y-67275056D02*
X241131460Y-67275056D01*
X242031460Y-69025056D02*
X242431460Y-68425056D01*
X242431460Y-68425056D02*
X241631460Y-68425056D01*
X242931460Y-70075056D02*
X242931460Y-67275056D01*
X241131460Y-67275056D02*
X241131460Y-70075056D01*
X242031460Y-69025056D02*
X242581460Y-69025056D01*
X241131460Y-70075056D02*
X242931460Y-70075056D01*
X242031460Y-69425056D02*
X242031460Y-69025056D01*
X216737500Y-67275000D02*
X214937500Y-67275000D01*
X216737500Y-70075000D02*
X216737500Y-67275000D01*
X215837500Y-69025000D02*
X216387500Y-69025000D01*
X215437500Y-68425000D02*
X215837500Y-69025000D01*
X215837500Y-68425000D02*
X215837500Y-67925000D01*
X215837500Y-69425000D02*
X215837500Y-69025000D01*
X214937500Y-70075000D02*
X216737500Y-70075000D01*
X216237500Y-68425000D02*
X215437500Y-68425000D01*
X215837500Y-69025000D02*
X215287500Y-69025000D01*
X215837500Y-69025000D02*
X216237500Y-68425000D01*
X214937500Y-67275000D02*
X214937500Y-70075000D01*
X196787500Y-69025000D02*
X197337500Y-69025000D01*
X196387500Y-68425000D02*
X196787500Y-69025000D01*
X197687500Y-67275000D02*
X195887500Y-67275000D01*
X196787500Y-69025000D02*
X196237500Y-69025000D01*
X196787500Y-69425000D02*
X196787500Y-69025000D01*
X197187500Y-68425000D02*
X196387500Y-68425000D01*
X196787500Y-69025000D02*
X197187500Y-68425000D01*
X196787500Y-68425000D02*
X196787500Y-67925000D01*
X197687500Y-70075000D02*
X197687500Y-67275000D01*
X195887500Y-70075000D02*
X197687500Y-70075000D01*
X195887500Y-67275000D02*
X195887500Y-70075000D01*
X139637500Y-69025000D02*
X140037500Y-68425000D01*
X139637500Y-69025000D02*
X139087500Y-69025000D01*
X138737500Y-70075000D02*
X140537500Y-70075000D01*
X139637500Y-68425000D02*
X139637500Y-67925000D01*
X140537500Y-67275000D02*
X138737500Y-67275000D01*
X139637500Y-69425000D02*
X139637500Y-69025000D01*
X138737500Y-67275000D02*
X138737500Y-70075000D01*
X139237500Y-68425000D02*
X139637500Y-69025000D01*
X140037500Y-68425000D02*
X139237500Y-68425000D01*
X139637500Y-69025000D02*
X140187500Y-69025000D01*
X140537500Y-70075000D02*
X140537500Y-67275000D01*
X101537500Y-69025000D02*
X102087500Y-69025000D01*
X101537500Y-68425000D02*
X101537500Y-67925000D01*
X100637500Y-67275000D02*
X100637500Y-70075000D01*
X101137500Y-68425000D02*
X101537500Y-69025000D01*
X102437500Y-67275000D02*
X100637500Y-67275000D01*
X100637500Y-70075000D02*
X102437500Y-70075000D01*
X101537500Y-69025000D02*
X100987500Y-69025000D01*
X101937500Y-68425000D02*
X101137500Y-68425000D01*
X101537500Y-69425000D02*
X101537500Y-69025000D01*
X101537500Y-69025000D02*
X101937500Y-68425000D01*
X102437500Y-70075000D02*
X102437500Y-67275000D01*
X82487500Y-69025000D02*
X83037500Y-69025000D01*
X82487500Y-69025000D02*
X82887500Y-68425000D01*
X82487500Y-69025000D02*
X81937500Y-69025000D01*
X82087500Y-68425000D02*
X82487500Y-69025000D01*
X82487500Y-69425000D02*
X82487500Y-69025000D01*
X82887500Y-68425000D02*
X82087500Y-68425000D01*
X83387500Y-70075000D02*
X83387500Y-67275000D01*
X82487500Y-68425000D02*
X82487500Y-67925000D01*
X81587500Y-67275000D02*
X81587500Y-70075000D01*
X83387500Y-67275000D02*
X81587500Y-67275000D01*
X81587500Y-70075000D02*
X83387500Y-70075000D01*
X220600000Y-31325000D02*
X220600000Y-30925000D01*
X220600000Y-30925000D02*
X221000000Y-30325000D01*
X221000000Y-30325000D02*
X220200000Y-30325000D01*
X219700000Y-31975000D02*
X221500000Y-31975000D01*
X221500000Y-29175000D02*
X219700000Y-29175000D01*
X220200000Y-30325000D02*
X220600000Y-30925000D01*
X221500000Y-31975000D02*
X221500000Y-29175000D01*
X220600000Y-30925000D02*
X220050000Y-30925000D01*
X219700000Y-29175000D02*
X219700000Y-31975000D01*
X220600000Y-30325000D02*
X220600000Y-29825000D01*
X220600000Y-30925000D02*
X221150000Y-30925000D01*
X224462500Y-51025000D02*
X226262500Y-51025000D01*
X225362500Y-49375000D02*
X225362500Y-48875000D01*
X225362500Y-49975000D02*
X224812500Y-49975000D01*
X225762500Y-49375000D02*
X224962500Y-49375000D01*
X225362500Y-50375000D02*
X225362500Y-49975000D01*
X226262500Y-51025000D02*
X226262500Y-48225000D01*
X224962500Y-49375000D02*
X225362500Y-49975000D01*
X226262500Y-48225000D02*
X224462500Y-48225000D01*
X224462500Y-48225000D02*
X224462500Y-51025000D01*
X225362500Y-49975000D02*
X225912500Y-49975000D01*
X225362500Y-49975000D02*
X225762500Y-49375000D01*
X50050000Y-29175000D02*
X48250000Y-29175000D01*
X49150000Y-30925000D02*
X49700000Y-30925000D01*
X50050000Y-31975000D02*
X50050000Y-29175000D01*
X49150000Y-31325000D02*
X49150000Y-30925000D01*
X49150000Y-30925000D02*
X49550000Y-30325000D01*
X48250000Y-29175000D02*
X48250000Y-31975000D01*
X49150000Y-30925000D02*
X48600000Y-30925000D01*
X49550000Y-30325000D02*
X48750000Y-30325000D01*
X49150000Y-30325000D02*
X49150000Y-29825000D01*
X48250000Y-31975000D02*
X50050000Y-31975000D01*
X48750000Y-30325000D02*
X49150000Y-30925000D01*
X182900000Y-30325000D02*
X182100000Y-30325000D01*
X182100000Y-30325000D02*
X182500000Y-30925000D01*
X182500000Y-30925000D02*
X181950000Y-30925000D01*
X181600000Y-29175000D02*
X181600000Y-31975000D01*
X183400000Y-31975000D02*
X183400000Y-29175000D01*
X182500000Y-30925000D02*
X182900000Y-30325000D01*
X181600000Y-31975000D02*
X183400000Y-31975000D01*
X182500000Y-30325000D02*
X182500000Y-29825000D01*
X182500000Y-31325000D02*
X182500000Y-30925000D01*
X182500000Y-30925000D02*
X183050000Y-30925000D01*
X183400000Y-29175000D02*
X181600000Y-29175000D01*
X205912500Y-49375000D02*
X206312500Y-49975000D01*
X207212500Y-51025000D02*
X207212500Y-48225000D01*
X206312500Y-49375000D02*
X206312500Y-48875000D01*
X205412500Y-48225000D02*
X205412500Y-51025000D01*
X206312500Y-50375000D02*
X206312500Y-49975000D01*
X206312500Y-49975000D02*
X206862500Y-49975000D01*
X206312500Y-49975000D02*
X206712500Y-49375000D01*
X205412500Y-51025000D02*
X207212500Y-51025000D01*
X206712500Y-49375000D02*
X205912500Y-49375000D01*
X207212500Y-48225000D02*
X205412500Y-48225000D01*
X206312500Y-49975000D02*
X205762500Y-49975000D01*
X111462500Y-49375000D02*
X110662500Y-49375000D01*
X111062500Y-49375000D02*
X111062500Y-48875000D01*
X111962500Y-51025000D02*
X111962500Y-48225000D01*
X111062500Y-49975000D02*
X111462500Y-49375000D01*
X110662500Y-49375000D02*
X111062500Y-49975000D01*
X110162500Y-48225000D02*
X110162500Y-51025000D01*
X111062500Y-49975000D02*
X110512500Y-49975000D01*
X110162500Y-51025000D02*
X111962500Y-51025000D01*
X111962500Y-48225000D02*
X110162500Y-48225000D01*
X111062500Y-49975000D02*
X111612500Y-49975000D01*
X111062500Y-50375000D02*
X111062500Y-49975000D01*
X53912500Y-49975000D02*
X54462500Y-49975000D01*
X53912500Y-50375000D02*
X53912500Y-49975000D01*
X53912500Y-49375000D02*
X53912500Y-48875000D01*
X53512500Y-49375000D02*
X53912500Y-49975000D01*
X53012500Y-48225000D02*
X53012500Y-51025000D01*
X53912500Y-49975000D02*
X54312500Y-49375000D01*
X53912500Y-49975000D02*
X53362500Y-49975000D01*
X54812500Y-48225000D02*
X53012500Y-48225000D01*
X54312500Y-49375000D02*
X53512500Y-49375000D01*
X53012500Y-51025000D02*
X54812500Y-51025000D01*
X54812500Y-51025000D02*
X54812500Y-48225000D01*
X187662500Y-49375000D02*
X186862500Y-49375000D01*
X188162500Y-48225000D02*
X186362500Y-48225000D01*
X188162500Y-51025000D02*
X188162500Y-48225000D01*
X187262500Y-50375000D02*
X187262500Y-49975000D01*
X186862500Y-49375000D02*
X187262500Y-49975000D01*
X186362500Y-51025000D02*
X188162500Y-51025000D01*
X187262500Y-49975000D02*
X186712500Y-49975000D01*
X187262500Y-49975000D02*
X187662500Y-49375000D01*
X187262500Y-49975000D02*
X187812500Y-49975000D01*
X186362500Y-48225000D02*
X186362500Y-51025000D01*
X187262500Y-49375000D02*
X187262500Y-48875000D01*
X146112500Y-49975000D02*
X145562500Y-49975000D01*
X145212500Y-51025000D02*
X147012500Y-51025000D01*
X145212500Y-48225000D02*
X145212500Y-51025000D01*
X146112500Y-50375000D02*
X146112500Y-49975000D01*
X147012500Y-48225000D02*
X145212500Y-48225000D01*
X145712500Y-49375000D02*
X146112500Y-49975000D01*
X146512500Y-49375000D02*
X145712500Y-49375000D01*
X146112500Y-49975000D02*
X146662500Y-49975000D01*
X146112500Y-49975000D02*
X146512500Y-49375000D01*
X146112500Y-49375000D02*
X146112500Y-48875000D01*
X147012500Y-51025000D02*
X147012500Y-48225000D01*
X50862500Y-49975000D02*
X51412500Y-49975000D01*
X50462500Y-49375000D02*
X50862500Y-49975000D01*
X51762500Y-48225000D02*
X49962500Y-48225000D01*
X50862500Y-49375000D02*
X50862500Y-48875000D01*
X51762500Y-51025000D02*
X51762500Y-48225000D01*
X51262500Y-49375000D02*
X50462500Y-49375000D01*
X50862500Y-49975000D02*
X51262500Y-49375000D01*
X49962500Y-51025000D02*
X51762500Y-51025000D01*
X49962500Y-48225000D02*
X49962500Y-51025000D01*
X50862500Y-50375000D02*
X50862500Y-49975000D01*
X50862500Y-49975000D02*
X50312500Y-49975000D01*
X72062500Y-48225000D02*
X72062500Y-51025000D01*
X72062500Y-51025000D02*
X73862500Y-51025000D01*
X72962500Y-49975000D02*
X73362500Y-49375000D01*
X73862500Y-51025000D02*
X73862500Y-48225000D01*
X73862500Y-48225000D02*
X72062500Y-48225000D01*
X73362500Y-49375000D02*
X72562500Y-49375000D01*
X72962500Y-49975000D02*
X72412500Y-49975000D01*
X72962500Y-49375000D02*
X72962500Y-48875000D01*
X72562500Y-49375000D02*
X72962500Y-49975000D01*
X72962500Y-50375000D02*
X72962500Y-49975000D01*
X72962500Y-49975000D02*
X73512500Y-49975000D01*
X107200000Y-31975000D02*
X107200000Y-29175000D01*
X106700000Y-30325000D02*
X105900000Y-30325000D01*
X105400000Y-31975000D02*
X107200000Y-31975000D01*
X106300000Y-30325000D02*
X106300000Y-29825000D01*
X106300000Y-30925000D02*
X105750000Y-30925000D01*
X106300000Y-31325000D02*
X106300000Y-30925000D01*
X105900000Y-30325000D02*
X106300000Y-30925000D01*
X105400000Y-29175000D02*
X105400000Y-31975000D01*
X107200000Y-29175000D02*
X105400000Y-29175000D01*
X106300000Y-30925000D02*
X106700000Y-30325000D01*
X106300000Y-30925000D02*
X106850000Y-30925000D01*
X200650000Y-31975000D02*
X202450000Y-31975000D01*
X201550000Y-31325000D02*
X201550000Y-30925000D01*
X200650000Y-29175000D02*
X200650000Y-31975000D01*
X202450000Y-29175000D02*
X200650000Y-29175000D01*
X201550000Y-30325000D02*
X201550000Y-29825000D01*
X201550000Y-30925000D02*
X201000000Y-30925000D01*
X201150000Y-30325000D02*
X201550000Y-30925000D01*
X201550000Y-30925000D02*
X202100000Y-30925000D01*
X201950000Y-30325000D02*
X201150000Y-30325000D01*
X201550000Y-30925000D02*
X201950000Y-30325000D01*
X202450000Y-31975000D02*
X202450000Y-29175000D01*
X124450000Y-31975000D02*
X126250000Y-31975000D01*
X125350000Y-30925000D02*
X125900000Y-30925000D01*
X126250000Y-31975000D02*
X126250000Y-29175000D01*
X124950000Y-30325000D02*
X125350000Y-30925000D01*
X125350000Y-30925000D02*
X124800000Y-30925000D01*
X125750000Y-30325000D02*
X124950000Y-30325000D01*
X126250000Y-29175000D02*
X124450000Y-29175000D01*
X125350000Y-30325000D02*
X125350000Y-29825000D01*
X125350000Y-31325000D02*
X125350000Y-30925000D01*
X125350000Y-30925000D02*
X125750000Y-30325000D01*
X124450000Y-29175000D02*
X124450000Y-31975000D01*
X164350000Y-29175000D02*
X162550000Y-29175000D01*
X162550000Y-29175000D02*
X162550000Y-31975000D01*
X163450000Y-30325000D02*
X163450000Y-29825000D01*
X163450000Y-30925000D02*
X164000000Y-30925000D01*
X163450000Y-30925000D02*
X162900000Y-30925000D01*
X163450000Y-30925000D02*
X163850000Y-30325000D01*
X163850000Y-30325000D02*
X163050000Y-30325000D01*
X164350000Y-31975000D02*
X164350000Y-29175000D01*
X163450000Y-31325000D02*
X163450000Y-30925000D01*
X163050000Y-30325000D02*
X163450000Y-30925000D01*
X162550000Y-31975000D02*
X164350000Y-31975000D01*
X150062500Y-51025000D02*
X150062500Y-48225000D01*
X149162500Y-49375000D02*
X149162500Y-48875000D01*
X148762500Y-49375000D02*
X149162500Y-49975000D01*
X149162500Y-49975000D02*
X149562500Y-49375000D01*
X150062500Y-48225000D02*
X148262500Y-48225000D01*
X149162500Y-49975000D02*
X148612500Y-49975000D01*
X149162500Y-49975000D02*
X149712500Y-49975000D01*
X149162500Y-50375000D02*
X149162500Y-49975000D01*
X149562500Y-49375000D02*
X148762500Y-49375000D01*
X148262500Y-51025000D02*
X150062500Y-51025000D01*
X148262500Y-48225000D02*
X148262500Y-51025000D01*
X91612500Y-49375000D02*
X92012500Y-49975000D01*
X92012500Y-49975000D02*
X92412500Y-49375000D01*
X92912500Y-51025000D02*
X92912500Y-48225000D01*
X92412500Y-49375000D02*
X91612500Y-49375000D01*
X92912500Y-48225000D02*
X91112500Y-48225000D01*
X92012500Y-49375000D02*
X92012500Y-48875000D01*
X92012500Y-50375000D02*
X92012500Y-49975000D01*
X92012500Y-49975000D02*
X91462500Y-49975000D01*
X91112500Y-48225000D02*
X91112500Y-51025000D01*
X91112500Y-51025000D02*
X92912500Y-51025000D01*
X92012500Y-49975000D02*
X92562500Y-49975000D01*
X60387500Y-69425000D02*
X60387500Y-69025000D01*
X60387500Y-69025000D02*
X59837500Y-69025000D01*
X60787500Y-68425000D02*
X59987500Y-68425000D01*
X60387500Y-68425000D02*
X60387500Y-67925000D01*
X59487500Y-67275000D02*
X59487500Y-70075000D01*
X59487500Y-70075000D02*
X61287500Y-70075000D01*
X61287500Y-67275000D02*
X59487500Y-67275000D01*
X60387500Y-69025000D02*
X60937500Y-69025000D01*
X60387500Y-69025000D02*
X60787500Y-68425000D01*
X59987500Y-68425000D02*
X60387500Y-69025000D01*
X61287500Y-70075000D02*
X61287500Y-67275000D01*
X158687500Y-69025000D02*
X159087500Y-68425000D01*
X158687500Y-68425000D02*
X158687500Y-67925000D01*
X159087500Y-68425000D02*
X158287500Y-68425000D01*
X157787500Y-70075000D02*
X159587500Y-70075000D01*
X158687500Y-69425000D02*
X158687500Y-69025000D01*
X159587500Y-70075000D02*
X159587500Y-67275000D01*
X157787500Y-67275000D02*
X157787500Y-70075000D01*
X159587500Y-67275000D02*
X157787500Y-67275000D01*
X158687500Y-69025000D02*
X159237500Y-69025000D01*
X158287500Y-68425000D02*
X158687500Y-69025000D01*
X158687500Y-69025000D02*
X158137500Y-69025000D01*
X272718700Y-49375000D02*
X271918700Y-49375000D01*
X272318700Y-49975000D02*
X272868700Y-49975000D01*
X272318700Y-49975000D02*
X271768700Y-49975000D01*
X271418700Y-48225000D02*
X271418700Y-51025000D01*
X271918700Y-49375000D02*
X272318700Y-49975000D01*
X272318700Y-49975000D02*
X272718700Y-49375000D01*
X271418700Y-51025000D02*
X273218700Y-51025000D01*
X272318700Y-50375000D02*
X272318700Y-49975000D01*
X273218700Y-51025000D02*
X273218700Y-48225000D01*
X272318700Y-49375000D02*
X272318700Y-48875000D01*
X273218700Y-48225000D02*
X271418700Y-48225000D01*
X45904299Y-83000061D02*
X45904299Y-82500061D01*
X45004299Y-84650061D02*
X46804299Y-84650061D01*
X45904299Y-83600061D02*
X45354299Y-83600061D01*
X46804299Y-81850061D02*
X45004299Y-81850061D01*
X46804299Y-84650061D02*
X46804299Y-81850061D01*
X45904299Y-84000061D02*
X45904299Y-83600061D01*
X45904299Y-83600061D02*
X46304299Y-83000061D01*
X45504299Y-83000061D02*
X45904299Y-83600061D01*
X45904299Y-83600061D02*
X46454299Y-83600061D01*
X46304299Y-83000061D02*
X45504299Y-83000061D01*
X45004299Y-81850061D02*
X45004299Y-84650061D01*
X169112500Y-51025000D02*
X169112500Y-48225000D01*
X168212500Y-49975000D02*
X168762500Y-49975000D01*
X169112500Y-48225000D02*
X167312500Y-48225000D01*
X167312500Y-48225000D02*
X167312500Y-51025000D01*
X167812500Y-49375000D02*
X168212500Y-49975000D01*
X168212500Y-49975000D02*
X168612500Y-49375000D01*
X168612500Y-49375000D02*
X167812500Y-49375000D01*
X168212500Y-49975000D02*
X167662500Y-49975000D01*
X167312500Y-51025000D02*
X169112500Y-51025000D01*
X168212500Y-50375000D02*
X168212500Y-49975000D01*
X168212500Y-49375000D02*
X168212500Y-48875000D01*
X87250000Y-30925000D02*
X87800000Y-30925000D01*
X86350000Y-31975000D02*
X88150000Y-31975000D01*
X88150000Y-31975000D02*
X88150000Y-29175000D01*
X86850000Y-30325000D02*
X87250000Y-30925000D01*
X88150000Y-29175000D02*
X86350000Y-29175000D01*
X87250000Y-31325000D02*
X87250000Y-30925000D01*
X87650000Y-30325000D02*
X86850000Y-30325000D01*
X87250000Y-30325000D02*
X87250000Y-29825000D01*
X87250000Y-30925000D02*
X87650000Y-30325000D01*
X86350000Y-29175000D02*
X86350000Y-31975000D01*
X87250000Y-30925000D02*
X86700000Y-30925000D01*
X239250000Y-30325000D02*
X239650000Y-30925000D01*
X240550000Y-31975000D02*
X240550000Y-29175000D01*
X238750000Y-29175000D02*
X238750000Y-31975000D01*
X239650000Y-30925000D02*
X239100000Y-30925000D01*
X238750000Y-31975000D02*
X240550000Y-31975000D01*
X239650000Y-30325000D02*
X239650000Y-29825000D01*
X239650000Y-31325000D02*
X239650000Y-30925000D01*
X240050000Y-30325000D02*
X239250000Y-30325000D01*
X239650000Y-30925000D02*
X240200000Y-30925000D01*
X240550000Y-29175000D02*
X238750000Y-29175000D01*
X239650000Y-30925000D02*
X240050000Y-30325000D01*
X70812500Y-48225000D02*
X69012500Y-48225000D01*
X69512500Y-49375000D02*
X69912500Y-49975000D01*
X70812500Y-51025000D02*
X70812500Y-48225000D01*
X69912500Y-49375000D02*
X69912500Y-48875000D01*
X69012500Y-48225000D02*
X69012500Y-51025000D01*
X69912500Y-49975000D02*
X70462500Y-49975000D01*
X69912500Y-50375000D02*
X69912500Y-49975000D01*
X69012500Y-51025000D02*
X70812500Y-51025000D01*
X70312500Y-49375000D02*
X69512500Y-49375000D01*
X69912500Y-49975000D02*
X69362500Y-49975000D01*
X69912500Y-49975000D02*
X70312500Y-49375000D01*
X144400000Y-30925000D02*
X143850000Y-30925000D01*
X145300000Y-31975000D02*
X145300000Y-29175000D01*
X143500000Y-31975000D02*
X145300000Y-31975000D01*
X144400000Y-31325000D02*
X144400000Y-30925000D01*
X144400000Y-30925000D02*
X144950000Y-30925000D01*
X143500000Y-29175000D02*
X143500000Y-31975000D01*
X144400000Y-30925000D02*
X144800000Y-30325000D01*
X145300000Y-29175000D02*
X143500000Y-29175000D01*
X144000000Y-30325000D02*
X144400000Y-30925000D01*
X144800000Y-30325000D02*
X144000000Y-30325000D01*
X144400000Y-30325000D02*
X144400000Y-29825000D01*
X178637500Y-67275000D02*
X176837500Y-67275000D01*
X177737500Y-69425000D02*
X177737500Y-69025000D01*
X177737500Y-68425000D02*
X177737500Y-67925000D01*
X177737500Y-69025000D02*
X178287500Y-69025000D01*
X178137500Y-68425000D02*
X177337500Y-68425000D01*
X177737500Y-69025000D02*
X178137500Y-68425000D01*
X178637500Y-70075000D02*
X178637500Y-67275000D01*
X176837500Y-70075000D02*
X178637500Y-70075000D01*
X177737500Y-69025000D02*
X177187500Y-69025000D01*
X176837500Y-67275000D02*
X176837500Y-70075000D01*
X177337500Y-68425000D02*
X177737500Y-69025000D01*
X120587500Y-68425000D02*
X120587500Y-67925000D01*
X119687500Y-67275000D02*
X119687500Y-70075000D01*
X119687500Y-70075000D02*
X121487500Y-70075000D01*
X120587500Y-69425000D02*
X120587500Y-69025000D01*
X120587500Y-69025000D02*
X120037500Y-69025000D01*
X120987500Y-68425000D02*
X120187500Y-68425000D01*
X121487500Y-67275000D02*
X119687500Y-67275000D01*
X121487500Y-70075000D02*
X121487500Y-67275000D01*
X120587500Y-69025000D02*
X121137500Y-69025000D01*
X120187500Y-68425000D02*
X120587500Y-69025000D01*
X120587500Y-69025000D02*
X120987500Y-68425000D01*
X68200000Y-30925000D02*
X68750000Y-30925000D01*
X67300000Y-31975000D02*
X69100000Y-31975000D01*
X68200000Y-30925000D02*
X68600000Y-30325000D01*
X68200000Y-30325000D02*
X68200000Y-29825000D01*
X68600000Y-30325000D02*
X67800000Y-30325000D01*
X67300000Y-29175000D02*
X67300000Y-31975000D01*
X69100000Y-31975000D02*
X69100000Y-29175000D01*
X68200000Y-31325000D02*
X68200000Y-30925000D01*
X68200000Y-30925000D02*
X67650000Y-30925000D01*
X69100000Y-29175000D02*
X67300000Y-29175000D01*
X67800000Y-30325000D02*
X68200000Y-30925000D01*
D10*
X119717085Y-78411257D02*
X112646017Y-85482325D01*
X112646017Y-85482325D02*
X119717085Y-92553393D01*
X126081046Y-86189432D02*
X126081046Y-84775218D01*
X119717085Y-92553393D02*
X126081046Y-86189432D01*
X126081046Y-84775218D02*
X119717085Y-78411257D01*
D15*
X108029287Y-90800061D02*
X108029287Y-92400061D01*
X108029287Y-92400061D02*
X104529287Y-92400061D01*
X105029287Y-90800061D02*
X104529287Y-91300061D01*
X105029287Y-90800061D02*
X108029287Y-90800061D01*
X104529287Y-91300061D02*
X104529287Y-92400061D01*
X206829287Y-88400061D02*
X205429287Y-89800061D01*
X203229287Y-89200061D02*
X205229287Y-89200061D01*
X206229287Y-86200061D02*
X205229287Y-85200061D01*
X206929287Y-85100061D02*
X206929287Y-85600061D01*
X201029287Y-89300061D02*
X201029287Y-88800061D01*
X201029287Y-88800061D02*
X202029287Y-88800061D01*
X205229287Y-89200061D02*
X206229287Y-88200061D01*
X202229287Y-86200061D02*
X202229287Y-88200061D01*
X207429287Y-88800061D02*
X206429287Y-88800061D01*
X205929287Y-89300061D02*
X207429287Y-89300061D01*
X205429287Y-89800061D02*
X203029287Y-89800061D01*
X207429287Y-85600061D02*
X206429287Y-85600061D01*
X205929287Y-85100061D02*
X207429287Y-85100061D01*
X202529287Y-89300061D02*
X201029287Y-89300061D01*
X201529287Y-89300061D02*
X201529287Y-88800061D01*
X203029287Y-89800061D02*
X201629287Y-88400061D01*
X205429287Y-84600061D02*
X206829287Y-86000061D01*
X201029287Y-85600061D02*
X202029287Y-85600061D01*
X203029287Y-84600061D02*
X205429287Y-84600061D01*
X202529287Y-85100061D02*
X201029287Y-85100061D01*
X206929287Y-89300061D02*
X206929287Y-88800061D01*
X203229287Y-85200061D02*
X202229287Y-86200061D01*
X205229287Y-85200061D02*
X203229287Y-85200061D01*
X207429287Y-89300061D02*
X207429287Y-88800061D01*
X206229287Y-88200061D02*
X206229287Y-86200061D01*
X202229287Y-88200061D02*
X203229287Y-89200061D01*
X201629287Y-88400061D02*
X201629287Y-86000061D01*
X206829287Y-86000061D02*
X206829287Y-88400061D01*
X201029287Y-85100061D02*
X201029287Y-85600061D01*
X201629287Y-86000061D02*
X203029287Y-84600061D01*
X207429287Y-85100061D02*
X207429287Y-85600061D01*
X201529287Y-85100061D02*
X201529287Y-85600061D01*
X205229287Y-87200061D02*
G75*
G03*
X205229287Y-87200061I-1000000J0D01*
G01*
X106579287Y-79320061D02*
X108579287Y-79320061D01*
X108579287Y-79320061D02*
X108579287Y-78080061D01*
X108579287Y-78080061D02*
X106579287Y-78080061D01*
X106579287Y-78080061D02*
X106579287Y-79320061D01*
X172975000Y-11875000D02*
X173375000Y-11275000D01*
X172075000Y-12925000D02*
X173875000Y-12925000D01*
X173875000Y-10125000D02*
X172075000Y-10125000D01*
X172975000Y-11875000D02*
X173525000Y-11875000D01*
X172975000Y-11875000D02*
X172425000Y-11875000D01*
X172975000Y-12275000D02*
X172975000Y-11875000D01*
X173875000Y-12925000D02*
X173875000Y-10125000D01*
X172575000Y-11275000D02*
X172975000Y-11875000D01*
X172975000Y-11275000D02*
X172975000Y-10775000D01*
X173375000Y-11275000D02*
X172575000Y-11275000D01*
X172075000Y-10125000D02*
X172075000Y-12925000D01*
X153025000Y-12925000D02*
X154825000Y-12925000D01*
X153925000Y-11875000D02*
X154325000Y-11275000D01*
X154325000Y-11275000D02*
X153525000Y-11275000D01*
X153925000Y-12275000D02*
X153925000Y-11875000D01*
X153925000Y-11875000D02*
X154475000Y-11875000D01*
X154825000Y-12925000D02*
X154825000Y-10125000D01*
X153025000Y-10125000D02*
X153025000Y-12925000D01*
X153925000Y-11275000D02*
X153925000Y-10775000D01*
X153525000Y-11275000D02*
X153925000Y-11875000D01*
X154825000Y-10125000D02*
X153025000Y-10125000D01*
X153925000Y-11875000D02*
X153375000Y-11875000D01*
X229225000Y-10125000D02*
X229225000Y-12925000D01*
X230125000Y-11875000D02*
X229575000Y-11875000D01*
X231025000Y-10125000D02*
X229225000Y-10125000D01*
X231025000Y-12925000D02*
X231025000Y-10125000D01*
X230525000Y-11275000D02*
X229725000Y-11275000D01*
X230125000Y-12275000D02*
X230125000Y-11875000D01*
X229225000Y-12925000D02*
X231025000Y-12925000D01*
X229725000Y-11275000D02*
X230125000Y-11875000D01*
X230125000Y-11875000D02*
X230525000Y-11275000D01*
X230125000Y-11275000D02*
X230125000Y-10775000D01*
X230125000Y-11875000D02*
X230675000Y-11875000D01*
X191625000Y-11275000D02*
X192025000Y-11875000D01*
X192425000Y-11275000D02*
X191625000Y-11275000D01*
X192025000Y-11275000D02*
X192025000Y-10775000D01*
X192025000Y-11875000D02*
X191475000Y-11875000D01*
X192925000Y-10125000D02*
X191125000Y-10125000D01*
X191125000Y-10125000D02*
X191125000Y-12925000D01*
X192025000Y-11875000D02*
X192425000Y-11275000D01*
X191125000Y-12925000D02*
X192925000Y-12925000D01*
X192025000Y-11875000D02*
X192575000Y-11875000D01*
X192925000Y-12925000D02*
X192925000Y-10125000D01*
X192025000Y-12275000D02*
X192025000Y-11875000D01*
X245225000Y-10125000D02*
X245225000Y-12925000D01*
X245225000Y-12925000D02*
X247025000Y-12925000D01*
X246125000Y-11875000D02*
X246675000Y-11875000D01*
X247025000Y-12925000D02*
X247025000Y-10125000D01*
X246125000Y-11875000D02*
X246525000Y-11275000D01*
X246125000Y-12275000D02*
X246125000Y-11875000D01*
X246525000Y-11275000D02*
X245725000Y-11275000D01*
X246125000Y-11875000D02*
X245575000Y-11875000D01*
X246125000Y-11275000D02*
X246125000Y-10775000D01*
X247025000Y-10125000D02*
X245225000Y-10125000D01*
X245725000Y-11275000D02*
X246125000Y-11875000D01*
X46100000Y-30925000D02*
X46500000Y-30325000D01*
X46100000Y-30325000D02*
X46100000Y-29825000D01*
X45700000Y-30325000D02*
X46100000Y-30925000D01*
X45200000Y-31975000D02*
X47000000Y-31975000D01*
X47000000Y-31975000D02*
X47000000Y-29175000D01*
X46100000Y-30925000D02*
X46650000Y-30925000D01*
X46100000Y-30925000D02*
X45550000Y-30925000D01*
X47000000Y-29175000D02*
X45200000Y-29175000D01*
X46100000Y-31325000D02*
X46100000Y-30925000D01*
X46500000Y-30325000D02*
X45700000Y-30325000D01*
X45200000Y-29175000D02*
X45200000Y-31975000D01*
X6287500Y-30925000D02*
X6687500Y-30325000D01*
X7187500Y-31975000D02*
X7187500Y-29175000D01*
X5387500Y-29175000D02*
X5387500Y-31975000D01*
X6287500Y-30325000D02*
X6287500Y-29825000D01*
X5887500Y-30325000D02*
X6287500Y-30925000D01*
X6287500Y-30925000D02*
X5737500Y-30925000D01*
X6687500Y-30325000D02*
X5887500Y-30325000D01*
X6287500Y-31325000D02*
X6287500Y-30925000D01*
X6287500Y-30925000D02*
X6837500Y-30925000D01*
X5387500Y-31975000D02*
X7187500Y-31975000D01*
X7187500Y-29175000D02*
X5387500Y-29175000D01*
X211075000Y-12275000D02*
X211075000Y-11875000D01*
X211075000Y-11275000D02*
X211075000Y-10775000D01*
X211475000Y-11275000D02*
X210675000Y-11275000D01*
X211975000Y-12925000D02*
X211975000Y-10125000D01*
X210175000Y-10125000D02*
X210175000Y-12925000D01*
X211075000Y-11875000D02*
X211625000Y-11875000D01*
X210175000Y-12925000D02*
X211975000Y-12925000D01*
X211075000Y-11875000D02*
X210525000Y-11875000D01*
X211075000Y-11875000D02*
X211475000Y-11275000D01*
X211975000Y-10125000D02*
X210175000Y-10125000D01*
X210675000Y-11275000D02*
X211075000Y-11875000D01*
X115825000Y-11875000D02*
X116375000Y-11875000D01*
X115825000Y-11275000D02*
X115825000Y-10775000D01*
X114925000Y-12925000D02*
X116725000Y-12925000D01*
X115825000Y-11875000D02*
X116225000Y-11275000D01*
X115825000Y-11875000D02*
X115275000Y-11875000D01*
X116225000Y-11275000D02*
X115425000Y-11275000D01*
X115825000Y-12275000D02*
X115825000Y-11875000D01*
X115425000Y-11275000D02*
X115825000Y-11875000D01*
X114925000Y-10125000D02*
X114925000Y-12925000D01*
X116725000Y-12925000D02*
X116725000Y-10125000D01*
X116725000Y-10125000D02*
X114925000Y-10125000D01*
X55625000Y-11875000D02*
X55075000Y-11875000D01*
X56525000Y-12925000D02*
X56525000Y-10125000D01*
X55625000Y-11275000D02*
X55625000Y-10775000D01*
X56525000Y-10125000D02*
X54725000Y-10125000D01*
X55625000Y-11875000D02*
X56025000Y-11275000D01*
X54725000Y-12925000D02*
X56525000Y-12925000D01*
X54725000Y-10125000D02*
X54725000Y-12925000D01*
X55625000Y-12275000D02*
X55625000Y-11875000D01*
X55625000Y-11875000D02*
X56175000Y-11875000D01*
X55225000Y-11275000D02*
X55625000Y-11875000D01*
X56025000Y-11275000D02*
X55225000Y-11275000D01*
X78625000Y-12925000D02*
X78625000Y-10125000D01*
X77725000Y-12275000D02*
X77725000Y-11875000D01*
X77325000Y-11275000D02*
X77725000Y-11875000D01*
X77725000Y-11875000D02*
X78275000Y-11875000D01*
X78625000Y-10125000D02*
X76825000Y-10125000D01*
X77725000Y-11875000D02*
X77175000Y-11875000D01*
X78125000Y-11275000D02*
X77325000Y-11275000D01*
X76825000Y-12925000D02*
X78625000Y-12925000D01*
X77725000Y-11275000D02*
X77725000Y-10775000D01*
X76825000Y-10125000D02*
X76825000Y-12925000D01*
X77725000Y-11875000D02*
X78125000Y-11275000D01*
X134875000Y-11875000D02*
X135425000Y-11875000D01*
X134875000Y-11875000D02*
X134325000Y-11875000D01*
X133975000Y-12925000D02*
X135775000Y-12925000D01*
X134875000Y-11875000D02*
X135275000Y-11275000D01*
X133975000Y-10125000D02*
X133975000Y-12925000D01*
X134875000Y-12275000D02*
X134875000Y-11875000D01*
X134875000Y-11275000D02*
X134875000Y-10775000D01*
X135775000Y-10125000D02*
X133975000Y-10125000D01*
X135275000Y-11275000D02*
X134475000Y-11275000D01*
X134475000Y-11275000D02*
X134875000Y-11875000D01*
X135775000Y-12925000D02*
X135775000Y-10125000D01*
X96375000Y-11275000D02*
X96775000Y-11875000D01*
X96775000Y-11875000D02*
X97325000Y-11875000D01*
X96775000Y-12275000D02*
X96775000Y-11875000D01*
X97675000Y-10125000D02*
X95875000Y-10125000D01*
X96775000Y-11275000D02*
X96775000Y-10775000D01*
X95875000Y-10125000D02*
X95875000Y-12925000D01*
X96775000Y-11875000D02*
X97175000Y-11275000D01*
X96775000Y-11875000D02*
X96225000Y-11875000D01*
X95875000Y-12925000D02*
X97675000Y-12925000D01*
X97175000Y-11275000D02*
X96375000Y-11275000D01*
X97675000Y-12925000D02*
X97675000Y-10125000D01*
X59575000Y-12925000D02*
X59575000Y-10125000D01*
X58675000Y-11875000D02*
X58125000Y-11875000D01*
X58275000Y-11275000D02*
X58675000Y-11875000D01*
X59075000Y-11275000D02*
X58275000Y-11275000D01*
X58675000Y-11275000D02*
X58675000Y-10775000D01*
X57775000Y-10125000D02*
X57775000Y-12925000D01*
X58675000Y-12275000D02*
X58675000Y-11875000D01*
X59575000Y-10125000D02*
X57775000Y-10125000D01*
X58675000Y-11875000D02*
X59075000Y-11275000D01*
X57775000Y-12925000D02*
X59575000Y-12925000D01*
X58675000Y-11875000D02*
X59225000Y-11875000D01*
X233979287Y-84425561D02*
X233429287Y-84425561D01*
X233979287Y-84425561D02*
X234529287Y-84425561D01*
X233979287Y-84825561D02*
X233979287Y-84425561D01*
X233079287Y-85475561D02*
X234879287Y-85475561D01*
X234379287Y-83825561D02*
X233579287Y-83825561D01*
X233079287Y-82675561D02*
X233079287Y-85475561D01*
X233579287Y-83825561D02*
X233979287Y-84425561D01*
X233979287Y-84425561D02*
X234379287Y-83825561D01*
X233979287Y-83825561D02*
X233979287Y-83325561D01*
X234879287Y-82675561D02*
X233079287Y-82675561D01*
X234879287Y-85475561D02*
X234879287Y-82675561D01*
X18479390Y-18264077D02*
X18479390Y-16264077D01*
X17239390Y-16264077D02*
X17239390Y-18264077D01*
X18479390Y-16264077D02*
X17239390Y-16264077D01*
X17239390Y-18264077D02*
X18479390Y-18264077D01*
X64337500Y-67275000D02*
X62537500Y-67275000D01*
X62537500Y-70075000D02*
X64337500Y-70075000D01*
X63037500Y-68425000D02*
X63437500Y-69025000D01*
X63437500Y-69025000D02*
X63837500Y-68425000D01*
X63437500Y-69025000D02*
X63987500Y-69025000D01*
X64337500Y-70075000D02*
X64337500Y-67275000D01*
X63437500Y-69425000D02*
X63437500Y-69025000D01*
X63437500Y-68425000D02*
X63437500Y-67925000D01*
X63837500Y-68425000D02*
X63037500Y-68425000D01*
X62537500Y-67275000D02*
X62537500Y-70075000D01*
X63437500Y-69025000D02*
X62887500Y-69025000D01*
X110229287Y-91530061D02*
X110229287Y-92770061D01*
X112229287Y-92770061D02*
X112229287Y-91530061D01*
X112229287Y-91530061D02*
X110229287Y-91530061D01*
X110229287Y-92770061D02*
X112229287Y-92770061D01*
X129909287Y-86500061D02*
X131149287Y-86500061D01*
X131149287Y-86500061D02*
X131149287Y-84500061D01*
X129909287Y-84500061D02*
X129909287Y-86500061D01*
X131149287Y-84500061D02*
X129909287Y-84500061D01*
X29431250Y-68425000D02*
X29431250Y-67925000D01*
X28531250Y-67275000D02*
X28531250Y-70075000D01*
X29431250Y-69025000D02*
X28881250Y-69025000D01*
X29431250Y-69025000D02*
X29981250Y-69025000D01*
X29831250Y-68425000D02*
X29031250Y-68425000D01*
X29031250Y-68425000D02*
X29431250Y-69025000D01*
X29431250Y-69425000D02*
X29431250Y-69025000D01*
X30331250Y-67275000D02*
X28531250Y-67275000D01*
X28531250Y-70075000D02*
X30331250Y-70075000D01*
X30331250Y-70075000D02*
X30331250Y-67275000D01*
X29431250Y-69025000D02*
X29831250Y-68425000D01*
X237500000Y-31975000D02*
X237500000Y-29175000D01*
X236600000Y-30325000D02*
X236600000Y-29825000D01*
X236600000Y-30925000D02*
X237000000Y-30325000D01*
X236200000Y-30325000D02*
X236600000Y-30925000D01*
X237500000Y-29175000D02*
X235700000Y-29175000D01*
X235700000Y-29175000D02*
X235700000Y-31975000D01*
X237000000Y-30325000D02*
X236200000Y-30325000D01*
X236600000Y-30925000D02*
X237150000Y-30925000D01*
X236600000Y-30925000D02*
X236050000Y-30925000D01*
X236600000Y-31325000D02*
X236600000Y-30925000D01*
X235700000Y-31975000D02*
X237500000Y-31975000D01*
X14858138Y-18859390D02*
X16098138Y-18859390D01*
X16098138Y-18859390D02*
X16098138Y-16859390D01*
X14858138Y-16859390D02*
X14858138Y-18859390D01*
X16098138Y-16859390D02*
X14858138Y-16859390D01*
X35675000Y-10125000D02*
X35675000Y-12925000D01*
X37475000Y-10125000D02*
X35675000Y-10125000D01*
X36575000Y-11875000D02*
X37125000Y-11875000D01*
X36175000Y-11275000D02*
X36575000Y-11875000D01*
X37475000Y-12925000D02*
X37475000Y-10125000D01*
X36575000Y-11275000D02*
X36575000Y-10775000D01*
X36575000Y-11875000D02*
X36975000Y-11275000D01*
X35675000Y-12925000D02*
X37475000Y-12925000D01*
X36575000Y-12275000D02*
X36575000Y-11875000D01*
X36575000Y-11875000D02*
X36025000Y-11875000D01*
X36975000Y-11275000D02*
X36175000Y-11275000D01*
X20860642Y-16264077D02*
X19620642Y-16264077D01*
X19620642Y-18264077D02*
X20860642Y-18264077D01*
X20860642Y-18264077D02*
X20860642Y-16264077D01*
X19620642Y-16264077D02*
X19620642Y-18264077D01*
X173289287Y-90751313D02*
X171289287Y-90751313D01*
X171289287Y-91991313D02*
X173289287Y-91991313D01*
X171289287Y-90751313D02*
X171289287Y-91991313D01*
X173289287Y-91991313D02*
X173289287Y-90751313D01*
X106309287Y-84450061D02*
X106309287Y-86450061D01*
X107549287Y-86450061D02*
X107549287Y-84450061D01*
X107549287Y-84450061D02*
X106309287Y-84450061D01*
X106309287Y-86450061D02*
X107549287Y-86450061D01*
X171289287Y-89610061D02*
X173289287Y-89610061D01*
X171289287Y-88370061D02*
X171289287Y-89610061D01*
X173289287Y-88370061D02*
X171289287Y-88370061D01*
X173289287Y-89610061D02*
X173289287Y-88370061D01*
X22001894Y-12096886D02*
X22001894Y-14096886D01*
X22001894Y-14096886D02*
X23241894Y-14096886D01*
X23241894Y-12096886D02*
X22001894Y-12096886D01*
X23241894Y-14096886D02*
X23241894Y-12096886D01*
X39625000Y-11875000D02*
X40175000Y-11875000D01*
X39625000Y-12275000D02*
X39625000Y-11875000D01*
X38725000Y-12925000D02*
X40525000Y-12925000D01*
X40025000Y-11275000D02*
X39225000Y-11275000D01*
X40525000Y-12925000D02*
X40525000Y-10125000D01*
X38725000Y-10125000D02*
X38725000Y-12925000D01*
X39625000Y-11275000D02*
X39625000Y-10775000D01*
X39225000Y-11275000D02*
X39625000Y-11875000D01*
X39625000Y-11875000D02*
X39075000Y-11875000D01*
X40525000Y-10125000D02*
X38725000Y-10125000D01*
X39625000Y-11875000D02*
X40025000Y-11275000D01*
X53728819Y-83000061D02*
X54128819Y-83600061D01*
X53228819Y-81850061D02*
X53228819Y-84650061D01*
X55028819Y-84650061D02*
X55028819Y-81850061D01*
X54128819Y-83600061D02*
X53578819Y-83600061D01*
X54128819Y-83000061D02*
X54128819Y-82500061D01*
X54128819Y-83600061D02*
X54528819Y-83000061D01*
X54528819Y-83000061D02*
X53728819Y-83000061D01*
X54128819Y-83600061D02*
X54678819Y-83600061D01*
X55028819Y-81850061D02*
X53228819Y-81850061D01*
X53228819Y-84650061D02*
X55028819Y-84650061D01*
X54128819Y-84000061D02*
X54128819Y-83600061D01*
X20600016Y-13401573D02*
X20600016Y-11601573D01*
X17500016Y-13401573D02*
X20600016Y-13401573D01*
X17500016Y-13401573D02*
X17500016Y-12251573D01*
X18150016Y-11601573D02*
X20600016Y-11601573D01*
X18150016Y-11601573D02*
X17500016Y-12251573D01*
X175459287Y-84160061D02*
X175459287Y-90510061D01*
X180539287Y-84160061D02*
X175459287Y-84160061D01*
X180539287Y-91780061D02*
X180539287Y-84160061D01*
X175459287Y-90510061D02*
X176729287Y-91780061D01*
X176729287Y-91780061D02*
X180539287Y-91780061D01*
X16098138Y-14096886D02*
X16098138Y-12096886D01*
X14858138Y-12096886D02*
X14858138Y-14096886D01*
X14858138Y-14096886D02*
X16098138Y-14096886D01*
X16098138Y-12096886D02*
X14858138Y-12096886D01*
X131909287Y-86500061D02*
X133149287Y-86500061D01*
X131909287Y-84500061D02*
X131909287Y-86500061D01*
X133149287Y-84500061D02*
X131909287Y-84500061D01*
X133149287Y-86500061D02*
X133149287Y-84500061D01*
X113729287Y-79320061D02*
X113729287Y-78080061D01*
X111729287Y-78080061D02*
X111729287Y-79320061D01*
X113729287Y-78080061D02*
X111729287Y-78080061D01*
X111729287Y-79320061D02*
X113729287Y-79320061D01*
X41023273Y-16049549D02*
X41730380Y-16549549D01*
X41023273Y-21049549D02*
X45273273Y-21049549D01*
X41730380Y-16549549D02*
X41023273Y-17049549D01*
X41023273Y-15049549D02*
X41023273Y-21049549D01*
X41023273Y-15049549D02*
X45273273Y-15049549D01*
X45273273Y-15049549D02*
X45273273Y-21049549D01*
X250074977Y-10125061D02*
X248274977Y-10125061D01*
X249574977Y-11275061D02*
X248774977Y-11275061D01*
X250074977Y-12925061D02*
X250074977Y-10125061D01*
X249174977Y-11875061D02*
X249724977Y-11875061D01*
X248274977Y-12925061D02*
X250074977Y-12925061D01*
X248274977Y-10125061D02*
X248274977Y-12925061D01*
X249174977Y-12275061D02*
X249174977Y-11875061D01*
X249174977Y-11875061D02*
X249574977Y-11275061D01*
X249174977Y-11875061D02*
X248624977Y-11875061D01*
X249174977Y-11275061D02*
X249174977Y-10775061D01*
X248774977Y-11275061D02*
X249174977Y-11875061D01*
X79833000Y-23495000D02*
G75*
G03*
X79833000Y-23495000I-1093000J0D01*
G01*
X73483000Y-26035000D02*
G75*
G03*
X73483000Y-26035000I-1093000J0D01*
G01*
X71920900Y-28575000D02*
G75*
G03*
X71920900Y-28575000I-800900J0D01*
G01*
X78143900Y-28575000D02*
G75*
G03*
X78143900Y-28575000I-1943900J0D01*
G01*
X82080900Y-28575000D02*
G75*
G03*
X82080900Y-28575000I-800900J0D01*
G01*
X98883000Y-23495000D02*
G75*
G03*
X98883000Y-23495000I-1093000J0D01*
G01*
X92533000Y-26035000D02*
G75*
G03*
X92533000Y-26035000I-1093000J0D01*
G01*
X101130900Y-28575000D02*
G75*
G03*
X101130900Y-28575000I-800900J0D01*
G01*
X97193900Y-28575000D02*
G75*
G03*
X97193900Y-28575000I-1943900J0D01*
G01*
X90970900Y-28575000D02*
G75*
G03*
X90970900Y-28575000I-800900J0D01*
G01*
X156033000Y-23495000D02*
G75*
G03*
X156033000Y-23495000I-1093000J0D01*
G01*
X149683000Y-26035000D02*
G75*
G03*
X149683000Y-26035000I-1093000J0D01*
G01*
X154343900Y-28575000D02*
G75*
G03*
X154343900Y-28575000I-1943900J0D01*
G01*
X158280900Y-28575000D02*
G75*
G03*
X158280900Y-28575000I-800900J0D01*
G01*
X148120900Y-28575000D02*
G75*
G03*
X148120900Y-28575000I-800900J0D01*
G01*
X175083000Y-23495000D02*
G75*
G03*
X175083000Y-23495000I-1093000J0D01*
G01*
X168733000Y-26035000D02*
G75*
G03*
X168733000Y-26035000I-1093000J0D01*
G01*
X167170900Y-28575000D02*
G75*
G03*
X167170900Y-28575000I-800900J0D01*
G01*
X173393900Y-28575000D02*
G75*
G03*
X173393900Y-28575000I-1943900J0D01*
G01*
X177330900Y-28575000D02*
G75*
G03*
X177330900Y-28575000I-800900J0D01*
G01*
X136983000Y-23495000D02*
G75*
G03*
X136983000Y-23495000I-1093000J0D01*
G01*
X130633000Y-26035000D02*
G75*
G03*
X130633000Y-26035000I-1093000J0D01*
G01*
X135293900Y-28575000D02*
G75*
G03*
X135293900Y-28575000I-1943900J0D01*
G01*
X139230900Y-28575000D02*
G75*
G03*
X139230900Y-28575000I-800900J0D01*
G01*
X129070900Y-28575000D02*
G75*
G03*
X129070900Y-28575000I-800900J0D01*
G01*
X117933000Y-23495000D02*
G75*
G03*
X117933000Y-23495000I-1093000J0D01*
G01*
X111583000Y-26035000D02*
G75*
G03*
X111583000Y-26035000I-1093000J0D01*
G01*
X110020900Y-28575000D02*
G75*
G03*
X110020900Y-28575000I-800900J0D01*
G01*
X120180900Y-28575000D02*
G75*
G03*
X120180900Y-28575000I-800900J0D01*
G01*
X116243900Y-28575000D02*
G75*
G03*
X116243900Y-28575000I-1943900J0D01*
G01*
X17920500Y-23495000D02*
G75*
G03*
X17920500Y-23495000I-1093000J0D01*
G01*
X11570500Y-26035000D02*
G75*
G03*
X11570500Y-26035000I-1093000J0D01*
G01*
X20168400Y-28575000D02*
G75*
G03*
X20168400Y-28575000I-800900J0D01*
G01*
X10008400Y-28575000D02*
G75*
G03*
X10008400Y-28575000I-800900J0D01*
G01*
X16231400Y-28575000D02*
G75*
G03*
X16231400Y-28575000I-1943900J0D01*
G01*
X146508000Y-4445000D02*
G75*
G03*
X146508000Y-4445000I-1093000J0D01*
G01*
X140158000Y-6985000D02*
G75*
G03*
X140158000Y-6985000I-1093000J0D01*
G01*
X144818900Y-9525000D02*
G75*
G03*
X144818900Y-9525000I-1943900J0D01*
G01*
X148755900Y-9525000D02*
G75*
G03*
X148755900Y-9525000I-800900J0D01*
G01*
X138595900Y-9525000D02*
G75*
G03*
X138595900Y-9525000I-800900J0D01*
G01*
X184608000Y-4445000D02*
G75*
G03*
X184608000Y-4445000I-1093000J0D01*
G01*
X178258000Y-6985000D02*
G75*
G03*
X178258000Y-6985000I-1093000J0D01*
G01*
X186855900Y-9525000D02*
G75*
G03*
X186855900Y-9525000I-800900J0D01*
G01*
X176695900Y-9525000D02*
G75*
G03*
X176695900Y-9525000I-800900J0D01*
G01*
X182918900Y-9525000D02*
G75*
G03*
X182918900Y-9525000I-1943900J0D01*
G01*
X89358000Y-4445000D02*
G75*
G03*
X89358000Y-4445000I-1093000J0D01*
G01*
X83008000Y-6985000D02*
G75*
G03*
X83008000Y-6985000I-1093000J0D01*
G01*
X91605900Y-9525000D02*
G75*
G03*
X91605900Y-9525000I-800900J0D01*
G01*
X87668900Y-9525000D02*
G75*
G03*
X87668900Y-9525000I-1943900J0D01*
G01*
X81445900Y-9525000D02*
G75*
G03*
X81445900Y-9525000I-800900J0D01*
G01*
X241758000Y-4445000D02*
G75*
G03*
X241758000Y-4445000I-1093000J0D01*
G01*
X235408000Y-6985000D02*
G75*
G03*
X235408000Y-6985000I-1093000J0D01*
G01*
X244005900Y-9525000D02*
G75*
G03*
X244005900Y-9525000I-800900J0D01*
G01*
X240068900Y-9525000D02*
G75*
G03*
X240068900Y-9525000I-1943900J0D01*
G01*
X233845900Y-9525000D02*
G75*
G03*
X233845900Y-9525000I-800900J0D01*
G01*
X222708000Y-4445000D02*
G75*
G03*
X222708000Y-4445000I-1093000J0D01*
G01*
X216358000Y-6985000D02*
G75*
G03*
X216358000Y-6985000I-1093000J0D01*
G01*
X224955900Y-9525000D02*
G75*
G03*
X224955900Y-9525000I-800900J0D01*
G01*
X214795900Y-9525000D02*
G75*
G03*
X214795900Y-9525000I-800900J0D01*
G01*
X221018900Y-9525000D02*
G75*
G03*
X221018900Y-9525000I-1943900J0D01*
G01*
X203658000Y-4445000D02*
G75*
G03*
X203658000Y-4445000I-1093000J0D01*
G01*
X197308000Y-6985000D02*
G75*
G03*
X197308000Y-6985000I-1093000J0D01*
G01*
X201968900Y-9525000D02*
G75*
G03*
X201968900Y-9525000I-1943900J0D01*
G01*
X205905900Y-9525000D02*
G75*
G03*
X205905900Y-9525000I-800900J0D01*
G01*
X195745900Y-9525000D02*
G75*
G03*
X195745900Y-9525000I-800900J0D01*
G01*
X165558000Y-4445000D02*
G75*
G03*
X165558000Y-4445000I-1093000J0D01*
G01*
X159208000Y-6985000D02*
G75*
G03*
X159208000Y-6985000I-1093000J0D01*
G01*
X157645900Y-9525000D02*
G75*
G03*
X157645900Y-9525000I-800900J0D01*
G01*
X163868900Y-9525000D02*
G75*
G03*
X163868900Y-9525000I-1943900J0D01*
G01*
X167805900Y-9525000D02*
G75*
G03*
X167805900Y-9525000I-800900J0D01*
G01*
X127458000Y-4445000D02*
G75*
G03*
X127458000Y-4445000I-1093000J0D01*
G01*
X121108000Y-6985000D02*
G75*
G03*
X121108000Y-6985000I-1093000J0D01*
G01*
X119545900Y-9525000D02*
G75*
G03*
X119545900Y-9525000I-800900J0D01*
G01*
X125768900Y-9525000D02*
G75*
G03*
X125768900Y-9525000I-1943900J0D01*
G01*
X129705900Y-9525000D02*
G75*
G03*
X129705900Y-9525000I-800900J0D01*
G01*
X108408000Y-4445000D02*
G75*
G03*
X108408000Y-4445000I-1093000J0D01*
G01*
X102058000Y-6985000D02*
G75*
G03*
X102058000Y-6985000I-1093000J0D01*
G01*
X100495900Y-9525000D02*
G75*
G03*
X100495900Y-9525000I-800900J0D01*
G01*
X110655900Y-9525000D02*
G75*
G03*
X110655900Y-9525000I-800900J0D01*
G01*
X106718900Y-9525000D02*
G75*
G03*
X106718900Y-9525000I-1943900J0D01*
G01*
X70308000Y-4445000D02*
G75*
G03*
X70308000Y-4445000I-1093000J0D01*
G01*
X63958000Y-6985000D02*
G75*
G03*
X63958000Y-6985000I-1093000J0D01*
G01*
X68618900Y-9525000D02*
G75*
G03*
X68618900Y-9525000I-1943900J0D01*
G01*
X72555900Y-9525000D02*
G75*
G03*
X72555900Y-9525000I-800900J0D01*
G01*
X62395900Y-9525000D02*
G75*
G03*
X62395900Y-9525000I-800900J0D01*
G01*
X32208000Y-4445000D02*
G75*
G03*
X32208000Y-4445000I-1093000J0D01*
G01*
X25858000Y-6985000D02*
G75*
G03*
X25858000Y-6985000I-1093000J0D01*
G01*
X30518900Y-9525000D02*
G75*
G03*
X30518900Y-9525000I-1943900J0D01*
G01*
X34455900Y-9525000D02*
G75*
G03*
X34455900Y-9525000I-800900J0D01*
G01*
X24295900Y-9525000D02*
G75*
G03*
X24295900Y-9525000I-800900J0D01*
G01*
X13158000Y-4445000D02*
G75*
G03*
X13158000Y-4445000I-1093000J0D01*
G01*
X6808000Y-6985000D02*
G75*
G03*
X6808000Y-6985000I-1093000J0D01*
G01*
X5245900Y-9525000D02*
G75*
G03*
X5245900Y-9525000I-800900J0D01*
G01*
X11468900Y-9525000D02*
G75*
G03*
X11468900Y-9525000I-1943900J0D01*
G01*
X15405900Y-9525000D02*
G75*
G03*
X15405900Y-9525000I-800900J0D01*
G01*
X41733000Y-80645000D02*
G75*
G03*
X41733000Y-80645000I-1093000J0D01*
G01*
X35383000Y-83185000D02*
G75*
G03*
X35383000Y-83185000I-1093000J0D01*
G01*
X43980900Y-85725000D02*
G75*
G03*
X43980900Y-85725000I-800900J0D01*
G01*
X33820900Y-85725000D02*
G75*
G03*
X33820900Y-85725000I-800900J0D01*
G01*
X40043900Y-85725000D02*
G75*
G03*
X40043900Y-85725000I-1943900J0D01*
G01*
X151270500Y-61595000D02*
G75*
G03*
X151270500Y-61595000I-1093000J0D01*
G01*
X144920500Y-64135000D02*
G75*
G03*
X144920500Y-64135000I-1093000J0D01*
G01*
X153518400Y-66675000D02*
G75*
G03*
X153518400Y-66675000I-800900J0D01*
G01*
X143358400Y-66675000D02*
G75*
G03*
X143358400Y-66675000I-800900J0D01*
G01*
X149581400Y-66675000D02*
G75*
G03*
X149581400Y-66675000I-1943900J0D01*
G01*
X227470500Y-61595000D02*
G75*
G03*
X227470500Y-61595000I-1093000J0D01*
G01*
X221120500Y-64135000D02*
G75*
G03*
X221120500Y-64135000I-1093000J0D01*
G01*
X225781400Y-66675000D02*
G75*
G03*
X225781400Y-66675000I-1943900J0D01*
G01*
X229718400Y-66675000D02*
G75*
G03*
X229718400Y-66675000I-800900J0D01*
G01*
X219558400Y-66675000D02*
G75*
G03*
X219558400Y-66675000I-800900J0D01*
G01*
X170320500Y-61595000D02*
G75*
G03*
X170320500Y-61595000I-1093000J0D01*
G01*
X163970500Y-64135000D02*
G75*
G03*
X163970500Y-64135000I-1093000J0D01*
G01*
X172568400Y-66675000D02*
G75*
G03*
X172568400Y-66675000I-800900J0D01*
G01*
X168631400Y-66675000D02*
G75*
G03*
X168631400Y-66675000I-1943900J0D01*
G01*
X162408400Y-66675000D02*
G75*
G03*
X162408400Y-66675000I-800900J0D01*
G01*
X132220500Y-61595000D02*
G75*
G03*
X132220500Y-61595000I-1093000J0D01*
G01*
X125870500Y-64135000D02*
G75*
G03*
X125870500Y-64135000I-1093000J0D01*
G01*
X124308400Y-66675000D02*
G75*
G03*
X124308400Y-66675000I-800900J0D01*
G01*
X130531400Y-66675000D02*
G75*
G03*
X130531400Y-66675000I-1943900J0D01*
G01*
X134468400Y-66675000D02*
G75*
G03*
X134468400Y-66675000I-800900J0D01*
G01*
X189370500Y-61595000D02*
G75*
G03*
X189370500Y-61595000I-1093000J0D01*
G01*
X183020500Y-64135000D02*
G75*
G03*
X183020500Y-64135000I-1093000J0D01*
G01*
X181458400Y-66675000D02*
G75*
G03*
X181458400Y-66675000I-800900J0D01*
G01*
X187681400Y-66675000D02*
G75*
G03*
X187681400Y-66675000I-1943900J0D01*
G01*
X191618400Y-66675000D02*
G75*
G03*
X191618400Y-66675000I-800900J0D01*
G01*
X17920500Y-80645000D02*
G75*
G03*
X17920500Y-80645000I-1093000J0D01*
G01*
X11570500Y-83185000D02*
G75*
G03*
X11570500Y-83185000I-1093000J0D01*
G01*
X16231400Y-85725000D02*
G75*
G03*
X16231400Y-85725000I-1943900J0D01*
G01*
X10008400Y-85725000D02*
G75*
G03*
X10008400Y-85725000I-800900J0D01*
G01*
X20168400Y-85725000D02*
G75*
G03*
X20168400Y-85725000I-800900J0D01*
G01*
X262420900Y-9525000D02*
G75*
G03*
X262420900Y-9525000I-800900J0D01*
G01*
X256236000Y-2540000D02*
G75*
G03*
X256236000Y-2540000I-1474000J0D01*
G01*
X268643900Y-9525000D02*
G75*
G03*
X268643900Y-9525000I-1943900J0D01*
G01*
X256705900Y-17780000D02*
G75*
G03*
X256705900Y-17780000I-1943900J0D01*
G01*
X280112000Y-2540000D02*
G75*
G03*
X280112000Y-2540000I-1474000J0D01*
G01*
X280581900Y-17780000D02*
G75*
G03*
X280581900Y-17780000I-1943900J0D01*
G01*
X272580900Y-9525000D02*
G75*
G03*
X272580900Y-9525000I-800900J0D01*
G01*
X270333000Y-4445000D02*
G75*
G03*
X270333000Y-4445000I-1093000J0D01*
G01*
X263983000Y-6985000D02*
G75*
G03*
X263983000Y-6985000I-1093000J0D01*
G01*
X251283000Y-23495000D02*
G75*
G03*
X251283000Y-23495000I-1093000J0D01*
G01*
X244933000Y-26035000D02*
G75*
G03*
X244933000Y-26035000I-1093000J0D01*
G01*
X253530900Y-28575000D02*
G75*
G03*
X253530900Y-28575000I-800900J0D01*
G01*
X249593900Y-28575000D02*
G75*
G03*
X249593900Y-28575000I-1943900J0D01*
G01*
X243370900Y-28575000D02*
G75*
G03*
X243370900Y-28575000I-800900J0D01*
G01*
X56020500Y-61595000D02*
G75*
G03*
X56020500Y-61595000I-1093000J0D01*
G01*
X49670500Y-64135000D02*
G75*
G03*
X49670500Y-64135000I-1093000J0D01*
G01*
X54331400Y-66675000D02*
G75*
G03*
X54331400Y-66675000I-1943900J0D01*
G01*
X58268400Y-66675000D02*
G75*
G03*
X58268400Y-66675000I-800900J0D01*
G01*
X48108400Y-66675000D02*
G75*
G03*
X48108400Y-66675000I-800900J0D01*
G01*
X194133000Y-23495000D02*
G75*
G03*
X194133000Y-23495000I-1093000J0D01*
G01*
X187783000Y-26035000D02*
G75*
G03*
X187783000Y-26035000I-1093000J0D01*
G01*
X196380900Y-28575000D02*
G75*
G03*
X196380900Y-28575000I-800900J0D01*
G01*
X192443900Y-28575000D02*
G75*
G03*
X192443900Y-28575000I-1943900J0D01*
G01*
X186220900Y-28575000D02*
G75*
G03*
X186220900Y-28575000I-800900J0D01*
G01*
X122695500Y-42545000D02*
G75*
G03*
X122695500Y-42545000I-1093000J0D01*
G01*
X116345500Y-45085000D02*
G75*
G03*
X116345500Y-45085000I-1093000J0D01*
G01*
X124943400Y-47625000D02*
G75*
G03*
X124943400Y-47625000I-800900J0D01*
G01*
X121006400Y-47625000D02*
G75*
G03*
X121006400Y-47625000I-1943900J0D01*
G01*
X114783400Y-47625000D02*
G75*
G03*
X114783400Y-47625000I-800900J0D01*
G01*
X65545500Y-42545000D02*
G75*
G03*
X65545500Y-42545000I-1093000J0D01*
G01*
X59195500Y-45085000D02*
G75*
G03*
X59195500Y-45085000I-1093000J0D01*
G01*
X67793400Y-47625000D02*
G75*
G03*
X67793400Y-47625000I-800900J0D01*
G01*
X57633400Y-47625000D02*
G75*
G03*
X57633400Y-47625000I-800900J0D01*
G01*
X63856400Y-47625000D02*
G75*
G03*
X63856400Y-47625000I-1943900J0D01*
G01*
X267951700Y-42545000D02*
G75*
G03*
X267951700Y-42545000I-1093000J0D01*
G01*
X261601700Y-45085000D02*
G75*
G03*
X261601700Y-45085000I-1093000J0D01*
G01*
X277730700Y-40640000D02*
G75*
G03*
X277730700Y-40640000I-1474000J0D01*
G01*
X253854700Y-40640000D02*
G75*
G03*
X253854700Y-40640000I-1474000J0D01*
G01*
X266262600Y-47625000D02*
G75*
G03*
X266262600Y-47625000I-1943900J0D01*
G01*
X254324600Y-55880000D02*
G75*
G03*
X254324600Y-55880000I-1943900J0D01*
G01*
X278200600Y-55880000D02*
G75*
G03*
X278200600Y-55880000I-1943900J0D01*
G01*
X270199600Y-47625000D02*
G75*
G03*
X270199600Y-47625000I-800900J0D01*
G01*
X260039600Y-47625000D02*
G75*
G03*
X260039600Y-47625000I-800900J0D01*
G01*
X279858000Y-61595000D02*
G75*
G03*
X279858000Y-61595000I-1093000J0D01*
G01*
X273508000Y-64135000D02*
G75*
G03*
X273508000Y-64135000I-1093000J0D01*
G01*
X282105900Y-66675000D02*
G75*
G03*
X282105900Y-66675000I-800900J0D01*
G01*
X271945900Y-66675000D02*
G75*
G03*
X271945900Y-66675000I-800900J0D01*
G01*
X278168900Y-66675000D02*
G75*
G03*
X278168900Y-66675000I-1943900J0D01*
G01*
X179845500Y-42545000D02*
G75*
G03*
X179845500Y-42545000I-1093000J0D01*
G01*
X173495500Y-45085000D02*
G75*
G03*
X173495500Y-45085000I-1093000J0D01*
G01*
X171933400Y-47625000D02*
G75*
G03*
X171933400Y-47625000I-800900J0D01*
G01*
X182093400Y-47625000D02*
G75*
G03*
X182093400Y-47625000I-800900J0D01*
G01*
X178156400Y-47625000D02*
G75*
G03*
X178156400Y-47625000I-1943900J0D01*
G01*
X275095487Y-23495061D02*
G75*
G03*
X275095487Y-23495061I-1093000J0D01*
G01*
X268745487Y-26035061D02*
G75*
G03*
X268745487Y-26035061I-1093000J0D01*
G01*
X273406387Y-28575061D02*
G75*
G03*
X273406387Y-28575061I-1943900J0D01*
G01*
X267183387Y-28575061D02*
G75*
G03*
X267183387Y-28575061I-800900J0D01*
G01*
X277343387Y-28575061D02*
G75*
G03*
X277343387Y-28575061I-800900J0D01*
G01*
X232233000Y-23495000D02*
G75*
G03*
X232233000Y-23495000I-1093000J0D01*
G01*
X225883000Y-26035000D02*
G75*
G03*
X225883000Y-26035000I-1093000J0D01*
G01*
X234480900Y-28575000D02*
G75*
G03*
X234480900Y-28575000I-800900J0D01*
G01*
X224320900Y-28575000D02*
G75*
G03*
X224320900Y-28575000I-800900J0D01*
G01*
X230543900Y-28575000D02*
G75*
G03*
X230543900Y-28575000I-1943900J0D01*
G01*
X65545500Y-80645000D02*
G75*
G03*
X65545500Y-80645000I-1093000J0D01*
G01*
X59195500Y-83185000D02*
G75*
G03*
X59195500Y-83185000I-1093000J0D01*
G01*
X57633400Y-85725000D02*
G75*
G03*
X57633400Y-85725000I-800900J0D01*
G01*
X67793400Y-85725000D02*
G75*
G03*
X67793400Y-85725000I-800900J0D01*
G01*
X63856400Y-85725000D02*
G75*
G03*
X63856400Y-85725000I-1943900J0D01*
G01*
X84595500Y-42545000D02*
G75*
G03*
X84595500Y-42545000I-1093000J0D01*
G01*
X78245500Y-45085000D02*
G75*
G03*
X78245500Y-45085000I-1093000J0D01*
G01*
X82906400Y-47625000D02*
G75*
G03*
X82906400Y-47625000I-1943900J0D01*
G01*
X86843400Y-47625000D02*
G75*
G03*
X86843400Y-47625000I-800900J0D01*
G01*
X76683400Y-47625000D02*
G75*
G03*
X76683400Y-47625000I-800900J0D01*
G01*
X160795500Y-42545000D02*
G75*
G03*
X160795500Y-42545000I-1093000J0D01*
G01*
X154445500Y-45085000D02*
G75*
G03*
X154445500Y-45085000I-1093000J0D01*
G01*
X152883400Y-47625000D02*
G75*
G03*
X152883400Y-47625000I-800900J0D01*
G01*
X163043400Y-47625000D02*
G75*
G03*
X163043400Y-47625000I-800900J0D01*
G01*
X159106400Y-47625000D02*
G75*
G03*
X159106400Y-47625000I-1943900J0D01*
G01*
X103645500Y-42545000D02*
G75*
G03*
X103645500Y-42545000I-1093000J0D01*
G01*
X97295500Y-45085000D02*
G75*
G03*
X97295500Y-45085000I-1093000J0D01*
G01*
X101956400Y-47625000D02*
G75*
G03*
X101956400Y-47625000I-1943900J0D01*
G01*
X105893400Y-47625000D02*
G75*
G03*
X105893400Y-47625000I-800900J0D01*
G01*
X95733400Y-47625000D02*
G75*
G03*
X95733400Y-47625000I-800900J0D01*
G01*
X46495500Y-42545000D02*
G75*
G03*
X46495500Y-42545000I-1093000J0D01*
G01*
X40145500Y-45085000D02*
G75*
G03*
X40145500Y-45085000I-1093000J0D01*
G01*
X44806400Y-47625000D02*
G75*
G03*
X44806400Y-47625000I-1943900J0D01*
G01*
X38583400Y-47625000D02*
G75*
G03*
X38583400Y-47625000I-800900J0D01*
G01*
X48743400Y-47625000D02*
G75*
G03*
X48743400Y-47625000I-800900J0D01*
G01*
X198895500Y-42545000D02*
G75*
G03*
X198895500Y-42545000I-1093000J0D01*
G01*
X192545500Y-45085000D02*
G75*
G03*
X192545500Y-45085000I-1093000J0D01*
G01*
X201143400Y-47625000D02*
G75*
G03*
X201143400Y-47625000I-800900J0D01*
G01*
X197206400Y-47625000D02*
G75*
G03*
X197206400Y-47625000I-1943900J0D01*
G01*
X190983400Y-47625000D02*
G75*
G03*
X190983400Y-47625000I-800900J0D01*
G01*
X25064250Y-61595000D02*
G75*
G03*
X25064250Y-61595000I-1093000J0D01*
G01*
X18714250Y-64135000D02*
G75*
G03*
X18714250Y-64135000I-1093000J0D01*
G01*
X10967250Y-59690000D02*
G75*
G03*
X10967250Y-59690000I-1474000J0D01*
G01*
X11437150Y-74930000D02*
G75*
G03*
X11437150Y-74930000I-1943900J0D01*
G01*
X27312150Y-66675000D02*
G75*
G03*
X27312150Y-66675000I-800900J0D01*
G01*
X35313150Y-74930000D02*
G75*
G03*
X35313150Y-74930000I-1943900J0D01*
G01*
X34843250Y-59690000D02*
G75*
G03*
X34843250Y-59690000I-1474000J0D01*
G01*
X17152150Y-66675000D02*
G75*
G03*
X17152150Y-66675000I-800900J0D01*
G01*
X23375150Y-66675000D02*
G75*
G03*
X23375150Y-66675000I-1943900J0D01*
G01*
X236995500Y-42545000D02*
G75*
G03*
X236995500Y-42545000I-1093000J0D01*
G01*
X230645500Y-45085000D02*
G75*
G03*
X230645500Y-45085000I-1093000J0D01*
G01*
X235306400Y-47625000D02*
G75*
G03*
X235306400Y-47625000I-1943900J0D01*
G01*
X229083400Y-47625000D02*
G75*
G03*
X229083400Y-47625000I-800900J0D01*
G01*
X239243400Y-47625000D02*
G75*
G03*
X239243400Y-47625000I-800900J0D01*
G01*
X217945500Y-42545000D02*
G75*
G03*
X217945500Y-42545000I-1093000J0D01*
G01*
X211595500Y-45085000D02*
G75*
G03*
X211595500Y-45085000I-1093000J0D01*
G01*
X220193400Y-47625000D02*
G75*
G03*
X220193400Y-47625000I-800900J0D01*
G01*
X210033400Y-47625000D02*
G75*
G03*
X210033400Y-47625000I-800900J0D01*
G01*
X216256400Y-47625000D02*
G75*
G03*
X216256400Y-47625000I-1943900J0D01*
G01*
X213183000Y-23495000D02*
G75*
G03*
X213183000Y-23495000I-1093000J0D01*
G01*
X206833000Y-26035000D02*
G75*
G03*
X206833000Y-26035000I-1093000J0D01*
G01*
X205270900Y-28575000D02*
G75*
G03*
X205270900Y-28575000I-800900J0D01*
G01*
X215430900Y-28575000D02*
G75*
G03*
X215430900Y-28575000I-800900J0D01*
G01*
X211493900Y-28575000D02*
G75*
G03*
X211493900Y-28575000I-1943900J0D01*
G01*
X141745500Y-42545000D02*
G75*
G03*
X141745500Y-42545000I-1093000J0D01*
G01*
X135395500Y-45085000D02*
G75*
G03*
X135395500Y-45085000I-1093000J0D01*
G01*
X140056400Y-47625000D02*
G75*
G03*
X140056400Y-47625000I-1943900J0D01*
G01*
X143993400Y-47625000D02*
G75*
G03*
X143993400Y-47625000I-800900J0D01*
G01*
X133833400Y-47625000D02*
G75*
G03*
X133833400Y-47625000I-800900J0D01*
G01*
X20301750Y-42545000D02*
G75*
G03*
X20301750Y-42545000I-1093000J0D01*
G01*
X13951750Y-45085000D02*
G75*
G03*
X13951750Y-45085000I-1093000J0D01*
G01*
X18612650Y-47625000D02*
G75*
G03*
X18612650Y-47625000I-1943900J0D01*
G01*
X12389650Y-47625000D02*
G75*
G03*
X12389650Y-47625000I-800900J0D01*
G01*
X22549650Y-47625000D02*
G75*
G03*
X22549650Y-47625000I-800900J0D01*
G01*
X113170500Y-61595000D02*
G75*
G03*
X113170500Y-61595000I-1093000J0D01*
G01*
X106820500Y-64135000D02*
G75*
G03*
X106820500Y-64135000I-1093000J0D01*
G01*
X105258400Y-66675000D02*
G75*
G03*
X105258400Y-66675000I-800900J0D01*
G01*
X111481400Y-66675000D02*
G75*
G03*
X111481400Y-66675000I-1943900J0D01*
G01*
X115418400Y-66675000D02*
G75*
G03*
X115418400Y-66675000I-800900J0D01*
G01*
X251283000Y-80645000D02*
G75*
G03*
X251283000Y-80645000I-1093000J0D01*
G01*
X244933000Y-83185000D02*
G75*
G03*
X244933000Y-83185000I-1093000J0D01*
G01*
X249593900Y-85725000D02*
G75*
G03*
X249593900Y-85725000I-1943900J0D01*
G01*
X253530900Y-85725000D02*
G75*
G03*
X253530900Y-85725000I-800900J0D01*
G01*
X243370900Y-85725000D02*
G75*
G03*
X243370900Y-85725000I-800900J0D01*
G01*
X75070500Y-61595000D02*
G75*
G03*
X75070500Y-61595000I-1093000J0D01*
G01*
X68720500Y-64135000D02*
G75*
G03*
X68720500Y-64135000I-1093000J0D01*
G01*
X73381400Y-66675000D02*
G75*
G03*
X73381400Y-66675000I-1943900J0D01*
G01*
X77318400Y-66675000D02*
G75*
G03*
X77318400Y-66675000I-800900J0D01*
G01*
X67158400Y-66675000D02*
G75*
G03*
X67158400Y-66675000I-800900J0D01*
G01*
X227470500Y-80645000D02*
G75*
G03*
X227470500Y-80645000I-1093000J0D01*
G01*
X221120500Y-83185000D02*
G75*
G03*
X221120500Y-83185000I-1093000J0D01*
G01*
X229718400Y-85725000D02*
G75*
G03*
X229718400Y-85725000I-800900J0D01*
G01*
X225781400Y-85725000D02*
G75*
G03*
X225781400Y-85725000I-1943900J0D01*
G01*
X219558400Y-85725000D02*
G75*
G03*
X219558400Y-85725000I-800900J0D01*
G01*
X275095728Y-80645072D02*
G75*
G03*
X275095728Y-80645072I-1093000J0D01*
G01*
X268745728Y-83185072D02*
G75*
G03*
X268745728Y-83185072I-1093000J0D01*
G01*
X267183628Y-85725072D02*
G75*
G03*
X267183628Y-85725072I-800900J0D01*
G01*
X277343628Y-85725072D02*
G75*
G03*
X277343628Y-85725072I-800900J0D01*
G01*
X273406628Y-85725072D02*
G75*
G03*
X273406628Y-85725072I-1943900J0D01*
G01*
X281118988Y-58575000D02*
X285618988Y-58575000D01*
X281118988Y-55675000D02*
X285618988Y-55675000D01*
X285618988Y-58575000D02*
G75*
G03*
X285618988Y-55675000I0J1450000D01*
G01*
X281118988Y-55675000D02*
G75*
G03*
X281118988Y-58575000I0J-1450000D01*
G01*
X131252Y-58575000D02*
X4631252Y-58575000D01*
X131252Y-55675000D02*
X4631252Y-55675000D01*
X4631252Y-58575000D02*
G75*
G03*
X4631252Y-55675000I0J1450000D01*
G01*
X131252Y-55675000D02*
G75*
G03*
X131252Y-58575000I0J-1450000D01*
G01*
X41733000Y-23495000D02*
G75*
G03*
X41733000Y-23495000I-1093000J0D01*
G01*
X35383000Y-26035000D02*
G75*
G03*
X35383000Y-26035000I-1093000J0D01*
G01*
X43980900Y-28575000D02*
G75*
G03*
X43980900Y-28575000I-800900J0D01*
G01*
X33820900Y-28575000D02*
G75*
G03*
X33820900Y-28575000I-800900J0D01*
G01*
X40043900Y-28575000D02*
G75*
G03*
X40043900Y-28575000I-1943900J0D01*
G01*
X189250160Y-86975000D02*
X191750160Y-86975000D01*
X189250160Y-84075000D02*
X191750160Y-84075000D01*
X191750160Y-86975000D02*
G75*
G03*
X191750160Y-84075000I0J1450000D01*
G01*
X189250160Y-84075000D02*
G75*
G03*
X189250160Y-86975000I0J-1450000D01*
G01*
X94120500Y-61595000D02*
G75*
G03*
X94120500Y-61595000I-1093000J0D01*
G01*
X87770500Y-64135000D02*
G75*
G03*
X87770500Y-64135000I-1093000J0D01*
G01*
X92431400Y-66675000D02*
G75*
G03*
X92431400Y-66675000I-1943900J0D01*
G01*
X96368400Y-66675000D02*
G75*
G03*
X96368400Y-66675000I-800900J0D01*
G01*
X86208400Y-66675000D02*
G75*
G03*
X86208400Y-66675000I-800900J0D01*
G01*
X15539277Y-42544925D02*
G75*
G03*
X15539277Y-42544925I-1093000J0D01*
G01*
X9189277Y-45084925D02*
G75*
G03*
X9189277Y-45084925I-1093000J0D01*
G01*
X17787177Y-47624925D02*
G75*
G03*
X17787177Y-47624925I-800900J0D01*
G01*
X13850177Y-47624925D02*
G75*
G03*
X13850177Y-47624925I-1943900J0D01*
G01*
X7627177Y-47624925D02*
G75*
G03*
X7627177Y-47624925I-800900J0D01*
G01*
X259175000Y-29677050D02*
X261675000Y-29677050D01*
X259175000Y-26777050D02*
X261675000Y-26777050D01*
X261675000Y-29677050D02*
G75*
G03*
X261675000Y-26777050I0J1450000D01*
G01*
X259175000Y-26777050D02*
G75*
G03*
X259175000Y-29677050I0J-1450000D01*
G01*
X260807977Y-4445061D02*
G75*
G03*
X260807977Y-4445061I-1093000J0D01*
G01*
X254457977Y-6985061D02*
G75*
G03*
X254457977Y-6985061I-1093000J0D01*
G01*
X263055877Y-9525061D02*
G75*
G03*
X263055877Y-9525061I-800900J0D01*
G01*
X252895877Y-9525061D02*
G75*
G03*
X252895877Y-9525061I-800900J0D01*
G01*
X259118877Y-9525061D02*
G75*
G03*
X259118877Y-9525061I-1943900J0D01*
G01*
X253664287Y-61595061D02*
G75*
G03*
X253664287Y-61595061I-1093000J0D01*
G01*
X247314287Y-64135061D02*
G75*
G03*
X247314287Y-64135061I-1093000J0D01*
G01*
X245752187Y-66675061D02*
G75*
G03*
X245752187Y-66675061I-800900J0D01*
G01*
X255912187Y-66675061D02*
G75*
G03*
X255912187Y-66675061I-800900J0D01*
G01*
X251975187Y-66675061D02*
G75*
G03*
X251975187Y-66675061I-1943900J0D01*
G01*
X279858087Y-4444961D02*
G75*
G03*
X279858087Y-4444961I-1093000J0D01*
G01*
X273508087Y-6984961D02*
G75*
G03*
X273508087Y-6984961I-1093000J0D01*
G01*
X271945987Y-9524961D02*
G75*
G03*
X271945987Y-9524961I-800900J0D01*
G01*
X282105987Y-9524961D02*
G75*
G03*
X282105987Y-9524961I-800900J0D01*
G01*
X278168987Y-9524961D02*
G75*
G03*
X278168987Y-9524961I-1943900J0D01*
G01*
X208420500Y-61595000D02*
G75*
G03*
X208420500Y-61595000I-1093000J0D01*
G01*
X202070500Y-64135000D02*
G75*
G03*
X202070500Y-64135000I-1093000J0D01*
G01*
X200508400Y-66675000D02*
G75*
G03*
X200508400Y-66675000I-800900J0D01*
G01*
X210668400Y-66675000D02*
G75*
G03*
X210668400Y-66675000I-800900J0D01*
G01*
X206731400Y-66675000D02*
G75*
G03*
X206731400Y-66675000I-1943900J0D01*
G01*
X127337608Y-48875040D02*
X129837608Y-48875040D01*
X127337608Y-45975040D02*
X129837608Y-45975040D01*
X129837608Y-48875040D02*
G75*
G03*
X129837608Y-45975040I0J1450000D01*
G01*
X127337608Y-45975040D02*
G75*
G03*
X127337608Y-48875040I0J-1450000D01*
G01*
X60783000Y-23495000D02*
G75*
G03*
X60783000Y-23495000I-1093000J0D01*
G01*
X54433000Y-26035000D02*
G75*
G03*
X54433000Y-26035000I-1093000J0D01*
G01*
X59093900Y-28575000D02*
G75*
G03*
X59093900Y-28575000I-1943900J0D01*
G01*
X63030900Y-28575000D02*
G75*
G03*
X63030900Y-28575000I-800900J0D01*
G01*
X52870900Y-28575000D02*
G75*
G03*
X52870900Y-28575000I-800900J0D01*
G01*
X24350000Y-30026024D02*
X26850000Y-30026024D01*
X24350000Y-27126024D02*
X26850000Y-27126024D01*
X26850000Y-30026024D02*
G75*
G03*
X26850000Y-27126024I0J1450000D01*
G01*
X24350000Y-27126024D02*
G75*
G03*
X24350000Y-30026024I0J-1450000D01*
G01*
X263189347Y-61595011D02*
G75*
G03*
X263189347Y-61595011I-1093000J0D01*
G01*
X256839347Y-64135011D02*
G75*
G03*
X256839347Y-64135011I-1093000J0D01*
G01*
X255277247Y-66675011D02*
G75*
G03*
X255277247Y-66675011I-800900J0D01*
G01*
X265437247Y-66675011D02*
G75*
G03*
X265437247Y-66675011I-800900J0D01*
G01*
X272968277Y-73660011D02*
G75*
G03*
X272968277Y-73660011I-1474000J0D01*
G01*
X261500247Y-66675011D02*
G75*
G03*
X261500247Y-66675011I-1943900J0D01*
G01*
X249092277Y-73660011D02*
G75*
G03*
X249092277Y-73660011I-1474000J0D01*
G01*
X249562177Y-58420011D02*
G75*
G03*
X249562177Y-58420011I-1943900J0D01*
G01*
X273438177Y-58420011D02*
G75*
G03*
X273438177Y-58420011I-1943900J0D01*
G01*
X87167250Y-92710000D02*
G75*
G03*
X87167250Y-92710000I-1474000J0D01*
G01*
X87637150Y-77470000D02*
G75*
G03*
X87637150Y-77470000I-1943900J0D01*
G01*
X201530750Y-92710000D02*
G75*
G03*
X201530750Y-92710000I-1474000J0D01*
G01*
X202000650Y-77470000D02*
G75*
G03*
X202000650Y-77470000I-1943900J0D01*
G01*
X146508000Y-80645000D02*
G75*
G03*
X146508000Y-80645000I-1093000J0D01*
G01*
X140158000Y-83185000D02*
G75*
G03*
X140158000Y-83185000I-1093000J0D01*
G01*
X144818900Y-85725000D02*
G75*
G03*
X144818900Y-85725000I-1943900J0D01*
G01*
X148755900Y-85725000D02*
G75*
G03*
X148755900Y-85725000I-800900J0D01*
G01*
X138595900Y-85725000D02*
G75*
G03*
X138595900Y-85725000I-800900J0D01*
G01*
X51258000Y-4445000D02*
G75*
G03*
X51258000Y-4445000I-1093000J0D01*
G01*
X44908000Y-6985000D02*
G75*
G03*
X44908000Y-6985000I-1093000J0D01*
G01*
X53505900Y-9525000D02*
G75*
G03*
X53505900Y-9525000I-800900J0D01*
G01*
X49568900Y-9525000D02*
G75*
G03*
X49568900Y-9525000I-1943900J0D01*
G01*
X43345900Y-9525000D02*
G75*
G03*
X43345900Y-9525000I-800900J0D01*
G01*
X239382417Y-85325561D02*
X239382417Y-86125561D01*
X240482417Y-86125561D01*
X240482417Y-85325561D01*
X239382417Y-85325561D01*
X239382417Y-82025561D02*
X239382417Y-82825561D01*
X240482417Y-82825561D01*
X240482417Y-82025561D01*
X239382417Y-82025561D01*
X215548619Y-85325561D02*
X215548619Y-86125561D01*
X216648619Y-86125561D01*
X216648619Y-85325561D01*
X215548619Y-85325561D01*
X215548619Y-82025561D02*
X215548619Y-82825561D01*
X216648619Y-82825561D01*
X216648619Y-82025561D01*
X215548619Y-82025561D01*
X150064189Y-85325561D02*
X150064189Y-86125561D01*
X151164189Y-86125561D01*
X151164189Y-85325561D01*
X150064189Y-85325561D01*
X150064189Y-82025561D02*
X150064189Y-82825561D01*
X151164189Y-82825561D01*
X151164189Y-82025561D01*
X150064189Y-82025561D01*
X69129287Y-85325561D02*
X69129287Y-86125561D01*
X70229287Y-86125561D01*
X70229287Y-85325561D01*
X69129287Y-85325561D01*
X69129287Y-82025561D02*
X69129287Y-82825561D01*
X70229287Y-82825561D01*
X70229287Y-82025561D01*
X69129287Y-82025561D01*
X267675000Y-69925000D02*
X267675000Y-70725000D01*
X268775000Y-70725000D01*
X268775000Y-69925000D01*
X267675000Y-69925000D01*
X267675000Y-66625000D02*
X267675000Y-67425000D01*
X268775000Y-67425000D01*
X268775000Y-66625000D01*
X267675000Y-66625000D01*
X241481460Y-69925056D02*
X241481460Y-70725056D01*
X242581460Y-70725056D01*
X242581460Y-69925056D01*
X241481460Y-69925056D01*
X241481460Y-66625056D02*
X241481460Y-67425056D01*
X242581460Y-67425056D01*
X242581460Y-66625056D01*
X241481460Y-66625056D01*
X215287500Y-69925000D02*
X215287500Y-70725000D01*
X216387500Y-70725000D01*
X216387500Y-69925000D01*
X215287500Y-69925000D01*
X215287500Y-66625000D02*
X215287500Y-67425000D01*
X216387500Y-67425000D01*
X216387500Y-66625000D01*
X215287500Y-66625000D01*
X196237500Y-69925000D02*
X196237500Y-70725000D01*
X197337500Y-70725000D01*
X197337500Y-69925000D01*
X196237500Y-69925000D01*
X196237500Y-66625000D02*
X196237500Y-67425000D01*
X197337500Y-67425000D01*
X197337500Y-66625000D01*
X196237500Y-66625000D01*
X139087500Y-69925000D02*
X139087500Y-70725000D01*
X140187500Y-70725000D01*
X140187500Y-69925000D01*
X139087500Y-69925000D01*
X139087500Y-66625000D02*
X139087500Y-67425000D01*
X140187500Y-67425000D01*
X140187500Y-66625000D01*
X139087500Y-66625000D01*
X100987500Y-69925000D02*
X100987500Y-70725000D01*
X102087500Y-70725000D01*
X102087500Y-69925000D01*
X100987500Y-69925000D01*
X100987500Y-66625000D02*
X100987500Y-67425000D01*
X102087500Y-67425000D01*
X102087500Y-66625000D01*
X100987500Y-66625000D01*
X81937500Y-69925000D02*
X81937500Y-70725000D01*
X83037500Y-70725000D01*
X83037500Y-69925000D01*
X81937500Y-69925000D01*
X81937500Y-66625000D02*
X81937500Y-67425000D01*
X83037500Y-67425000D01*
X83037500Y-66625000D01*
X81937500Y-66625000D01*
X220050000Y-31825000D02*
X220050000Y-32625000D01*
X221150000Y-32625000D01*
X221150000Y-31825000D01*
X220050000Y-31825000D01*
X220050000Y-28525000D02*
X220050000Y-29325000D01*
X221150000Y-29325000D01*
X221150000Y-28525000D01*
X220050000Y-28525000D01*
X224812500Y-50875000D02*
X224812500Y-51675000D01*
X225912500Y-51675000D01*
X225912500Y-50875000D01*
X224812500Y-50875000D01*
X224812500Y-47575000D02*
X224812500Y-48375000D01*
X225912500Y-48375000D01*
X225912500Y-47575000D01*
X224812500Y-47575000D01*
X48600000Y-31825000D02*
X48600000Y-32625000D01*
X49700000Y-32625000D01*
X49700000Y-31825000D01*
X48600000Y-31825000D01*
X48600000Y-28525000D02*
X48600000Y-29325000D01*
X49700000Y-29325000D01*
X49700000Y-28525000D01*
X48600000Y-28525000D01*
X181950000Y-31825000D02*
X181950000Y-32625000D01*
X183050000Y-32625000D01*
X183050000Y-31825000D01*
X181950000Y-31825000D01*
X181950000Y-28525000D02*
X181950000Y-29325000D01*
X183050000Y-29325000D01*
X183050000Y-28525000D01*
X181950000Y-28525000D01*
X205762500Y-50875000D02*
X205762500Y-51675000D01*
X206862500Y-51675000D01*
X206862500Y-50875000D01*
X205762500Y-50875000D01*
X205762500Y-47575000D02*
X205762500Y-48375000D01*
X206862500Y-48375000D01*
X206862500Y-47575000D01*
X205762500Y-47575000D01*
X110512500Y-50875000D02*
X110512500Y-51675000D01*
X111612500Y-51675000D01*
X111612500Y-50875000D01*
X110512500Y-50875000D01*
X110512500Y-47575000D02*
X110512500Y-48375000D01*
X111612500Y-48375000D01*
X111612500Y-47575000D01*
X110512500Y-47575000D01*
X53362500Y-50875000D02*
X53362500Y-51675000D01*
X54462500Y-51675000D01*
X54462500Y-50875000D01*
X53362500Y-50875000D01*
X53362500Y-47575000D02*
X53362500Y-48375000D01*
X54462500Y-48375000D01*
X54462500Y-47575000D01*
X53362500Y-47575000D01*
X186712500Y-50875000D02*
X186712500Y-51675000D01*
X187812500Y-51675000D01*
X187812500Y-50875000D01*
X186712500Y-50875000D01*
X186712500Y-47575000D02*
X186712500Y-48375000D01*
X187812500Y-48375000D01*
X187812500Y-47575000D01*
X186712500Y-47575000D01*
X145562500Y-50875000D02*
X145562500Y-51675000D01*
X146662500Y-51675000D01*
X146662500Y-50875000D01*
X145562500Y-50875000D01*
X145562500Y-47575000D02*
X145562500Y-48375000D01*
X146662500Y-48375000D01*
X146662500Y-47575000D01*
X145562500Y-47575000D01*
X50312500Y-50875000D02*
X50312500Y-51675000D01*
X51412500Y-51675000D01*
X51412500Y-50875000D01*
X50312500Y-50875000D01*
X50312500Y-47575000D02*
X50312500Y-48375000D01*
X51412500Y-48375000D01*
X51412500Y-47575000D01*
X50312500Y-47575000D01*
X72412500Y-50875000D02*
X72412500Y-51675000D01*
X73512500Y-51675000D01*
X73512500Y-50875000D01*
X72412500Y-50875000D01*
X72412500Y-47575000D02*
X72412500Y-48375000D01*
X73512500Y-48375000D01*
X73512500Y-47575000D01*
X72412500Y-47575000D01*
X105750000Y-31825000D02*
X105750000Y-32625000D01*
X106850000Y-32625000D01*
X106850000Y-31825000D01*
X105750000Y-31825000D01*
X105750000Y-28525000D02*
X105750000Y-29325000D01*
X106850000Y-29325000D01*
X106850000Y-28525000D01*
X105750000Y-28525000D01*
X201000000Y-31825000D02*
X201000000Y-32625000D01*
X202100000Y-32625000D01*
X202100000Y-31825000D01*
X201000000Y-31825000D01*
X201000000Y-28525000D02*
X201000000Y-29325000D01*
X202100000Y-29325000D01*
X202100000Y-28525000D01*
X201000000Y-28525000D01*
X124800000Y-31825000D02*
X124800000Y-32625000D01*
X125900000Y-32625000D01*
X125900000Y-31825000D01*
X124800000Y-31825000D01*
X124800000Y-28525000D02*
X124800000Y-29325000D01*
X125900000Y-29325000D01*
X125900000Y-28525000D01*
X124800000Y-28525000D01*
X162900000Y-31825000D02*
X162900000Y-32625000D01*
X164000000Y-32625000D01*
X164000000Y-31825000D01*
X162900000Y-31825000D01*
X162900000Y-28525000D02*
X162900000Y-29325000D01*
X164000000Y-29325000D01*
X164000000Y-28525000D01*
X162900000Y-28525000D01*
X148612500Y-50875000D02*
X148612500Y-51675000D01*
X149712500Y-51675000D01*
X149712500Y-50875000D01*
X148612500Y-50875000D01*
X148612500Y-47575000D02*
X148612500Y-48375000D01*
X149712500Y-48375000D01*
X149712500Y-47575000D01*
X148612500Y-47575000D01*
X91462500Y-50875000D02*
X91462500Y-51675000D01*
X92562500Y-51675000D01*
X92562500Y-50875000D01*
X91462500Y-50875000D01*
X91462500Y-47575000D02*
X91462500Y-48375000D01*
X92562500Y-48375000D01*
X92562500Y-47575000D01*
X91462500Y-47575000D01*
X59837500Y-69925000D02*
X59837500Y-70725000D01*
X60937500Y-70725000D01*
X60937500Y-69925000D01*
X59837500Y-69925000D01*
X59837500Y-66625000D02*
X59837500Y-67425000D01*
X60937500Y-67425000D01*
X60937500Y-66625000D01*
X59837500Y-66625000D01*
X158137500Y-69925000D02*
X158137500Y-70725000D01*
X159237500Y-70725000D01*
X159237500Y-69925000D01*
X158137500Y-69925000D01*
X158137500Y-66625000D02*
X158137500Y-67425000D01*
X159237500Y-67425000D01*
X159237500Y-66625000D01*
X158137500Y-66625000D01*
X271768700Y-50875000D02*
X271768700Y-51675000D01*
X272868700Y-51675000D01*
X272868700Y-50875000D01*
X271768700Y-50875000D01*
X271768700Y-47575000D02*
X271768700Y-48375000D01*
X272868700Y-48375000D01*
X272868700Y-47575000D01*
X271768700Y-47575000D01*
X45354299Y-84500061D02*
X45354299Y-85300061D01*
X46454299Y-85300061D01*
X46454299Y-84500061D01*
X45354299Y-84500061D01*
X45354299Y-81200061D02*
X45354299Y-82000061D01*
X46454299Y-82000061D01*
X46454299Y-81200061D01*
X45354299Y-81200061D01*
X167662500Y-50875000D02*
X167662500Y-51675000D01*
X168762500Y-51675000D01*
X168762500Y-50875000D01*
X167662500Y-50875000D01*
X167662500Y-47575000D02*
X167662500Y-48375000D01*
X168762500Y-48375000D01*
X168762500Y-47575000D01*
X167662500Y-47575000D01*
X86700000Y-31825000D02*
X86700000Y-32625000D01*
X87800000Y-32625000D01*
X87800000Y-31825000D01*
X86700000Y-31825000D01*
X86700000Y-28525000D02*
X86700000Y-29325000D01*
X87800000Y-29325000D01*
X87800000Y-28525000D01*
X86700000Y-28525000D01*
X239100000Y-31825000D02*
X239100000Y-32625000D01*
X240200000Y-32625000D01*
X240200000Y-31825000D01*
X239100000Y-31825000D01*
X239100000Y-28525000D02*
X239100000Y-29325000D01*
X240200000Y-29325000D01*
X240200000Y-28525000D01*
X239100000Y-28525000D01*
X69362500Y-50875000D02*
X69362500Y-51675000D01*
X70462500Y-51675000D01*
X70462500Y-50875000D01*
X69362500Y-50875000D01*
X69362500Y-47575000D02*
X69362500Y-48375000D01*
X70462500Y-48375000D01*
X70462500Y-47575000D01*
X69362500Y-47575000D01*
X143850000Y-31825000D02*
X143850000Y-32625000D01*
X144950000Y-32625000D01*
X144950000Y-31825000D01*
X143850000Y-31825000D01*
X143850000Y-28525000D02*
X143850000Y-29325000D01*
X144950000Y-29325000D01*
X144950000Y-28525000D01*
X143850000Y-28525000D01*
X177187500Y-69925000D02*
X177187500Y-70725000D01*
X178287500Y-70725000D01*
X178287500Y-69925000D01*
X177187500Y-69925000D01*
X177187500Y-66625000D02*
X177187500Y-67425000D01*
X178287500Y-67425000D01*
X178287500Y-66625000D01*
X177187500Y-66625000D01*
X120037500Y-69925000D02*
X120037500Y-70725000D01*
X121137500Y-70725000D01*
X121137500Y-69925000D01*
X120037500Y-69925000D01*
X120037500Y-66625000D02*
X120037500Y-67425000D01*
X121137500Y-67425000D01*
X121137500Y-66625000D01*
X120037500Y-66625000D01*
X67650000Y-31825000D02*
X67650000Y-32625000D01*
X68750000Y-32625000D01*
X68750000Y-31825000D01*
X67650000Y-31825000D01*
X67650000Y-28525000D02*
X67650000Y-29325000D01*
X68750000Y-29325000D01*
X68750000Y-28525000D01*
X67650000Y-28525000D01*
X127300805Y-87020283D02*
X126911897Y-87409191D01*
X125851237Y-86348531D01*
X126240145Y-85959623D01*
X127300805Y-87020283D01*
X126735119Y-87585968D02*
X126346211Y-87974876D01*
X125285551Y-86914216D01*
X125674459Y-86525308D01*
X126735119Y-87585968D01*
X126169434Y-88151653D02*
X125780526Y-88540561D01*
X124719866Y-87479901D01*
X125108774Y-87090993D01*
X126169434Y-88151653D01*
X125603749Y-88717339D02*
X125214841Y-89106247D01*
X124154181Y-88045587D01*
X124543089Y-87656679D01*
X125603749Y-88717339D01*
X125038063Y-89283024D02*
X124649155Y-89671932D01*
X123588495Y-88611272D01*
X123977403Y-88222364D01*
X125038063Y-89283024D01*
X124472378Y-89848710D02*
X124083470Y-90237618D01*
X123022810Y-89176958D01*
X123411718Y-88788050D01*
X124472378Y-89848710D01*
X123906692Y-90414395D02*
X123517784Y-90803303D01*
X122457124Y-89742643D01*
X122846032Y-89353735D01*
X123906692Y-90414395D01*
X123341007Y-90980081D02*
X122952099Y-91368989D01*
X121891439Y-90308329D01*
X122280347Y-89919421D01*
X123341007Y-90980081D01*
X122775321Y-91545766D02*
X122386413Y-91934674D01*
X121325753Y-90874014D01*
X121714661Y-90485106D01*
X122775321Y-91545766D01*
X122209636Y-92111451D02*
X121820728Y-92500359D01*
X120760068Y-91439699D01*
X121148976Y-91050791D01*
X122209636Y-92111451D01*
X121643951Y-92677137D02*
X121255043Y-93066045D01*
X120194383Y-92005385D01*
X120583291Y-91616477D01*
X121643951Y-92677137D01*
X118179127Y-93066045D02*
X117790219Y-92677137D01*
X118850879Y-91616477D01*
X119239787Y-92005385D01*
X118179127Y-93066045D01*
X117613442Y-92500359D02*
X117224534Y-92111451D01*
X118285194Y-91050791D01*
X118674102Y-91439699D01*
X117613442Y-92500359D01*
X117047757Y-91934674D02*
X116658849Y-91545766D01*
X117719509Y-90485106D01*
X118108417Y-90874014D01*
X117047757Y-91934674D01*
X116482071Y-91368989D02*
X116093163Y-90980081D01*
X117153823Y-89919421D01*
X117542731Y-90308329D01*
X116482071Y-91368989D01*
X115916386Y-90803303D02*
X115527478Y-90414395D01*
X116588138Y-89353735D01*
X116977046Y-89742643D01*
X115916386Y-90803303D01*
X115350700Y-90237618D02*
X114961792Y-89848710D01*
X116022452Y-88788050D01*
X116411360Y-89176958D01*
X115350700Y-90237618D01*
X114785015Y-89671932D02*
X114396107Y-89283024D01*
X115456767Y-88222364D01*
X115845675Y-88611272D01*
X114785015Y-89671932D01*
X114219329Y-89106247D02*
X113830421Y-88717339D01*
X114891081Y-87656679D01*
X115279989Y-88045587D01*
X114219329Y-89106247D01*
X113653644Y-88540561D02*
X113264736Y-88151653D01*
X114325396Y-87090993D01*
X114714304Y-87479901D01*
X113653644Y-88540561D01*
X113087959Y-87974876D02*
X112699051Y-87585968D01*
X113759711Y-86525308D01*
X114148619Y-86914216D01*
X113087959Y-87974876D01*
X112522273Y-87409191D02*
X112133365Y-87020283D01*
X113194025Y-85959623D01*
X113582933Y-86348531D01*
X112522273Y-87409191D01*
X113582933Y-84616119D02*
X113194025Y-85005027D01*
X112133365Y-83944367D01*
X112522273Y-83555459D01*
X113582933Y-84616119D01*
X114148619Y-84050434D02*
X113759711Y-84439342D01*
X112699051Y-83378682D01*
X113087959Y-82989774D01*
X114148619Y-84050434D01*
X114714304Y-83484749D02*
X114325396Y-83873657D01*
X113264736Y-82812997D01*
X113653644Y-82424089D01*
X114714304Y-83484749D01*
X115279989Y-82919063D02*
X114891081Y-83307971D01*
X113830421Y-82247311D01*
X114219329Y-81858403D01*
X115279989Y-82919063D01*
X115845675Y-82353378D02*
X115456767Y-82742286D01*
X114396107Y-81681626D01*
X114785015Y-81292718D01*
X115845675Y-82353378D01*
X116411360Y-81787692D02*
X116022452Y-82176600D01*
X114961792Y-81115940D01*
X115350700Y-80727032D01*
X116411360Y-81787692D01*
X116977046Y-81222007D02*
X116588138Y-81610915D01*
X115527478Y-80550255D01*
X115916386Y-80161347D01*
X116977046Y-81222007D01*
X117542731Y-80656321D02*
X117153823Y-81045229D01*
X116093163Y-79984569D01*
X116482071Y-79595661D01*
X117542731Y-80656321D01*
X118108417Y-80090636D02*
X117719509Y-80479544D01*
X116658849Y-79418884D01*
X117047757Y-79029976D01*
X118108417Y-80090636D01*
X118674102Y-79524951D02*
X118285194Y-79913859D01*
X117224534Y-78853199D01*
X117613442Y-78464291D01*
X118674102Y-79524951D01*
X119239787Y-78959265D02*
X118850879Y-79348173D01*
X117790219Y-78287513D01*
X118179127Y-77898605D01*
X119239787Y-78959265D01*
X120583291Y-79348173D02*
X120194383Y-78959265D01*
X121255043Y-77898605D01*
X121643951Y-78287513D01*
X120583291Y-79348173D01*
X121148976Y-79913859D02*
X120760068Y-79524951D01*
X121820728Y-78464291D01*
X122209636Y-78853199D01*
X121148976Y-79913859D01*
X121714661Y-80479544D02*
X121325753Y-80090636D01*
X122386413Y-79029976D01*
X122775321Y-79418884D01*
X121714661Y-80479544D01*
X122280347Y-81045229D02*
X121891439Y-80656321D01*
X122952099Y-79595661D01*
X123341007Y-79984569D01*
X122280347Y-81045229D01*
X122846032Y-81610915D02*
X122457124Y-81222007D01*
X123517784Y-80161347D01*
X123906692Y-80550255D01*
X122846032Y-81610915D01*
X123411718Y-82176600D02*
X123022810Y-81787692D01*
X124083470Y-80727032D01*
X124472378Y-81115940D01*
X123411718Y-82176600D01*
X123977403Y-82742286D02*
X123588495Y-82353378D01*
X124649155Y-81292718D01*
X125038063Y-81681626D01*
X123977403Y-82742286D01*
X124543089Y-83307971D02*
X124154181Y-82919063D01*
X125214841Y-81858403D01*
X125603749Y-82247311D01*
X124543089Y-83307971D01*
X125108774Y-83873657D02*
X124719866Y-83484749D01*
X125780526Y-82424089D01*
X126169434Y-82812997D01*
X125108774Y-83873657D01*
X125674459Y-84439342D02*
X125285551Y-84050434D01*
X126346211Y-82989774D01*
X126735119Y-83378682D01*
X125674459Y-84439342D01*
X126240145Y-85005027D02*
X125851237Y-84616119D01*
X126911897Y-83555459D01*
X127300805Y-83944367D01*
X126240145Y-85005027D01*
X104929287Y-90650061D02*
X104929287Y-92550061D01*
X105229287Y-92550061D01*
X105229287Y-90650061D01*
X104929287Y-90650061D01*
X107329287Y-90650061D02*
X107329287Y-92550061D01*
X107629287Y-92550061D01*
X107629287Y-90650061D01*
X107329287Y-90650061D01*
X106129287Y-90650061D02*
X106129287Y-92550061D01*
X106429287Y-92550061D01*
X106429287Y-90650061D01*
X106129287Y-90650061D01*
X200279287Y-84850061D02*
X200279287Y-85750061D01*
X201879287Y-85750061D01*
X201879287Y-84850061D01*
X200279287Y-84850061D01*
X206579287Y-84850061D02*
X206579287Y-85750061D01*
X208179287Y-85750061D01*
X208179287Y-84850061D01*
X206579287Y-84850061D01*
X206579287Y-88650061D02*
X206579287Y-89550061D01*
X208179287Y-89550061D01*
X208179287Y-88650061D01*
X206579287Y-88650061D01*
X200279287Y-88650061D02*
X200279287Y-89550061D01*
X201879287Y-89550061D01*
X201879287Y-88650061D01*
X200279287Y-88650061D01*
X105929287Y-78100061D02*
X105929287Y-79300061D01*
X107029287Y-79300061D01*
X107029287Y-78100061D01*
X105929287Y-78100061D01*
X108129287Y-78100061D02*
X108129287Y-79300061D01*
X109229287Y-79300061D01*
X109229287Y-78100061D01*
X108129287Y-78100061D01*
X172425000Y-12775000D02*
X172425000Y-13575000D01*
X173525000Y-13575000D01*
X173525000Y-12775000D01*
X172425000Y-12775000D01*
X172425000Y-9475000D02*
X172425000Y-10275000D01*
X173525000Y-10275000D01*
X173525000Y-9475000D01*
X172425000Y-9475000D01*
X153375000Y-12775000D02*
X153375000Y-13575000D01*
X154475000Y-13575000D01*
X154475000Y-12775000D01*
X153375000Y-12775000D01*
X153375000Y-9475000D02*
X153375000Y-10275000D01*
X154475000Y-10275000D01*
X154475000Y-9475000D01*
X153375000Y-9475000D01*
X229575000Y-12775000D02*
X229575000Y-13575000D01*
X230675000Y-13575000D01*
X230675000Y-12775000D01*
X229575000Y-12775000D01*
X229575000Y-9475000D02*
X229575000Y-10275000D01*
X230675000Y-10275000D01*
X230675000Y-9475000D01*
X229575000Y-9475000D01*
X191475000Y-12775000D02*
X191475000Y-13575000D01*
X192575000Y-13575000D01*
X192575000Y-12775000D01*
X191475000Y-12775000D01*
X191475000Y-9475000D02*
X191475000Y-10275000D01*
X192575000Y-10275000D01*
X192575000Y-9475000D01*
X191475000Y-9475000D01*
X245575000Y-12775000D02*
X245575000Y-13575000D01*
X246675000Y-13575000D01*
X246675000Y-12775000D01*
X245575000Y-12775000D01*
X245575000Y-9475000D02*
X245575000Y-10275000D01*
X246675000Y-10275000D01*
X246675000Y-9475000D01*
X245575000Y-9475000D01*
X45550000Y-31825000D02*
X45550000Y-32625000D01*
X46650000Y-32625000D01*
X46650000Y-31825000D01*
X45550000Y-31825000D01*
X45550000Y-28525000D02*
X45550000Y-29325000D01*
X46650000Y-29325000D01*
X46650000Y-28525000D01*
X45550000Y-28525000D01*
X5737500Y-31825000D02*
X5737500Y-32625000D01*
X6837500Y-32625000D01*
X6837500Y-31825000D01*
X5737500Y-31825000D01*
X5737500Y-28525000D02*
X5737500Y-29325000D01*
X6837500Y-29325000D01*
X6837500Y-28525000D01*
X5737500Y-28525000D01*
X210525000Y-12775000D02*
X210525000Y-13575000D01*
X211625000Y-13575000D01*
X211625000Y-12775000D01*
X210525000Y-12775000D01*
X210525000Y-9475000D02*
X210525000Y-10275000D01*
X211625000Y-10275000D01*
X211625000Y-9475000D01*
X210525000Y-9475000D01*
X115275000Y-12775000D02*
X115275000Y-13575000D01*
X116375000Y-13575000D01*
X116375000Y-12775000D01*
X115275000Y-12775000D01*
X115275000Y-9475000D02*
X115275000Y-10275000D01*
X116375000Y-10275000D01*
X116375000Y-9475000D01*
X115275000Y-9475000D01*
X55075000Y-12775000D02*
X55075000Y-13575000D01*
X56175000Y-13575000D01*
X56175000Y-12775000D01*
X55075000Y-12775000D01*
X55075000Y-9475000D02*
X55075000Y-10275000D01*
X56175000Y-10275000D01*
X56175000Y-9475000D01*
X55075000Y-9475000D01*
X77175000Y-12775000D02*
X77175000Y-13575000D01*
X78275000Y-13575000D01*
X78275000Y-12775000D01*
X77175000Y-12775000D01*
X77175000Y-9475000D02*
X77175000Y-10275000D01*
X78275000Y-10275000D01*
X78275000Y-9475000D01*
X77175000Y-9475000D01*
X134325000Y-12775000D02*
X134325000Y-13575000D01*
X135425000Y-13575000D01*
X135425000Y-12775000D01*
X134325000Y-12775000D01*
X134325000Y-9475000D02*
X134325000Y-10275000D01*
X135425000Y-10275000D01*
X135425000Y-9475000D01*
X134325000Y-9475000D01*
X96225000Y-12775000D02*
X96225000Y-13575000D01*
X97325000Y-13575000D01*
X97325000Y-12775000D01*
X96225000Y-12775000D01*
X96225000Y-9475000D02*
X96225000Y-10275000D01*
X97325000Y-10275000D01*
X97325000Y-9475000D01*
X96225000Y-9475000D01*
X58125000Y-12775000D02*
X58125000Y-13575000D01*
X59225000Y-13575000D01*
X59225000Y-12775000D01*
X58125000Y-12775000D01*
X58125000Y-9475000D02*
X58125000Y-10275000D01*
X59225000Y-10275000D01*
X59225000Y-9475000D01*
X58125000Y-9475000D01*
X135929287Y-85950061D02*
G75*
G03*
X135929287Y-85950061I-950000J0D01*
G01*
X233429287Y-85325561D02*
X233429287Y-86125561D01*
X234529287Y-86125561D01*
X234529287Y-85325561D01*
X233429287Y-85325561D01*
X233429287Y-82025561D02*
X233429287Y-82825561D01*
X234529287Y-82825561D01*
X234529287Y-82025561D01*
X233429287Y-82025561D01*
X17259390Y-17814077D02*
X17259390Y-18914077D01*
X18459390Y-18914077D01*
X18459390Y-17814077D01*
X17259390Y-17814077D01*
X17259390Y-15614077D02*
X17259390Y-16714077D01*
X18459390Y-16714077D01*
X18459390Y-15614077D01*
X17259390Y-15614077D01*
X21733000Y-5630000D02*
G75*
G03*
X21733000Y-5630000I-275000J0D01*
G01*
X15953000Y-5630000D02*
G75*
G03*
X15953000Y-5630000I-275000J0D01*
G01*
X15093000Y-6400000D02*
X15093000Y-7750000D01*
X15593000Y-7750000D01*
X15593000Y-6400000D01*
X15093000Y-6400000D01*
X15868000Y-6400000D02*
X15868000Y-7750000D01*
X16368000Y-7750000D01*
X16368000Y-6400000D01*
X15868000Y-6400000D01*
X16718000Y-6400000D02*
X16718000Y-7750000D01*
X16918000Y-7750000D01*
X16918000Y-6400000D01*
X16718000Y-6400000D01*
X17218000Y-6400000D02*
X17218000Y-7750000D01*
X17418000Y-7750000D01*
X17418000Y-6400000D01*
X17218000Y-6400000D01*
X17718000Y-6400000D02*
X17718000Y-7750000D01*
X17918000Y-7750000D01*
X17918000Y-6400000D01*
X17718000Y-6400000D01*
X18218000Y-6400000D02*
X18218000Y-7750000D01*
X18418000Y-7750000D01*
X18418000Y-6400000D01*
X18218000Y-6400000D01*
X18718000Y-6400000D02*
X18718000Y-7750000D01*
X18918000Y-7750000D01*
X18918000Y-6400000D01*
X18718000Y-6400000D01*
X19218000Y-6400000D02*
X19218000Y-7750000D01*
X19418000Y-7750000D01*
X19418000Y-6400000D01*
X19218000Y-6400000D01*
X19718000Y-6400000D02*
X19718000Y-7750000D01*
X19918000Y-7750000D01*
X19918000Y-6400000D01*
X19718000Y-6400000D01*
X20218000Y-6400000D02*
X20218000Y-7750000D01*
X20418000Y-7750000D01*
X20418000Y-6400000D01*
X20218000Y-6400000D01*
X20768000Y-6400000D02*
X20768000Y-7750000D01*
X21268000Y-7750000D01*
X21268000Y-6400000D01*
X20768000Y-6400000D01*
X21543000Y-6400000D02*
X21543000Y-7750000D01*
X22043000Y-7750000D01*
X22043000Y-6400000D01*
X21543000Y-6400000D01*
X23338000Y-6710000D02*
X23338000Y-5610000D01*
X22438000Y-6710000D02*
X22438000Y-5610000D01*
X23338000Y-5610000D02*
G75*
G03*
X22438000Y-5610000I-450000J0D01*
G01*
X22438000Y-6710000D02*
G75*
G03*
X23338000Y-6710000I450000J0D01*
G01*
X23338000Y-2280000D02*
X23338000Y-1680000D01*
X22438000Y-2280000D02*
X22438000Y-1680000D01*
X23338000Y-1680000D02*
G75*
G03*
X22438000Y-1680000I-450000J0D01*
G01*
X22438000Y-2280000D02*
G75*
G03*
X23338000Y-2280000I450000J0D01*
G01*
X14698000Y-2280000D02*
X14698000Y-1680000D01*
X13798000Y-2280000D02*
X13798000Y-1680000D01*
X14698000Y-1680000D02*
G75*
G03*
X13798000Y-1680000I-450000J0D01*
G01*
X13798000Y-2280000D02*
G75*
G03*
X14698000Y-2280000I450000J0D01*
G01*
X14698000Y-6710000D02*
X14698000Y-5610000D01*
X13798000Y-6710000D02*
X13798000Y-5610000D01*
X14698000Y-5610000D02*
G75*
G03*
X13798000Y-5610000I-450000J0D01*
G01*
X13798000Y-6710000D02*
G75*
G03*
X14698000Y-6710000I450000J0D01*
G01*
X62887500Y-69925000D02*
X62887500Y-70725000D01*
X63987500Y-70725000D01*
X63987500Y-69925000D01*
X62887500Y-69925000D01*
X62887500Y-66625000D02*
X62887500Y-67425000D01*
X63987500Y-67425000D01*
X63987500Y-66625000D01*
X62887500Y-66625000D01*
X109579287Y-91575061D02*
X109579287Y-92725061D01*
X110679287Y-92725061D01*
X110679287Y-91575061D01*
X109579287Y-91575061D01*
X111779287Y-91575061D02*
X111779287Y-92725061D01*
X112879287Y-92725061D01*
X112879287Y-91575061D01*
X111779287Y-91575061D01*
X129954287Y-83850061D02*
X129954287Y-84950061D01*
X131104287Y-84950061D01*
X131104287Y-83850061D01*
X129954287Y-83850061D01*
X129954287Y-86050061D02*
X129954287Y-87150061D01*
X131104287Y-87150061D01*
X131104287Y-86050061D01*
X129954287Y-86050061D01*
X28881250Y-69925000D02*
X28881250Y-70725000D01*
X29981250Y-70725000D01*
X29981250Y-69925000D01*
X28881250Y-69925000D01*
X28881250Y-66625000D02*
X28881250Y-67425000D01*
X29981250Y-67425000D01*
X29981250Y-66625000D01*
X28881250Y-66625000D01*
X236050000Y-31825000D02*
X236050000Y-32625000D01*
X237150000Y-32625000D01*
X237150000Y-31825000D01*
X236050000Y-31825000D01*
X236050000Y-28525000D02*
X236050000Y-29325000D01*
X237150000Y-29325000D01*
X237150000Y-28525000D01*
X236050000Y-28525000D01*
X14878138Y-18409390D02*
X14878138Y-19509390D01*
X16078138Y-19509390D01*
X16078138Y-18409390D01*
X14878138Y-18409390D01*
X14878138Y-16209390D02*
X14878138Y-17309390D01*
X16078138Y-17309390D01*
X16078138Y-16209390D01*
X14878138Y-16209390D01*
X36025000Y-12775000D02*
X36025000Y-13575000D01*
X37125000Y-13575000D01*
X37125000Y-12775000D01*
X36025000Y-12775000D01*
X36025000Y-9475000D02*
X36025000Y-10275000D01*
X37125000Y-10275000D01*
X37125000Y-9475000D01*
X36025000Y-9475000D01*
X19640642Y-15614077D02*
X19640642Y-16714077D01*
X20840642Y-16714077D01*
X20840642Y-15614077D01*
X19640642Y-15614077D01*
X19640642Y-17814077D02*
X19640642Y-18914077D01*
X20840642Y-18914077D01*
X20840642Y-17814077D01*
X19640642Y-17814077D01*
X170639287Y-90796313D02*
X170639287Y-91946313D01*
X171739287Y-91946313D01*
X171739287Y-90796313D01*
X170639287Y-90796313D01*
X172839287Y-90796313D02*
X172839287Y-91946313D01*
X173939287Y-91946313D01*
X173939287Y-90796313D01*
X172839287Y-90796313D01*
X106354287Y-86000061D02*
X106354287Y-87100061D01*
X107504287Y-87100061D01*
X107504287Y-86000061D01*
X106354287Y-86000061D01*
X106354287Y-83800061D02*
X106354287Y-84900061D01*
X107504287Y-84900061D01*
X107504287Y-83800061D01*
X106354287Y-83800061D01*
X172839287Y-88390061D02*
X172839287Y-89590061D01*
X173939287Y-89590061D01*
X173939287Y-88390061D01*
X172839287Y-88390061D01*
X170639287Y-88390061D02*
X170639287Y-89590061D01*
X171739287Y-89590061D01*
X171739287Y-88390061D01*
X170639287Y-88390061D01*
X22021894Y-11446886D02*
X22021894Y-12546886D01*
X23221894Y-12546886D01*
X23221894Y-11446886D01*
X22021894Y-11446886D01*
X22021894Y-13646886D02*
X22021894Y-14746886D01*
X23221894Y-14746886D01*
X23221894Y-13646886D01*
X22021894Y-13646886D01*
X39075000Y-12775000D02*
X39075000Y-13575000D01*
X40175000Y-13575000D01*
X40175000Y-12775000D01*
X39075000Y-12775000D01*
X39075000Y-9475000D02*
X39075000Y-10275000D01*
X40175000Y-10275000D01*
X40175000Y-9475000D01*
X39075000Y-9475000D01*
X53578819Y-84500061D02*
X53578819Y-85300061D01*
X54678819Y-85300061D01*
X54678819Y-84500061D01*
X53578819Y-84500061D01*
X53578819Y-81200061D02*
X53578819Y-82000061D01*
X54678819Y-82000061D01*
X54678819Y-81200061D01*
X53578819Y-81200061D01*
X17850016Y-10801573D02*
X17850016Y-11901573D01*
X18350016Y-11901573D01*
X18350016Y-10801573D01*
X17850016Y-10801573D01*
X18800016Y-10801573D02*
X18800016Y-11901573D01*
X19300016Y-11901573D01*
X19300016Y-10801573D01*
X18800016Y-10801573D01*
X19750016Y-10801573D02*
X19750016Y-11901573D01*
X20250016Y-11901573D01*
X20250016Y-10801573D01*
X19750016Y-10801573D01*
X19750016Y-13101573D02*
X19750016Y-14201573D01*
X20250016Y-14201573D01*
X20250016Y-13101573D01*
X19750016Y-13101573D01*
X18800016Y-13101573D02*
X18800016Y-14201573D01*
X19300016Y-14201573D01*
X19300016Y-13101573D01*
X18800016Y-13101573D01*
X17850016Y-13101573D02*
X17850016Y-14201573D01*
X18350016Y-14201573D01*
X18350016Y-13101573D01*
X17850016Y-13101573D01*
X175929287Y-89710061D02*
X175929287Y-91310061D01*
X177529287Y-91310061D01*
X177529287Y-89710061D01*
X175929287Y-89710061D01*
X180069287Y-90510061D02*
X180069287Y-90510061D01*
X178469287Y-90510061D02*
X178469287Y-90510061D01*
X180069287Y-90510061D02*
G75*
G03*
X178469287Y-90510061I-800000J0D01*
G01*
X178469287Y-90510061D02*
G75*
G03*
X180069287Y-90510061I800000J0D01*
G01*
X177529287Y-87970061D02*
X177529287Y-87970061D01*
X175929287Y-87970061D02*
X175929287Y-87970061D01*
X177529287Y-87970061D02*
G75*
G03*
X175929287Y-87970061I-800000J0D01*
G01*
X175929287Y-87970061D02*
G75*
G03*
X177529287Y-87970061I800000J0D01*
G01*
X180069287Y-87970061D02*
X180069287Y-87970061D01*
X178469287Y-87970061D02*
X178469287Y-87970061D01*
X180069287Y-87970061D02*
G75*
G03*
X178469287Y-87970061I-800000J0D01*
G01*
X178469287Y-87970061D02*
G75*
G03*
X180069287Y-87970061I800000J0D01*
G01*
X177529287Y-85430061D02*
X177529287Y-85430061D01*
X175929287Y-85430061D02*
X175929287Y-85430061D01*
X177529287Y-85430061D02*
G75*
G03*
X175929287Y-85430061I-800000J0D01*
G01*
X175929287Y-85430061D02*
G75*
G03*
X177529287Y-85430061I800000J0D01*
G01*
X180069287Y-85430061D02*
X180069287Y-85430061D01*
X178469287Y-85430061D02*
X178469287Y-85430061D01*
X180069287Y-85430061D02*
G75*
G03*
X178469287Y-85430061I-800000J0D01*
G01*
X178469287Y-85430061D02*
G75*
G03*
X180069287Y-85430061I800000J0D01*
G01*
X14878138Y-13646886D02*
X14878138Y-14746886D01*
X16078138Y-14746886D01*
X16078138Y-13646886D01*
X14878138Y-13646886D01*
X14878138Y-11446886D02*
X14878138Y-12546886D01*
X16078138Y-12546886D01*
X16078138Y-11446886D01*
X14878138Y-11446886D01*
X156011075Y-84525072D02*
X156011075Y-86925072D01*
X158411075Y-86925072D01*
X158411075Y-84525072D01*
X156011075Y-84525072D01*
X169011075Y-84525072D02*
X169011075Y-86925072D01*
X171411075Y-86925072D01*
X171411075Y-84525072D01*
X169011075Y-84525072D01*
X131954287Y-83850061D02*
X131954287Y-84950061D01*
X133104287Y-84950061D01*
X133104287Y-83850061D01*
X131954287Y-83850061D01*
X131954287Y-86050061D02*
X131954287Y-87150061D01*
X133104287Y-87150061D01*
X133104287Y-86050061D01*
X131954287Y-86050061D01*
X113279287Y-78125061D02*
X113279287Y-79275061D01*
X114379287Y-79275061D01*
X114379287Y-78125061D01*
X113279287Y-78125061D01*
X111079287Y-78125061D02*
X111079287Y-79275061D01*
X112179287Y-79275061D01*
X112179287Y-78125061D01*
X111079287Y-78125061D01*
D16*
D15*
X41361166Y-16308066D02*
X41393291Y-16329531D01*
X41414756Y-16361656D01*
X41423273Y-16404472D01*
X41423273Y-16694626D01*
X41414756Y-16737442D01*
X41393291Y-16769567D01*
X41361166Y-16791032D01*
X41318350Y-16799549D01*
X39778196Y-16799549D01*
X39735380Y-16791032D01*
X39703255Y-16769567D01*
X39681790Y-16737442D01*
X39673273Y-16694626D01*
X39673273Y-16404472D01*
X39681790Y-16361656D01*
X39703255Y-16329531D01*
X39735380Y-16308066D01*
X39778196Y-16299549D01*
X41318350Y-16299549D01*
X41361166Y-16308066D01*
D16*
D15*
X41361166Y-17308066D02*
X41393291Y-17329531D01*
X41414756Y-17361656D01*
X41423273Y-17404472D01*
X41423273Y-17694626D01*
X41414756Y-17737442D01*
X41393291Y-17769567D01*
X41361166Y-17791032D01*
X41318350Y-17799549D01*
X39778196Y-17799549D01*
X39735380Y-17791032D01*
X39703255Y-17769567D01*
X39681790Y-17737442D01*
X39673273Y-17694626D01*
X39673273Y-17404472D01*
X39681790Y-17361656D01*
X39703255Y-17329531D01*
X39735380Y-17308066D01*
X39778196Y-17299549D01*
X41318350Y-17299549D01*
X41361166Y-17308066D01*
D16*
D15*
X41361166Y-18308066D02*
X41393291Y-18329531D01*
X41414756Y-18361656D01*
X41423273Y-18404472D01*
X41423273Y-18694626D01*
X41414756Y-18737442D01*
X41393291Y-18769567D01*
X41361166Y-18791032D01*
X41318350Y-18799549D01*
X39778196Y-18799549D01*
X39735380Y-18791032D01*
X39703255Y-18769567D01*
X39681790Y-18737442D01*
X39673273Y-18694626D01*
X39673273Y-18404472D01*
X39681790Y-18361656D01*
X39703255Y-18329531D01*
X39735380Y-18308066D01*
X39778196Y-18299549D01*
X41318350Y-18299549D01*
X41361166Y-18308066D01*
D16*
D15*
X41361166Y-19308066D02*
X41393291Y-19329531D01*
X41414756Y-19361656D01*
X41423273Y-19404472D01*
X41423273Y-19694626D01*
X41414756Y-19737442D01*
X41393291Y-19769567D01*
X41361166Y-19791032D01*
X41318350Y-19799549D01*
X39778196Y-19799549D01*
X39735380Y-19791032D01*
X39703255Y-19769567D01*
X39681790Y-19737442D01*
X39673273Y-19694626D01*
X39673273Y-19404472D01*
X39681790Y-19361656D01*
X39703255Y-19329531D01*
X39735380Y-19308066D01*
X39778196Y-19299549D01*
X41318350Y-19299549D01*
X41361166Y-19308066D01*
D16*
D15*
X45187347Y-14303841D02*
X45281489Y-14338106D01*
X45356520Y-14401064D01*
X45405494Y-14485890D01*
X45423273Y-14586721D01*
X45423273Y-15514563D01*
X45418981Y-15563623D01*
X45384716Y-15657765D01*
X45321758Y-15732796D01*
X45236932Y-15781770D01*
X45136101Y-15799549D01*
X44008259Y-15799549D01*
X43959199Y-15795257D01*
X43865057Y-15760992D01*
X43790026Y-15698034D01*
X43741052Y-15613208D01*
X43723273Y-15512377D01*
X43723273Y-14584535D01*
X43727565Y-14535475D01*
X43761830Y-14441333D01*
X43824788Y-14366302D01*
X43909614Y-14317328D01*
X44010445Y-14299549D01*
X45138287Y-14299549D01*
X45187347Y-14303841D01*
D16*
D15*
X45187347Y-20303841D02*
X45281489Y-20338106D01*
X45356520Y-20401064D01*
X45405494Y-20485890D01*
X45423273Y-20586721D01*
X45423273Y-21514563D01*
X45418981Y-21563623D01*
X45384716Y-21657765D01*
X45321758Y-21732796D01*
X45236932Y-21781770D01*
X45136101Y-21799549D01*
X44008259Y-21799549D01*
X43959199Y-21795257D01*
X43865057Y-21760992D01*
X43790026Y-21698034D01*
X43741052Y-21613208D01*
X43723273Y-21512377D01*
X43723273Y-20584535D01*
X43727565Y-20535475D01*
X43761830Y-20441333D01*
X43824788Y-20366302D01*
X43909614Y-20317328D01*
X44010445Y-20299549D01*
X45138287Y-20299549D01*
X45187347Y-20303841D01*
X248624977Y-12775061D02*
X248624977Y-13575061D01*
X249724977Y-13575061D01*
X249724977Y-12775061D01*
X248624977Y-12775061D01*
X248624977Y-9475061D02*
X248624977Y-10275061D01*
X249724977Y-10275061D01*
X249724977Y-9475061D01*
X248624977Y-9475061D01*
M02*
