G04 #@! TF.GenerationSoftware,KiCad,Pcbnew,(5.99.0-11336-g5116fa6d12)*
G04 #@! TF.CreationDate,2021-07-24T21:06:12+02:00*
G04 #@! TF.ProjectId,plain60-flex-mkd-ansi,706c6169-6e36-4302-9d66-6c65782d6d6b,rev?*
G04 #@! TF.SameCoordinates,Original*
G04 #@! TF.FileFunction,AssemblyDrawing,Top*
%FSLAX46Y46*%
G04 Gerber Fmt 4.6, Leading zero omitted, Abs format (unit mm)*
G04 Created by KiCad (PCBNEW (5.99.0-11336-g5116fa6d12)) date 2021-07-24 21:06:12*
%MOMM*%
%LPD*%
G01*
G04 APERTURE LIST*
%ADD10C,0.150000*%
%ADD11C,0.100000*%
G04 APERTURE END LIST*
D10*
X126611417Y-47329801D02*
X126754274Y-47377420D01*
X126992369Y-47377420D01*
X127087608Y-47329801D01*
X127135227Y-47282182D01*
X127182846Y-47186944D01*
X127182846Y-47091706D01*
X127135227Y-46996468D01*
X127087608Y-46948849D01*
X126992369Y-46901230D01*
X126801893Y-46853611D01*
X126706655Y-46805992D01*
X126659036Y-46758373D01*
X126611417Y-46663135D01*
X126611417Y-46567897D01*
X126659036Y-46472659D01*
X126706655Y-46425040D01*
X126801893Y-46377420D01*
X127039988Y-46377420D01*
X127182846Y-46425040D01*
X128039988Y-47329801D02*
X127944750Y-47377420D01*
X127754274Y-47377420D01*
X127659036Y-47329801D01*
X127611417Y-47282182D01*
X127563798Y-47186944D01*
X127563798Y-46901230D01*
X127611417Y-46805992D01*
X127659036Y-46758373D01*
X127754274Y-46710754D01*
X127944750Y-46710754D01*
X128039988Y-46758373D01*
X128468560Y-47377420D02*
X128468560Y-46710754D01*
X128468560Y-46901230D02*
X128516179Y-46805992D01*
X128563798Y-46758373D01*
X128659036Y-46710754D01*
X128754274Y-46710754D01*
X129468560Y-47329801D02*
X129373322Y-47377420D01*
X129182846Y-47377420D01*
X129087608Y-47329801D01*
X129039988Y-47234563D01*
X129039988Y-46853611D01*
X129087608Y-46758373D01*
X129182846Y-46710754D01*
X129373322Y-46710754D01*
X129468560Y-46758373D01*
X129516179Y-46853611D01*
X129516179Y-46948849D01*
X129039988Y-47044087D01*
X129849512Y-46710754D02*
X130039988Y-47377420D01*
X130230465Y-46901230D01*
X130420941Y-47377420D01*
X130611417Y-46710754D01*
D11*
X79833000Y-23495000D02*
G75*
G03*
X79833000Y-23495000I-1093000J0D01*
G01*
X73483000Y-26035000D02*
G75*
G03*
X73483000Y-26035000I-1093000J0D01*
G01*
X71920900Y-28575000D02*
G75*
G03*
X71920900Y-28575000I-800900J0D01*
G01*
X78143900Y-28575000D02*
G75*
G03*
X78143900Y-28575000I-1943900J0D01*
G01*
X82080900Y-28575000D02*
G75*
G03*
X82080900Y-28575000I-800900J0D01*
G01*
X98883000Y-23495000D02*
G75*
G03*
X98883000Y-23495000I-1093000J0D01*
G01*
X92533000Y-26035000D02*
G75*
G03*
X92533000Y-26035000I-1093000J0D01*
G01*
X101130900Y-28575000D02*
G75*
G03*
X101130900Y-28575000I-800900J0D01*
G01*
X97193900Y-28575000D02*
G75*
G03*
X97193900Y-28575000I-1943900J0D01*
G01*
X90970900Y-28575000D02*
G75*
G03*
X90970900Y-28575000I-800900J0D01*
G01*
X156033000Y-23495000D02*
G75*
G03*
X156033000Y-23495000I-1093000J0D01*
G01*
X149683000Y-26035000D02*
G75*
G03*
X149683000Y-26035000I-1093000J0D01*
G01*
X154343900Y-28575000D02*
G75*
G03*
X154343900Y-28575000I-1943900J0D01*
G01*
X158280900Y-28575000D02*
G75*
G03*
X158280900Y-28575000I-800900J0D01*
G01*
X148120900Y-28575000D02*
G75*
G03*
X148120900Y-28575000I-800900J0D01*
G01*
X175083000Y-23495000D02*
G75*
G03*
X175083000Y-23495000I-1093000J0D01*
G01*
X168733000Y-26035000D02*
G75*
G03*
X168733000Y-26035000I-1093000J0D01*
G01*
X167170900Y-28575000D02*
G75*
G03*
X167170900Y-28575000I-800900J0D01*
G01*
X173393900Y-28575000D02*
G75*
G03*
X173393900Y-28575000I-1943900J0D01*
G01*
X177330900Y-28575000D02*
G75*
G03*
X177330900Y-28575000I-800900J0D01*
G01*
X136983000Y-23495000D02*
G75*
G03*
X136983000Y-23495000I-1093000J0D01*
G01*
X130633000Y-26035000D02*
G75*
G03*
X130633000Y-26035000I-1093000J0D01*
G01*
X135293900Y-28575000D02*
G75*
G03*
X135293900Y-28575000I-1943900J0D01*
G01*
X139230900Y-28575000D02*
G75*
G03*
X139230900Y-28575000I-800900J0D01*
G01*
X129070900Y-28575000D02*
G75*
G03*
X129070900Y-28575000I-800900J0D01*
G01*
X117933000Y-23495000D02*
G75*
G03*
X117933000Y-23495000I-1093000J0D01*
G01*
X111583000Y-26035000D02*
G75*
G03*
X111583000Y-26035000I-1093000J0D01*
G01*
X110020900Y-28575000D02*
G75*
G03*
X110020900Y-28575000I-800900J0D01*
G01*
X120180900Y-28575000D02*
G75*
G03*
X120180900Y-28575000I-800900J0D01*
G01*
X116243900Y-28575000D02*
G75*
G03*
X116243900Y-28575000I-1943900J0D01*
G01*
X17920500Y-23495000D02*
G75*
G03*
X17920500Y-23495000I-1093000J0D01*
G01*
X11570500Y-26035000D02*
G75*
G03*
X11570500Y-26035000I-1093000J0D01*
G01*
X20168400Y-28575000D02*
G75*
G03*
X20168400Y-28575000I-800900J0D01*
G01*
X10008400Y-28575000D02*
G75*
G03*
X10008400Y-28575000I-800900J0D01*
G01*
X16231400Y-28575000D02*
G75*
G03*
X16231400Y-28575000I-1943900J0D01*
G01*
X146508000Y-4445000D02*
G75*
G03*
X146508000Y-4445000I-1093000J0D01*
G01*
X140158000Y-6985000D02*
G75*
G03*
X140158000Y-6985000I-1093000J0D01*
G01*
X144818900Y-9525000D02*
G75*
G03*
X144818900Y-9525000I-1943900J0D01*
G01*
X148755900Y-9525000D02*
G75*
G03*
X148755900Y-9525000I-800900J0D01*
G01*
X138595900Y-9525000D02*
G75*
G03*
X138595900Y-9525000I-800900J0D01*
G01*
X184608000Y-4445000D02*
G75*
G03*
X184608000Y-4445000I-1093000J0D01*
G01*
X178258000Y-6985000D02*
G75*
G03*
X178258000Y-6985000I-1093000J0D01*
G01*
X186855900Y-9525000D02*
G75*
G03*
X186855900Y-9525000I-800900J0D01*
G01*
X176695900Y-9525000D02*
G75*
G03*
X176695900Y-9525000I-800900J0D01*
G01*
X182918900Y-9525000D02*
G75*
G03*
X182918900Y-9525000I-1943900J0D01*
G01*
X89358000Y-4445000D02*
G75*
G03*
X89358000Y-4445000I-1093000J0D01*
G01*
X83008000Y-6985000D02*
G75*
G03*
X83008000Y-6985000I-1093000J0D01*
G01*
X91605900Y-9525000D02*
G75*
G03*
X91605900Y-9525000I-800900J0D01*
G01*
X87668900Y-9525000D02*
G75*
G03*
X87668900Y-9525000I-1943900J0D01*
G01*
X81445900Y-9525000D02*
G75*
G03*
X81445900Y-9525000I-800900J0D01*
G01*
X241758000Y-4445000D02*
G75*
G03*
X241758000Y-4445000I-1093000J0D01*
G01*
X235408000Y-6985000D02*
G75*
G03*
X235408000Y-6985000I-1093000J0D01*
G01*
X244005900Y-9525000D02*
G75*
G03*
X244005900Y-9525000I-800900J0D01*
G01*
X240068900Y-9525000D02*
G75*
G03*
X240068900Y-9525000I-1943900J0D01*
G01*
X233845900Y-9525000D02*
G75*
G03*
X233845900Y-9525000I-800900J0D01*
G01*
X222708000Y-4445000D02*
G75*
G03*
X222708000Y-4445000I-1093000J0D01*
G01*
X216358000Y-6985000D02*
G75*
G03*
X216358000Y-6985000I-1093000J0D01*
G01*
X224955900Y-9525000D02*
G75*
G03*
X224955900Y-9525000I-800900J0D01*
G01*
X214795900Y-9525000D02*
G75*
G03*
X214795900Y-9525000I-800900J0D01*
G01*
X221018900Y-9525000D02*
G75*
G03*
X221018900Y-9525000I-1943900J0D01*
G01*
X203658000Y-4445000D02*
G75*
G03*
X203658000Y-4445000I-1093000J0D01*
G01*
X197308000Y-6985000D02*
G75*
G03*
X197308000Y-6985000I-1093000J0D01*
G01*
X201968900Y-9525000D02*
G75*
G03*
X201968900Y-9525000I-1943900J0D01*
G01*
X205905900Y-9525000D02*
G75*
G03*
X205905900Y-9525000I-800900J0D01*
G01*
X195745900Y-9525000D02*
G75*
G03*
X195745900Y-9525000I-800900J0D01*
G01*
X165558000Y-4445000D02*
G75*
G03*
X165558000Y-4445000I-1093000J0D01*
G01*
X159208000Y-6985000D02*
G75*
G03*
X159208000Y-6985000I-1093000J0D01*
G01*
X157645900Y-9525000D02*
G75*
G03*
X157645900Y-9525000I-800900J0D01*
G01*
X163868900Y-9525000D02*
G75*
G03*
X163868900Y-9525000I-1943900J0D01*
G01*
X167805900Y-9525000D02*
G75*
G03*
X167805900Y-9525000I-800900J0D01*
G01*
X127458000Y-4445000D02*
G75*
G03*
X127458000Y-4445000I-1093000J0D01*
G01*
X121108000Y-6985000D02*
G75*
G03*
X121108000Y-6985000I-1093000J0D01*
G01*
X119545900Y-9525000D02*
G75*
G03*
X119545900Y-9525000I-800900J0D01*
G01*
X125768900Y-9525000D02*
G75*
G03*
X125768900Y-9525000I-1943900J0D01*
G01*
X129705900Y-9525000D02*
G75*
G03*
X129705900Y-9525000I-800900J0D01*
G01*
X108408000Y-4445000D02*
G75*
G03*
X108408000Y-4445000I-1093000J0D01*
G01*
X102058000Y-6985000D02*
G75*
G03*
X102058000Y-6985000I-1093000J0D01*
G01*
X100495900Y-9525000D02*
G75*
G03*
X100495900Y-9525000I-800900J0D01*
G01*
X110655900Y-9525000D02*
G75*
G03*
X110655900Y-9525000I-800900J0D01*
G01*
X106718900Y-9525000D02*
G75*
G03*
X106718900Y-9525000I-1943900J0D01*
G01*
X70308000Y-4445000D02*
G75*
G03*
X70308000Y-4445000I-1093000J0D01*
G01*
X63958000Y-6985000D02*
G75*
G03*
X63958000Y-6985000I-1093000J0D01*
G01*
X68618900Y-9525000D02*
G75*
G03*
X68618900Y-9525000I-1943900J0D01*
G01*
X72555900Y-9525000D02*
G75*
G03*
X72555900Y-9525000I-800900J0D01*
G01*
X62395900Y-9525000D02*
G75*
G03*
X62395900Y-9525000I-800900J0D01*
G01*
X32208000Y-4445000D02*
G75*
G03*
X32208000Y-4445000I-1093000J0D01*
G01*
X25858000Y-6985000D02*
G75*
G03*
X25858000Y-6985000I-1093000J0D01*
G01*
X30518900Y-9525000D02*
G75*
G03*
X30518900Y-9525000I-1943900J0D01*
G01*
X34455900Y-9525000D02*
G75*
G03*
X34455900Y-9525000I-800900J0D01*
G01*
X24295900Y-9525000D02*
G75*
G03*
X24295900Y-9525000I-800900J0D01*
G01*
X13158000Y-4445000D02*
G75*
G03*
X13158000Y-4445000I-1093000J0D01*
G01*
X6808000Y-6985000D02*
G75*
G03*
X6808000Y-6985000I-1093000J0D01*
G01*
X5245900Y-9525000D02*
G75*
G03*
X5245900Y-9525000I-800900J0D01*
G01*
X11468900Y-9525000D02*
G75*
G03*
X11468900Y-9525000I-1943900J0D01*
G01*
X15405900Y-9525000D02*
G75*
G03*
X15405900Y-9525000I-800900J0D01*
G01*
X41733000Y-80645000D02*
G75*
G03*
X41733000Y-80645000I-1093000J0D01*
G01*
X35383000Y-83185000D02*
G75*
G03*
X35383000Y-83185000I-1093000J0D01*
G01*
X43980900Y-85725000D02*
G75*
G03*
X43980900Y-85725000I-800900J0D01*
G01*
X33820900Y-85725000D02*
G75*
G03*
X33820900Y-85725000I-800900J0D01*
G01*
X40043900Y-85725000D02*
G75*
G03*
X40043900Y-85725000I-1943900J0D01*
G01*
X151270500Y-61595000D02*
G75*
G03*
X151270500Y-61595000I-1093000J0D01*
G01*
X144920500Y-64135000D02*
G75*
G03*
X144920500Y-64135000I-1093000J0D01*
G01*
X153518400Y-66675000D02*
G75*
G03*
X153518400Y-66675000I-800900J0D01*
G01*
X143358400Y-66675000D02*
G75*
G03*
X143358400Y-66675000I-800900J0D01*
G01*
X149581400Y-66675000D02*
G75*
G03*
X149581400Y-66675000I-1943900J0D01*
G01*
X227470500Y-61595000D02*
G75*
G03*
X227470500Y-61595000I-1093000J0D01*
G01*
X221120500Y-64135000D02*
G75*
G03*
X221120500Y-64135000I-1093000J0D01*
G01*
X225781400Y-66675000D02*
G75*
G03*
X225781400Y-66675000I-1943900J0D01*
G01*
X229718400Y-66675000D02*
G75*
G03*
X229718400Y-66675000I-800900J0D01*
G01*
X219558400Y-66675000D02*
G75*
G03*
X219558400Y-66675000I-800900J0D01*
G01*
X170320500Y-61595000D02*
G75*
G03*
X170320500Y-61595000I-1093000J0D01*
G01*
X163970500Y-64135000D02*
G75*
G03*
X163970500Y-64135000I-1093000J0D01*
G01*
X172568400Y-66675000D02*
G75*
G03*
X172568400Y-66675000I-800900J0D01*
G01*
X168631400Y-66675000D02*
G75*
G03*
X168631400Y-66675000I-1943900J0D01*
G01*
X162408400Y-66675000D02*
G75*
G03*
X162408400Y-66675000I-800900J0D01*
G01*
X132220500Y-61595000D02*
G75*
G03*
X132220500Y-61595000I-1093000J0D01*
G01*
X125870500Y-64135000D02*
G75*
G03*
X125870500Y-64135000I-1093000J0D01*
G01*
X124308400Y-66675000D02*
G75*
G03*
X124308400Y-66675000I-800900J0D01*
G01*
X130531400Y-66675000D02*
G75*
G03*
X130531400Y-66675000I-1943900J0D01*
G01*
X134468400Y-66675000D02*
G75*
G03*
X134468400Y-66675000I-800900J0D01*
G01*
X189370500Y-61595000D02*
G75*
G03*
X189370500Y-61595000I-1093000J0D01*
G01*
X183020500Y-64135000D02*
G75*
G03*
X183020500Y-64135000I-1093000J0D01*
G01*
X181458400Y-66675000D02*
G75*
G03*
X181458400Y-66675000I-800900J0D01*
G01*
X187681400Y-66675000D02*
G75*
G03*
X187681400Y-66675000I-1943900J0D01*
G01*
X191618400Y-66675000D02*
G75*
G03*
X191618400Y-66675000I-800900J0D01*
G01*
X17920500Y-80645000D02*
G75*
G03*
X17920500Y-80645000I-1093000J0D01*
G01*
X11570500Y-83185000D02*
G75*
G03*
X11570500Y-83185000I-1093000J0D01*
G01*
X16231400Y-85725000D02*
G75*
G03*
X16231400Y-85725000I-1943900J0D01*
G01*
X10008400Y-85725000D02*
G75*
G03*
X10008400Y-85725000I-800900J0D01*
G01*
X20168400Y-85725000D02*
G75*
G03*
X20168400Y-85725000I-800900J0D01*
G01*
X262420900Y-9525000D02*
G75*
G03*
X262420900Y-9525000I-800900J0D01*
G01*
X256236000Y-2540000D02*
G75*
G03*
X256236000Y-2540000I-1474000J0D01*
G01*
X268643900Y-9525000D02*
G75*
G03*
X268643900Y-9525000I-1943900J0D01*
G01*
X256705900Y-17780000D02*
G75*
G03*
X256705900Y-17780000I-1943900J0D01*
G01*
X280112000Y-2540000D02*
G75*
G03*
X280112000Y-2540000I-1474000J0D01*
G01*
X280581900Y-17780000D02*
G75*
G03*
X280581900Y-17780000I-1943900J0D01*
G01*
X272580900Y-9525000D02*
G75*
G03*
X272580900Y-9525000I-800900J0D01*
G01*
X270333000Y-4445000D02*
G75*
G03*
X270333000Y-4445000I-1093000J0D01*
G01*
X263983000Y-6985000D02*
G75*
G03*
X263983000Y-6985000I-1093000J0D01*
G01*
X251283000Y-23495000D02*
G75*
G03*
X251283000Y-23495000I-1093000J0D01*
G01*
X244933000Y-26035000D02*
G75*
G03*
X244933000Y-26035000I-1093000J0D01*
G01*
X253530900Y-28575000D02*
G75*
G03*
X253530900Y-28575000I-800900J0D01*
G01*
X249593900Y-28575000D02*
G75*
G03*
X249593900Y-28575000I-1943900J0D01*
G01*
X243370900Y-28575000D02*
G75*
G03*
X243370900Y-28575000I-800900J0D01*
G01*
X56020500Y-61595000D02*
G75*
G03*
X56020500Y-61595000I-1093000J0D01*
G01*
X49670500Y-64135000D02*
G75*
G03*
X49670500Y-64135000I-1093000J0D01*
G01*
X54331400Y-66675000D02*
G75*
G03*
X54331400Y-66675000I-1943900J0D01*
G01*
X58268400Y-66675000D02*
G75*
G03*
X58268400Y-66675000I-800900J0D01*
G01*
X48108400Y-66675000D02*
G75*
G03*
X48108400Y-66675000I-800900J0D01*
G01*
X194133000Y-23495000D02*
G75*
G03*
X194133000Y-23495000I-1093000J0D01*
G01*
X187783000Y-26035000D02*
G75*
G03*
X187783000Y-26035000I-1093000J0D01*
G01*
X196380900Y-28575000D02*
G75*
G03*
X196380900Y-28575000I-800900J0D01*
G01*
X192443900Y-28575000D02*
G75*
G03*
X192443900Y-28575000I-1943900J0D01*
G01*
X186220900Y-28575000D02*
G75*
G03*
X186220900Y-28575000I-800900J0D01*
G01*
X122695500Y-42545000D02*
G75*
G03*
X122695500Y-42545000I-1093000J0D01*
G01*
X116345500Y-45085000D02*
G75*
G03*
X116345500Y-45085000I-1093000J0D01*
G01*
X124943400Y-47625000D02*
G75*
G03*
X124943400Y-47625000I-800900J0D01*
G01*
X121006400Y-47625000D02*
G75*
G03*
X121006400Y-47625000I-1943900J0D01*
G01*
X114783400Y-47625000D02*
G75*
G03*
X114783400Y-47625000I-800900J0D01*
G01*
X65545500Y-42545000D02*
G75*
G03*
X65545500Y-42545000I-1093000J0D01*
G01*
X59195500Y-45085000D02*
G75*
G03*
X59195500Y-45085000I-1093000J0D01*
G01*
X67793400Y-47625000D02*
G75*
G03*
X67793400Y-47625000I-800900J0D01*
G01*
X57633400Y-47625000D02*
G75*
G03*
X57633400Y-47625000I-800900J0D01*
G01*
X63856400Y-47625000D02*
G75*
G03*
X63856400Y-47625000I-1943900J0D01*
G01*
X267951700Y-42545000D02*
G75*
G03*
X267951700Y-42545000I-1093000J0D01*
G01*
X261601700Y-45085000D02*
G75*
G03*
X261601700Y-45085000I-1093000J0D01*
G01*
X277730700Y-40640000D02*
G75*
G03*
X277730700Y-40640000I-1474000J0D01*
G01*
X253854700Y-40640000D02*
G75*
G03*
X253854700Y-40640000I-1474000J0D01*
G01*
X266262600Y-47625000D02*
G75*
G03*
X266262600Y-47625000I-1943900J0D01*
G01*
X254324600Y-55880000D02*
G75*
G03*
X254324600Y-55880000I-1943900J0D01*
G01*
X278200600Y-55880000D02*
G75*
G03*
X278200600Y-55880000I-1943900J0D01*
G01*
X270199600Y-47625000D02*
G75*
G03*
X270199600Y-47625000I-800900J0D01*
G01*
X260039600Y-47625000D02*
G75*
G03*
X260039600Y-47625000I-800900J0D01*
G01*
X279858000Y-61595000D02*
G75*
G03*
X279858000Y-61595000I-1093000J0D01*
G01*
X273508000Y-64135000D02*
G75*
G03*
X273508000Y-64135000I-1093000J0D01*
G01*
X282105900Y-66675000D02*
G75*
G03*
X282105900Y-66675000I-800900J0D01*
G01*
X271945900Y-66675000D02*
G75*
G03*
X271945900Y-66675000I-800900J0D01*
G01*
X278168900Y-66675000D02*
G75*
G03*
X278168900Y-66675000I-1943900J0D01*
G01*
X179845500Y-42545000D02*
G75*
G03*
X179845500Y-42545000I-1093000J0D01*
G01*
X173495500Y-45085000D02*
G75*
G03*
X173495500Y-45085000I-1093000J0D01*
G01*
X171933400Y-47625000D02*
G75*
G03*
X171933400Y-47625000I-800900J0D01*
G01*
X182093400Y-47625000D02*
G75*
G03*
X182093400Y-47625000I-800900J0D01*
G01*
X178156400Y-47625000D02*
G75*
G03*
X178156400Y-47625000I-1943900J0D01*
G01*
X275095487Y-23495061D02*
G75*
G03*
X275095487Y-23495061I-1093000J0D01*
G01*
X268745487Y-26035061D02*
G75*
G03*
X268745487Y-26035061I-1093000J0D01*
G01*
X273406387Y-28575061D02*
G75*
G03*
X273406387Y-28575061I-1943900J0D01*
G01*
X267183387Y-28575061D02*
G75*
G03*
X267183387Y-28575061I-800900J0D01*
G01*
X277343387Y-28575061D02*
G75*
G03*
X277343387Y-28575061I-800900J0D01*
G01*
X232233000Y-23495000D02*
G75*
G03*
X232233000Y-23495000I-1093000J0D01*
G01*
X225883000Y-26035000D02*
G75*
G03*
X225883000Y-26035000I-1093000J0D01*
G01*
X234480900Y-28575000D02*
G75*
G03*
X234480900Y-28575000I-800900J0D01*
G01*
X224320900Y-28575000D02*
G75*
G03*
X224320900Y-28575000I-800900J0D01*
G01*
X230543900Y-28575000D02*
G75*
G03*
X230543900Y-28575000I-1943900J0D01*
G01*
X65545500Y-80645000D02*
G75*
G03*
X65545500Y-80645000I-1093000J0D01*
G01*
X59195500Y-83185000D02*
G75*
G03*
X59195500Y-83185000I-1093000J0D01*
G01*
X57633400Y-85725000D02*
G75*
G03*
X57633400Y-85725000I-800900J0D01*
G01*
X67793400Y-85725000D02*
G75*
G03*
X67793400Y-85725000I-800900J0D01*
G01*
X63856400Y-85725000D02*
G75*
G03*
X63856400Y-85725000I-1943900J0D01*
G01*
X84595500Y-42545000D02*
G75*
G03*
X84595500Y-42545000I-1093000J0D01*
G01*
X78245500Y-45085000D02*
G75*
G03*
X78245500Y-45085000I-1093000J0D01*
G01*
X82906400Y-47625000D02*
G75*
G03*
X82906400Y-47625000I-1943900J0D01*
G01*
X86843400Y-47625000D02*
G75*
G03*
X86843400Y-47625000I-800900J0D01*
G01*
X76683400Y-47625000D02*
G75*
G03*
X76683400Y-47625000I-800900J0D01*
G01*
X160795500Y-42545000D02*
G75*
G03*
X160795500Y-42545000I-1093000J0D01*
G01*
X154445500Y-45085000D02*
G75*
G03*
X154445500Y-45085000I-1093000J0D01*
G01*
X152883400Y-47625000D02*
G75*
G03*
X152883400Y-47625000I-800900J0D01*
G01*
X163043400Y-47625000D02*
G75*
G03*
X163043400Y-47625000I-800900J0D01*
G01*
X159106400Y-47625000D02*
G75*
G03*
X159106400Y-47625000I-1943900J0D01*
G01*
X103645500Y-42545000D02*
G75*
G03*
X103645500Y-42545000I-1093000J0D01*
G01*
X97295500Y-45085000D02*
G75*
G03*
X97295500Y-45085000I-1093000J0D01*
G01*
X101956400Y-47625000D02*
G75*
G03*
X101956400Y-47625000I-1943900J0D01*
G01*
X105893400Y-47625000D02*
G75*
G03*
X105893400Y-47625000I-800900J0D01*
G01*
X95733400Y-47625000D02*
G75*
G03*
X95733400Y-47625000I-800900J0D01*
G01*
X46495500Y-42545000D02*
G75*
G03*
X46495500Y-42545000I-1093000J0D01*
G01*
X40145500Y-45085000D02*
G75*
G03*
X40145500Y-45085000I-1093000J0D01*
G01*
X44806400Y-47625000D02*
G75*
G03*
X44806400Y-47625000I-1943900J0D01*
G01*
X38583400Y-47625000D02*
G75*
G03*
X38583400Y-47625000I-800900J0D01*
G01*
X48743400Y-47625000D02*
G75*
G03*
X48743400Y-47625000I-800900J0D01*
G01*
X198895500Y-42545000D02*
G75*
G03*
X198895500Y-42545000I-1093000J0D01*
G01*
X192545500Y-45085000D02*
G75*
G03*
X192545500Y-45085000I-1093000J0D01*
G01*
X201143400Y-47625000D02*
G75*
G03*
X201143400Y-47625000I-800900J0D01*
G01*
X197206400Y-47625000D02*
G75*
G03*
X197206400Y-47625000I-1943900J0D01*
G01*
X190983400Y-47625000D02*
G75*
G03*
X190983400Y-47625000I-800900J0D01*
G01*
X25064250Y-61595000D02*
G75*
G03*
X25064250Y-61595000I-1093000J0D01*
G01*
X18714250Y-64135000D02*
G75*
G03*
X18714250Y-64135000I-1093000J0D01*
G01*
X10967250Y-59690000D02*
G75*
G03*
X10967250Y-59690000I-1474000J0D01*
G01*
X11437150Y-74930000D02*
G75*
G03*
X11437150Y-74930000I-1943900J0D01*
G01*
X27312150Y-66675000D02*
G75*
G03*
X27312150Y-66675000I-800900J0D01*
G01*
X35313150Y-74930000D02*
G75*
G03*
X35313150Y-74930000I-1943900J0D01*
G01*
X34843250Y-59690000D02*
G75*
G03*
X34843250Y-59690000I-1474000J0D01*
G01*
X17152150Y-66675000D02*
G75*
G03*
X17152150Y-66675000I-800900J0D01*
G01*
X23375150Y-66675000D02*
G75*
G03*
X23375150Y-66675000I-1943900J0D01*
G01*
X236995500Y-42545000D02*
G75*
G03*
X236995500Y-42545000I-1093000J0D01*
G01*
X230645500Y-45085000D02*
G75*
G03*
X230645500Y-45085000I-1093000J0D01*
G01*
X235306400Y-47625000D02*
G75*
G03*
X235306400Y-47625000I-1943900J0D01*
G01*
X229083400Y-47625000D02*
G75*
G03*
X229083400Y-47625000I-800900J0D01*
G01*
X239243400Y-47625000D02*
G75*
G03*
X239243400Y-47625000I-800900J0D01*
G01*
X217945500Y-42545000D02*
G75*
G03*
X217945500Y-42545000I-1093000J0D01*
G01*
X211595500Y-45085000D02*
G75*
G03*
X211595500Y-45085000I-1093000J0D01*
G01*
X220193400Y-47625000D02*
G75*
G03*
X220193400Y-47625000I-800900J0D01*
G01*
X210033400Y-47625000D02*
G75*
G03*
X210033400Y-47625000I-800900J0D01*
G01*
X216256400Y-47625000D02*
G75*
G03*
X216256400Y-47625000I-1943900J0D01*
G01*
X213183000Y-23495000D02*
G75*
G03*
X213183000Y-23495000I-1093000J0D01*
G01*
X206833000Y-26035000D02*
G75*
G03*
X206833000Y-26035000I-1093000J0D01*
G01*
X205270900Y-28575000D02*
G75*
G03*
X205270900Y-28575000I-800900J0D01*
G01*
X215430900Y-28575000D02*
G75*
G03*
X215430900Y-28575000I-800900J0D01*
G01*
X211493900Y-28575000D02*
G75*
G03*
X211493900Y-28575000I-1943900J0D01*
G01*
X141745500Y-42545000D02*
G75*
G03*
X141745500Y-42545000I-1093000J0D01*
G01*
X135395500Y-45085000D02*
G75*
G03*
X135395500Y-45085000I-1093000J0D01*
G01*
X140056400Y-47625000D02*
G75*
G03*
X140056400Y-47625000I-1943900J0D01*
G01*
X143993400Y-47625000D02*
G75*
G03*
X143993400Y-47625000I-800900J0D01*
G01*
X133833400Y-47625000D02*
G75*
G03*
X133833400Y-47625000I-800900J0D01*
G01*
X20301750Y-42545000D02*
G75*
G03*
X20301750Y-42545000I-1093000J0D01*
G01*
X13951750Y-45085000D02*
G75*
G03*
X13951750Y-45085000I-1093000J0D01*
G01*
X18612650Y-47625000D02*
G75*
G03*
X18612650Y-47625000I-1943900J0D01*
G01*
X12389650Y-47625000D02*
G75*
G03*
X12389650Y-47625000I-800900J0D01*
G01*
X22549650Y-47625000D02*
G75*
G03*
X22549650Y-47625000I-800900J0D01*
G01*
X113170500Y-61595000D02*
G75*
G03*
X113170500Y-61595000I-1093000J0D01*
G01*
X106820500Y-64135000D02*
G75*
G03*
X106820500Y-64135000I-1093000J0D01*
G01*
X105258400Y-66675000D02*
G75*
G03*
X105258400Y-66675000I-800900J0D01*
G01*
X111481400Y-66675000D02*
G75*
G03*
X111481400Y-66675000I-1943900J0D01*
G01*
X115418400Y-66675000D02*
G75*
G03*
X115418400Y-66675000I-800900J0D01*
G01*
X251283000Y-80645000D02*
G75*
G03*
X251283000Y-80645000I-1093000J0D01*
G01*
X244933000Y-83185000D02*
G75*
G03*
X244933000Y-83185000I-1093000J0D01*
G01*
X249593900Y-85725000D02*
G75*
G03*
X249593900Y-85725000I-1943900J0D01*
G01*
X253530900Y-85725000D02*
G75*
G03*
X253530900Y-85725000I-800900J0D01*
G01*
X243370900Y-85725000D02*
G75*
G03*
X243370900Y-85725000I-800900J0D01*
G01*
X75070500Y-61595000D02*
G75*
G03*
X75070500Y-61595000I-1093000J0D01*
G01*
X68720500Y-64135000D02*
G75*
G03*
X68720500Y-64135000I-1093000J0D01*
G01*
X73381400Y-66675000D02*
G75*
G03*
X73381400Y-66675000I-1943900J0D01*
G01*
X77318400Y-66675000D02*
G75*
G03*
X77318400Y-66675000I-800900J0D01*
G01*
X67158400Y-66675000D02*
G75*
G03*
X67158400Y-66675000I-800900J0D01*
G01*
X227470500Y-80645000D02*
G75*
G03*
X227470500Y-80645000I-1093000J0D01*
G01*
X221120500Y-83185000D02*
G75*
G03*
X221120500Y-83185000I-1093000J0D01*
G01*
X229718400Y-85725000D02*
G75*
G03*
X229718400Y-85725000I-800900J0D01*
G01*
X225781400Y-85725000D02*
G75*
G03*
X225781400Y-85725000I-1943900J0D01*
G01*
X219558400Y-85725000D02*
G75*
G03*
X219558400Y-85725000I-800900J0D01*
G01*
X275095728Y-80645072D02*
G75*
G03*
X275095728Y-80645072I-1093000J0D01*
G01*
X268745728Y-83185072D02*
G75*
G03*
X268745728Y-83185072I-1093000J0D01*
G01*
X267183628Y-85725072D02*
G75*
G03*
X267183628Y-85725072I-800900J0D01*
G01*
X277343628Y-85725072D02*
G75*
G03*
X277343628Y-85725072I-800900J0D01*
G01*
X273406628Y-85725072D02*
G75*
G03*
X273406628Y-85725072I-1943900J0D01*
G01*
X281118988Y-58575000D02*
X285618988Y-58575000D01*
X281118988Y-55675000D02*
X285618988Y-55675000D01*
X285618988Y-58575000D02*
G75*
G03*
X285618988Y-55675000I0J1450000D01*
G01*
X281118988Y-55675000D02*
G75*
G03*
X281118988Y-58575000I0J-1450000D01*
G01*
X131252Y-58575000D02*
X4631252Y-58575000D01*
X131252Y-55675000D02*
X4631252Y-55675000D01*
X4631252Y-58575000D02*
G75*
G03*
X4631252Y-55675000I0J1450000D01*
G01*
X131252Y-55675000D02*
G75*
G03*
X131252Y-58575000I0J-1450000D01*
G01*
X41733000Y-23495000D02*
G75*
G03*
X41733000Y-23495000I-1093000J0D01*
G01*
X35383000Y-26035000D02*
G75*
G03*
X35383000Y-26035000I-1093000J0D01*
G01*
X43980900Y-28575000D02*
G75*
G03*
X43980900Y-28575000I-800900J0D01*
G01*
X33820900Y-28575000D02*
G75*
G03*
X33820900Y-28575000I-800900J0D01*
G01*
X40043900Y-28575000D02*
G75*
G03*
X40043900Y-28575000I-1943900J0D01*
G01*
X189250160Y-86975000D02*
X191750160Y-86975000D01*
X189250160Y-84075000D02*
X191750160Y-84075000D01*
X191750160Y-86975000D02*
G75*
G03*
X191750160Y-84075000I0J1450000D01*
G01*
X189250160Y-84075000D02*
G75*
G03*
X189250160Y-86975000I0J-1450000D01*
G01*
X94120500Y-61595000D02*
G75*
G03*
X94120500Y-61595000I-1093000J0D01*
G01*
X87770500Y-64135000D02*
G75*
G03*
X87770500Y-64135000I-1093000J0D01*
G01*
X92431400Y-66675000D02*
G75*
G03*
X92431400Y-66675000I-1943900J0D01*
G01*
X96368400Y-66675000D02*
G75*
G03*
X96368400Y-66675000I-800900J0D01*
G01*
X86208400Y-66675000D02*
G75*
G03*
X86208400Y-66675000I-800900J0D01*
G01*
X15539277Y-42544925D02*
G75*
G03*
X15539277Y-42544925I-1093000J0D01*
G01*
X9189277Y-45084925D02*
G75*
G03*
X9189277Y-45084925I-1093000J0D01*
G01*
X17787177Y-47624925D02*
G75*
G03*
X17787177Y-47624925I-800900J0D01*
G01*
X13850177Y-47624925D02*
G75*
G03*
X13850177Y-47624925I-1943900J0D01*
G01*
X7627177Y-47624925D02*
G75*
G03*
X7627177Y-47624925I-800900J0D01*
G01*
X259175000Y-29677050D02*
X261675000Y-29677050D01*
X259175000Y-26777050D02*
X261675000Y-26777050D01*
X261675000Y-29677050D02*
G75*
G03*
X261675000Y-26777050I0J1450000D01*
G01*
X259175000Y-26777050D02*
G75*
G03*
X259175000Y-29677050I0J-1450000D01*
G01*
X260807977Y-4445061D02*
G75*
G03*
X260807977Y-4445061I-1093000J0D01*
G01*
X254457977Y-6985061D02*
G75*
G03*
X254457977Y-6985061I-1093000J0D01*
G01*
X263055877Y-9525061D02*
G75*
G03*
X263055877Y-9525061I-800900J0D01*
G01*
X252895877Y-9525061D02*
G75*
G03*
X252895877Y-9525061I-800900J0D01*
G01*
X259118877Y-9525061D02*
G75*
G03*
X259118877Y-9525061I-1943900J0D01*
G01*
X253664287Y-61595061D02*
G75*
G03*
X253664287Y-61595061I-1093000J0D01*
G01*
X247314287Y-64135061D02*
G75*
G03*
X247314287Y-64135061I-1093000J0D01*
G01*
X245752187Y-66675061D02*
G75*
G03*
X245752187Y-66675061I-800900J0D01*
G01*
X255912187Y-66675061D02*
G75*
G03*
X255912187Y-66675061I-800900J0D01*
G01*
X251975187Y-66675061D02*
G75*
G03*
X251975187Y-66675061I-1943900J0D01*
G01*
X279858087Y-4444961D02*
G75*
G03*
X279858087Y-4444961I-1093000J0D01*
G01*
X273508087Y-6984961D02*
G75*
G03*
X273508087Y-6984961I-1093000J0D01*
G01*
X271945987Y-9524961D02*
G75*
G03*
X271945987Y-9524961I-800900J0D01*
G01*
X282105987Y-9524961D02*
G75*
G03*
X282105987Y-9524961I-800900J0D01*
G01*
X278168987Y-9524961D02*
G75*
G03*
X278168987Y-9524961I-1943900J0D01*
G01*
X208420500Y-61595000D02*
G75*
G03*
X208420500Y-61595000I-1093000J0D01*
G01*
X202070500Y-64135000D02*
G75*
G03*
X202070500Y-64135000I-1093000J0D01*
G01*
X200508400Y-66675000D02*
G75*
G03*
X200508400Y-66675000I-800900J0D01*
G01*
X210668400Y-66675000D02*
G75*
G03*
X210668400Y-66675000I-800900J0D01*
G01*
X206731400Y-66675000D02*
G75*
G03*
X206731400Y-66675000I-1943900J0D01*
G01*
X127337608Y-48875040D02*
X129837608Y-48875040D01*
X127337608Y-45975040D02*
X129837608Y-45975040D01*
X129837608Y-48875040D02*
G75*
G03*
X129837608Y-45975040I0J1450000D01*
G01*
X127337608Y-45975040D02*
G75*
G03*
X127337608Y-48875040I0J-1450000D01*
G01*
X60783000Y-23495000D02*
G75*
G03*
X60783000Y-23495000I-1093000J0D01*
G01*
X54433000Y-26035000D02*
G75*
G03*
X54433000Y-26035000I-1093000J0D01*
G01*
X59093900Y-28575000D02*
G75*
G03*
X59093900Y-28575000I-1943900J0D01*
G01*
X63030900Y-28575000D02*
G75*
G03*
X63030900Y-28575000I-800900J0D01*
G01*
X52870900Y-28575000D02*
G75*
G03*
X52870900Y-28575000I-800900J0D01*
G01*
X24350000Y-30026024D02*
X26850000Y-30026024D01*
X24350000Y-27126024D02*
X26850000Y-27126024D01*
X26850000Y-30026024D02*
G75*
G03*
X26850000Y-27126024I0J1450000D01*
G01*
X24350000Y-27126024D02*
G75*
G03*
X24350000Y-30026024I0J-1450000D01*
G01*
X263189347Y-61595011D02*
G75*
G03*
X263189347Y-61595011I-1093000J0D01*
G01*
X256839347Y-64135011D02*
G75*
G03*
X256839347Y-64135011I-1093000J0D01*
G01*
X255277247Y-66675011D02*
G75*
G03*
X255277247Y-66675011I-800900J0D01*
G01*
X265437247Y-66675011D02*
G75*
G03*
X265437247Y-66675011I-800900J0D01*
G01*
X272968277Y-73660011D02*
G75*
G03*
X272968277Y-73660011I-1474000J0D01*
G01*
X261500247Y-66675011D02*
G75*
G03*
X261500247Y-66675011I-1943900J0D01*
G01*
X249092277Y-73660011D02*
G75*
G03*
X249092277Y-73660011I-1474000J0D01*
G01*
X249562177Y-58420011D02*
G75*
G03*
X249562177Y-58420011I-1943900J0D01*
G01*
X273438177Y-58420011D02*
G75*
G03*
X273438177Y-58420011I-1943900J0D01*
G01*
X87167250Y-92710000D02*
G75*
G03*
X87167250Y-92710000I-1474000J0D01*
G01*
X87637150Y-77470000D02*
G75*
G03*
X87637150Y-77470000I-1943900J0D01*
G01*
X201530750Y-92710000D02*
G75*
G03*
X201530750Y-92710000I-1474000J0D01*
G01*
X202000650Y-77470000D02*
G75*
G03*
X202000650Y-77470000I-1943900J0D01*
G01*
X146508000Y-80645000D02*
G75*
G03*
X146508000Y-80645000I-1093000J0D01*
G01*
X140158000Y-83185000D02*
G75*
G03*
X140158000Y-83185000I-1093000J0D01*
G01*
X144818900Y-85725000D02*
G75*
G03*
X144818900Y-85725000I-1943900J0D01*
G01*
X148755900Y-85725000D02*
G75*
G03*
X148755900Y-85725000I-800900J0D01*
G01*
X138595900Y-85725000D02*
G75*
G03*
X138595900Y-85725000I-800900J0D01*
G01*
X51258000Y-4445000D02*
G75*
G03*
X51258000Y-4445000I-1093000J0D01*
G01*
X44908000Y-6985000D02*
G75*
G03*
X44908000Y-6985000I-1093000J0D01*
G01*
X53505900Y-9525000D02*
G75*
G03*
X53505900Y-9525000I-800900J0D01*
G01*
X49568900Y-9525000D02*
G75*
G03*
X49568900Y-9525000I-1943900J0D01*
G01*
X43345900Y-9525000D02*
G75*
G03*
X43345900Y-9525000I-800900J0D01*
G01*
X135929287Y-85950061D02*
G75*
G03*
X135929287Y-85950061I-950000J0D01*
G01*
X21733000Y-5630000D02*
G75*
G03*
X21733000Y-5630000I-275000J0D01*
G01*
X15953000Y-5630000D02*
G75*
G03*
X15953000Y-5630000I-275000J0D01*
G01*
X23338000Y-6710000D02*
X23338000Y-5610000D01*
X22438000Y-6710000D02*
X22438000Y-5610000D01*
X23338000Y-5610000D02*
G75*
G03*
X22438000Y-5610000I-450000J0D01*
G01*
X22438000Y-6710000D02*
G75*
G03*
X23338000Y-6710000I450000J0D01*
G01*
X23338000Y-2280000D02*
X23338000Y-1680000D01*
X22438000Y-2280000D02*
X22438000Y-1680000D01*
X23338000Y-1680000D02*
G75*
G03*
X22438000Y-1680000I-450000J0D01*
G01*
X22438000Y-2280000D02*
G75*
G03*
X23338000Y-2280000I450000J0D01*
G01*
X14698000Y-2280000D02*
X14698000Y-1680000D01*
X13798000Y-2280000D02*
X13798000Y-1680000D01*
X14698000Y-1680000D02*
G75*
G03*
X13798000Y-1680000I-450000J0D01*
G01*
X13798000Y-2280000D02*
G75*
G03*
X14698000Y-2280000I450000J0D01*
G01*
X14698000Y-6710000D02*
X14698000Y-5610000D01*
X13798000Y-6710000D02*
X13798000Y-5610000D01*
X14698000Y-5610000D02*
G75*
G03*
X13798000Y-5610000I-450000J0D01*
G01*
X13798000Y-6710000D02*
G75*
G03*
X14698000Y-6710000I450000J0D01*
G01*
X175929287Y-89710061D02*
X175929287Y-91310061D01*
X177529287Y-91310061D01*
X177529287Y-89710061D01*
X175929287Y-89710061D01*
X180069287Y-90510061D02*
X180069287Y-90510061D01*
X178469287Y-90510061D02*
X178469287Y-90510061D01*
X180069287Y-90510061D02*
G75*
G03*
X178469287Y-90510061I-800000J0D01*
G01*
X178469287Y-90510061D02*
G75*
G03*
X180069287Y-90510061I800000J0D01*
G01*
X177529287Y-87970061D02*
X177529287Y-87970061D01*
X175929287Y-87970061D02*
X175929287Y-87970061D01*
X177529287Y-87970061D02*
G75*
G03*
X175929287Y-87970061I-800000J0D01*
G01*
X175929287Y-87970061D02*
G75*
G03*
X177529287Y-87970061I800000J0D01*
G01*
X180069287Y-87970061D02*
X180069287Y-87970061D01*
X178469287Y-87970061D02*
X178469287Y-87970061D01*
X180069287Y-87970061D02*
G75*
G03*
X178469287Y-87970061I-800000J0D01*
G01*
X178469287Y-87970061D02*
G75*
G03*
X180069287Y-87970061I800000J0D01*
G01*
X177529287Y-85430061D02*
X177529287Y-85430061D01*
X175929287Y-85430061D02*
X175929287Y-85430061D01*
X177529287Y-85430061D02*
G75*
G03*
X175929287Y-85430061I-800000J0D01*
G01*
X175929287Y-85430061D02*
G75*
G03*
X177529287Y-85430061I800000J0D01*
G01*
X180069287Y-85430061D02*
X180069287Y-85430061D01*
X178469287Y-85430061D02*
X178469287Y-85430061D01*
X180069287Y-85430061D02*
G75*
G03*
X178469287Y-85430061I-800000J0D01*
G01*
X178469287Y-85430061D02*
G75*
G03*
X180069287Y-85430061I800000J0D01*
G01*
M02*
