G04 #@! TF.GenerationSoftware,KiCad,Pcbnew,(5.99.0-11336-g5116fa6d12)*
G04 #@! TF.CreationDate,2021-07-31T15:39:07+02:00*
G04 #@! TF.ProjectId,plain60-flex-mkd-hhkb,706c6169-6e36-4302-9d66-6c65782d6d6b,rev?*
G04 #@! TF.SameCoordinates,Original*
G04 #@! TF.FileFunction,Copper,L2,Bot*
G04 #@! TF.FilePolarity,Positive*
%FSLAX46Y46*%
G04 Gerber Fmt 4.6, Leading zero omitted, Abs format (unit mm)*
G04 Created by KiCad (PCBNEW (5.99.0-11336-g5116fa6d12)) date 2021-07-31 15:39:07*
%MOMM*%
%LPD*%
G01*
G04 APERTURE LIST*
G04 Aperture macros list*
%AMRoundRect*
0 Rectangle with rounded corners*
0 $1 Rounding radius*
0 $2 $3 $4 $5 $6 $7 $8 $9 X,Y pos of 4 corners*
0 Add a 4 corners polygon primitive as box body*
4,1,4,$2,$3,$4,$5,$6,$7,$8,$9,$2,$3,0*
0 Add four circle primitives for the rounded corners*
1,1,$1+$1,$2,$3*
1,1,$1+$1,$4,$5*
1,1,$1+$1,$6,$7*
1,1,$1+$1,$8,$9*
0 Add four rect primitives between the rounded corners*
20,1,$1+$1,$2,$3,$4,$5,0*
20,1,$1+$1,$4,$5,$6,$7,0*
20,1,$1+$1,$6,$7,$8,$9,0*
20,1,$1+$1,$8,$9,$2,$3,0*%
%AMRotRect*
0 Rectangle, with rotation*
0 The origin of the aperture is its center*
0 $1 length*
0 $2 width*
0 $3 Rotation angle, in degrees counterclockwise*
0 Add horizontal line*
21,1,$1,$2,0,0,$3*%
G04 Aperture macros list end*
G04 #@! TA.AperFunction,ComponentPad*
%ADD10C,2.286000*%
G04 #@! TD*
G04 #@! TA.AperFunction,ComponentPad*
%ADD11O,7.500000X3.000000*%
G04 #@! TD*
G04 #@! TA.AperFunction,ComponentPad*
%ADD12O,5.500000X3.000000*%
G04 #@! TD*
G04 #@! TA.AperFunction,SMDPad,CuDef*
%ADD13R,1.200000X0.900000*%
G04 #@! TD*
G04 #@! TA.AperFunction,SMDPad,CuDef*
%ADD14RotRect,1.500000X0.550000X135.000000*%
G04 #@! TD*
G04 #@! TA.AperFunction,SMDPad,CuDef*
%ADD15RotRect,1.500000X0.550000X45.000000*%
G04 #@! TD*
G04 #@! TA.AperFunction,SMDPad,CuDef*
%ADD16R,0.400000X2.000000*%
G04 #@! TD*
G04 #@! TA.AperFunction,SMDPad,CuDef*
%ADD17R,1.700000X1.000000*%
G04 #@! TD*
G04 #@! TA.AperFunction,SMDPad,CuDef*
%ADD18R,1.200000X1.300000*%
G04 #@! TD*
G04 #@! TA.AperFunction,ComponentPad*
%ADD19C,2.000000*%
G04 #@! TD*
G04 #@! TA.AperFunction,SMDPad,CuDef*
%ADD20R,1.300000X1.200000*%
G04 #@! TD*
G04 #@! TA.AperFunction,SMDPad,CuDef*
%ADD21R,0.600000X1.450000*%
G04 #@! TD*
G04 #@! TA.AperFunction,SMDPad,CuDef*
%ADD22R,0.300000X1.450000*%
G04 #@! TD*
G04 #@! TA.AperFunction,ComponentPad*
%ADD23O,1.000000X2.100000*%
G04 #@! TD*
G04 #@! TA.AperFunction,ComponentPad*
%ADD24O,1.000000X1.600000*%
G04 #@! TD*
G04 #@! TA.AperFunction,SMDPad,CuDef*
%ADD25R,1.200000X1.250000*%
G04 #@! TD*
G04 #@! TA.AperFunction,SMDPad,CuDef*
%ADD26R,1.250000X1.200000*%
G04 #@! TD*
G04 #@! TA.AperFunction,SMDPad,CuDef*
%ADD27R,0.600000X1.200000*%
G04 #@! TD*
G04 #@! TA.AperFunction,ComponentPad*
%ADD28R,1.700000X1.700000*%
G04 #@! TD*
G04 #@! TA.AperFunction,ComponentPad*
%ADD29O,1.700000X1.700000*%
G04 #@! TD*
G04 #@! TA.AperFunction,SMDPad,CuDef*
%ADD30R,2.500000X2.500000*%
G04 #@! TD*
G04 #@! TA.AperFunction,SMDPad,CuDef*
%ADD31RoundRect,0.150000X0.775000X-0.150000X0.775000X0.150000X-0.775000X0.150000X-0.775000X-0.150000X0*%
G04 #@! TD*
G04 #@! TA.AperFunction,SMDPad,CuDef*
%ADD32RoundRect,0.332800X0.567200X-0.467200X0.567200X0.467200X-0.567200X0.467200X-0.567200X-0.467200X0*%
G04 #@! TD*
G04 #@! TA.AperFunction,ViaPad*
%ADD33C,0.800000*%
G04 #@! TD*
G04 #@! TA.AperFunction,ViaPad*
%ADD34C,0.600000*%
G04 #@! TD*
G04 #@! TA.AperFunction,Conductor*
%ADD35C,0.250000*%
G04 #@! TD*
G04 #@! TA.AperFunction,Conductor*
%ADD36C,0.500000*%
G04 #@! TD*
G04 #@! TA.AperFunction,Conductor*
%ADD37C,0.200000*%
G04 #@! TD*
G04 APERTURE END LIST*
D10*
X78740000Y-23495000D03*
X72390000Y-26035000D03*
X97790000Y-23495000D03*
X91440000Y-26035000D03*
X154940000Y-23495000D03*
X148590000Y-26035000D03*
X173990000Y-23495000D03*
X167640000Y-26035000D03*
X135890000Y-23495000D03*
X129540000Y-26035000D03*
X116840000Y-23495000D03*
X110490000Y-26035000D03*
X16827500Y-23495000D03*
X10477500Y-26035000D03*
X145415000Y-4445000D03*
X139065000Y-6985000D03*
X183515000Y-4445000D03*
X177165000Y-6985000D03*
X88265000Y-4445000D03*
X81915000Y-6985000D03*
X240665000Y-4445000D03*
X234315000Y-6985000D03*
X221615000Y-4445000D03*
X215265000Y-6985000D03*
X202565000Y-4445000D03*
X196215000Y-6985000D03*
X164465000Y-4445000D03*
X158115000Y-6985000D03*
X126365000Y-4445000D03*
X120015000Y-6985000D03*
X107315000Y-4445000D03*
X100965000Y-6985000D03*
X69215000Y-4445000D03*
X62865000Y-6985000D03*
X31115000Y-4445000D03*
X24765000Y-6985000D03*
X12065000Y-4445000D03*
X5715000Y-6985000D03*
X40640000Y-80645000D03*
X34290000Y-83185000D03*
X150177500Y-61595000D03*
X143827500Y-64135000D03*
X226377500Y-61595000D03*
X220027500Y-64135000D03*
X169227500Y-61595000D03*
X162877500Y-64135000D03*
X131127500Y-61595000D03*
X124777500Y-64135000D03*
X188277500Y-61595000D03*
X181927500Y-64135000D03*
X250190000Y-23495000D03*
X243840000Y-26035000D03*
X54927500Y-61595000D03*
X48577500Y-64135000D03*
X193040000Y-23495000D03*
X186690000Y-26035000D03*
X121602500Y-42545000D03*
X115252500Y-45085000D03*
X64452500Y-42545000D03*
X58102500Y-45085000D03*
X266858700Y-42545000D03*
X260508700Y-45085000D03*
X278765000Y-61595000D03*
X272415000Y-64135000D03*
X178752500Y-42545000D03*
X172402500Y-45085000D03*
X274002487Y-23495061D03*
X267652487Y-26035061D03*
X231140000Y-23495000D03*
X224790000Y-26035000D03*
X64452500Y-80645000D03*
X58102500Y-83185000D03*
X83502500Y-42545000D03*
X77152500Y-45085000D03*
X159702500Y-42545000D03*
X153352500Y-45085000D03*
X102552500Y-42545000D03*
X96202500Y-45085000D03*
X45402500Y-42545000D03*
X39052500Y-45085000D03*
X197802500Y-42545000D03*
X191452500Y-45085000D03*
X23971250Y-61595000D03*
X17621250Y-64135000D03*
X235902500Y-42545000D03*
X229552500Y-45085000D03*
X216852500Y-42545000D03*
X210502500Y-45085000D03*
X212090000Y-23495000D03*
X205740000Y-26035000D03*
X140652500Y-42545000D03*
X134302500Y-45085000D03*
X19208750Y-42545000D03*
X12858750Y-45085000D03*
X112077500Y-61595000D03*
X105727500Y-64135000D03*
X250190000Y-80645000D03*
X243840000Y-83185000D03*
X73977500Y-61595000D03*
X67627500Y-64135000D03*
X226377500Y-80645000D03*
X220027500Y-83185000D03*
D11*
X283368988Y-57125000D03*
X2381252Y-57125000D03*
D10*
X40640000Y-23495000D03*
X34290000Y-26035000D03*
D12*
X190500160Y-85525000D03*
D10*
X93027500Y-61595000D03*
X86677500Y-64135000D03*
X14446277Y-42544925D03*
X8096277Y-45084925D03*
D12*
X260425000Y-28227050D03*
D10*
X259714977Y-4445061D03*
X253364977Y-6985061D03*
X252571287Y-61595061D03*
X246221287Y-64135061D03*
X278765087Y-4444961D03*
X272415087Y-6984961D03*
X207327500Y-61595000D03*
X200977500Y-64135000D03*
D12*
X128587608Y-47425040D03*
D10*
X59690000Y-23495000D03*
X53340000Y-26035000D03*
D12*
X25600000Y-28576024D03*
D10*
X145415000Y-80645000D03*
X139065000Y-83185000D03*
X50165000Y-4445000D03*
X43815000Y-6985000D03*
D13*
X239932417Y-85725561D03*
X239932417Y-82425561D03*
X216098619Y-85725561D03*
X216098619Y-82425561D03*
X150614189Y-85725561D03*
X150614189Y-82425561D03*
X69679287Y-85725561D03*
X69679287Y-82425561D03*
X268225000Y-70325000D03*
X268225000Y-67025000D03*
X242031460Y-70325056D03*
X242031460Y-67025056D03*
X215837500Y-70325000D03*
X215837500Y-67025000D03*
X196787500Y-70325000D03*
X196787500Y-67025000D03*
X139637500Y-70325000D03*
X139637500Y-67025000D03*
X101537500Y-70325000D03*
X101537500Y-67025000D03*
X82487500Y-70325000D03*
X82487500Y-67025000D03*
X220600000Y-32225000D03*
X220600000Y-28925000D03*
X225362500Y-51275000D03*
X225362500Y-47975000D03*
X49150000Y-32225000D03*
X49150000Y-28925000D03*
X182500000Y-32225000D03*
X182500000Y-28925000D03*
X206312500Y-51275000D03*
X206312500Y-47975000D03*
X111062500Y-51275000D03*
X111062500Y-47975000D03*
X53912500Y-51275000D03*
X53912500Y-47975000D03*
X187262500Y-51275000D03*
X187262500Y-47975000D03*
X146112500Y-51275000D03*
X146112500Y-47975000D03*
X50862500Y-51275000D03*
X50862500Y-47975000D03*
X72962500Y-51275000D03*
X72962500Y-47975000D03*
X106300000Y-32225000D03*
X106300000Y-28925000D03*
X201550000Y-32225000D03*
X201550000Y-28925000D03*
X125350000Y-32225000D03*
X125350000Y-28925000D03*
X163450000Y-32225000D03*
X163450000Y-28925000D03*
X149162500Y-51275000D03*
X149162500Y-47975000D03*
X92012500Y-51275000D03*
X92012500Y-47975000D03*
X60387500Y-70325000D03*
X60387500Y-67025000D03*
X158687500Y-70325000D03*
X158687500Y-67025000D03*
X272318700Y-51275000D03*
X272318700Y-47975000D03*
X45904299Y-84900061D03*
X45904299Y-81600061D03*
X168212500Y-51275000D03*
X168212500Y-47975000D03*
X87250000Y-32225000D03*
X87250000Y-28925000D03*
X239650000Y-32225000D03*
X239650000Y-28925000D03*
X69912500Y-51275000D03*
X69912500Y-47975000D03*
X144400000Y-32225000D03*
X144400000Y-28925000D03*
X177737500Y-70325000D03*
X177737500Y-67025000D03*
X120587500Y-70325000D03*
X120587500Y-67025000D03*
X68200000Y-32225000D03*
X68200000Y-28925000D03*
D14*
X126576021Y-86684407D03*
X126010335Y-87250092D03*
X125444650Y-87815777D03*
X124878965Y-88381463D03*
X124313279Y-88947148D03*
X123747594Y-89512834D03*
X123181908Y-90078519D03*
X122616223Y-90644205D03*
X122050537Y-91209890D03*
X121484852Y-91775575D03*
X120919167Y-92341261D03*
D15*
X118515003Y-92341261D03*
X117949318Y-91775575D03*
X117383633Y-91209890D03*
X116817947Y-90644205D03*
X116252262Y-90078519D03*
X115686576Y-89512834D03*
X115120891Y-88947148D03*
X114555205Y-88381463D03*
X113989520Y-87815777D03*
X113423835Y-87250092D03*
X112858149Y-86684407D03*
D14*
X112858149Y-84280243D03*
X113423835Y-83714558D03*
X113989520Y-83148873D03*
X114555205Y-82583187D03*
X115120891Y-82017502D03*
X115686576Y-81451816D03*
X116252262Y-80886131D03*
X116817947Y-80320445D03*
X117383633Y-79754760D03*
X117949318Y-79189075D03*
X118515003Y-78623389D03*
D15*
X120919167Y-78623389D03*
X121484852Y-79189075D03*
X122050537Y-79754760D03*
X122616223Y-80320445D03*
X123181908Y-80886131D03*
X123747594Y-81451816D03*
X124313279Y-82017502D03*
X124878965Y-82583187D03*
X125444650Y-83148873D03*
X126010335Y-83714558D03*
X126576021Y-84280243D03*
D16*
X105079287Y-91600061D03*
X107479287Y-91600061D03*
X106279287Y-91600061D03*
D17*
X201079287Y-85300061D03*
X207379287Y-85300061D03*
X207379287Y-89100061D03*
X201079287Y-89100061D03*
D18*
X106479287Y-78700061D03*
X108679287Y-78700061D03*
D13*
X172975000Y-13175000D03*
X172975000Y-9875000D03*
X153925000Y-13175000D03*
X153925000Y-9875000D03*
X230125000Y-13175000D03*
X230125000Y-9875000D03*
X192025000Y-13175000D03*
X192025000Y-9875000D03*
X246125000Y-13175000D03*
X246125000Y-9875000D03*
X46100000Y-32225000D03*
X46100000Y-28925000D03*
X6287500Y-32225000D03*
X6287500Y-28925000D03*
X211075000Y-13175000D03*
X211075000Y-9875000D03*
X115825000Y-13175000D03*
X115825000Y-9875000D03*
X55625000Y-13175000D03*
X55625000Y-9875000D03*
X77725000Y-13175000D03*
X77725000Y-9875000D03*
X134875000Y-13175000D03*
X134875000Y-9875000D03*
X96775000Y-13175000D03*
X96775000Y-9875000D03*
X58675000Y-13175000D03*
X58675000Y-9875000D03*
D19*
X134979287Y-85950061D03*
D20*
X17859390Y-18364077D03*
X17859390Y-16164077D03*
D21*
X15343000Y-7075000D03*
X16118000Y-7075000D03*
D22*
X16818000Y-7075000D03*
X17318000Y-7075000D03*
X17818000Y-7075000D03*
X18318000Y-7075000D03*
X18818000Y-7075000D03*
X19318000Y-7075000D03*
X19818000Y-7075000D03*
X20318000Y-7075000D03*
D21*
X21018000Y-7075000D03*
X21793000Y-7075000D03*
D23*
X22888000Y-6160000D03*
D24*
X22888000Y-1980000D03*
X14248000Y-1980000D03*
D23*
X14248000Y-6160000D03*
D13*
X63437500Y-70325000D03*
X63437500Y-67025000D03*
D25*
X110129287Y-92150061D03*
X112329287Y-92150061D03*
D26*
X130529287Y-84400061D03*
X130529287Y-86600061D03*
D13*
X29431250Y-70325000D03*
X29431250Y-67025000D03*
X236600000Y-32225000D03*
X236600000Y-28925000D03*
D20*
X15478138Y-18959390D03*
X15478138Y-16759390D03*
D13*
X36575000Y-13175000D03*
X36575000Y-9875000D03*
D20*
X20240642Y-16164077D03*
X20240642Y-18364077D03*
D25*
X171189287Y-91371313D03*
X173389287Y-91371313D03*
D26*
X106929287Y-86550061D03*
X106929287Y-84350061D03*
D18*
X173389287Y-88990061D03*
X171189287Y-88990061D03*
D20*
X22621894Y-11996886D03*
X22621894Y-14196886D03*
D13*
X39625000Y-13175000D03*
X39625000Y-9875000D03*
D27*
X18100016Y-11351573D03*
X19050016Y-11351573D03*
X20000016Y-11351573D03*
X20000016Y-13651573D03*
X19050016Y-13651573D03*
X18100016Y-13651573D03*
D28*
X176729287Y-90510061D03*
D29*
X179269287Y-90510061D03*
X176729287Y-87970061D03*
X179269287Y-87970061D03*
X176729287Y-85430061D03*
X179269287Y-85430061D03*
D20*
X15478138Y-14196886D03*
X15478138Y-11996886D03*
D30*
X157211075Y-85725072D03*
X170211075Y-85725072D03*
D26*
X132529287Y-84400061D03*
X132529287Y-86600061D03*
D25*
X113829287Y-78700061D03*
X111629287Y-78700061D03*
D31*
X40548273Y-16549549D03*
X40548273Y-17549549D03*
X40548273Y-18549549D03*
X40548273Y-19549549D03*
D32*
X44573273Y-15049549D03*
X44573273Y-21049549D03*
D13*
X249174977Y-13175061D03*
X249174977Y-9875061D03*
D33*
X37601287Y-20606061D03*
X126829287Y-89410061D03*
D34*
X24212462Y-14196886D03*
D33*
X170211075Y-83371849D03*
X105139287Y-78700061D03*
D34*
X21793000Y-9586348D03*
D33*
X108839287Y-86550061D03*
X122539287Y-78134640D03*
X131509287Y-82330061D03*
X114989287Y-78700061D03*
D34*
X19050016Y-10199332D03*
D33*
X108799287Y-93090061D03*
X127379287Y-82345606D03*
X174478035Y-91371313D03*
X117649287Y-89320061D03*
X111159469Y-84280243D03*
D34*
X15478138Y-15478912D03*
D33*
X110200000Y-83090774D03*
X82739287Y-86630061D03*
D34*
X12279287Y-20025061D03*
D33*
X110200000Y-79360061D03*
X37999287Y-60310061D03*
X27109287Y-76200061D03*
D34*
X150614189Y-88600061D03*
X102169287Y-87680061D03*
X108029287Y-81300061D03*
D33*
X39052500Y-71390061D03*
D34*
X108037345Y-82192003D03*
D33*
X54927500Y-71390061D03*
D34*
X108045403Y-83083945D03*
D33*
X73979287Y-71390061D03*
X93029287Y-71390061D03*
X112079287Y-71390061D03*
D34*
X118418934Y-80790061D03*
D33*
X131129287Y-71390061D03*
X150179287Y-71390061D03*
X169229287Y-71390061D03*
X188279287Y-71390061D03*
X207329287Y-71390061D03*
X226377500Y-71390061D03*
D34*
X127552091Y-79910061D03*
X128279287Y-80640061D03*
X19264287Y-8945061D03*
X17612287Y-8945061D03*
X182569287Y-86700061D03*
X117621675Y-77730061D03*
X110200000Y-78274573D03*
X175479287Y-92650061D03*
X134979287Y-91810061D03*
X123908425Y-87410923D03*
X18625016Y-20350061D03*
X123858934Y-86230061D03*
X19475016Y-20350061D03*
X119715287Y-93160061D03*
X157211075Y-87938273D03*
D35*
X55208015Y-86127740D02*
G75*
G03*
X53086695Y-85249061I-2121319J-2121319D01*
G01*
X46253299Y-85249061D02*
X45904299Y-84900061D01*
X53086695Y-85249061D02*
X46253299Y-85249061D01*
X56860889Y-87780614D02*
X55208015Y-86127740D01*
X57087721Y-87911576D02*
X56860889Y-87780614D01*
X57329707Y-88011810D02*
X57087721Y-87911576D01*
X57582706Y-88079601D02*
X57329707Y-88011810D01*
X57973351Y-88115698D02*
X57842389Y-88113789D01*
X66735597Y-88115698D02*
X57973351Y-88115698D01*
X69229287Y-85725561D02*
X66912373Y-88042475D01*
X69679287Y-85725561D02*
X69229287Y-85725561D01*
X66735597Y-88115698D02*
G75*
G03*
X66912373Y-88042475I-1J250001D01*
G01*
X57842389Y-88113789D02*
X57582706Y-88079601D01*
X238572383Y-87085595D02*
G75*
G02*
X235036849Y-88550061I-3535533J3535532D01*
G01*
X235036849Y-88550061D02*
X220994187Y-88550061D01*
X217458653Y-87085595D02*
G75*
G03*
X220994187Y-88550061I3535533J3535532D01*
G01*
X239932417Y-85725561D02*
X238572383Y-87085595D01*
X217458653Y-87085595D02*
X216098619Y-85725561D01*
D36*
X132529287Y-84400061D02*
X131509287Y-84400061D01*
X37601287Y-20606061D02*
X38072013Y-20135335D01*
X15343000Y-7075000D02*
X15163000Y-7075000D01*
X126683581Y-89555767D02*
X126829287Y-89410061D01*
X126010335Y-83714558D02*
X127379287Y-82345606D01*
X19050016Y-11351573D02*
X19050016Y-10199332D01*
X116817947Y-90644205D02*
X117649287Y-89812865D01*
X106929287Y-86550061D02*
X108839287Y-86550061D01*
X22621894Y-14196886D02*
X24212462Y-14196886D01*
X21973000Y-7075000D02*
X22888000Y-6160000D01*
X106779287Y-93090061D02*
X108799287Y-93090061D01*
X124921898Y-89555767D02*
X126683581Y-89555767D01*
X194450679Y-80192537D02*
X199265310Y-85007168D01*
X39486226Y-19549549D02*
X40548273Y-19549549D01*
X121484852Y-79189075D02*
X122539287Y-78134640D01*
X108799287Y-93090061D02*
X109629287Y-93090061D01*
X173389287Y-91371313D02*
X174478035Y-91371313D01*
X117649287Y-89812865D02*
X117649287Y-89320061D01*
X21793000Y-7075000D02*
X21793000Y-9586348D01*
X106279287Y-91600061D02*
X106279287Y-92590061D01*
X110129287Y-92590061D02*
X110129287Y-92150061D01*
X174511707Y-79899644D02*
X193743572Y-79899644D01*
X131509287Y-84400061D02*
X130529287Y-84400061D01*
X21793000Y-7075000D02*
X21973000Y-7075000D01*
X131509287Y-84400061D02*
X131509287Y-82330061D01*
X112858149Y-84280243D02*
X111159469Y-84280243D01*
X124313279Y-88947148D02*
X124921898Y-89555767D01*
X170211075Y-83371849D02*
X173097494Y-80485430D01*
X15478138Y-14196886D02*
X15478138Y-15478912D01*
X199972417Y-85300061D02*
X201079287Y-85300061D01*
X106479287Y-78700061D02*
X105139287Y-78700061D01*
X113829287Y-78700061D02*
X114989287Y-78700061D01*
X15163000Y-7075000D02*
X14248000Y-6160000D01*
X201079287Y-85300061D02*
X207379287Y-85300061D01*
X170211075Y-85725072D02*
X170211075Y-83371849D01*
X173097494Y-80485430D02*
G75*
G02*
X174511707Y-79899644I1414213J-1414214D01*
G01*
X106779287Y-93090061D02*
G75*
G02*
X106279287Y-92590061I1J500001D01*
G01*
X199972417Y-85300060D02*
G75*
G02*
X199265311Y-85007167I-3J999993D01*
G01*
X110129287Y-92590061D02*
G75*
G02*
X109629287Y-93090061I-500001J1D01*
G01*
X194450679Y-80192537D02*
G75*
G03*
X193743572Y-79899644I-707106J-707106D01*
G01*
X38072013Y-20135335D02*
G75*
G02*
X39486226Y-19549549I1414213J-1414214D01*
G01*
X112592944Y-83090774D02*
X110200000Y-83090774D01*
X157486394Y-90407168D02*
X157022180Y-89942954D01*
X171482180Y-87907168D02*
X175376394Y-84012954D01*
X115615035Y-92150061D02*
X112329287Y-92150061D01*
X130236394Y-87842954D02*
X130152180Y-87927168D01*
X171189287Y-88990061D02*
X171189287Y-88614275D01*
X124296764Y-84890061D02*
X124512180Y-84890061D01*
X122706343Y-89602954D02*
X122706343Y-89602954D01*
X110200000Y-83090774D02*
X110002788Y-83090774D01*
X125019287Y-85604275D02*
X125044882Y-85604275D01*
X176083501Y-83720061D02*
X180095073Y-83720061D01*
X180415073Y-90510061D02*
X179269287Y-90510061D01*
X120009287Y-79972954D02*
X120009287Y-79740376D01*
X129445073Y-88220061D02*
X127808731Y-88220061D01*
X125312180Y-86551937D02*
X126010335Y-87250092D01*
X120603441Y-78939115D02*
X120919167Y-78623389D01*
X181669287Y-85294275D02*
X181669287Y-89255847D01*
X125359096Y-85290061D02*
X125326394Y-85290061D01*
X126394517Y-87634274D02*
X126010335Y-87250092D01*
X122413450Y-88895847D02*
X122413450Y-87394695D01*
X109295681Y-83383667D02*
X108622180Y-84057168D01*
X124865734Y-85036508D02*
X124972840Y-85143614D01*
X14705360Y-19732168D02*
X15478138Y-18959390D01*
X171189287Y-88990061D02*
X170065073Y-90114275D01*
X84433500Y-84935848D02*
X82739287Y-86630061D01*
X132529287Y-87460061D02*
X132529287Y-86600061D01*
X122999237Y-85980481D02*
X123943211Y-85036507D01*
X126576021Y-84280243D02*
X125712649Y-85143615D01*
X106929287Y-84350061D02*
X85847714Y-84350061D01*
X120155734Y-79386822D02*
X120919167Y-78623389D01*
X180802180Y-84012954D02*
X181376394Y-84587168D01*
X156315073Y-89650061D02*
X135547714Y-89650061D01*
X132529287Y-86600061D02*
X130529287Y-86600061D01*
X113423835Y-83714558D02*
X112946497Y-83237220D01*
X181376394Y-89962954D02*
X181122180Y-90217168D01*
X134133500Y-89064274D02*
X132529287Y-87460061D01*
X168650860Y-90700061D02*
X158193501Y-90700061D01*
X130529287Y-86600061D02*
X130529287Y-87135847D01*
X119226445Y-89310061D02*
X120111889Y-89310061D01*
X121999236Y-89310061D02*
X120111889Y-89310061D01*
X124726394Y-84897168D02*
X120155733Y-80326507D01*
X107915073Y-84350061D02*
X106929287Y-84350061D01*
X117383633Y-91209890D02*
X117029248Y-91564275D01*
X123181908Y-90078519D02*
X122706343Y-89602954D01*
X113423835Y-83714558D02*
X118872892Y-89163615D01*
X110762180Y-79360061D02*
X110200000Y-79360061D01*
X111629287Y-78700061D02*
X111115733Y-79213615D01*
X124972840Y-85143614D02*
X124726394Y-84897168D01*
X118697675Y-89895848D02*
X117383633Y-91209890D01*
X125019287Y-85604275D02*
X125019287Y-85844830D01*
X12279287Y-20025061D02*
X13998253Y-20025061D01*
X121999236Y-89310062D02*
G75*
G02*
X122706342Y-89602955I3J-999993D01*
G01*
X109295681Y-83383667D02*
G75*
G02*
X110002788Y-83090774I707106J-707106D01*
G01*
X129445073Y-88220060D02*
G75*
G03*
X130152179Y-87927167I3J999993D01*
G01*
X119226445Y-89310060D02*
G75*
G02*
X118872892Y-89163615I0J500001D01*
G01*
X156315073Y-89650062D02*
G75*
G02*
X157022179Y-89942955I3J-999993D01*
G01*
X122999237Y-85980481D02*
G75*
G03*
X122413450Y-87394695I1414213J-1414214D01*
G01*
X181122180Y-90217168D02*
G75*
G02*
X180415073Y-90510061I-707106J707106D01*
G01*
X120009288Y-79972954D02*
G75*
G03*
X120155733Y-80326507I500001J0D01*
G01*
X181376394Y-84587168D02*
G75*
G02*
X181669287Y-85294275I-707106J-707106D01*
G01*
X125312180Y-86551937D02*
G75*
G02*
X125019287Y-85844830I707106J707106D01*
G01*
X171189288Y-88614275D02*
G75*
G02*
X171482181Y-87907169I999993J3D01*
G01*
X118697675Y-89895848D02*
G75*
G02*
X120111889Y-89310061I1414214J-1414213D01*
G01*
X168650860Y-90700060D02*
G75*
G03*
X170065072Y-90114274I0J1999999D01*
G01*
X120155734Y-79386822D02*
G75*
G03*
X120009287Y-79740376I353550J-353553D01*
G01*
X130529286Y-87135847D02*
G75*
G02*
X130236393Y-87842953I-999993J-3D01*
G01*
X112946497Y-83237220D02*
G75*
G03*
X112592944Y-83090774I-353553J-353556D01*
G01*
X124972840Y-85143614D02*
G75*
G03*
X125326394Y-85290061I353553J353550D01*
G01*
X158193501Y-90700060D02*
G75*
G02*
X157486395Y-90407167I-3J999993D01*
G01*
X124296764Y-84890062D02*
G75*
G03*
X123943211Y-85036507I0J-500001D01*
G01*
X84433500Y-84935848D02*
G75*
G02*
X85847714Y-84350061I1414214J-1414213D01*
G01*
X134133500Y-89064274D02*
G75*
G03*
X135547714Y-89650061I1414214J1414213D01*
G01*
X13998253Y-20025060D02*
G75*
G03*
X14705359Y-19732167I3J999993D01*
G01*
X126394517Y-87634274D02*
G75*
G03*
X127808731Y-88220061I1414214J1414213D01*
G01*
X115615035Y-92150060D02*
G75*
G03*
X117029247Y-91564274I0J1999999D01*
G01*
X124512180Y-84890061D02*
G75*
G02*
X124865734Y-85036508I1J-499997D01*
G01*
X111115733Y-79213615D02*
G75*
G02*
X110762180Y-79360061I-353553J353556D01*
G01*
X124726394Y-84897168D02*
G75*
G02*
X125019287Y-85604275I-707106J-707106D01*
G01*
X125712649Y-85143615D02*
G75*
G02*
X125359096Y-85290061I-353553J353556D01*
G01*
X180802180Y-84012954D02*
G75*
G03*
X180095073Y-83720061I-707106J-707106D01*
G01*
X181376394Y-89962954D02*
G75*
G03*
X181669287Y-89255847I-707106J707106D01*
G01*
X108622180Y-84057168D02*
G75*
G02*
X107915073Y-84350061I-707106J707106D01*
G01*
X176083501Y-83720062D02*
G75*
G03*
X175376395Y-84012955I-3J-999993D01*
G01*
X122413451Y-88895847D02*
G75*
G03*
X122706344Y-89602953I999993J-3D01*
G01*
D35*
X114063466Y-89686293D02*
X113965204Y-89688621D01*
X52843173Y-87179983D02*
X52508587Y-87142284D01*
X53171434Y-87254906D02*
X52843173Y-87179983D01*
X56541338Y-89810005D02*
X56299338Y-89709765D01*
X6724339Y-61194045D02*
X6724339Y-51283540D01*
X114437779Y-89572746D02*
X114256214Y-89647953D01*
X37805001Y-25497122D02*
X44755574Y-25497122D01*
X47919837Y-88018741D02*
X44874283Y-91064295D01*
X67657161Y-89840555D02*
X67620666Y-89873724D01*
X53792602Y-87512202D02*
X53489243Y-87366112D01*
X29285674Y-91064294D02*
X26796033Y-88574652D01*
X47048467Y-18346229D02*
X47351681Y-18043015D01*
X54077696Y-87691339D02*
X53792602Y-87512202D01*
X57185021Y-89913778D02*
X57054051Y-89911990D01*
X50041158Y-87140061D02*
X49872806Y-87142284D01*
X114256214Y-89647953D02*
X114063466Y-89686293D01*
X36038360Y-24558908D02*
X36390787Y-24911335D01*
X9557993Y-24116400D02*
X10942739Y-24116400D01*
X46755574Y-23497122D02*
X46755574Y-19053336D01*
X67735873Y-89761844D02*
X67657161Y-89840555D01*
X33995001Y-23973122D02*
X34624147Y-23973122D01*
X67772368Y-89728675D02*
X67735873Y-89761844D01*
X55864681Y-89419337D02*
X55770807Y-89327991D01*
X48588791Y-87512202D02*
X48303697Y-87691339D01*
X54340941Y-87901270D02*
X54077696Y-87691339D01*
X55635287Y-13185287D02*
X55625000Y-13175000D01*
X54461556Y-88018740D02*
X54340941Y-87901270D01*
X5029287Y-47931634D02*
X5029287Y-28645106D01*
X44874283Y-91064295D02*
X44780409Y-91155640D01*
X52340236Y-87140061D02*
X50041158Y-87140061D01*
X44103752Y-91546308D02*
X43850738Y-91614103D01*
X56794352Y-89877800D02*
X56541338Y-89810005D01*
X67620666Y-89873724D02*
X67529645Y-89911426D01*
X55770807Y-89327991D02*
X54461556Y-88018740D01*
X43850738Y-91614103D02*
X43591040Y-91648292D01*
X49872806Y-87142284D02*
X49538220Y-87179983D01*
X12356952Y-24702186D02*
X12566101Y-24911335D01*
X6200860Y-25816679D02*
X6729566Y-25287973D01*
X44572598Y-91315098D02*
X44345752Y-91446068D01*
X67912649Y-89688621D02*
X67863389Y-89690973D01*
X48303697Y-87691339D02*
X48040452Y-87901270D01*
X49209959Y-87254906D02*
X48892150Y-87366112D01*
X48040452Y-87901270D02*
X47919837Y-88018741D01*
X56299338Y-89709765D02*
X56072491Y-89578796D01*
X26210247Y-87160439D02*
X26210247Y-84822089D01*
X114672311Y-89395728D02*
X114601183Y-89463564D01*
X24745781Y-81286555D02*
X8188805Y-64729579D01*
X55635287Y-13750122D02*
X55635287Y-13185287D01*
X67529645Y-89911426D02*
X67480385Y-89913778D01*
X114601183Y-89463564D02*
X114437779Y-89572746D01*
X52508587Y-87142284D02*
X52340236Y-87140061D01*
X43591040Y-91648292D02*
X43460070Y-91650081D01*
X48058788Y-17750122D02*
X51635287Y-17750122D01*
X13980315Y-25497122D02*
X30814147Y-25497122D01*
X56072491Y-89578796D02*
X55864681Y-89419337D01*
X115120891Y-88947148D02*
X114672311Y-89395728D01*
X6138552Y-49869326D02*
X5615073Y-49345847D01*
X44780409Y-91155640D02*
X44572598Y-91315098D01*
X49538220Y-87179983D02*
X49209959Y-87254906D01*
X48892150Y-87366112D02*
X48588791Y-87512202D01*
X53489243Y-87366112D02*
X53171434Y-87254906D01*
X43460070Y-91650081D02*
X30699888Y-91650081D01*
X249174916Y-13175000D02*
X249174977Y-13175061D01*
X113965204Y-89688621D02*
X67912649Y-89688621D01*
X57054051Y-89911990D02*
X56794352Y-89877800D01*
X36575000Y-13175000D02*
X249174916Y-13175000D01*
X44345752Y-91446068D02*
X44103752Y-91546308D01*
X67863389Y-89690973D02*
X67772368Y-89728675D01*
X67480385Y-89913778D02*
X57185021Y-89913778D01*
X32228360Y-24911336D02*
X32580787Y-24558909D01*
X6724339Y-61194045D02*
G75*
G03*
X8188805Y-64729579I4999998J-1D01*
G01*
X33995001Y-23973123D02*
G75*
G03*
X32580788Y-24558910I0J-1999999D01*
G01*
X12356952Y-24702186D02*
G75*
G03*
X10942739Y-24116400I-1414213J-1414214D01*
G01*
X32228360Y-24911336D02*
G75*
G02*
X30814147Y-25497122I-1414213J1414214D01*
G01*
X9557993Y-24116400D02*
G75*
G03*
X6729566Y-25287973I0J-3999999D01*
G01*
X24745781Y-81286555D02*
G75*
G02*
X26210247Y-84822089I-3535532J-3535533D01*
G01*
X13980315Y-25497121D02*
G75*
G02*
X12566102Y-24911334I0J1999999D01*
G01*
X5029288Y-47931634D02*
G75*
G03*
X5615074Y-49345846I1999999J0D01*
G01*
X55635287Y-13750122D02*
G75*
G02*
X51635287Y-17750122I-4000000J0D01*
G01*
X36038360Y-24558908D02*
G75*
G03*
X34624147Y-23973122I-1414213J-1414214D01*
G01*
X46755574Y-23497122D02*
G75*
G02*
X44755574Y-25497122I-1999999J-1D01*
G01*
X29285674Y-91064294D02*
G75*
G03*
X30699888Y-91650081I1414214J1414213D01*
G01*
X48058788Y-17750123D02*
G75*
G03*
X47351682Y-18043016I-3J-999993D01*
G01*
X37805001Y-25497121D02*
G75*
G02*
X36390788Y-24911334I0J1999999D01*
G01*
X6138552Y-49869326D02*
G75*
G02*
X6724339Y-51283540I-1414213J-1414214D01*
G01*
X26210248Y-87160439D02*
G75*
G03*
X26796034Y-88574651I1999999J0D01*
G01*
X6200860Y-25816679D02*
G75*
G03*
X5029287Y-28645106I2828426J-2828427D01*
G01*
X47048467Y-18346229D02*
G75*
G03*
X46755574Y-19053336I707106J-707106D01*
G01*
X28250013Y-5030787D02*
X29443501Y-6224275D01*
X30857714Y-6810061D02*
X34970847Y-6810061D01*
X36575000Y-8414214D02*
X36575000Y-9875000D01*
X12065000Y-4445000D02*
X26835799Y-4445000D01*
X35677954Y-7102954D02*
X36282107Y-7707107D01*
X29443501Y-6224275D02*
G75*
G03*
X30857714Y-6810061I1414213J1414214D01*
G01*
X28250013Y-5030787D02*
G75*
G03*
X26835799Y-4445000I-1414214J-1414213D01*
G01*
X35677954Y-7102954D02*
G75*
G03*
X34970847Y-6810061I-707106J-707106D01*
G01*
X36282107Y-7707107D02*
G75*
G02*
X36575000Y-8414214I-707106J-707106D01*
G01*
X37241573Y-5616573D02*
X39332107Y-7707107D01*
X39625000Y-8414214D02*
X39625000Y-9875000D01*
X31115000Y-4445000D02*
X34413146Y-4445000D01*
X34413146Y-4445000D02*
G75*
G02*
X37241573Y-5616573I0J-3999999D01*
G01*
X39624999Y-8414214D02*
G75*
G03*
X39332106Y-7707108I-999993J3D01*
G01*
X52362893Y-4737893D02*
X55332107Y-7707107D01*
X55625000Y-9875000D02*
X55625000Y-8414214D01*
X55595000Y-9875000D02*
X55625000Y-9875000D01*
X50165000Y-4445000D02*
X51655786Y-4445000D01*
X55624999Y-8414214D02*
G75*
G03*
X55332106Y-7707108I-999993J3D01*
G01*
X51655786Y-4445001D02*
G75*
G02*
X52362892Y-4737894I3J-999993D01*
G01*
X59397107Y-7277893D02*
X58967893Y-7707107D01*
X58675000Y-9875000D02*
X58675000Y-8414214D01*
X62865000Y-6985000D02*
X60104214Y-6985000D01*
X58967893Y-7707107D02*
G75*
G03*
X58675000Y-8414214I707106J-707106D01*
G01*
X59397107Y-7277893D02*
G75*
G02*
X60104214Y-6985000I707106J-707106D01*
G01*
X78447107Y-7277893D02*
X78017893Y-7707107D01*
X81915000Y-6985000D02*
X79154214Y-6985000D01*
X77725000Y-9875000D02*
X77725000Y-8414214D01*
X78447107Y-7277893D02*
G75*
G02*
X79154214Y-6985000I707106J-707106D01*
G01*
X78017893Y-7707107D02*
G75*
G03*
X77725000Y-8414214I707106J-707106D01*
G01*
X100965000Y-6985000D02*
X98204214Y-6985000D01*
X96775000Y-9875000D02*
X96775000Y-8414214D01*
X97497107Y-7277893D02*
X97067893Y-7707107D01*
X97067893Y-7707107D02*
G75*
G03*
X96775000Y-8414214I707106J-707106D01*
G01*
X97497107Y-7277893D02*
G75*
G02*
X98204214Y-6985000I707106J-707106D01*
G01*
X115825000Y-9875000D02*
X115825000Y-8414214D01*
X116547107Y-7277893D02*
X116117893Y-7707107D01*
X120015000Y-6985000D02*
X117254214Y-6985000D01*
X116547107Y-7277893D02*
G75*
G02*
X117254214Y-6985000I707106J-707106D01*
G01*
X115825001Y-8414214D02*
G75*
G02*
X116117894Y-7707108I999993J3D01*
G01*
X134875000Y-9875000D02*
X134875000Y-8414214D01*
X135597107Y-7277893D02*
X135167893Y-7707107D01*
X139065000Y-6985000D02*
X136304214Y-6985000D01*
X135167893Y-7707107D02*
G75*
G03*
X134875000Y-8414214I707106J-707106D01*
G01*
X136304214Y-6985001D02*
G75*
G03*
X135597108Y-7277894I-3J-999993D01*
G01*
X154647107Y-7277893D02*
X154217893Y-7707107D01*
X158115000Y-6985000D02*
X155354214Y-6985000D01*
X153925000Y-9875000D02*
X153925000Y-8414214D01*
X155354214Y-6985001D02*
G75*
G03*
X154647108Y-7277894I-3J-999993D01*
G01*
X153925001Y-8414214D02*
G75*
G02*
X154217894Y-7707108I999993J3D01*
G01*
X172975000Y-9875000D02*
X172975000Y-8414214D01*
X177165000Y-6985000D02*
X174404214Y-6985000D01*
X173697107Y-7277893D02*
X173267893Y-7707107D01*
X173697107Y-7277893D02*
G75*
G02*
X174404214Y-6985000I707106J-707106D01*
G01*
X173267893Y-7707107D02*
G75*
G03*
X172975000Y-8414214I707106J-707106D01*
G01*
X192025000Y-9875000D02*
X192025000Y-8414214D01*
X196215000Y-6985000D02*
X193454214Y-6985000D01*
X192747107Y-7277893D02*
X192317893Y-7707107D01*
X192317893Y-7707107D02*
G75*
G03*
X192025000Y-8414214I707106J-707106D01*
G01*
X193454214Y-6985001D02*
G75*
G03*
X192747108Y-7277894I-3J-999993D01*
G01*
X211797107Y-7277893D02*
X211367893Y-7707107D01*
X211075000Y-9875000D02*
X211075000Y-8414214D01*
X215265000Y-6985000D02*
X212504214Y-6985000D01*
X212504214Y-6985001D02*
G75*
G03*
X211797108Y-7277894I-3J-999993D01*
G01*
X211367893Y-7707107D02*
G75*
G03*
X211075000Y-8414214I707106J-707106D01*
G01*
X230847107Y-7277893D02*
X230417893Y-7707107D01*
X230125000Y-9875000D02*
X230125000Y-8414214D01*
X234315000Y-6985000D02*
X231554214Y-6985000D01*
X231554214Y-6985001D02*
G75*
G03*
X230847108Y-7277894I-3J-999993D01*
G01*
X230417893Y-7707107D02*
G75*
G03*
X230125000Y-8414214I707106J-707106D01*
G01*
X262890000Y-6985000D02*
X259222653Y-6985000D01*
X246125000Y-9242641D02*
X246125000Y-9875000D01*
X248036259Y-6088741D02*
X247003679Y-7121321D01*
X257808439Y-6399213D02*
X257205073Y-5795847D01*
X255790860Y-5210061D02*
X250157580Y-5210061D01*
X262890000Y-6985000D02*
X272415048Y-6985000D01*
X272415048Y-6985000D02*
X272415087Y-6984961D01*
X248036259Y-6088741D02*
G75*
G02*
X250157580Y-5210061I2121323J-2121325D01*
G01*
X259222653Y-6984999D02*
G75*
G02*
X257808440Y-6399212I0J1999999D01*
G01*
X255790860Y-5210062D02*
G75*
G02*
X257205072Y-5795848I0J-1999999D01*
G01*
X246125000Y-9242641D02*
G75*
G02*
X247003679Y-7121321I2999998J1D01*
G01*
X10477500Y-26035000D02*
X7666714Y-26035000D01*
X6959607Y-26327893D02*
X6580393Y-26707107D01*
X6287500Y-28925000D02*
X6287500Y-27414214D01*
X6959607Y-26327893D02*
G75*
G02*
X7666714Y-26035000I707106J-707106D01*
G01*
X6287501Y-27414214D02*
G75*
G02*
X6580394Y-26707108I999993J3D01*
G01*
X113283353Y-89239101D02*
X113381615Y-89236774D01*
X52694988Y-86692274D02*
X53029574Y-86729973D01*
X56259383Y-89129275D02*
X56486229Y-89260245D01*
X56728229Y-89360485D02*
X56981243Y-89428280D01*
X43404632Y-91198291D02*
X43664331Y-91164101D01*
X56051572Y-88969817D02*
X56259383Y-89129275D01*
X54527342Y-87451260D02*
X54647957Y-87568731D01*
X53029574Y-86729973D02*
X53357835Y-86804896D01*
X48402392Y-87062192D02*
X48705751Y-86916102D01*
X44687876Y-90614292D02*
X47733438Y-87568730D01*
X48117298Y-87241329D02*
X48402392Y-87062192D01*
X57371911Y-89464258D02*
X67294188Y-89464258D01*
X67470965Y-89391034D02*
X67549675Y-89312324D01*
X67294188Y-89464258D02*
X67343448Y-89461906D01*
X47854053Y-87451260D02*
X48117298Y-87241329D01*
X57240941Y-89462469D02*
X57371911Y-89464258D01*
X113990460Y-88946208D02*
X114555205Y-88381463D01*
X54264097Y-87241329D02*
X54527342Y-87451260D01*
X113755929Y-89123228D02*
X113919333Y-89014044D01*
X54647957Y-87568731D02*
X55957698Y-88878472D01*
X6064594Y-49159650D02*
X6588562Y-49683618D01*
X26659767Y-84635891D02*
X26659767Y-86974242D01*
X53357835Y-86804896D02*
X53675644Y-86916102D01*
X7174348Y-51097831D02*
X7174348Y-61008336D01*
X5478807Y-33447907D02*
X5478807Y-47745436D01*
X67586170Y-89279155D02*
X67677191Y-89241453D01*
X239650000Y-32225000D02*
X6287500Y-32225000D01*
X55957698Y-88878472D02*
X56051572Y-88969817D01*
X43917345Y-91096306D02*
X44159345Y-90996066D01*
X49351821Y-86729973D02*
X49686407Y-86692274D01*
X113381615Y-89236774D02*
X113574364Y-89198434D01*
X67343448Y-89461906D02*
X67434470Y-89424203D01*
X44594002Y-90705638D02*
X44687876Y-90614292D01*
X113919333Y-89014044D02*
X113990460Y-88946208D01*
X56486229Y-89260245D02*
X56728229Y-89360485D01*
X49023560Y-86804896D02*
X49351821Y-86729973D01*
X47733438Y-87568730D02*
X47854053Y-87451260D01*
X8638814Y-64543870D02*
X25195301Y-81100357D01*
X30885604Y-91200079D02*
X43273662Y-91200079D01*
X49854758Y-86690051D02*
X52526636Y-86690051D01*
X49686407Y-86692274D02*
X49854758Y-86690051D01*
X67726451Y-89239101D02*
X113283353Y-89239101D01*
X67549675Y-89312324D02*
X67586170Y-89279155D01*
X56981243Y-89428280D02*
X57240941Y-89462469D01*
X67677191Y-89241453D02*
X67726451Y-89239101D01*
X6287500Y-32225000D02*
X5771700Y-32740800D01*
X44159345Y-90996066D02*
X44386192Y-90865097D01*
X43664331Y-91164101D02*
X43917345Y-91096306D01*
X44386192Y-90865097D02*
X44594002Y-90705638D01*
X52526636Y-86690051D02*
X52694988Y-86692274D01*
X113574364Y-89198434D02*
X113755929Y-89123228D01*
X67434470Y-89424203D02*
X67470965Y-89391034D01*
X27245554Y-88388456D02*
X29471391Y-90614293D01*
X53979003Y-87062192D02*
X54264097Y-87241329D01*
X53675644Y-86916102D02*
X53979003Y-87062192D01*
X43273662Y-91200079D02*
X43404632Y-91198291D01*
X48705751Y-86916102D02*
X49023560Y-86804896D01*
X8638814Y-64543870D02*
G75*
G02*
X7174348Y-61008336I3535532J3535533D01*
G01*
X6588562Y-49683618D02*
G75*
G02*
X7174348Y-51097831I-1414214J-1414213D01*
G01*
X27245554Y-88388456D02*
G75*
G02*
X26659767Y-86974242I1414213J1414214D01*
G01*
X25195301Y-81100357D02*
G75*
G02*
X26659767Y-84635891I-3535532J-3535533D01*
G01*
X29471391Y-90614293D02*
G75*
G03*
X30885604Y-91200079I1414213J1414214D01*
G01*
X5771700Y-32740800D02*
G75*
G03*
X5478807Y-33447907I707106J-707106D01*
G01*
X6064594Y-49159650D02*
G75*
G02*
X5478807Y-47745436I1414213J1414214D01*
G01*
X46100000Y-28925000D02*
X46100000Y-27414214D01*
X34290000Y-26035000D02*
X44720786Y-26035000D01*
X45427893Y-26327893D02*
X45807107Y-26707107D01*
X45807107Y-26707107D02*
G75*
G02*
X46100000Y-27414214I-707106J-707106D01*
G01*
X45427893Y-26327893D02*
G75*
G03*
X44720786Y-26035000I-707106J-707106D01*
G01*
X53340000Y-26035000D02*
X50529214Y-26035000D01*
X49150000Y-28925000D02*
X49150000Y-27414214D01*
X49822107Y-26327893D02*
X49442893Y-26707107D01*
X49150001Y-27414214D02*
G75*
G02*
X49442894Y-26707108I999993J3D01*
G01*
X50529214Y-26035001D02*
G75*
G03*
X49822108Y-26327894I-3J-999993D01*
G01*
X68872107Y-26327893D02*
X68492893Y-26707107D01*
X72390000Y-26035000D02*
X69579214Y-26035000D01*
X68200000Y-28925000D02*
X68200000Y-27414214D01*
X68200001Y-27414214D02*
G75*
G02*
X68492894Y-26707108I999993J3D01*
G01*
X69579214Y-26035001D02*
G75*
G03*
X68872108Y-26327894I-3J-999993D01*
G01*
X91440000Y-26035000D02*
X88629214Y-26035000D01*
X87250000Y-28925000D02*
X87250000Y-27414214D01*
X87922107Y-26327893D02*
X87542893Y-26707107D01*
X87542893Y-26707107D02*
G75*
G03*
X87250000Y-27414214I707106J-707106D01*
G01*
X88629214Y-26035001D02*
G75*
G03*
X87922108Y-26327894I-3J-999993D01*
G01*
X106300000Y-28925000D02*
X106300000Y-27414214D01*
X110490000Y-26035000D02*
X107679214Y-26035000D01*
X106972107Y-26327893D02*
X106592893Y-26707107D01*
X107679214Y-26035001D02*
G75*
G03*
X106972108Y-26327894I-3J-999993D01*
G01*
X106592893Y-26707107D02*
G75*
G03*
X106300000Y-27414214I707106J-707106D01*
G01*
X129540000Y-26035000D02*
X126729214Y-26035000D01*
X125350000Y-28925000D02*
X125350000Y-27414214D01*
X126022107Y-26327893D02*
X125642893Y-26707107D01*
X126022107Y-26327893D02*
G75*
G02*
X126729214Y-26035000I707106J-707106D01*
G01*
X125350001Y-27414214D02*
G75*
G02*
X125642894Y-26707108I999993J3D01*
G01*
X145072107Y-26327893D02*
X144692893Y-26707107D01*
X144400000Y-28925000D02*
X144400000Y-27414214D01*
X148590000Y-26035000D02*
X145779214Y-26035000D01*
X144692893Y-26707107D02*
G75*
G03*
X144400000Y-27414214I707106J-707106D01*
G01*
X145072107Y-26327893D02*
G75*
G02*
X145779214Y-26035000I707106J-707106D01*
G01*
X167640000Y-26035000D02*
X164829214Y-26035000D01*
X164122107Y-26327893D02*
X163742893Y-26707107D01*
X163450000Y-28925000D02*
X163450000Y-27414214D01*
X163450001Y-27414214D02*
G75*
G02*
X163742894Y-26707108I999993J3D01*
G01*
X164122107Y-26327893D02*
G75*
G02*
X164829214Y-26035000I707106J-707106D01*
G01*
X183172107Y-26327893D02*
X182792893Y-26707107D01*
X182500000Y-28925000D02*
X182500000Y-27414214D01*
X186690000Y-26035000D02*
X183879214Y-26035000D01*
X183172107Y-26327893D02*
G75*
G02*
X183879214Y-26035000I707106J-707106D01*
G01*
X182500001Y-27414214D02*
G75*
G02*
X182792894Y-26707108I999993J3D01*
G01*
X205740000Y-26035000D02*
X202929214Y-26035000D01*
X202222107Y-26327893D02*
X201842893Y-26707107D01*
X201550000Y-28925000D02*
X201550000Y-27414214D01*
X202929214Y-26035001D02*
G75*
G03*
X202222108Y-26327894I-3J-999993D01*
G01*
X201550001Y-27414214D02*
G75*
G02*
X201842894Y-26707108I999993J3D01*
G01*
X221272107Y-26327893D02*
X220892893Y-26707107D01*
X220600000Y-28925000D02*
X220600000Y-27414214D01*
X224790000Y-26035000D02*
X221979214Y-26035000D01*
X220600001Y-27414214D02*
G75*
G02*
X220892894Y-26707108I999993J3D01*
G01*
X221272107Y-26327893D02*
G75*
G02*
X221979214Y-26035000I707106J-707106D01*
G01*
X240322107Y-26327893D02*
X239942893Y-26707107D01*
X239650000Y-28925000D02*
X239650000Y-27414214D01*
X243840000Y-26035000D02*
X241029214Y-26035000D01*
X239942893Y-26707107D02*
G75*
G03*
X239650000Y-27414214I707106J-707106D01*
G01*
X240322107Y-26327893D02*
G75*
G02*
X241029214Y-26035000I707106J-707106D01*
G01*
X250336867Y-26035000D02*
X267652426Y-26035000D01*
X236600000Y-28925000D02*
X236600000Y-28242641D01*
X267652426Y-26035000D02*
X267652487Y-26035061D01*
X240662580Y-24180061D02*
X245996646Y-24180061D01*
X248117967Y-25058741D02*
X248215547Y-25156321D01*
X238541259Y-25058741D02*
X237478679Y-26121321D01*
X250336867Y-26035000D02*
G75*
G02*
X248215547Y-25156321I-1J2999998D01*
G01*
X245996646Y-24180062D02*
G75*
G02*
X248117966Y-25058742I3J-2999993D01*
G01*
X238541259Y-25058741D02*
G75*
G02*
X240662580Y-24180061I2121323J-2121325D01*
G01*
X237478679Y-26121321D02*
G75*
G03*
X236600000Y-28242641I2121319J-2121319D01*
G01*
X47547036Y-87118722D02*
X44501473Y-90164285D01*
X27109287Y-86788044D02*
X27109287Y-76200061D01*
X50862500Y-51275000D02*
X272318700Y-51275000D01*
X29657100Y-90164284D02*
X27695073Y-88202257D01*
X37999287Y-60310061D02*
X38023501Y-60285847D01*
X49250860Y-58528488D02*
X49690927Y-58088421D01*
X67363479Y-88862804D02*
X67284767Y-88941515D01*
X67107991Y-89014738D02*
X57599571Y-89014738D01*
X39437714Y-59700061D02*
X46422433Y-59700061D01*
X52753807Y-86240042D02*
X49668357Y-86240042D01*
X50862500Y-55259994D02*
X50862500Y-51275000D01*
X113989520Y-87815777D02*
X113308609Y-88496688D01*
X43087260Y-90750071D02*
X31071314Y-90750071D01*
X112601502Y-88789581D02*
X67540255Y-88789581D01*
X56185357Y-88428951D02*
X54875127Y-87118721D01*
X67540255Y-88789581D02*
G75*
G03*
X67363479Y-88862804I1J-250001D01*
G01*
X112601502Y-88789580D02*
G75*
G03*
X113308608Y-88496687I3J999993D01*
G01*
X27695073Y-88202257D02*
G75*
G02*
X27109287Y-86788044I1414214J1414213D01*
G01*
X50862500Y-55259994D02*
G75*
G02*
X49690927Y-58088421I-3999999J0D01*
G01*
X67107991Y-89014738D02*
G75*
G03*
X67284767Y-88941515I-1J250001D01*
G01*
X54875127Y-87118721D02*
G75*
G03*
X52753807Y-86240042I-2121319J-2121319D01*
G01*
X49668357Y-86240043D02*
G75*
G03*
X47547037Y-87118723I-3J-2999993D01*
G01*
X56185357Y-88428951D02*
G75*
G03*
X57599571Y-89014738I1414214J1414213D01*
G01*
X39437714Y-59700062D02*
G75*
G03*
X38023502Y-60285848I0J-1999999D01*
G01*
X43087260Y-90750070D02*
G75*
G03*
X44501472Y-90164284I0J1999999D01*
G01*
X31071314Y-90750070D02*
G75*
G02*
X29657101Y-90164283I0J1999999D01*
G01*
X46422433Y-59700061D02*
G75*
G03*
X49250860Y-58528488I0J3999999D01*
G01*
X53912500Y-46414214D02*
X53912500Y-47975000D01*
X19208750Y-42545000D02*
X14446352Y-42545000D01*
X23224757Y-40600061D02*
X46027280Y-40600061D01*
X14446352Y-42545000D02*
X14446277Y-42544925D01*
X19208750Y-42545000D02*
X19689223Y-42064527D01*
X50269921Y-42357421D02*
X53619607Y-45707107D01*
X19689223Y-42064527D02*
G75*
G02*
X23224757Y-40600061I3535533J-3535532D01*
G01*
X46027280Y-40600061D02*
G75*
G02*
X50269921Y-42357421I0J-5999999D01*
G01*
X53912499Y-46414214D02*
G75*
G03*
X53619606Y-45707108I-999993J3D01*
G01*
X39052500Y-45085000D02*
X49533286Y-45085000D01*
X50862500Y-47975000D02*
X50862500Y-46414214D01*
X50240393Y-45377893D02*
X50569607Y-45707107D01*
X50240393Y-45377893D02*
G75*
G03*
X49533286Y-45085000I-707106J-707106D01*
G01*
X50569607Y-45707107D02*
G75*
G02*
X50862500Y-46414214I-707106J-707106D01*
G01*
X58102500Y-45085000D02*
X68583286Y-45085000D01*
X69290393Y-45377893D02*
X69619607Y-45707107D01*
X69912500Y-47975000D02*
X69912500Y-46414214D01*
X69912499Y-46414214D02*
G75*
G03*
X69619606Y-45707108I-999993J3D01*
G01*
X68583286Y-45085001D02*
G75*
G02*
X69290392Y-45377894I3J-999993D01*
G01*
X77152500Y-45085000D02*
X74291714Y-45085000D01*
X72962500Y-47975000D02*
X72962500Y-46414214D01*
X73584607Y-45377893D02*
X73255393Y-45707107D01*
X73255393Y-45707107D02*
G75*
G03*
X72962500Y-46414214I707106J-707106D01*
G01*
X74291714Y-45085001D02*
G75*
G03*
X73584608Y-45377894I-3J-999993D01*
G01*
X92012500Y-47975000D02*
X92012500Y-46414214D01*
X96202500Y-45085000D02*
X93341714Y-45085000D01*
X92634607Y-45377893D02*
X92305393Y-45707107D01*
X93341714Y-45085001D02*
G75*
G03*
X92634608Y-45377894I-3J-999993D01*
G01*
X92012501Y-46414214D02*
G75*
G02*
X92305394Y-45707108I999993J3D01*
G01*
X111684607Y-45377893D02*
X111355393Y-45707107D01*
X115252500Y-45085000D02*
X112391714Y-45085000D01*
X111062500Y-47975000D02*
X111062500Y-46414214D01*
X111684607Y-45377893D02*
G75*
G02*
X112391714Y-45085000I707106J-707106D01*
G01*
X111062501Y-46414214D02*
G75*
G02*
X111355394Y-45707108I999993J3D01*
G01*
X145490393Y-45377893D02*
X145819607Y-45707107D01*
X134302500Y-45085000D02*
X144783286Y-45085000D01*
X146112500Y-47975000D02*
X146112500Y-46414214D01*
X146112499Y-46414214D02*
G75*
G03*
X145819606Y-45707108I-999993J3D01*
G01*
X145490393Y-45377893D02*
G75*
G03*
X144783286Y-45085000I-707106J-707106D01*
G01*
X153352500Y-45085000D02*
X150491714Y-45085000D01*
X149162500Y-47975000D02*
X149162500Y-46414214D01*
X149784607Y-45377893D02*
X149455393Y-45707107D01*
X149455393Y-45707107D02*
G75*
G03*
X149162500Y-46414214I707106J-707106D01*
G01*
X149784607Y-45377893D02*
G75*
G02*
X150491714Y-45085000I707106J-707106D01*
G01*
X168834607Y-45377893D02*
X168505393Y-45707107D01*
X172402500Y-45085000D02*
X169541714Y-45085000D01*
X168212500Y-47975000D02*
X168212500Y-46414214D01*
X168834607Y-45377893D02*
G75*
G02*
X169541714Y-45085000I707106J-707106D01*
G01*
X168212501Y-46414214D02*
G75*
G02*
X168505394Y-45707108I999993J3D01*
G01*
X187262500Y-47975000D02*
X187262500Y-46414214D01*
X187884607Y-45377893D02*
X187555393Y-45707107D01*
X191452500Y-45085000D02*
X188591714Y-45085000D01*
X187884607Y-45377893D02*
G75*
G02*
X188591714Y-45085000I707106J-707106D01*
G01*
X187555393Y-45707107D02*
G75*
G03*
X187262500Y-46414214I707106J-707106D01*
G01*
X206934607Y-45377893D02*
X206605393Y-45707107D01*
X210502500Y-45085000D02*
X207641714Y-45085000D01*
X206312500Y-47975000D02*
X206312500Y-46414214D01*
X206605393Y-45707107D02*
G75*
G03*
X206312500Y-46414214I707106J-707106D01*
G01*
X206934607Y-45377893D02*
G75*
G02*
X207641714Y-45085000I707106J-707106D01*
G01*
X225984607Y-45377893D02*
X225655393Y-45707107D01*
X229552500Y-45085000D02*
X226691714Y-45085000D01*
X225362500Y-47975000D02*
X225362500Y-46414214D01*
X225984607Y-45377893D02*
G75*
G02*
X226691714Y-45085000I707106J-707106D01*
G01*
X225362501Y-46414214D02*
G75*
G02*
X225655394Y-45707108I999993J3D01*
G01*
X266858700Y-42545000D02*
X268381585Y-42545000D01*
X272318700Y-46482115D02*
X272318700Y-47975000D01*
X270502906Y-43423680D02*
X271440021Y-44360795D01*
X272318700Y-46482115D02*
G75*
G03*
X271440021Y-44360795I-2999998J1D01*
G01*
X268381585Y-42545001D02*
G75*
G02*
X270502905Y-43423681I3J-2999993D01*
G01*
X29431250Y-88888502D02*
X29431250Y-70325000D01*
X52940207Y-85790032D02*
X49481957Y-85790032D01*
X42900860Y-90300061D02*
X31257022Y-90300061D01*
X47360636Y-86668712D02*
X44315073Y-89714275D01*
X66921794Y-88565218D02*
X57786461Y-88565218D01*
X113423835Y-87250092D02*
X112626759Y-88047168D01*
X111919652Y-88340061D02*
X67354057Y-88340061D01*
X29842808Y-89714274D02*
X29724143Y-89595609D01*
X268225000Y-70325000D02*
X29431250Y-70325000D01*
X56372247Y-87979431D02*
X55061527Y-86668711D01*
X67177280Y-88413285D02*
X67098570Y-88491995D01*
X29842808Y-89714274D02*
G75*
G03*
X31257022Y-90300061I1414214J1414213D01*
G01*
X56372247Y-87979431D02*
G75*
G03*
X57786461Y-88565218I1414214J1414213D01*
G01*
X29724143Y-89595609D02*
G75*
G02*
X29431250Y-88888502I707106J707106D01*
G01*
X44315073Y-89714275D02*
G75*
G02*
X42900860Y-90300061I-1414213J1414214D01*
G01*
X111919652Y-88340060D02*
G75*
G03*
X112626758Y-88047167I3J999993D01*
G01*
X47360636Y-86668712D02*
G75*
G02*
X49481957Y-85790032I2121323J-2121325D01*
G01*
X67177280Y-88413285D02*
G75*
G02*
X67354057Y-88340061I176776J-176772D01*
G01*
X55061527Y-86668711D02*
G75*
G03*
X52940207Y-85790032I-2121319J-2121319D01*
G01*
X67098570Y-88491995D02*
G75*
G02*
X66921794Y-88565218I-176775J176773D01*
G01*
X29431250Y-67025000D02*
X29401250Y-67025000D01*
X29431250Y-67025000D02*
X29431250Y-65828427D01*
X23971250Y-61595000D02*
X25197823Y-61595000D01*
X26612037Y-62180787D02*
X28845464Y-64414214D01*
X25197823Y-61595001D02*
G75*
G02*
X26612036Y-62180788I0J-1999999D01*
G01*
X28845464Y-64414214D02*
G75*
G02*
X29431250Y-65828427I-1414214J-1414213D01*
G01*
X48577500Y-64135000D02*
X59108286Y-64135000D01*
X60387500Y-67025000D02*
X60387500Y-65414214D01*
X59815393Y-64427893D02*
X60094607Y-64707107D01*
X60094607Y-64707107D02*
G75*
G02*
X60387500Y-65414214I-707106J-707106D01*
G01*
X59815393Y-64427893D02*
G75*
G03*
X59108286Y-64135000I-707106J-707106D01*
G01*
X63437500Y-67025000D02*
X63437500Y-65414214D01*
X64009607Y-64427893D02*
X63730393Y-64707107D01*
X67627500Y-64135000D02*
X64716714Y-64135000D01*
X63437501Y-65414214D02*
G75*
G02*
X63730394Y-64707108I999993J3D01*
G01*
X64716714Y-64135001D02*
G75*
G03*
X64009608Y-64427894I-3J-999993D01*
G01*
X86677500Y-64135000D02*
X83766714Y-64135000D01*
X83059607Y-64427893D02*
X82780393Y-64707107D01*
X82487500Y-67025000D02*
X82487500Y-65414214D01*
X82487501Y-65414214D02*
G75*
G02*
X82780394Y-64707108I999993J3D01*
G01*
X83766714Y-64135001D02*
G75*
G03*
X83059608Y-64427894I-3J-999993D01*
G01*
X101537500Y-67025000D02*
X101537500Y-65414214D01*
X102109607Y-64427893D02*
X101830393Y-64707107D01*
X105727500Y-64135000D02*
X102816714Y-64135000D01*
X101537501Y-65414214D02*
G75*
G02*
X101830394Y-64707108I999993J3D01*
G01*
X102109607Y-64427893D02*
G75*
G02*
X102816714Y-64135000I707106J-707106D01*
G01*
X124777500Y-64135000D02*
X121866714Y-64135000D01*
X120587500Y-67025000D02*
X120587500Y-65414214D01*
X121159607Y-64427893D02*
X120880393Y-64707107D01*
X120587501Y-65414214D02*
G75*
G02*
X120880394Y-64707108I999993J3D01*
G01*
X121866714Y-64135001D02*
G75*
G03*
X121159608Y-64427894I-3J-999993D01*
G01*
X139637500Y-67025000D02*
X139637500Y-65414214D01*
X143827500Y-64135000D02*
X140916714Y-64135000D01*
X140209607Y-64427893D02*
X139930393Y-64707107D01*
X140209607Y-64427893D02*
G75*
G02*
X140916714Y-64135000I707106J-707106D01*
G01*
X139930393Y-64707107D02*
G75*
G03*
X139637500Y-65414214I707106J-707106D01*
G01*
X159259607Y-64427893D02*
X158980393Y-64707107D01*
X158687500Y-67025000D02*
X158687500Y-65414214D01*
X162877500Y-64135000D02*
X159966714Y-64135000D01*
X159259607Y-64427893D02*
G75*
G02*
X159966714Y-64135000I707106J-707106D01*
G01*
X158687501Y-65414214D02*
G75*
G02*
X158980394Y-64707108I999993J3D01*
G01*
X178309607Y-64427893D02*
X178030393Y-64707107D01*
X177737500Y-67025000D02*
X177737500Y-65414214D01*
X181927500Y-64135000D02*
X179016714Y-64135000D01*
X178030393Y-64707107D02*
G75*
G03*
X177737500Y-65414214I707106J-707106D01*
G01*
X179016714Y-64135001D02*
G75*
G03*
X178309608Y-64427894I-3J-999993D01*
G01*
X197359607Y-64427893D02*
X197080393Y-64707107D01*
X196787500Y-67025000D02*
X196787500Y-65414214D01*
X200977500Y-64135000D02*
X198066714Y-64135000D01*
X197359607Y-64427893D02*
G75*
G02*
X198066714Y-64135000I707106J-707106D01*
G01*
X197080393Y-64707107D02*
G75*
G03*
X196787500Y-65414214I707106J-707106D01*
G01*
X215837500Y-67025000D02*
X215837500Y-65414214D01*
X220027500Y-64135000D02*
X217116714Y-64135000D01*
X216409607Y-64427893D02*
X216130393Y-64707107D01*
X215837501Y-65414214D02*
G75*
G02*
X216130394Y-64707108I999993J3D01*
G01*
X216409607Y-64427893D02*
G75*
G02*
X217116714Y-64135000I707106J-707106D01*
G01*
X242031460Y-67025056D02*
X242031460Y-65414214D01*
X242603511Y-64427949D02*
X242324353Y-64707107D01*
X246221460Y-64135056D02*
X243310618Y-64135056D01*
X242324353Y-64707107D02*
G75*
G03*
X242031460Y-65414214I707106J-707106D01*
G01*
X242603511Y-64427949D02*
G75*
G02*
X243310618Y-64135056I707106J-707106D01*
G01*
X272415000Y-64135000D02*
X269504214Y-64135000D01*
X268797107Y-64427893D02*
X268517893Y-64707107D01*
X268225000Y-67025000D02*
X268225000Y-65414214D01*
X268225001Y-65414214D02*
G75*
G02*
X268517894Y-64707108I999993J3D01*
G01*
X268797107Y-64427893D02*
G75*
G02*
X269504214Y-64135000I707106J-707106D01*
G01*
X212244016Y-84261095D02*
X211997448Y-84014527D01*
X156428839Y-79910911D02*
X150614189Y-85725561D01*
X196375901Y-81305265D02*
X194688653Y-79618017D01*
X150614189Y-85725561D02*
X150614189Y-88600061D01*
X208461914Y-82550061D02*
X199381105Y-82550061D01*
X193981546Y-79325124D02*
X157843053Y-79325124D01*
X112858149Y-86684407D02*
X112155388Y-87387168D01*
X111448281Y-87680061D02*
X102169287Y-87680061D01*
X150485698Y-85715698D02*
X150614189Y-85715698D01*
X71048000Y-87094274D02*
X69679287Y-85725561D01*
X102169287Y-87680061D02*
X72462214Y-87680061D01*
X216098619Y-85725561D02*
X215779550Y-85725561D01*
X215779550Y-85725561D02*
G75*
G02*
X212244016Y-84261095I-1J4999998D01*
G01*
X193981546Y-79325125D02*
G75*
G02*
X194688652Y-79618018I3J-999993D01*
G01*
X111448281Y-87680060D02*
G75*
G03*
X112155387Y-87387167I3J999993D01*
G01*
X208461914Y-82550061D02*
G75*
G02*
X211997448Y-84014527I1J-4999998D01*
G01*
X157843053Y-79325125D02*
G75*
G03*
X156428840Y-79910912I0J-1999999D01*
G01*
X199381105Y-82550061D02*
G75*
G02*
X196375901Y-81305265I0J4250000D01*
G01*
X72462214Y-87680060D02*
G75*
G02*
X71048001Y-87094273I0J1999999D01*
G01*
X45904299Y-82160835D02*
X45904299Y-81600061D01*
X34290000Y-83185000D02*
X44880134Y-83185000D01*
X45587241Y-82892107D02*
X45611406Y-82867942D01*
X34290000Y-83185000D02*
X34305061Y-83200061D01*
X45587241Y-82892107D02*
G75*
G02*
X44880134Y-83185000I-707106J707106D01*
G01*
X45611406Y-82867942D02*
G75*
G03*
X45904299Y-82160835I-707106J707106D01*
G01*
X68260012Y-80645000D02*
X64452500Y-80645000D01*
X69679287Y-82425561D02*
X69679287Y-82064275D01*
X64580923Y-80645000D02*
X64452500Y-80645000D01*
X69386394Y-81357168D02*
X68967119Y-80937893D01*
X68967119Y-80937893D02*
G75*
G03*
X68260012Y-80645000I-707106J-707106D01*
G01*
X69679286Y-82064275D02*
G75*
G03*
X69386393Y-81357169I-999993J3D01*
G01*
X150614189Y-82425561D02*
X149419414Y-81230786D01*
X148005201Y-80645000D02*
X145415000Y-80645000D01*
X148005201Y-80645001D02*
G75*
G02*
X149419413Y-81230787I0J-1999999D01*
G01*
X219268061Y-82425561D02*
X220027500Y-83185000D01*
X216098619Y-82425561D02*
X219268061Y-82425561D01*
X243080561Y-82425561D02*
X243840000Y-83185000D01*
X239932417Y-82425561D02*
X243080561Y-82425561D01*
X16621393Y-10157955D02*
X15771031Y-11008317D01*
X16914286Y-8752167D02*
X16914286Y-9450848D01*
X15478138Y-11715424D02*
X15478138Y-11996886D01*
X17318000Y-7075000D02*
X17318000Y-7934239D01*
X17060733Y-8398613D02*
X17171554Y-8287792D01*
X15478139Y-11715424D02*
G75*
G02*
X15771032Y-11008318I999993J3D01*
G01*
X16914285Y-9450848D02*
G75*
G02*
X16621392Y-10157954I-999993J-3D01*
G01*
X17060733Y-8398613D02*
G75*
G03*
X16914286Y-8752167I353550J-353553D01*
G01*
X17317999Y-7934239D02*
G75*
G02*
X17171554Y-8287792I-500001J0D01*
G01*
X20318000Y-9692992D02*
X20318000Y-7075000D01*
X22621894Y-11996886D02*
X20318000Y-9692992D01*
X108041400Y-81312174D02*
X108029287Y-81300061D01*
X115120891Y-82017502D02*
X114854903Y-81751514D01*
X114010727Y-81458621D02*
X108394954Y-81458621D01*
X16145294Y-23495000D02*
X16827500Y-23495000D01*
X7179466Y-16600240D02*
X12609760Y-22030534D01*
X114147796Y-81458621D02*
X114010727Y-81458621D01*
X5715000Y-6985000D02*
X5715000Y-13064706D01*
X12609760Y-22030534D02*
G75*
G03*
X16145294Y-23495000I3535533J3535532D01*
G01*
X108394954Y-81458621D02*
G75*
G02*
X108041400Y-81312174I-1J499997D01*
G01*
X114854903Y-81751514D02*
G75*
G03*
X114147796Y-81458621I-707106J-707106D01*
G01*
X5715000Y-13064706D02*
G75*
G03*
X7179466Y-16600240I4999998J-1D01*
G01*
X40645061Y-80650061D02*
X40640000Y-80645000D01*
X39052500Y-71390061D02*
X39052500Y-78229073D01*
X113465945Y-81908141D02*
X108528314Y-81908141D01*
X39638287Y-79643287D02*
X40640000Y-80645000D01*
X108174760Y-82054588D02*
X108037345Y-82192003D01*
X114555205Y-82583187D02*
X114173052Y-82201034D01*
X108174760Y-82054588D02*
G75*
G02*
X108528314Y-81908141I353553J-353550D01*
G01*
X39638287Y-79643287D02*
G75*
G02*
X39052500Y-78229073I1414213J1414214D01*
G01*
X114173052Y-82201034D02*
G75*
G03*
X113465945Y-81908141I-707106J-707106D01*
G01*
X54927500Y-72189340D02*
X54927500Y-71390061D01*
X54587109Y-72840391D02*
X54707830Y-72719670D01*
X41581399Y-78890761D02*
X40671027Y-77980389D01*
X40671027Y-74429733D02*
X41601359Y-73499401D01*
X112784094Y-82357661D02*
X109185901Y-82357661D01*
X57516713Y-80414213D02*
X57018387Y-79915887D01*
X113989520Y-83148873D02*
X113491201Y-82650554D01*
X40231687Y-76919729D02*
X40231687Y-75490393D01*
X58102500Y-83185000D02*
X58102500Y-81828427D01*
X42662019Y-73060061D02*
X54056779Y-73060061D01*
X55604174Y-79330101D02*
X42642059Y-79330101D01*
X108478794Y-82650554D02*
X108045403Y-83083945D01*
X40671027Y-74429733D02*
G75*
G03*
X40231687Y-75490393I1060662J-1060661D01*
G01*
X40231688Y-76919729D02*
G75*
G03*
X40671028Y-77980388I1500001J1D01*
G01*
X54587109Y-72840391D02*
G75*
G02*
X54056779Y-73060061I-530327J530323D01*
G01*
X54927499Y-72189340D02*
G75*
G02*
X54707829Y-72719669I-749992J-3D01*
G01*
X41581399Y-78890761D02*
G75*
G03*
X42642059Y-79330101I1060661J1060662D01*
G01*
X42662019Y-73060062D02*
G75*
G03*
X41601360Y-73499402I1J-1500001D01*
G01*
X113491201Y-82650554D02*
G75*
G03*
X112784094Y-82357661I-707106J-707106D01*
G01*
X55604174Y-79330102D02*
G75*
G02*
X57018386Y-79915888I0J-1999999D01*
G01*
X108478794Y-82650554D02*
G75*
G02*
X109185901Y-82357661I707106J-707106D01*
G01*
X58102499Y-81828427D02*
G75*
G03*
X57516712Y-80414214I-1999999J0D01*
G01*
X108314245Y-80711300D02*
X108278495Y-80675550D01*
X78509592Y-78880091D02*
X42724213Y-78880091D01*
X42621417Y-73513592D02*
X42744183Y-73510061D01*
X40732639Y-77200666D02*
X40684738Y-76959851D01*
X40732639Y-75209455D02*
X40826601Y-74982612D01*
X40826601Y-74982612D02*
X40963012Y-74778459D01*
X115397066Y-81165598D02*
X115233662Y-81056416D01*
X42744183Y-73510061D02*
X72140799Y-73510061D01*
X114119867Y-80979481D02*
X114090247Y-81009101D01*
X41840329Y-78513974D02*
X41047323Y-77720968D01*
X41860300Y-73876177D02*
X41949606Y-73791865D01*
X115686576Y-81451816D02*
X115468194Y-81233434D01*
X42601446Y-78876560D02*
X42360631Y-78828659D01*
X115233662Y-81056416D02*
X115052097Y-80981209D01*
X104633203Y-80675550D02*
X103150612Y-82158141D01*
X73979287Y-72085786D02*
X73979287Y-71390061D01*
X40684738Y-75450270D02*
X40732639Y-75209455D01*
X73555013Y-72924274D02*
X73686394Y-72792893D01*
X41929635Y-78598286D02*
X41840329Y-78513974D01*
X40684738Y-76959851D02*
X40681207Y-76837085D01*
X115052097Y-80981209D02*
X114859349Y-80942869D01*
X114090247Y-81009101D02*
X108660061Y-81009101D01*
X40681207Y-75573037D02*
X40684738Y-75450270D01*
X41949606Y-73791865D02*
X42153759Y-73655454D01*
X42133788Y-78734697D02*
X41929635Y-78598286D01*
X40963011Y-77631662D02*
X40826600Y-77427509D01*
X42724213Y-78880091D02*
X42601446Y-78876560D01*
X82151603Y-81279461D02*
X80630912Y-79758770D01*
X40826600Y-77427509D02*
X40732639Y-77200666D01*
X108427849Y-80776889D02*
X108314245Y-80711300D01*
X114859349Y-80942869D02*
X114208256Y-80942869D01*
X42360631Y-78828659D02*
X42133788Y-78734697D01*
X115468194Y-81233434D02*
X115397066Y-81165598D01*
X40963012Y-74778459D02*
X41047324Y-74689153D01*
X41047323Y-77720968D02*
X40963011Y-77631662D01*
X42380602Y-73561493D02*
X42621417Y-73513592D01*
X40681207Y-76837085D02*
X40681207Y-75573037D01*
X108278495Y-80675550D02*
X104633203Y-80675550D01*
X41047324Y-74689153D02*
X41860300Y-73876177D01*
X108660061Y-81009101D02*
X108427849Y-80776889D01*
X103150612Y-82158141D02*
X84272924Y-82158141D01*
X42153759Y-73655454D02*
X42380602Y-73561493D01*
X114119867Y-80979481D02*
G75*
G02*
X114208256Y-80942869I88388J-88386D01*
G01*
X73686394Y-72792893D02*
G75*
G03*
X73979287Y-72085786I-707106J707106D01*
G01*
X82151603Y-81279461D02*
G75*
G03*
X84272924Y-82158141I2121323J2121325D01*
G01*
X73555013Y-72924274D02*
G75*
G02*
X72140799Y-73510061I-1414214J1414213D01*
G01*
X78509592Y-78880091D02*
G75*
G02*
X80630912Y-79758770I1J-2999998D01*
G01*
X85058122Y-71390061D02*
X93029287Y-71390061D01*
X101486608Y-78550091D02*
X91471338Y-78550091D01*
X83254826Y-81177248D02*
X82948635Y-80972658D01*
X84272213Y-81598663D02*
X83919817Y-81491765D01*
X88274463Y-81177246D02*
X87949693Y-81350840D01*
X84999870Y-81706601D02*
X84633390Y-81670506D01*
X88865318Y-80739039D02*
X88580655Y-80972656D01*
X41423620Y-74948574D02*
X42118761Y-74253434D01*
X42825867Y-73960541D02*
X79484593Y-73960541D01*
X116252262Y-80886131D02*
X116061536Y-80695405D01*
X108308145Y-80226030D02*
X104819401Y-80226030D01*
X82532346Y-80610272D02*
X80645048Y-78722974D01*
X90764231Y-78842984D02*
X88996944Y-80610271D01*
X84633390Y-81670506D02*
X84272213Y-81598663D01*
X115354429Y-80402512D02*
X113898954Y-80402512D01*
X83579596Y-81350841D02*
X83254826Y-81177248D01*
X86529419Y-81706600D02*
X86345293Y-81708621D01*
X88996944Y-80610271D02*
X88865318Y-80739039D01*
X113534778Y-80559581D02*
X109055910Y-80559581D01*
X42099261Y-78137188D02*
X41423620Y-77461547D01*
X41130727Y-76754440D02*
X41130727Y-75655681D01*
X80191700Y-73667648D02*
X80638705Y-73220643D01*
X87257076Y-81598662D02*
X86895899Y-81670505D01*
X86345293Y-81708621D02*
X85183996Y-81708621D01*
X82948635Y-80972658D02*
X82663971Y-80739041D01*
X87949693Y-81350840D02*
X87609472Y-81491764D01*
X82663971Y-80739041D02*
X82532346Y-80610272D01*
X103405187Y-79640243D02*
X102900821Y-79135877D01*
X108702356Y-80413134D02*
X108661698Y-80372476D01*
X85183996Y-81708621D02*
X84999870Y-81706601D01*
X113722178Y-80475735D02*
X113711554Y-80486359D01*
X87609472Y-81491764D02*
X87257076Y-81598662D01*
X83919817Y-81491765D02*
X83579596Y-81350841D01*
X79937941Y-78430081D02*
X42806368Y-78430081D01*
X86895899Y-81670505D02*
X86529419Y-81706600D01*
X88580655Y-80972656D02*
X88274463Y-81177246D01*
X108661698Y-80372476D02*
G75*
G03*
X108308145Y-80226030I-353553J-353556D01*
G01*
X102900821Y-79135877D02*
G75*
G03*
X101486608Y-78550091I-1414213J-1414214D01*
G01*
X103405187Y-79640243D02*
G75*
G03*
X104819401Y-80226030I1414214J1414213D01*
G01*
X80191700Y-73667648D02*
G75*
G02*
X79484593Y-73960541I-707106J707106D01*
G01*
X113722178Y-80475735D02*
G75*
G02*
X113898954Y-80402512I176775J-176773D01*
G01*
X108702356Y-80413134D02*
G75*
G03*
X109055910Y-80559581I353553J353550D01*
G01*
X79937941Y-78430082D02*
G75*
G02*
X80645047Y-78722975I3J-999993D01*
G01*
X41130728Y-76754440D02*
G75*
G03*
X41423621Y-77461546I999993J-3D01*
G01*
X113711554Y-80486359D02*
G75*
G02*
X113534778Y-80559581I-176778J176784D01*
G01*
X41130728Y-75655681D02*
G75*
G02*
X41423621Y-74948575I999993J3D01*
G01*
X85058122Y-71390062D02*
G75*
G03*
X80638705Y-73220643I1J-6250003D01*
G01*
X42806368Y-78430080D02*
G75*
G02*
X42099262Y-78137187I-3J999993D01*
G01*
X90764231Y-78842984D02*
G75*
G02*
X91471338Y-78550091I707106J-707106D01*
G01*
X115354429Y-80402513D02*
G75*
G02*
X116061535Y-80695406I3J-999993D01*
G01*
X42825867Y-73960541D02*
G75*
G03*
X42118761Y-74253434I3J-1000005D01*
G01*
X81021765Y-73531933D02*
X80436530Y-74117168D01*
X79729423Y-74410061D02*
X42908511Y-74410061D01*
X41799917Y-77202126D02*
X42358192Y-77760401D01*
X113525358Y-80036837D02*
X113652145Y-79910050D01*
X90682737Y-73967168D02*
X90247501Y-73531932D01*
X116627222Y-80129720D02*
X116817947Y-80320445D01*
X108847896Y-79922957D02*
X108888554Y-79963615D01*
X42378181Y-74629731D02*
X41799917Y-75207995D01*
X42888522Y-77980071D02*
X80123647Y-77980071D01*
X86358415Y-71921021D02*
X84910852Y-71921021D01*
X109242107Y-80110061D02*
X113348581Y-80110061D01*
X103086531Y-78685869D02*
X103591386Y-79190724D01*
X91285628Y-78100082D02*
X101672317Y-78100082D01*
X108662372Y-74260061D02*
X91389844Y-74260061D01*
X80830754Y-78272964D02*
X82791765Y-80233975D01*
X112079287Y-71390061D02*
X112079287Y-71671573D01*
X41580247Y-75738325D02*
X41580247Y-76671796D01*
X105005599Y-79776510D02*
X108494342Y-79776510D01*
X113828921Y-79836827D02*
X115920115Y-79836827D01*
X85266638Y-81259101D02*
X86262647Y-81259101D01*
X111493500Y-73085787D02*
X111490799Y-73088488D01*
X88737520Y-80233976D02*
X90578522Y-78392975D01*
X88737520Y-80233976D02*
G75*
G02*
X86262647Y-81259101I-2474871J2474870D01*
G01*
X86358415Y-71921022D02*
G75*
G02*
X90247501Y-73531932I1J-5499999D01*
G01*
X109242107Y-80110060D02*
G75*
G02*
X108888554Y-79963615I0J500001D01*
G01*
X85266638Y-81259100D02*
G75*
G02*
X82791766Y-80233974I1J3500001D01*
G01*
X42378181Y-74629731D02*
G75*
G02*
X42908511Y-74410061I530327J-530323D01*
G01*
X115920115Y-79836828D02*
G75*
G02*
X116627221Y-80129721I3J-999993D01*
G01*
X108494342Y-79776510D02*
G75*
G02*
X108847896Y-79922957I1J-499997D01*
G01*
X101672317Y-78100083D02*
G75*
G02*
X103086530Y-78685870I0J-1999999D01*
G01*
X111490799Y-73088488D02*
G75*
G02*
X108662372Y-74260061I-2828427J2828426D01*
G01*
X112079286Y-71671573D02*
G75*
G02*
X111493499Y-73085786I-1999999J0D01*
G01*
X113348581Y-80110060D02*
G75*
G03*
X113525357Y-80036836I-3J250006D01*
G01*
X42888522Y-77980070D02*
G75*
G02*
X42358193Y-77760400I-3J749992D01*
G01*
X79729423Y-74410060D02*
G75*
G03*
X80436529Y-74117167I3J999993D01*
G01*
X91389844Y-74260060D02*
G75*
G02*
X90682738Y-73967167I-3J999993D01*
G01*
X81021765Y-73531933D02*
G75*
G02*
X84910852Y-71921021I3889084J-3889083D01*
G01*
X90578522Y-78392975D02*
G75*
G02*
X91285628Y-78100082I707104J-707101D01*
G01*
X113828921Y-79836827D02*
G75*
G03*
X113652145Y-79910050I1J-250001D01*
G01*
X41580248Y-76671796D02*
G75*
G03*
X41799918Y-77202125I749992J-3D01*
G01*
X41580248Y-75738325D02*
G75*
G02*
X41799918Y-75207996I749992J3D01*
G01*
X80830754Y-78272964D02*
G75*
G03*
X80123647Y-77980071I-707106J-707106D01*
G01*
X105005599Y-79776509D02*
G75*
G02*
X103591387Y-79190723I0J1999999D01*
G01*
X90392813Y-77942966D02*
X88478101Y-79857678D01*
X81444959Y-73747993D02*
X81795977Y-73453454D01*
X91204126Y-74710061D02*
X126848158Y-74710061D01*
X80308875Y-77529581D02*
X42970197Y-77529581D01*
X117383633Y-79754760D02*
X118418934Y-80790061D01*
X86504881Y-72373040D02*
X86961359Y-72412977D01*
X86961359Y-72412977D02*
X87412619Y-72492546D01*
X87412619Y-72492546D02*
X87855227Y-72611142D01*
X131129287Y-71390061D02*
X131129287Y-71671573D01*
X83051186Y-79857678D02*
X81015982Y-77822474D01*
X130383692Y-73245595D02*
X130543501Y-73085786D01*
X82568162Y-72961518D02*
X82983451Y-72767865D01*
X81281185Y-73908231D02*
X81444959Y-73747993D01*
X42029767Y-76589152D02*
X42029767Y-75820971D01*
X86180004Y-80809581D02*
X85349283Y-80809581D01*
X88285814Y-72767863D02*
X88701104Y-72961516D01*
X84307907Y-72412978D02*
X84764385Y-72373041D01*
X114864732Y-77650073D02*
X91099920Y-77650073D01*
X83856647Y-72492548D02*
X84307907Y-72412978D01*
X89473289Y-73453452D02*
X89824307Y-73747991D01*
X86275770Y-72370541D02*
X86504881Y-72373040D01*
X88701104Y-72961516D02*
X89097936Y-73190627D01*
X89097936Y-73190627D02*
X89473289Y-73453452D01*
X89988080Y-73908229D02*
X90497019Y-74417168D01*
X42990677Y-74860061D02*
X79915141Y-74860061D01*
X84993496Y-72370541D02*
X86275770Y-72370541D01*
X80622248Y-74567168D02*
X81281185Y-73908231D01*
X87855227Y-72611142D02*
X88285814Y-72767863D01*
X42176214Y-75467417D02*
X42637124Y-75006507D01*
X117383633Y-79754760D02*
X115571839Y-77942966D01*
X89824307Y-73747991D02*
X89988080Y-73908229D01*
X84764385Y-72373041D02*
X84993496Y-72370541D01*
X138999939Y-83250061D02*
X139065000Y-83185000D01*
X81795977Y-73453454D02*
X82171330Y-73190629D01*
X82983451Y-72767865D02*
X83414039Y-72611144D01*
X83414039Y-72611144D02*
X83856647Y-72492548D01*
X42616644Y-77383135D02*
X42176214Y-76942706D01*
X82171330Y-73190629D02*
X82568162Y-72961518D01*
X81015982Y-77822474D02*
G75*
G03*
X80308875Y-77529581I-707106J-707106D01*
G01*
X90497019Y-74417168D02*
G75*
G03*
X91204126Y-74710061I707106J707106D01*
G01*
X80622248Y-74567168D02*
G75*
G02*
X79915141Y-74860061I-707106J707106D01*
G01*
X130383692Y-73245595D02*
G75*
G02*
X126848158Y-74710061I-3535533J3535532D01*
G01*
X42176214Y-76942706D02*
G75*
G02*
X42029767Y-76589152I353550J353553D01*
G01*
X42616644Y-77383135D02*
G75*
G03*
X42970197Y-77529581I353553J353556D01*
G01*
X131129286Y-71671573D02*
G75*
G02*
X130543500Y-73085785I-1999999J0D01*
G01*
X115571839Y-77942966D02*
G75*
G03*
X114864732Y-77650073I-707106J-707106D01*
G01*
X91099920Y-77650074D02*
G75*
G03*
X90392814Y-77942967I-3J-999993D01*
G01*
X83051186Y-79857678D02*
G75*
G03*
X85349283Y-80809581I2298099J2298103D01*
G01*
X42176214Y-75467417D02*
G75*
G03*
X42029767Y-75820971I353550J-353553D01*
G01*
X86180004Y-80809580D02*
G75*
G03*
X88478101Y-79857678I-2J3250005D01*
G01*
X42637124Y-75006507D02*
G75*
G02*
X42990677Y-74860061I353553J-353556D01*
G01*
X88218680Y-79481381D02*
X90207107Y-77492954D01*
X88107500Y-73198353D02*
X87697407Y-73049092D01*
X85431928Y-80360061D02*
X86097359Y-80360061D01*
X83993402Y-72936140D02*
X83571860Y-73049092D01*
X84857935Y-72822322D02*
X84423184Y-72860358D01*
X89728660Y-74284527D02*
X89572766Y-74131831D01*
X42479287Y-75903614D02*
X42479287Y-76506508D01*
X84423184Y-72860358D02*
X83993402Y-72936140D01*
X80080859Y-75330061D02*
X43052840Y-75330061D01*
X81696501Y-74131831D02*
X81540607Y-74284527D01*
X90914214Y-77200061D02*
X115546090Y-77200061D01*
X88503024Y-73382789D02*
X88107500Y-73198353D01*
X87697407Y-73049092D02*
X87275865Y-72936140D01*
X82766243Y-73382789D02*
X82388300Y-73600995D01*
X82030812Y-73851311D02*
X81696501Y-74131831D01*
X88880967Y-73600995D02*
X88503024Y-73382789D01*
X149593500Y-73085787D02*
X149273977Y-73405310D01*
X145031337Y-75162669D02*
X91021016Y-75162669D01*
X90313909Y-74869776D02*
X89728660Y-74284527D01*
X86193126Y-72820061D02*
X85076141Y-72820061D01*
X86846083Y-72860358D02*
X86411332Y-72822322D01*
X42876063Y-75403285D02*
X42552510Y-75726838D01*
X83571860Y-73049092D02*
X83161767Y-73198353D01*
X86411332Y-72822322D02*
X86193126Y-72820061D01*
X89572766Y-74131831D02*
X89238455Y-73851311D01*
X81540607Y-74284527D02*
X80787966Y-75037168D01*
X150179287Y-71390061D02*
X150179287Y-71671573D01*
X81202180Y-77372954D02*
X83310608Y-79481382D01*
X89238455Y-73851311D02*
X88880967Y-73600995D01*
X116253197Y-77492954D02*
X117949318Y-79189075D01*
X83161767Y-73198353D02*
X82766243Y-73382789D01*
X85076141Y-72820061D02*
X84857935Y-72822322D01*
X82388300Y-73600995D02*
X82030812Y-73851311D01*
X43052840Y-77080061D02*
X80495073Y-77080061D01*
X87275865Y-72936140D02*
X86846083Y-72860358D01*
X42552511Y-76683285D02*
X42876064Y-77006838D01*
X42876063Y-75403285D02*
G75*
G02*
X43052840Y-75330061I176776J-176772D01*
G01*
X42876064Y-77006838D02*
G75*
G03*
X43052840Y-77080061I176775J176773D01*
G01*
X150179286Y-71671573D02*
G75*
G02*
X149593499Y-73085786I-1999999J0D01*
G01*
X88218680Y-79481381D02*
G75*
G02*
X86097359Y-80360061I-2121323J2121325D01*
G01*
X80787966Y-75037168D02*
G75*
G02*
X80080859Y-75330061I-707106J707106D01*
G01*
X85431928Y-80360061D02*
G75*
G02*
X83310608Y-79481382I-1J2999998D01*
G01*
X90313909Y-74869776D02*
G75*
G03*
X91021016Y-75162669I707106J707106D01*
G01*
X145031337Y-75162669D02*
G75*
G03*
X149273977Y-73405310I-2J6000003D01*
G01*
X116253197Y-77492954D02*
G75*
G03*
X115546090Y-77200061I-707106J-707106D01*
G01*
X80495073Y-77080062D02*
G75*
G02*
X81202179Y-77372955I3J-999993D01*
G01*
X42552510Y-75726838D02*
G75*
G03*
X42479287Y-75903614I176773J-176775D01*
G01*
X90914214Y-77200062D02*
G75*
G03*
X90207108Y-77492955I-3J-999993D01*
G01*
X42552511Y-76683285D02*
G75*
G02*
X42479287Y-76506508I176772J176776D01*
G01*
X203643753Y-74444527D02*
X204165434Y-74966208D01*
X204872541Y-75259101D02*
X233144774Y-75259101D01*
X200286646Y-80260061D02*
X199751928Y-80260061D01*
X194910086Y-77075074D02*
X125558650Y-77075074D01*
X233789287Y-75903614D02*
X233789287Y-76476508D01*
X233321551Y-75332325D02*
X233716064Y-75726838D01*
X124144436Y-77660861D02*
X122050537Y-79754760D01*
X169229287Y-71390061D02*
X169229287Y-71671573D01*
X200070355Y-72980061D02*
X200108219Y-72980061D01*
X233175734Y-77090061D02*
X205113501Y-77090061D01*
X174534629Y-75320061D02*
X195245073Y-75320061D01*
X197630608Y-79381382D02*
X195617193Y-77367967D01*
X195952180Y-75027168D02*
X196534821Y-74444527D01*
X169815074Y-73085787D02*
X170291989Y-73562702D01*
X204406394Y-77382954D02*
X202407967Y-79381381D01*
X233716063Y-76653285D02*
X233352510Y-77016838D01*
X205113501Y-77090062D02*
G75*
G03*
X204406395Y-77382955I-3J-999993D01*
G01*
X204165434Y-74966208D02*
G75*
G03*
X204872541Y-75259101I707106J707106D01*
G01*
X124144436Y-77660861D02*
G75*
G02*
X125558650Y-77075074I1414214J-1414213D01*
G01*
X200286646Y-80260060D02*
G75*
G03*
X202407966Y-79381380I3J2999993D01*
G01*
X233716064Y-75726838D02*
G75*
G02*
X233789287Y-75903614I-176773J-176775D01*
G01*
X197630608Y-79381382D02*
G75*
G03*
X199751928Y-80260061I2121319J2121319D01*
G01*
X195617193Y-77367967D02*
G75*
G03*
X194910086Y-77075074I-707106J-707106D01*
G01*
X233716063Y-76653285D02*
G75*
G03*
X233789287Y-76476508I-176772J176776D01*
G01*
X174534629Y-75320061D02*
G75*
G02*
X170291989Y-73562702I2J6000003D01*
G01*
X200070355Y-72980061D02*
G75*
G03*
X196534821Y-74444527I-1J-4999998D01*
G01*
X203643753Y-74444527D02*
G75*
G03*
X200108219Y-72980061I-3535533J-3535532D01*
G01*
X233144774Y-75259102D02*
G75*
G02*
X233321550Y-75332326I-3J-250006D01*
G01*
X169815074Y-73085787D02*
G75*
G02*
X169229287Y-71671573I1414213J1414214D01*
G01*
X233175734Y-77090061D02*
G75*
G03*
X233352510Y-77016838I-1J250001D01*
G01*
X195245073Y-75320060D02*
G75*
G03*
X195952179Y-75027167I3J999993D01*
G01*
X204351632Y-74516688D02*
X203903175Y-74068231D01*
X233611442Y-77393624D02*
X234092361Y-76912705D01*
X205299209Y-77540071D02*
X233257888Y-77540071D01*
X126240011Y-77525084D02*
X194724378Y-77525084D01*
X122616223Y-80320445D02*
X124825798Y-78110870D01*
X202666898Y-79758168D02*
X204592102Y-77832964D01*
X195058876Y-74870541D02*
X192720896Y-74870541D01*
X233227418Y-74809581D02*
X205058739Y-74809581D01*
X234092360Y-75467416D02*
X233580971Y-74956027D01*
X234238807Y-76559152D02*
X234238807Y-75820970D01*
X188279287Y-71671573D02*
X188279287Y-71390061D01*
X200190864Y-72530541D02*
X199987711Y-72530541D01*
X195431485Y-77817977D02*
X197371676Y-79758168D01*
X196275401Y-74068230D02*
X195765983Y-74577648D01*
X189185362Y-73406075D02*
X188865074Y-73085787D01*
X199669773Y-80710071D02*
X200368801Y-80710071D01*
X195058876Y-74870540D02*
G75*
G03*
X195765982Y-74577647I3J999993D01*
G01*
X202666898Y-79758168D02*
G75*
G02*
X200368801Y-80710071I-2298099J2298103D01*
G01*
X234092360Y-75467416D02*
G75*
G02*
X234238807Y-75820970I-353550J-353553D01*
G01*
X124825798Y-78110870D02*
G75*
G02*
X126240011Y-77525084I1414213J-1414214D01*
G01*
X204351632Y-74516688D02*
G75*
G03*
X205058739Y-74809581I707106J707106D01*
G01*
X200190864Y-72530542D02*
G75*
G02*
X203903174Y-74068232I-2J-5250004D01*
G01*
X204592102Y-77832964D02*
G75*
G02*
X205299209Y-77540071I707106J-707106D01*
G01*
X233611442Y-77393624D02*
G75*
G02*
X233257888Y-77540071I-353553J353550D01*
G01*
X188279288Y-71671573D02*
G75*
G03*
X188865075Y-73085786I1999999J0D01*
G01*
X199669773Y-80710070D02*
G75*
G02*
X197371676Y-79758168I2J3250005D01*
G01*
X196275401Y-74068230D02*
G75*
G02*
X199987711Y-72530541I3712308J-3712305D01*
G01*
X189185362Y-73406075D02*
G75*
G03*
X192720896Y-74870541I3535533J3535532D01*
G01*
X234092361Y-76912705D02*
G75*
G03*
X234238807Y-76559152I-353556J353553D01*
G01*
X233580971Y-74956027D02*
G75*
G03*
X233227418Y-74809581I-353553J-353556D01*
G01*
X195431485Y-77817977D02*
G75*
G03*
X194724378Y-77525084I-707106J-707106D01*
G01*
X197112743Y-80134953D02*
X195245777Y-78267987D01*
X194538670Y-77975094D02*
X126921372Y-77975094D01*
X234688327Y-75738326D02*
X234688327Y-76641796D01*
X204777810Y-78282974D02*
X202925830Y-80134954D01*
X210846202Y-74360061D02*
X233310062Y-74360061D01*
X233340042Y-77990081D02*
X205484917Y-77990081D01*
X207915074Y-73085787D02*
X208017775Y-73188488D01*
X207329287Y-71390061D02*
X207329287Y-71671573D01*
X234468657Y-77172126D02*
X233870372Y-77770411D01*
X200450957Y-81160080D02*
X199587617Y-81160080D01*
X233840392Y-74579731D02*
X234468657Y-75207996D01*
X125507158Y-78560881D02*
X123181908Y-80886131D01*
X207915074Y-73085787D02*
G75*
G02*
X207329287Y-71671573I1414213J1414214D01*
G01*
X234468657Y-75207996D02*
G75*
G02*
X234688327Y-75738326I-530323J-530327D01*
G01*
X195245777Y-78267987D02*
G75*
G03*
X194538670Y-77975094I-707106J-707106D01*
G01*
X233310062Y-74360062D02*
G75*
G02*
X233840391Y-74579732I3J-749992D01*
G01*
X197112743Y-80134953D02*
G75*
G03*
X199587617Y-81160080I2474875J2474875D01*
G01*
X205484917Y-77990082D02*
G75*
G03*
X204777811Y-78282975I-3J-999993D01*
G01*
X233870372Y-77770411D02*
G75*
G02*
X233340042Y-77990081I-530327J530323D01*
G01*
X200450957Y-81160079D02*
G75*
G03*
X202925829Y-80134953I-1J3500001D01*
G01*
X234688326Y-76641796D02*
G75*
G02*
X234468656Y-77172125I-749992J-3D01*
G01*
X210846202Y-74360061D02*
G75*
G02*
X208017775Y-73188488I0J3999999D01*
G01*
X125507158Y-78560881D02*
G75*
G02*
X126921372Y-77975094I1414214J-1414213D01*
G01*
X225051271Y-79318771D02*
X226377500Y-80645000D01*
X199505463Y-81610090D02*
X200533111Y-81610090D01*
X226377500Y-71390061D02*
X226377500Y-71671573D01*
X205670625Y-78440091D02*
X222929950Y-78440091D01*
X233395553Y-73910541D02*
X228616468Y-73910541D01*
X234129333Y-78147168D02*
X234844954Y-77431547D01*
X123747594Y-81451816D02*
X126188520Y-79010890D01*
X203184762Y-80511740D02*
X204963518Y-78732984D01*
X127602733Y-78425104D02*
X194352962Y-78425104D01*
X234844954Y-74945728D02*
X234102660Y-74203434D01*
X235137847Y-76724440D02*
X235137847Y-75652835D01*
X229825080Y-78440061D02*
X233422226Y-78440061D01*
X195060069Y-78717997D02*
X196853813Y-80511741D01*
X226377500Y-80645000D02*
X227703760Y-79318740D01*
X227202254Y-73324754D02*
X226963286Y-73085786D01*
X235137846Y-75652835D02*
G75*
G03*
X234844953Y-74945729I-999993J3D01*
G01*
X204963518Y-78732984D02*
G75*
G02*
X205670625Y-78440091I707106J-707106D01*
G01*
X227202254Y-73324754D02*
G75*
G03*
X228616468Y-73910541I1414214J1414213D01*
G01*
X227703760Y-79318740D02*
G75*
G02*
X229825080Y-78440061I2121319J-2121319D01*
G01*
X222929950Y-78440092D02*
G75*
G02*
X225051270Y-79318772I3J-2999993D01*
G01*
X226963286Y-73085786D02*
G75*
G02*
X226377500Y-71671573I1414214J1414213D01*
G01*
X234844954Y-77431547D02*
G75*
G03*
X235137847Y-76724440I-707106J707106D01*
G01*
X196853813Y-80511741D02*
G75*
G03*
X199505463Y-81610090I2651651J2651654D01*
G01*
X234129333Y-78147168D02*
G75*
G02*
X233422226Y-78440061I-707106J707106D01*
G01*
X195060069Y-78717997D02*
G75*
G03*
X194352962Y-78425104I-707106J-707106D01*
G01*
X203184762Y-80511740D02*
G75*
G02*
X200533111Y-81610090I-2651652J2651653D01*
G01*
X127602733Y-78425105D02*
G75*
G03*
X126188521Y-79010891I0J-1999999D01*
G01*
X234102660Y-74203434D02*
G75*
G03*
X233395553Y-73910541I-707106J-707106D01*
G01*
X205856333Y-78890101D02*
X220636686Y-78890101D01*
X194874361Y-79168007D02*
X196594881Y-80888527D01*
X230057714Y-80500061D02*
X250045061Y-80500061D01*
X124313279Y-82017502D02*
X126869881Y-79460900D01*
X128284094Y-78875114D02*
X194167254Y-78875114D01*
X225823501Y-82420061D02*
X226895073Y-82420061D01*
X199423308Y-82060100D02*
X200615266Y-82060100D01*
X203443693Y-80888527D02*
X205149226Y-79182994D01*
X227602180Y-82127168D02*
X228643501Y-81085847D01*
X250045061Y-80500061D02*
X250190000Y-80645000D01*
X222758007Y-79768781D02*
X225116394Y-82127168D01*
X194874361Y-79168007D02*
G75*
G03*
X194167254Y-78875114I-707104J-707101D01*
G01*
X227602180Y-82127168D02*
G75*
G02*
X226895073Y-82420061I-707106J707106D01*
G01*
X126869881Y-79460900D02*
G75*
G02*
X128284094Y-78875114I1414213J-1414214D01*
G01*
X230057714Y-80500062D02*
G75*
G03*
X228643502Y-81085848I0J-1999999D01*
G01*
X225116394Y-82127168D02*
G75*
G03*
X225823501Y-82420061I707106J707106D01*
G01*
X203443693Y-80888527D02*
G75*
G02*
X200615266Y-82060100I-2828427J2828426D01*
G01*
X205856333Y-78890102D02*
G75*
G03*
X205149227Y-79182995I-3J-999993D01*
G01*
X199423308Y-82060100D02*
G75*
G02*
X196594881Y-80888527I0J3999999D01*
G01*
X220636686Y-78890102D02*
G75*
G02*
X222758006Y-79768782I3J-2999993D01*
G01*
X124878965Y-82583187D02*
X127552091Y-79910061D01*
X128279287Y-82910073D02*
X128279287Y-80640061D01*
X126576021Y-86684407D02*
X126814821Y-86445607D01*
X126814821Y-86445607D02*
G75*
G03*
X128279287Y-82910073I-3535532J3535533D01*
G01*
D37*
X19706063Y-9386837D02*
X19264287Y-8945061D01*
X17818000Y-7075000D02*
X17818000Y-8532241D01*
X21246283Y-13424508D02*
X21248564Y-13592856D01*
X39746580Y-17572242D02*
X39769273Y-17549549D01*
X19779287Y-9651780D02*
X19779287Y-9563614D01*
X19264287Y-8945061D02*
X18964446Y-8645220D01*
X19926792Y-9902838D02*
X19852510Y-9828556D01*
X21248564Y-13592856D02*
X21286262Y-13927436D01*
X22007536Y-15425176D02*
X23275923Y-16693563D01*
X21286262Y-13927436D02*
X21361184Y-14255691D01*
X20017002Y-11335061D02*
X20133571Y-11335061D01*
X39769273Y-17549549D02*
X40548273Y-17549549D01*
X17671553Y-8885795D02*
X17612287Y-8945061D01*
X21361184Y-14255691D02*
X21472388Y-14573493D01*
X21797609Y-15161936D02*
X22007536Y-15425176D01*
X21472388Y-14573493D02*
X21618476Y-14876846D01*
X20840678Y-11627954D02*
X20953390Y-11740666D01*
X18818000Y-8291667D02*
X18818000Y-7075000D01*
X21618476Y-14876846D02*
X21797609Y-15161936D01*
X26811457Y-18158029D02*
X38332366Y-18158029D01*
X20000016Y-11351573D02*
X20000016Y-10079615D01*
X21246283Y-12447773D02*
X21246283Y-13424508D01*
X19779286Y-9563614D02*
G75*
G03*
X19706062Y-9386838I-250006J-3D01*
G01*
X17818000Y-8532241D02*
G75*
G02*
X17671553Y-8885795I-499997J-1D01*
G01*
X19852510Y-9828556D02*
G75*
G02*
X19779287Y-9651780I176773J176775D01*
G01*
X26811457Y-18158029D02*
G75*
G02*
X23275923Y-16693563I-1J4999998D01*
G01*
X38332366Y-18158028D02*
G75*
G03*
X39746579Y-17572241I0J1999999D01*
G01*
X21246282Y-12447773D02*
G75*
G03*
X20953389Y-11740667I-999993J3D01*
G01*
X20840678Y-11627954D02*
G75*
G03*
X20133571Y-11335061I-707104J-707101D01*
G01*
X18818001Y-8291667D02*
G75*
G03*
X18964446Y-8645220I500001J0D01*
G01*
X20000015Y-10079615D02*
G75*
G03*
X19926791Y-9902839I-250006J-3D01*
G01*
X18391224Y-5997656D02*
X18505596Y-5883284D01*
X20649827Y-12827884D02*
X20451939Y-12629996D01*
X20098385Y-12483549D02*
X18653380Y-12483549D01*
X18682372Y-5810061D02*
X18953628Y-5810061D01*
X18117002Y-11947171D02*
X18117002Y-11335061D01*
X18173240Y-10176108D02*
X18244777Y-10104571D01*
X20796273Y-13610908D02*
X20796273Y-13181437D01*
X18100016Y-11351573D02*
X18100016Y-10352885D01*
X18318000Y-7075000D02*
X18318000Y-6174433D01*
X18299827Y-12337103D02*
X18263449Y-12300725D01*
X40548273Y-18549549D02*
X40540273Y-18557549D01*
X19318000Y-6174433D02*
X19318000Y-7075000D01*
X19130405Y-5883285D02*
X19244777Y-5997657D01*
X23035807Y-17093083D02*
X21674953Y-15732229D01*
X18318000Y-9927795D02*
X18318000Y-7075000D01*
X40540273Y-18557549D02*
X26571341Y-18557549D01*
X19244777Y-5997657D02*
G75*
G02*
X19318000Y-6174433I-176773J-176775D01*
G01*
X18505596Y-5883284D02*
G75*
G02*
X18682372Y-5810061I176775J-176773D01*
G01*
X18953628Y-5810062D02*
G75*
G02*
X19130404Y-5883286I-3J-250006D01*
G01*
X20098385Y-12483549D02*
G75*
G02*
X20451939Y-12629996I1J-499997D01*
G01*
X18100017Y-10352885D02*
G75*
G02*
X18173241Y-10176109I250006J-3D01*
G01*
X18117002Y-11947171D02*
G75*
G03*
X18263449Y-12300725I499997J-1D01*
G01*
X23035807Y-17093083D02*
G75*
G03*
X26571341Y-18557549I3535533J3535532D01*
G01*
X20649827Y-12827884D02*
G75*
G02*
X20796273Y-13181437I-353556J-353553D01*
G01*
X18391224Y-5997656D02*
G75*
G03*
X18318000Y-6174433I176772J-176776D01*
G01*
X18299827Y-12337103D02*
G75*
G03*
X18653380Y-12483549I353553J353556D01*
G01*
X18318000Y-9927795D02*
G75*
G02*
X18244777Y-10104571I-250001J1D01*
G01*
X20796273Y-13610908D02*
G75*
G03*
X21674953Y-15732229I3000005J2D01*
G01*
D35*
X173682180Y-87037168D02*
X174996394Y-85722954D01*
X117345734Y-93186508D02*
X117473531Y-93314305D01*
X118887744Y-93900091D02*
X177186616Y-93900091D01*
X173389287Y-88990061D02*
X173389287Y-87744275D01*
X179307937Y-93021411D02*
X181690608Y-90638740D01*
X201079287Y-89100061D02*
X207379287Y-89100061D01*
X188871928Y-89100061D02*
X201079287Y-89100061D01*
X175703501Y-85430061D02*
X176729287Y-85430061D01*
X117949318Y-91775575D02*
X117345733Y-92379160D01*
X182569287Y-88517420D02*
X182569287Y-86700061D01*
X186107967Y-87578741D02*
X186750608Y-88221382D01*
X182569287Y-86700061D02*
X183986646Y-86700061D01*
X117199287Y-92732713D02*
X117199287Y-92832954D01*
X186750608Y-88221382D02*
G75*
G03*
X188871928Y-89100061I2121319J2121319D01*
G01*
X179307937Y-93021411D02*
G75*
G02*
X177186616Y-93900091I-2121323J2121325D01*
G01*
X117199288Y-92732713D02*
G75*
G02*
X117345733Y-92379160I500001J0D01*
G01*
X183986646Y-86700062D02*
G75*
G02*
X186107966Y-87578742I3J-2999993D01*
G01*
X118887744Y-93900090D02*
G75*
G02*
X117473532Y-93314304I0J1999999D01*
G01*
X173389288Y-87744275D02*
G75*
G02*
X173682181Y-87037169I999993J3D01*
G01*
X117199287Y-92832954D02*
G75*
G03*
X117345734Y-93186508I499997J-1D01*
G01*
X175703501Y-85430062D02*
G75*
G03*
X174996395Y-85722955I-3J-999993D01*
G01*
X182569287Y-88517420D02*
G75*
G02*
X181690608Y-90638740I-2999998J-1D01*
G01*
X110200000Y-78274573D02*
X110067405Y-78407168D01*
X118515003Y-78623389D02*
X117621675Y-77730061D01*
X109360298Y-78700061D02*
X108679287Y-78700061D01*
X109360298Y-78700060D02*
G75*
G03*
X110067404Y-78407167I3J999993D01*
G01*
X122856414Y-93450081D02*
X175490055Y-93450081D01*
X176197162Y-93157188D02*
X176436394Y-92917956D01*
X120919167Y-92341261D02*
X121442201Y-92864295D01*
X176729287Y-92210849D02*
X176729287Y-90510061D01*
X176729286Y-92210849D02*
G75*
G02*
X176436393Y-92917955I-999993J-3D01*
G01*
X176197162Y-93157188D02*
G75*
G02*
X175490055Y-93450081I-707106J707106D01*
G01*
X121442201Y-92864295D02*
G75*
G03*
X122856414Y-93450081I1414213J1414214D01*
G01*
X175259287Y-89854275D02*
X175259287Y-91305847D01*
X122804921Y-91964274D02*
X122050537Y-91209890D01*
X176729287Y-87970061D02*
X175552180Y-89147168D01*
X174015073Y-92550061D02*
X124219135Y-92550061D01*
X174966394Y-92012954D02*
X174722180Y-92257168D01*
X175552180Y-89147168D02*
G75*
G03*
X175259287Y-89854275I707106J-707106D01*
G01*
X174966394Y-92012954D02*
G75*
G03*
X175259287Y-91305847I-707106J707106D01*
G01*
X124219135Y-92550060D02*
G75*
G02*
X122804922Y-91964273I0J1999999D01*
G01*
X174722180Y-92257168D02*
G75*
G02*
X174015073Y-92550061I-707106J707106D01*
G01*
X123537775Y-93000071D02*
X174715063Y-93000071D01*
X121484852Y-91775575D02*
X122123562Y-92414285D01*
X175422170Y-92707178D02*
X175479287Y-92650061D01*
X175422170Y-92707178D02*
G75*
G02*
X174715063Y-93000071I-707106J707106D01*
G01*
X122123562Y-92414285D02*
G75*
G03*
X123537775Y-93000071I1414213J1414214D01*
G01*
X123196292Y-91224274D02*
X122616223Y-90644205D01*
X134979287Y-91810061D02*
X124610506Y-91810061D01*
X124610506Y-91810060D02*
G75*
G02*
X123196293Y-91224273I0J1999999D01*
G01*
X21018000Y-6305881D02*
X21018000Y-7075000D01*
X15971553Y-10167795D02*
X15315733Y-10823615D01*
X16118000Y-7075000D02*
X16118000Y-9814241D01*
X16195916Y-17270061D02*
X18173312Y-17270061D01*
X14722103Y-11043285D02*
X14355733Y-11409655D01*
D36*
X42698273Y-20065323D02*
X42698273Y-18049549D01*
D35*
X14875723Y-16759390D02*
X15478138Y-16759390D01*
X14962180Y-10970061D02*
X14898880Y-10970061D01*
X16264447Y-5944901D02*
X17042841Y-5166507D01*
X14209287Y-11763208D02*
X14209287Y-16092954D01*
X19943706Y-17253549D02*
X21388846Y-17253549D01*
X17396394Y-5020061D02*
X19732180Y-5020061D01*
X19050016Y-16807571D02*
X19050016Y-13651573D01*
X20085734Y-5166508D02*
X20871554Y-5952328D01*
X14355734Y-16446508D02*
X14522170Y-16612944D01*
X18880419Y-16977168D02*
X19050016Y-16807571D01*
X19067002Y-16791059D02*
X19236599Y-16960656D01*
X16118000Y-7075000D02*
X16118000Y-6298455D01*
D36*
X22803060Y-17839336D02*
X25064581Y-20100857D01*
X41198273Y-16549549D02*
X40548273Y-16549549D01*
D35*
X15478138Y-16759390D02*
X15842363Y-17123615D01*
D36*
X28600115Y-21565323D02*
X41198273Y-21565323D01*
D35*
X15315733Y-10823615D02*
G75*
G02*
X14962180Y-10970061I-353553J353556D01*
G01*
X16264447Y-5944901D02*
G75*
G03*
X16118000Y-6298455I353550J-353553D01*
G01*
X20085734Y-5166508D02*
G75*
G03*
X19732180Y-5020061I-353553J-353550D01*
G01*
X14722103Y-11043285D02*
G75*
G02*
X14898880Y-10970061I176776J-176772D01*
G01*
X14522170Y-16612944D02*
G75*
G03*
X14875723Y-16759390I353553J353556D01*
G01*
X19943706Y-17253548D02*
G75*
G02*
X19236600Y-16960655I-3J999993D01*
G01*
X16195916Y-17270060D02*
G75*
G02*
X15842363Y-17123615I0J500001D01*
G01*
D36*
X41198273Y-16549549D02*
G75*
G02*
X42698273Y-18049549I-1J-1500001D01*
G01*
D35*
X16118000Y-9814241D02*
G75*
G02*
X15971553Y-10167795I-499997J-1D01*
G01*
X17042841Y-5166507D02*
G75*
G02*
X17396394Y-5020061I353553J-353556D01*
G01*
X18173312Y-17270060D02*
G75*
G03*
X18880418Y-16977167I3J999993D01*
G01*
D36*
X21388846Y-17253550D02*
G75*
G02*
X22803059Y-17839337I0J-1999999D01*
G01*
X25064581Y-20100857D02*
G75*
G03*
X28600115Y-21565323I3535533J3535532D01*
G01*
D35*
X14355733Y-11409655D02*
G75*
G03*
X14209287Y-11763208I353556J-353553D01*
G01*
X20871554Y-5952328D02*
G75*
G02*
X21018000Y-6305881I-353556J-353553D01*
G01*
X14355734Y-16446508D02*
G75*
G02*
X14209287Y-16092954I353550J353553D01*
G01*
D36*
X42698273Y-20065323D02*
G75*
G02*
X41198273Y-21565323I-1500001J1D01*
G01*
D37*
X124878965Y-88381463D02*
X123908425Y-87410923D01*
X17859390Y-18364077D02*
X17859390Y-19377328D01*
X18005837Y-19730882D02*
X18625016Y-20350061D01*
X17859390Y-19377328D02*
G75*
G03*
X18005837Y-19730882I499997J-1D01*
G01*
D35*
X18100016Y-15923451D02*
X18100016Y-13651573D01*
X17859390Y-16164077D02*
X18100016Y-15923451D01*
D37*
X20229287Y-18375432D02*
X20229287Y-18400061D01*
X20240642Y-18364077D02*
X20229287Y-18375432D01*
X20094195Y-19730882D02*
X19475016Y-20350061D01*
X20240642Y-18364077D02*
X20240642Y-19377328D01*
X125444650Y-87815777D02*
X123858934Y-86230061D01*
X20094195Y-19730882D02*
G75*
G03*
X20240642Y-19377328I-353550J353553D01*
G01*
D35*
X20240642Y-16164077D02*
X20000016Y-15923451D01*
X20000016Y-15923451D02*
X20000016Y-13651573D01*
X107479287Y-91600061D02*
X107905901Y-91173447D01*
X116036013Y-90294768D02*
X116252262Y-90078519D01*
X109320114Y-90587661D02*
X115328906Y-90587661D01*
X115328906Y-90587660D02*
G75*
G03*
X116036012Y-90294767I3J999993D01*
G01*
X109320114Y-90587662D02*
G75*
G03*
X107905902Y-91173448I0J-1999999D01*
G01*
X105274760Y-90284588D02*
X105225733Y-90333615D01*
X115686576Y-89512834D02*
X115354162Y-89845248D01*
X114647055Y-90138141D02*
X105628314Y-90138141D01*
X105079287Y-90687168D02*
X105079287Y-91600061D01*
X105628314Y-90138141D02*
G75*
G03*
X105274760Y-90284588I-1J-499997D01*
G01*
X114647055Y-90138140D02*
G75*
G03*
X115354161Y-89845247I1J999998D01*
G01*
X105225733Y-90333615D02*
G75*
G03*
X105079287Y-90687168I353556J-353553D01*
G01*
X157211075Y-85725072D02*
X157211075Y-87938273D01*
X118515003Y-92341261D02*
X119187357Y-93013615D01*
X119540910Y-93160061D02*
X119715287Y-93160061D01*
X119540910Y-93160060D02*
G75*
G02*
X119187357Y-93013615I0J500001D01*
G01*
X156808994Y-90542954D02*
X157248218Y-90982178D01*
X157955325Y-91275071D02*
X171093045Y-91275071D01*
X171093045Y-91275071D02*
X171189287Y-91371313D01*
X123747594Y-89512834D02*
X124191928Y-89957168D01*
X124899035Y-90250061D02*
X156101887Y-90250061D01*
X124899035Y-90250060D02*
G75*
G02*
X124191929Y-89957167I-3J999993D01*
G01*
X157955325Y-91275070D02*
G75*
G02*
X157248219Y-90982177I-3J999993D01*
G01*
X156101887Y-90250062D02*
G75*
G02*
X156808993Y-90542955I3J-999993D01*
G01*
X249174977Y-9875061D02*
X249174977Y-8414214D01*
X253364977Y-6985061D02*
X250604130Y-6985061D01*
X249897023Y-7277954D02*
X249467870Y-7707107D01*
X250604130Y-6985062D02*
G75*
G03*
X249897024Y-7277955I-3J-999993D01*
G01*
X249467870Y-7707107D02*
G75*
G03*
X249174977Y-8414214I707106J-707106D01*
G01*
G04 #@! TA.AperFunction,Conductor*
G36*
X25413463Y-19050708D02*
G01*
X25585433Y-19084914D01*
X25692519Y-19106215D01*
X25864636Y-19126586D01*
X26128118Y-19157772D01*
X26128126Y-19157773D01*
X26130571Y-19158062D01*
X26548570Y-19174486D01*
X26553169Y-19174751D01*
X26554315Y-19174838D01*
X26558398Y-19175419D01*
X26564470Y-19175483D01*
X26567207Y-19175512D01*
X26567214Y-19175512D01*
X26571341Y-19175555D01*
X26642351Y-19166962D01*
X26657487Y-19166049D01*
X39001438Y-19166049D01*
X39069559Y-19186051D01*
X39116052Y-19239707D01*
X39126844Y-19279834D01*
X39127912Y-19290794D01*
X39142835Y-19295549D01*
X39465096Y-19295549D01*
X39518745Y-19307541D01*
X39568168Y-19330798D01*
X39575951Y-19332283D01*
X39575952Y-19332283D01*
X39705184Y-19356935D01*
X39705188Y-19356935D01*
X39711026Y-19358049D01*
X40676273Y-19358049D01*
X40744394Y-19378051D01*
X40790887Y-19431707D01*
X40802273Y-19484049D01*
X40802273Y-20339434D01*
X40806748Y-20354673D01*
X40808138Y-20355878D01*
X40815821Y-20357549D01*
X41360713Y-20357549D01*
X41368603Y-20357052D01*
X41480347Y-20342936D01*
X41495580Y-20339025D01*
X41635417Y-20283659D01*
X41656145Y-20272264D01*
X41658048Y-20275725D01*
X41706814Y-20257064D01*
X41776314Y-20271566D01*
X41826940Y-20321341D01*
X41842619Y-20390585D01*
X41827992Y-20442055D01*
X41816500Y-20463556D01*
X41802778Y-20484092D01*
X41726929Y-20576514D01*
X41709464Y-20593979D01*
X41617042Y-20669828D01*
X41596506Y-20683550D01*
X41494302Y-20738179D01*
X41491062Y-20739911D01*
X41468252Y-20749360D01*
X41353826Y-20784071D01*
X41329609Y-20788887D01*
X41281922Y-20793584D01*
X41239547Y-20797758D01*
X41223038Y-20797530D01*
X41223031Y-20798049D01*
X41215994Y-20797951D01*
X41209000Y-20797067D01*
X41119638Y-20805829D01*
X41115630Y-20806222D01*
X41103335Y-20806823D01*
X28695995Y-20806823D01*
X28680203Y-20805829D01*
X28673392Y-20804969D01*
X28610843Y-20797067D01*
X28603835Y-20797754D01*
X28603823Y-20797754D01*
X28582853Y-20799811D01*
X28565065Y-20800293D01*
X28236375Y-20785942D01*
X28225426Y-20784984D01*
X28218476Y-20784069D01*
X27869897Y-20738178D01*
X27859088Y-20736271D01*
X27508999Y-20658659D01*
X27498382Y-20655814D01*
X27471877Y-20647457D01*
X27156391Y-20547984D01*
X27146077Y-20544231D01*
X26814760Y-20406995D01*
X26804816Y-20402357D01*
X26486747Y-20236781D01*
X26477228Y-20231286D01*
X26454589Y-20216863D01*
X26218344Y-20066359D01*
X26174795Y-20038615D01*
X26165791Y-20032310D01*
X25956686Y-19871858D01*
X25915216Y-19840037D01*
X25906072Y-19832303D01*
X25893906Y-19820978D01*
X39125383Y-19820978D01*
X39129886Y-19856622D01*
X39133798Y-19871858D01*
X39189163Y-20011693D01*
X39196739Y-20025475D01*
X39285139Y-20147147D01*
X39295908Y-20158614D01*
X39411789Y-20254480D01*
X39425071Y-20262909D01*
X39561150Y-20326942D01*
X39576111Y-20331804D01*
X39705231Y-20356435D01*
X39717019Y-20357549D01*
X40276158Y-20357549D01*
X40291397Y-20353074D01*
X40292602Y-20351684D01*
X40294273Y-20344001D01*
X40294273Y-19821664D01*
X40289798Y-19806425D01*
X40288408Y-19805220D01*
X40280725Y-19803549D01*
X39141296Y-19803549D01*
X39127420Y-19807623D01*
X39125383Y-19820978D01*
X25893906Y-19820978D01*
X25884213Y-19811955D01*
X25746273Y-19683549D01*
X25741182Y-19683549D01*
X25729261Y-19675343D01*
X25714905Y-19662188D01*
X25638862Y-19592507D01*
X25624434Y-19576843D01*
X25619725Y-19570772D01*
X25615406Y-19565204D01*
X25601836Y-19554057D01*
X25542906Y-19505652D01*
X25533787Y-19497382D01*
X25299787Y-19263382D01*
X25265761Y-19201070D01*
X25270826Y-19130255D01*
X25313373Y-19073419D01*
X25379893Y-19048608D01*
X25413463Y-19050708D01*
G37*
G04 #@! TD.AperFunction*
G04 #@! TA.AperFunction,Conductor*
G36*
X24732856Y-10388728D02*
G01*
X28095741Y-13942886D01*
X28256273Y-14112549D01*
X35799223Y-14112549D01*
X35828161Y-14116710D01*
X35830330Y-14117700D01*
X35839248Y-14118982D01*
X35839251Y-14118983D01*
X35970552Y-14137861D01*
X35970559Y-14137862D01*
X35975000Y-14138500D01*
X37175000Y-14138500D01*
X37248079Y-14133273D01*
X37301276Y-14117653D01*
X37336774Y-14112549D01*
X38849223Y-14112549D01*
X38878161Y-14116710D01*
X38880330Y-14117700D01*
X38889248Y-14118982D01*
X38889251Y-14118983D01*
X39020552Y-14137861D01*
X39020559Y-14137862D01*
X39025000Y-14138500D01*
X40225000Y-14138500D01*
X40298079Y-14133273D01*
X40351276Y-14117653D01*
X40386774Y-14112549D01*
X43101768Y-14112549D01*
X43169889Y-14132551D01*
X43216382Y-14186207D01*
X43226486Y-14256481D01*
X43218758Y-14285338D01*
X43190986Y-14354773D01*
X43164773Y-14513115D01*
X43164773Y-15562417D01*
X43179553Y-15698471D01*
X43237856Y-15871715D01*
X43332001Y-16028398D01*
X43457594Y-16161209D01*
X43463239Y-16165045D01*
X43463241Y-16165047D01*
X43587264Y-16249332D01*
X43608778Y-16263953D01*
X43615108Y-16266485D01*
X43615112Y-16266487D01*
X43772160Y-16329302D01*
X43772165Y-16329303D01*
X43778497Y-16331836D01*
X43887294Y-16349847D01*
X43931740Y-16357205D01*
X43931741Y-16357205D01*
X43936839Y-16358049D01*
X45186141Y-16358049D01*
X45322195Y-16343269D01*
X45495439Y-16284966D01*
X45503220Y-16280291D01*
X45633039Y-16202287D01*
X45652122Y-16190821D01*
X45657576Y-16185664D01*
X45784933Y-16065228D01*
X45786275Y-16066648D01*
X45837706Y-16032948D01*
X45908700Y-16032319D01*
X45968763Y-16070173D01*
X45998827Y-16134490D01*
X46000273Y-16153525D01*
X46000273Y-19950478D01*
X45980271Y-20018599D01*
X45926615Y-20065092D01*
X45856341Y-20075196D01*
X45791761Y-20045702D01*
X45782725Y-20037051D01*
X45726284Y-19977367D01*
X45688952Y-19937889D01*
X45537768Y-19835145D01*
X45531438Y-19832613D01*
X45531434Y-19832611D01*
X45374386Y-19769796D01*
X45374381Y-19769795D01*
X45368049Y-19767262D01*
X45245640Y-19746998D01*
X45214806Y-19741893D01*
X45214805Y-19741893D01*
X45209707Y-19741049D01*
X43960405Y-19741049D01*
X43824351Y-19755829D01*
X43651107Y-19814132D01*
X43645254Y-19817649D01*
X43639064Y-19820509D01*
X43638214Y-19818669D01*
X43578965Y-19834137D01*
X43511480Y-19812086D01*
X43466630Y-19757050D01*
X43456773Y-19708195D01*
X43456773Y-18147631D01*
X43457999Y-18130095D01*
X43465755Y-18074910D01*
X43465755Y-18074904D01*
X43466304Y-18071001D01*
X43466604Y-18049548D01*
X43465458Y-18039329D01*
X43464903Y-18032895D01*
X43449606Y-17780013D01*
X43449605Y-17780009D01*
X43449376Y-17776215D01*
X43400016Y-17506868D01*
X43390986Y-17477888D01*
X43319683Y-17249070D01*
X43318550Y-17245434D01*
X43304382Y-17213953D01*
X43239724Y-17070291D01*
X43206165Y-16995726D01*
X43184201Y-16959392D01*
X43066468Y-16764639D01*
X43064501Y-16761385D01*
X43048516Y-16740981D01*
X42987623Y-16663257D01*
X42895623Y-16545828D01*
X42701994Y-16352199D01*
X42516910Y-16207195D01*
X42489428Y-16185664D01*
X42489425Y-16185662D01*
X42486437Y-16183321D01*
X42314668Y-16079483D01*
X42255357Y-16043628D01*
X42255353Y-16043626D01*
X42252096Y-16041657D01*
X42127242Y-15985464D01*
X42005864Y-15930836D01*
X42005858Y-15930834D01*
X42002388Y-15929272D01*
X41740954Y-15847806D01*
X41704679Y-15841158D01*
X41685628Y-15837667D01*
X41654691Y-15827739D01*
X41591771Y-15798131D01*
X41528378Y-15768300D01*
X41520595Y-15766815D01*
X41520594Y-15766815D01*
X41391362Y-15742163D01*
X41391358Y-15742163D01*
X41385520Y-15741049D01*
X39731841Y-15741049D01*
X39684145Y-15747074D01*
X39616074Y-15755673D01*
X39616071Y-15755674D01*
X39608209Y-15756667D01*
X39600842Y-15759584D01*
X39600841Y-15759584D01*
X39582578Y-15766815D01*
X39453517Y-15817914D01*
X39447106Y-15822572D01*
X39447104Y-15822573D01*
X39412374Y-15847806D01*
X39318916Y-15915708D01*
X39212864Y-16043903D01*
X39142024Y-16194444D01*
X39140539Y-16202227D01*
X39140539Y-16202228D01*
X39127317Y-16271544D01*
X39114773Y-16337302D01*
X39114773Y-16740981D01*
X39130391Y-16864613D01*
X39133308Y-16871980D01*
X39133308Y-16871981D01*
X39142280Y-16894642D01*
X39186554Y-17006465D01*
X39193033Y-17077163D01*
X39183411Y-17106492D01*
X39142024Y-17194444D01*
X39140539Y-17202227D01*
X39140538Y-17202231D01*
X39132991Y-17241796D01*
X39100579Y-17304962D01*
X39079225Y-17322951D01*
X39032482Y-17354184D01*
X39018208Y-17362425D01*
X38870361Y-17435335D01*
X38855137Y-17441641D01*
X38699034Y-17494631D01*
X38683124Y-17498894D01*
X38602280Y-17514975D01*
X38521439Y-17531055D01*
X38505099Y-17533206D01*
X38371745Y-17541947D01*
X38347057Y-17541139D01*
X38346369Y-17541048D01*
X38346364Y-17541048D01*
X38338838Y-17540057D01*
X38263937Y-17548326D01*
X38259932Y-17548768D01*
X38246106Y-17549529D01*
X26898134Y-17549529D01*
X26881688Y-17548451D01*
X26825460Y-17541048D01*
X26825456Y-17541048D01*
X26817929Y-17540057D01*
X26802744Y-17541733D01*
X26796703Y-17542400D01*
X26777382Y-17543041D01*
X26502853Y-17531055D01*
X26434643Y-17528077D01*
X26423694Y-17527119D01*
X26055192Y-17478605D01*
X26044383Y-17476698D01*
X25681518Y-17396254D01*
X25670901Y-17393409D01*
X25316430Y-17281644D01*
X25306116Y-17277891D01*
X24962709Y-17135647D01*
X24952765Y-17131009D01*
X24623089Y-16959391D01*
X24613570Y-16953896D01*
X24601798Y-16946396D01*
X24315837Y-16764219D01*
X24300101Y-16754194D01*
X24291097Y-16747889D01*
X23996235Y-16521633D01*
X23987815Y-16514568D01*
X23740274Y-16287739D01*
X23725434Y-16271544D01*
X23722095Y-16267192D01*
X23717472Y-16261167D01*
X23655510Y-16211526D01*
X23645196Y-16202287D01*
X22967890Y-15524981D01*
X22933864Y-15462669D01*
X22938929Y-15391854D01*
X22981476Y-15335018D01*
X23047996Y-15310207D01*
X23056985Y-15309886D01*
X23269637Y-15309886D01*
X23274144Y-15309725D01*
X23338163Y-15305146D01*
X23351385Y-15302760D01*
X23476352Y-15266067D01*
X23492586Y-15258653D01*
X23600254Y-15189460D01*
X23613741Y-15177774D01*
X23697556Y-15081046D01*
X23707201Y-15066038D01*
X23760371Y-14949611D01*
X23765396Y-14932498D01*
X23784255Y-14801332D01*
X23784894Y-14792391D01*
X23784894Y-14469001D01*
X23780419Y-14453762D01*
X23779029Y-14452557D01*
X23771346Y-14450886D01*
X22493894Y-14450886D01*
X22425773Y-14430884D01*
X22379280Y-14377228D01*
X22367894Y-14324886D01*
X22367894Y-14068886D01*
X22387896Y-14000765D01*
X22441552Y-13954272D01*
X22493894Y-13942886D01*
X23766779Y-13942886D01*
X23782018Y-13938411D01*
X23783223Y-13937021D01*
X23784894Y-13929338D01*
X23784894Y-13599143D01*
X23784733Y-13594636D01*
X23780154Y-13530617D01*
X23777768Y-13517395D01*
X23741075Y-13392428D01*
X23733661Y-13376194D01*
X23664468Y-13268526D01*
X23652782Y-13255039D01*
X23582030Y-13193733D01*
X23543646Y-13134007D01*
X23543646Y-13063010D01*
X23582029Y-13003284D01*
X23596419Y-12992512D01*
X23608165Y-12984963D01*
X23675805Y-12906903D01*
X23697976Y-12881317D01*
X23697978Y-12881314D01*
X23703878Y-12874505D01*
X23764594Y-12741556D01*
X23775817Y-12663496D01*
X23784755Y-12601334D01*
X23784756Y-12601327D01*
X23785394Y-12596886D01*
X23785394Y-11396886D01*
X23780167Y-11323807D01*
X23738990Y-11183570D01*
X23659971Y-11060615D01*
X23661909Y-11059369D01*
X23637669Y-11006291D01*
X23647772Y-10936017D01*
X23694265Y-10882361D01*
X23746374Y-10863381D01*
X23773467Y-10859910D01*
X23773478Y-10859908D01*
X23778604Y-10859251D01*
X23821169Y-10846481D01*
X23987760Y-10796501D01*
X23992713Y-10795015D01*
X23997352Y-10792742D01*
X23997358Y-10792740D01*
X24188819Y-10698944D01*
X24193457Y-10696672D01*
X24248340Y-10657524D01*
X24371230Y-10569868D01*
X24371235Y-10569864D01*
X24375442Y-10566863D01*
X24533783Y-10409074D01*
X24539009Y-10401801D01*
X24595002Y-10358154D01*
X24665705Y-10351707D01*
X24732856Y-10388728D01*
G37*
G04 #@! TD.AperFunction*
G04 #@! TA.AperFunction,Conductor*
G36*
X17204065Y-10579983D02*
G01*
X17263155Y-10619338D01*
X17291588Y-10684393D01*
X17291312Y-10718212D01*
X17286516Y-10751573D01*
X17286516Y-11951573D01*
X17291743Y-12024652D01*
X17332920Y-12164889D01*
X17337791Y-12172468D01*
X17407067Y-12280264D01*
X17407069Y-12280267D01*
X17411939Y-12287844D01*
X17522397Y-12383557D01*
X17530595Y-12387301D01*
X17532851Y-12388331D01*
X17534725Y-12389955D01*
X17538175Y-12392172D01*
X17537856Y-12392668D01*
X17586507Y-12434823D01*
X17606510Y-12502944D01*
X17586508Y-12571065D01*
X17548632Y-12608942D01*
X17463745Y-12663496D01*
X17457844Y-12670306D01*
X17373934Y-12767142D01*
X17373932Y-12767145D01*
X17368032Y-12773954D01*
X17307316Y-12906903D01*
X17306034Y-12915818D01*
X17306034Y-12915819D01*
X17287155Y-13047125D01*
X17287154Y-13047132D01*
X17286516Y-13051573D01*
X17286516Y-14251573D01*
X17291743Y-14324652D01*
X17332920Y-14464889D01*
X17337791Y-14472468D01*
X17407067Y-14580264D01*
X17407069Y-14580267D01*
X17411939Y-14587844D01*
X17418750Y-14593746D01*
X17418751Y-14593747D01*
X17423031Y-14597456D01*
X17461413Y-14657183D01*
X17466516Y-14692678D01*
X17466516Y-14924577D01*
X17446514Y-14992698D01*
X17392858Y-15039191D01*
X17340516Y-15050577D01*
X17209390Y-15050577D01*
X17136311Y-15055804D01*
X17058225Y-15078732D01*
X17004720Y-15094442D01*
X17004718Y-15094443D01*
X16996074Y-15096981D01*
X16988495Y-15101852D01*
X16880699Y-15171128D01*
X16880696Y-15171130D01*
X16873119Y-15176000D01*
X16867218Y-15182810D01*
X16783308Y-15279646D01*
X16783306Y-15279649D01*
X16777406Y-15286458D01*
X16716690Y-15419407D01*
X16715408Y-15428322D01*
X16715408Y-15428323D01*
X16696529Y-15559629D01*
X16696528Y-15559636D01*
X16695890Y-15564077D01*
X16695890Y-15702907D01*
X16675888Y-15771028D01*
X16622232Y-15817521D01*
X16551958Y-15827625D01*
X16487377Y-15798131D01*
X16456845Y-15771674D01*
X16405757Y-15727406D01*
X16352112Y-15702907D01*
X16281002Y-15670432D01*
X16281001Y-15670432D01*
X16272808Y-15666690D01*
X16263893Y-15665408D01*
X16263892Y-15665408D01*
X16132586Y-15646529D01*
X16132579Y-15646528D01*
X16128138Y-15645890D01*
X14968787Y-15645890D01*
X14900666Y-15625888D01*
X14854173Y-15572232D01*
X14842787Y-15519890D01*
X14842787Y-15435886D01*
X14862789Y-15367765D01*
X14916445Y-15321272D01*
X14968787Y-15309886D01*
X15206023Y-15309886D01*
X15221262Y-15305411D01*
X15222467Y-15304021D01*
X15224138Y-15296338D01*
X15224138Y-14464434D01*
X15732138Y-14464434D01*
X15732138Y-15291771D01*
X15736613Y-15307010D01*
X15738003Y-15308215D01*
X15745686Y-15309886D01*
X16125881Y-15309886D01*
X16130388Y-15309725D01*
X16194407Y-15305146D01*
X16207629Y-15302760D01*
X16332596Y-15266067D01*
X16348830Y-15258653D01*
X16456498Y-15189460D01*
X16469985Y-15177774D01*
X16553800Y-15081046D01*
X16563445Y-15066038D01*
X16616615Y-14949611D01*
X16621640Y-14932498D01*
X16640499Y-14801332D01*
X16641138Y-14792391D01*
X16641138Y-14469001D01*
X16636663Y-14453762D01*
X16635273Y-14452557D01*
X16627590Y-14450886D01*
X15750253Y-14450886D01*
X15735014Y-14455361D01*
X15733809Y-14456751D01*
X15732138Y-14464434D01*
X15224138Y-14464434D01*
X15224138Y-14068886D01*
X15244140Y-14000765D01*
X15297796Y-13954272D01*
X15350138Y-13942886D01*
X16623023Y-13942886D01*
X16638262Y-13938411D01*
X16639467Y-13937021D01*
X16641138Y-13929338D01*
X16641138Y-13599143D01*
X16640977Y-13594636D01*
X16636398Y-13530617D01*
X16634012Y-13517395D01*
X16597319Y-13392428D01*
X16589905Y-13376194D01*
X16520712Y-13268526D01*
X16509026Y-13255039D01*
X16438274Y-13193733D01*
X16399890Y-13134007D01*
X16399890Y-13063010D01*
X16438273Y-13003284D01*
X16452663Y-12992512D01*
X16464409Y-12984963D01*
X16532049Y-12906903D01*
X16554220Y-12881317D01*
X16554222Y-12881314D01*
X16560122Y-12874505D01*
X16620838Y-12741556D01*
X16632061Y-12663496D01*
X16640999Y-12601334D01*
X16641000Y-12601327D01*
X16641638Y-12596886D01*
X16641638Y-11396886D01*
X16636411Y-11323807D01*
X16595234Y-11183570D01*
X16596719Y-11183134D01*
X16588041Y-11122746D01*
X16617537Y-11058167D01*
X16623662Y-11051590D01*
X17006063Y-10669189D01*
X17019505Y-10657524D01*
X17025124Y-10653305D01*
X17066572Y-10622185D01*
X17076196Y-10612760D01*
X17076998Y-10613579D01*
X17133078Y-10578821D01*
X17204065Y-10579983D01*
G37*
G04 #@! TD.AperFunction*
G04 #@! TA.AperFunction,Conductor*
G36*
X19071385Y-9735033D02*
G01*
X19075085Y-9735527D01*
X19078551Y-9735990D01*
X19143424Y-9764834D01*
X19182405Y-9824172D01*
X19184388Y-9831461D01*
X19205510Y-9919441D01*
X19257524Y-10045014D01*
X19260106Y-10049228D01*
X19260112Y-10049239D01*
X19300866Y-10115742D01*
X19319405Y-10184275D01*
X19310438Y-10212560D01*
X19312523Y-10213014D01*
X19304016Y-10252121D01*
X19304016Y-10385431D01*
X19284014Y-10453552D01*
X19274509Y-10466249D01*
X19273936Y-10467140D01*
X19268032Y-10473954D01*
X19264288Y-10482152D01*
X19256328Y-10499583D01*
X19207316Y-10606903D01*
X19206034Y-10615818D01*
X19206034Y-10615819D01*
X19187155Y-10747125D01*
X19187154Y-10747132D01*
X19186516Y-10751573D01*
X19186516Y-11479573D01*
X19166514Y-11547694D01*
X19112858Y-11594187D01*
X19060516Y-11605573D01*
X19039516Y-11605573D01*
X18971395Y-11585571D01*
X18924902Y-11531915D01*
X18913516Y-11479573D01*
X18913516Y-10751573D01*
X18908289Y-10678494D01*
X18876394Y-10569868D01*
X18869651Y-10546903D01*
X18869650Y-10546901D01*
X18867112Y-10538257D01*
X18862044Y-10530371D01*
X18827725Y-10476968D01*
X18807723Y-10408847D01*
X18826289Y-10343015D01*
X18837179Y-10325244D01*
X18837180Y-10325243D01*
X18839763Y-10321027D01*
X18891776Y-10195457D01*
X18923506Y-10063295D01*
X18929478Y-9987406D01*
X18930344Y-9979563D01*
X18935870Y-9940740D01*
X18936006Y-9927797D01*
X18929625Y-9875060D01*
X18941300Y-9805030D01*
X18988982Y-9752429D01*
X19057533Y-9733957D01*
X19071385Y-9735033D01*
G37*
G04 #@! TD.AperFunction*
G04 #@! TA.AperFunction,Conductor*
G36*
X23084121Y-5926002D02*
G01*
X23130614Y-5979658D01*
X23142000Y-6032000D01*
X23142000Y-6655907D01*
X23138519Y-6685321D01*
X23132122Y-6711968D01*
X23128789Y-6725850D01*
X23108393Y-6985000D01*
X23128789Y-7244150D01*
X23129943Y-7248957D01*
X23129944Y-7248963D01*
X23138519Y-7284679D01*
X23142000Y-7314093D01*
X23142000Y-7667924D01*
X23145973Y-7681455D01*
X23166686Y-7684433D01*
X23218413Y-7684400D01*
X23278163Y-7722746D01*
X23290416Y-7739473D01*
X23424777Y-7958729D01*
X23430128Y-7964994D01*
X23430641Y-7966138D01*
X23430902Y-7966498D01*
X23430826Y-7966553D01*
X23459160Y-8029780D01*
X23448557Y-8099981D01*
X23401683Y-8153305D01*
X23353377Y-8171375D01*
X23178882Y-8198076D01*
X23035979Y-8244784D01*
X22971325Y-8265916D01*
X22971323Y-8265917D01*
X22966406Y-8267524D01*
X22961820Y-8269911D01*
X22961816Y-8269913D01*
X22772718Y-8368352D01*
X22768125Y-8370743D01*
X22763983Y-8373853D01*
X22602724Y-8494929D01*
X22589365Y-8504959D01*
X22434927Y-8666570D01*
X22432013Y-8670842D01*
X22432012Y-8670843D01*
X22347914Y-8794127D01*
X22308958Y-8851234D01*
X22306778Y-8855931D01*
X22222764Y-9036923D01*
X22214840Y-9053993D01*
X22155102Y-9269401D01*
X22131348Y-9491673D01*
X22131645Y-9496825D01*
X22131645Y-9496829D01*
X22137112Y-9591634D01*
X22144216Y-9714840D01*
X22145353Y-9719886D01*
X22145354Y-9719892D01*
X22157372Y-9773219D01*
X22193360Y-9932909D01*
X22277460Y-10140024D01*
X22394259Y-10330621D01*
X22540618Y-10499583D01*
X22712608Y-10642372D01*
X22717069Y-10644979D01*
X22717075Y-10644983D01*
X22723261Y-10648597D01*
X22771986Y-10700234D01*
X22785058Y-10770017D01*
X22758328Y-10835790D01*
X22700282Y-10876669D01*
X22659693Y-10883386D01*
X22456488Y-10883386D01*
X22388367Y-10863384D01*
X22367393Y-10846481D01*
X20988405Y-9467492D01*
X20954379Y-9405180D01*
X20951500Y-9378397D01*
X20951500Y-8439500D01*
X20971502Y-8371379D01*
X21025158Y-8324886D01*
X21077500Y-8313500D01*
X21318000Y-8313500D01*
X21391079Y-8308273D01*
X21397563Y-8306369D01*
X21399343Y-8306048D01*
X21439648Y-8305329D01*
X21488537Y-8312358D01*
X21497506Y-8313000D01*
X21520885Y-8313000D01*
X21536124Y-8308525D01*
X21537329Y-8307135D01*
X21537337Y-8307097D01*
X21571361Y-8244784D01*
X21592337Y-8227880D01*
X21646691Y-8192949D01*
X21646694Y-8192947D01*
X21654271Y-8188077D01*
X21668613Y-8171526D01*
X21744082Y-8084431D01*
X21744084Y-8084428D01*
X21749984Y-8077619D01*
X21806386Y-7954116D01*
X21852879Y-7900460D01*
X21921000Y-7880458D01*
X21989121Y-7900460D01*
X22035614Y-7954116D01*
X22047000Y-8006458D01*
X22047000Y-8294885D01*
X22051475Y-8310124D01*
X22052865Y-8311329D01*
X22060548Y-8313000D01*
X22090743Y-8313000D01*
X22095250Y-8312839D01*
X22159269Y-8308260D01*
X22172491Y-8305874D01*
X22297458Y-8269181D01*
X22313692Y-8261767D01*
X22421360Y-8192574D01*
X22434847Y-8180888D01*
X22518662Y-8084160D01*
X22528307Y-8069152D01*
X22581477Y-7952725D01*
X22586502Y-7935612D01*
X22605361Y-7804446D01*
X22606000Y-7795503D01*
X22606000Y-7762092D01*
X22618162Y-7708084D01*
X22634000Y-7674701D01*
X22634000Y-7347115D01*
X22629525Y-7331876D01*
X22628135Y-7330671D01*
X22620452Y-7329000D01*
X22065115Y-7329000D01*
X22045703Y-7334700D01*
X21992999Y-7368571D01*
X21922002Y-7368571D01*
X21862276Y-7330188D01*
X21832783Y-7265607D01*
X21831500Y-7247675D01*
X21831500Y-6947000D01*
X21851502Y-6878879D01*
X21905158Y-6832386D01*
X21957500Y-6821000D01*
X22615885Y-6821000D01*
X22631124Y-6816525D01*
X22632329Y-6815135D01*
X22634000Y-6807452D01*
X22634000Y-6432115D01*
X22629525Y-6416876D01*
X22628135Y-6415671D01*
X22620452Y-6414000D01*
X22156669Y-6414000D01*
X22088548Y-6393998D01*
X22042055Y-6340342D01*
X22031951Y-6270068D01*
X22063033Y-6203689D01*
X22131611Y-6127526D01*
X22131612Y-6127525D01*
X22136030Y-6122618D01*
X22139330Y-6116902D01*
X22139333Y-6116898D01*
X22223634Y-5970882D01*
X22225806Y-5972136D01*
X22264468Y-5926653D01*
X22333591Y-5906000D01*
X23016000Y-5906000D01*
X23084121Y-5926002D01*
G37*
G04 #@! TD.AperFunction*
G04 #@! TA.AperFunction,Conductor*
G36*
X14870530Y-5926002D02*
G01*
X14910147Y-5972163D01*
X14912366Y-5970882D01*
X14996667Y-6116898D01*
X14996670Y-6116902D01*
X14999970Y-6122618D01*
X15004388Y-6127525D01*
X15004389Y-6127526D01*
X15072967Y-6203689D01*
X15103684Y-6267697D01*
X15094921Y-6338150D01*
X15049458Y-6392682D01*
X14979331Y-6414000D01*
X14520115Y-6414000D01*
X14504876Y-6418475D01*
X14503671Y-6419865D01*
X14502000Y-6427548D01*
X14502000Y-6802885D01*
X14506475Y-6818124D01*
X14507865Y-6819329D01*
X14515548Y-6821000D01*
X15178500Y-6821000D01*
X15246621Y-6841002D01*
X15293114Y-6894658D01*
X15304500Y-6947000D01*
X15304500Y-7203000D01*
X15284498Y-7271121D01*
X15230842Y-7317614D01*
X15178500Y-7329000D01*
X14520115Y-7329000D01*
X14504876Y-7333475D01*
X14503671Y-7334865D01*
X14502000Y-7342548D01*
X14502000Y-7667924D01*
X14513916Y-7708506D01*
X14524895Y-7725589D01*
X14530000Y-7761090D01*
X14530000Y-7797743D01*
X14530161Y-7802250D01*
X14534740Y-7866269D01*
X14537126Y-7879491D01*
X14575379Y-8009771D01*
X14575379Y-8080767D01*
X14536995Y-8140494D01*
X14473542Y-8169819D01*
X14383726Y-8183563D01*
X14288882Y-8198076D01*
X14145979Y-8244784D01*
X14081325Y-8265916D01*
X14081323Y-8265917D01*
X14076406Y-8267524D01*
X14071820Y-8269911D01*
X14071816Y-8269913D01*
X13882718Y-8368352D01*
X13878125Y-8370743D01*
X13873983Y-8373853D01*
X13712724Y-8494929D01*
X13699365Y-8504959D01*
X13694643Y-8509900D01*
X13694059Y-8510237D01*
X13691925Y-8512131D01*
X13691534Y-8511691D01*
X13633120Y-8545328D01*
X13562207Y-8541870D01*
X13504422Y-8500622D01*
X13478109Y-8434682D01*
X13477552Y-8423055D01*
X13476273Y-7653549D01*
X13476273Y-7647460D01*
X13496275Y-7579339D01*
X13549931Y-7532846D01*
X13620205Y-7522742D01*
X13672734Y-7543003D01*
X13687025Y-7552643D01*
X13850076Y-7640804D01*
X13861381Y-7645556D01*
X13976692Y-7681250D01*
X13990795Y-7681456D01*
X13994000Y-7674701D01*
X13994000Y-6032000D01*
X14014002Y-5963879D01*
X14067658Y-5917386D01*
X14120000Y-5906000D01*
X14802409Y-5906000D01*
X14870530Y-5926002D01*
G37*
G04 #@! TD.AperFunction*
G04 #@! TA.AperFunction,Conductor*
G36*
X21948423Y-1053010D02*
G01*
X21994916Y-1106666D01*
X22005020Y-1176940D01*
X21990716Y-1219709D01*
X21959998Y-1275585D01*
X21955166Y-1286858D01*
X21899120Y-1463538D01*
X21896570Y-1475532D01*
X21880393Y-1619761D01*
X21880000Y-1626785D01*
X21880000Y-1707885D01*
X21884475Y-1723124D01*
X21885865Y-1724329D01*
X21893548Y-1726000D01*
X23016000Y-1726000D01*
X23084121Y-1746002D01*
X23130614Y-1799658D01*
X23142000Y-1852000D01*
X23142000Y-3237924D01*
X23145973Y-3251455D01*
X23153768Y-3252575D01*
X23261521Y-3220862D01*
X23272889Y-3216269D01*
X23437151Y-3130395D01*
X23437666Y-3130058D01*
X23437974Y-3129965D01*
X23442614Y-3127539D01*
X23443075Y-3128421D01*
X23505618Y-3109491D01*
X23573903Y-3128927D01*
X23620839Y-3182195D01*
X23632664Y-3235487D01*
X23632664Y-3685500D01*
X23612662Y-3753621D01*
X23559006Y-3800114D01*
X23506664Y-3811500D01*
X13674358Y-3811500D01*
X13606237Y-3791498D01*
X13557949Y-3733719D01*
X13542941Y-3697486D01*
X13542941Y-3697485D01*
X13541048Y-3692916D01*
X13538463Y-3688697D01*
X13538457Y-3688686D01*
X13494841Y-3617512D01*
X13476273Y-3551677D01*
X13476273Y-3217460D01*
X13496275Y-3149339D01*
X13549931Y-3102846D01*
X13620205Y-3092742D01*
X13672734Y-3113003D01*
X13687025Y-3122643D01*
X13850076Y-3210804D01*
X13861381Y-3215556D01*
X13976692Y-3251250D01*
X13990795Y-3251456D01*
X13994000Y-3244701D01*
X13994000Y-2247548D01*
X14502000Y-2247548D01*
X14502000Y-3237924D01*
X14505973Y-3251455D01*
X14513768Y-3252575D01*
X14621521Y-3220862D01*
X14632889Y-3216269D01*
X14797154Y-3130393D01*
X14807415Y-3123679D01*
X14951873Y-3007532D01*
X14960632Y-2998954D01*
X15079778Y-2856961D01*
X15086708Y-2846841D01*
X15176002Y-2684415D01*
X15180834Y-2673142D01*
X15236880Y-2496462D01*
X15239430Y-2484468D01*
X15255607Y-2340239D01*
X15256000Y-2333215D01*
X15256000Y-2252115D01*
X15254659Y-2247548D01*
X21880000Y-2247548D01*
X21880000Y-2326657D01*
X21880301Y-2332805D01*
X21893812Y-2470603D01*
X21896195Y-2482638D01*
X21949767Y-2660076D01*
X21954441Y-2671416D01*
X22041460Y-2835077D01*
X22048249Y-2845294D01*
X22165397Y-2988933D01*
X22174041Y-2997637D01*
X22316856Y-3115784D01*
X22327027Y-3122644D01*
X22490076Y-3210804D01*
X22501381Y-3215556D01*
X22616692Y-3251250D01*
X22630795Y-3251456D01*
X22634000Y-3244701D01*
X22634000Y-2252115D01*
X22629525Y-2236876D01*
X22628135Y-2235671D01*
X22620452Y-2234000D01*
X21898115Y-2234000D01*
X21882876Y-2238475D01*
X21881671Y-2239865D01*
X21880000Y-2247548D01*
X15254659Y-2247548D01*
X15251525Y-2236876D01*
X15250135Y-2235671D01*
X15242452Y-2234000D01*
X14520115Y-2234000D01*
X14504876Y-2238475D01*
X14503671Y-2239865D01*
X14502000Y-2247548D01*
X13994000Y-2247548D01*
X13994000Y-1852000D01*
X14014002Y-1783879D01*
X14067658Y-1737386D01*
X14120000Y-1726000D01*
X15237885Y-1726000D01*
X15253124Y-1721525D01*
X15254329Y-1720135D01*
X15256000Y-1712452D01*
X15256000Y-1633343D01*
X15255699Y-1627195D01*
X15242188Y-1489397D01*
X15239805Y-1477362D01*
X15186233Y-1299924D01*
X15181559Y-1288584D01*
X15144115Y-1218161D01*
X15129796Y-1148623D01*
X15155344Y-1082383D01*
X15212649Y-1040470D01*
X15255367Y-1033008D01*
X21880302Y-1033008D01*
X21948423Y-1053010D01*
G37*
G04 #@! TD.AperFunction*
G04 #@! TA.AperFunction,Conductor*
G36*
X104328457Y-90342123D02*
G01*
X104374950Y-90395779D01*
X104385054Y-90466052D01*
X104366426Y-90595613D01*
X104366425Y-90595620D01*
X104365787Y-90600061D01*
X104365787Y-92600061D01*
X104371014Y-92673140D01*
X104372918Y-92679623D01*
X104407604Y-92797754D01*
X104412191Y-92813377D01*
X104431923Y-92844080D01*
X104486338Y-92928752D01*
X104486340Y-92928755D01*
X104491210Y-92936332D01*
X104498020Y-92942233D01*
X104594856Y-93026143D01*
X104594859Y-93026145D01*
X104601668Y-93032045D01*
X104609866Y-93035789D01*
X104650251Y-93054232D01*
X104734617Y-93092761D01*
X104743532Y-93094043D01*
X104743533Y-93094043D01*
X104874839Y-93112922D01*
X104874846Y-93112923D01*
X104879287Y-93113561D01*
X105279287Y-93113561D01*
X105352366Y-93108334D01*
X105431167Y-93085196D01*
X105483957Y-93069696D01*
X105483959Y-93069695D01*
X105492603Y-93067157D01*
X105614407Y-92988878D01*
X105682526Y-92968876D01*
X105750647Y-92988878D01*
X105765039Y-92999651D01*
X105795127Y-93025723D01*
X105810135Y-93035368D01*
X105926562Y-93088538D01*
X105943675Y-93093563D01*
X106061358Y-93110483D01*
X106075314Y-93108477D01*
X106079287Y-93094946D01*
X106079287Y-91526061D01*
X106099289Y-91457940D01*
X106152945Y-91411447D01*
X106205287Y-91400061D01*
X106353287Y-91400061D01*
X106421408Y-91420063D01*
X106467901Y-91473719D01*
X106479287Y-91526061D01*
X106479287Y-93094946D01*
X106483671Y-93109875D01*
X106495072Y-93111932D01*
X106545556Y-93108321D01*
X106558778Y-93105935D01*
X106683745Y-93069242D01*
X106699979Y-93061828D01*
X106813584Y-92988819D01*
X106881704Y-92968817D01*
X106949825Y-92988819D01*
X106964214Y-92999591D01*
X107001668Y-93032045D01*
X107009866Y-93035789D01*
X107050251Y-93054232D01*
X107134617Y-93092761D01*
X107143532Y-93094043D01*
X107143533Y-93094043D01*
X107274839Y-93112922D01*
X107274846Y-93112923D01*
X107279287Y-93113561D01*
X107679287Y-93113561D01*
X107752366Y-93108334D01*
X107831167Y-93085196D01*
X107883957Y-93069696D01*
X107883959Y-93069695D01*
X107892603Y-93067157D01*
X107947238Y-93032045D01*
X108007978Y-92993010D01*
X108007981Y-92993008D01*
X108015558Y-92988138D01*
X108021459Y-92981328D01*
X108105369Y-92884492D01*
X108105371Y-92884489D01*
X108111271Y-92877680D01*
X108158136Y-92775061D01*
X108168245Y-92752925D01*
X108168245Y-92752924D01*
X108171987Y-92744731D01*
X108183249Y-92666401D01*
X108192148Y-92604509D01*
X108192149Y-92604502D01*
X108192787Y-92600061D01*
X108192787Y-92417609D01*
X109016287Y-92417609D01*
X109016287Y-92772804D01*
X109016448Y-92777311D01*
X109021027Y-92841330D01*
X109023413Y-92854552D01*
X109060106Y-92979519D01*
X109067520Y-92995753D01*
X109136713Y-93103421D01*
X109148399Y-93116908D01*
X109245127Y-93200723D01*
X109260135Y-93210368D01*
X109376562Y-93263538D01*
X109393675Y-93268563D01*
X109524841Y-93287422D01*
X109533782Y-93288061D01*
X109857172Y-93288061D01*
X109872411Y-93283586D01*
X109873616Y-93282196D01*
X109875287Y-93274513D01*
X109875287Y-92422176D01*
X109870812Y-92406937D01*
X109869422Y-92405732D01*
X109861739Y-92404061D01*
X109034402Y-92404061D01*
X109019163Y-92408536D01*
X109017958Y-92409926D01*
X109016287Y-92417609D01*
X108192787Y-92417609D01*
X108192787Y-91834655D01*
X108212789Y-91766534D01*
X108229692Y-91745560D01*
X108291386Y-91683866D01*
X108303777Y-91672998D01*
X108349895Y-91637611D01*
X108349897Y-91637609D01*
X108355918Y-91632989D01*
X108360665Y-91627064D01*
X108360669Y-91627060D01*
X108367212Y-91618893D01*
X108382466Y-91602945D01*
X108485079Y-91512955D01*
X108498156Y-91502921D01*
X108632500Y-91413156D01*
X108646773Y-91404915D01*
X108791686Y-91333452D01*
X108806912Y-91327145D01*
X108862505Y-91308274D01*
X108933438Y-91305317D01*
X108994711Y-91341181D01*
X109026868Y-91404477D01*
X109027723Y-91445518D01*
X109016926Y-91520613D01*
X109016287Y-91529556D01*
X109016287Y-91877946D01*
X109020762Y-91893185D01*
X109022152Y-91894390D01*
X109029835Y-91896061D01*
X110257287Y-91896061D01*
X110325408Y-91916063D01*
X110371901Y-91969719D01*
X110383287Y-92022061D01*
X110383287Y-93269946D01*
X110387762Y-93285185D01*
X110389152Y-93286390D01*
X110396835Y-93288061D01*
X110727030Y-93288061D01*
X110731537Y-93287900D01*
X110795556Y-93283321D01*
X110808778Y-93280935D01*
X110933745Y-93244242D01*
X110949979Y-93236828D01*
X111057647Y-93167635D01*
X111071134Y-93155949D01*
X111132440Y-93085197D01*
X111192166Y-93046813D01*
X111263163Y-93046813D01*
X111322889Y-93085196D01*
X111333661Y-93099586D01*
X111341210Y-93111332D01*
X111348020Y-93117233D01*
X111444856Y-93201143D01*
X111444859Y-93201145D01*
X111451668Y-93207045D01*
X111459866Y-93210789D01*
X111564227Y-93258449D01*
X111584617Y-93267761D01*
X111593532Y-93269043D01*
X111593533Y-93269043D01*
X111724839Y-93287922D01*
X111724846Y-93287923D01*
X111729287Y-93288561D01*
X112929287Y-93288561D01*
X113002366Y-93283334D01*
X113092270Y-93256936D01*
X113133957Y-93244696D01*
X113133959Y-93244695D01*
X113142603Y-93242157D01*
X113191412Y-93210789D01*
X113257978Y-93168010D01*
X113257981Y-93168008D01*
X113265558Y-93163138D01*
X113293380Y-93131030D01*
X113355369Y-93059492D01*
X113355371Y-93059489D01*
X113361271Y-93052680D01*
X113365015Y-93044483D01*
X113365017Y-93044479D01*
X113393451Y-92982218D01*
X113439944Y-92928563D01*
X113508064Y-92908561D01*
X115516953Y-92908561D01*
X115534489Y-92909787D01*
X115589673Y-92917543D01*
X115589679Y-92917543D01*
X115593582Y-92918092D01*
X115601817Y-92918207D01*
X115611074Y-92918337D01*
X115611080Y-92918337D01*
X115615035Y-92918392D01*
X115634899Y-92916164D01*
X115642759Y-92915531D01*
X115698006Y-92912817D01*
X115883143Y-92903722D01*
X115883148Y-92903722D01*
X115886232Y-92903570D01*
X116154817Y-92863729D01*
X116407325Y-92800479D01*
X116478264Y-92803330D01*
X116536401Y-92844080D01*
X116563552Y-92912817D01*
X116563991Y-92918392D01*
X116571327Y-93011605D01*
X116572481Y-93016412D01*
X116572482Y-93016418D01*
X116593973Y-93105935D01*
X116613161Y-93185858D01*
X116615054Y-93190429D01*
X116615055Y-93190431D01*
X116654304Y-93285185D01*
X116681740Y-93351422D01*
X116775375Y-93504219D01*
X116778588Y-93507980D01*
X116778588Y-93507981D01*
X116859023Y-93602158D01*
X116863962Y-93608322D01*
X116881507Y-93631690D01*
X116890932Y-93641314D01*
X116894173Y-93643856D01*
X116894175Y-93643857D01*
X116948430Y-93686398D01*
X116959779Y-93696457D01*
X116962298Y-93698976D01*
X116973963Y-93712418D01*
X117009302Y-93759485D01*
X117018727Y-93769109D01*
X117022058Y-93771721D01*
X117028266Y-93776918D01*
X117240076Y-93966203D01*
X117242950Y-93968242D01*
X117242956Y-93968247D01*
X117272887Y-93989485D01*
X117316869Y-94045218D01*
X117323737Y-94115881D01*
X117291312Y-94179040D01*
X117229887Y-94214643D01*
X117199974Y-94218245D01*
X102705287Y-94218245D01*
X102637166Y-94198243D01*
X102590673Y-94144587D01*
X102579287Y-94092245D01*
X102579287Y-90448121D01*
X102599289Y-90380000D01*
X102652945Y-90333507D01*
X102705287Y-90322121D01*
X104260336Y-90322121D01*
X104328457Y-90342123D01*
G37*
G04 #@! TD.AperFunction*
G04 #@! TA.AperFunction,Conductor*
G36*
X183071408Y-79978626D02*
G01*
X183117901Y-80032282D01*
X183129287Y-80084624D01*
X183129287Y-85868635D01*
X183109285Y-85936756D01*
X183055629Y-85983249D01*
X182985355Y-85993353D01*
X182935773Y-85975020D01*
X182931907Y-85972566D01*
X182931904Y-85972564D01*
X182925953Y-85968788D01*
X182867043Y-85947811D01*
X182761712Y-85910304D01*
X182761707Y-85910303D01*
X182755077Y-85907942D01*
X182748089Y-85907109D01*
X182748086Y-85907108D01*
X182624985Y-85892429D01*
X182574967Y-85886465D01*
X182566958Y-85887307D01*
X182566317Y-85887190D01*
X182560918Y-85887152D01*
X182560925Y-85886204D01*
X182497121Y-85874536D01*
X182445273Y-85826034D01*
X182427787Y-85761997D01*
X182427787Y-85392358D01*
X182429013Y-85374822D01*
X182436769Y-85319638D01*
X182436769Y-85319632D01*
X182437318Y-85315729D01*
X182437618Y-85294276D01*
X182437177Y-85290342D01*
X182437176Y-85290329D01*
X182435423Y-85274706D01*
X182434907Y-85268897D01*
X182433637Y-85249509D01*
X182428192Y-85166440D01*
X182421722Y-85067713D01*
X182421721Y-85067707D01*
X182421452Y-85063599D01*
X182389979Y-84905372D01*
X182377158Y-84840914D01*
X182377156Y-84840908D01*
X182376353Y-84836869D01*
X182364123Y-84800839D01*
X182303371Y-84621871D01*
X182303371Y-84621870D01*
X182302045Y-84617965D01*
X182238110Y-84488317D01*
X182201627Y-84414337D01*
X182201624Y-84414332D01*
X182199800Y-84410633D01*
X182071368Y-84218421D01*
X182009238Y-84147575D01*
X181955170Y-84085921D01*
X181949276Y-84078675D01*
X181937027Y-84062420D01*
X181937017Y-84062408D01*
X181934643Y-84059258D01*
X181919686Y-84043876D01*
X181856260Y-83993244D01*
X181845774Y-83983867D01*
X181407875Y-83545968D01*
X181396342Y-83532702D01*
X181362808Y-83488200D01*
X181362802Y-83488193D01*
X181360429Y-83485044D01*
X181353984Y-83478416D01*
X181348231Y-83472499D01*
X181348228Y-83472496D01*
X181345472Y-83469662D01*
X181330075Y-83457371D01*
X181325625Y-83453646D01*
X181235261Y-83374399D01*
X181170927Y-83317980D01*
X180978715Y-83189548D01*
X180975016Y-83187724D01*
X180975011Y-83187721D01*
X180839158Y-83120726D01*
X180771383Y-83087303D01*
X180733181Y-83074335D01*
X180556386Y-83014321D01*
X180556383Y-83014320D01*
X180552479Y-83012995D01*
X180548440Y-83012192D01*
X180548434Y-83012190D01*
X180329791Y-82968700D01*
X180325749Y-82967896D01*
X180321643Y-82967627D01*
X180321636Y-82967626D01*
X180149907Y-82956371D01*
X180140613Y-82955415D01*
X180120452Y-82952582D01*
X180120453Y-82952582D01*
X180116525Y-82952030D01*
X180105798Y-82951880D01*
X180099033Y-82951785D01*
X180099027Y-82951785D01*
X180095072Y-82951730D01*
X180019581Y-82960198D01*
X180014427Y-82960776D01*
X180000382Y-82961561D01*
X176181583Y-82961561D01*
X176164047Y-82960335D01*
X176108865Y-82952579D01*
X176108859Y-82952579D01*
X176104956Y-82952030D01*
X176096824Y-82951916D01*
X176087465Y-82951785D01*
X176087459Y-82951785D01*
X176083503Y-82951730D01*
X176063906Y-82953928D01*
X176058119Y-82954441D01*
X175993103Y-82958703D01*
X175856941Y-82967627D01*
X175856937Y-82967628D01*
X175852826Y-82967897D01*
X175848786Y-82968701D01*
X175848783Y-82968701D01*
X175795088Y-82979382D01*
X175626095Y-83012996D01*
X175622191Y-83014321D01*
X175622188Y-83014322D01*
X175445396Y-83074335D01*
X175407191Y-83087304D01*
X175339418Y-83120726D01*
X175203563Y-83187722D01*
X175203558Y-83187725D01*
X175199859Y-83189549D01*
X175007646Y-83317981D01*
X175004541Y-83320704D01*
X174875168Y-83434162D01*
X174867918Y-83440059D01*
X174851645Y-83452321D01*
X174851630Y-83452334D01*
X174848482Y-83454706D01*
X174833101Y-83469663D01*
X174796190Y-83515901D01*
X174782475Y-83533082D01*
X174773098Y-83543569D01*
X172189170Y-86127497D01*
X172126858Y-86161523D01*
X172056043Y-86156458D01*
X171999207Y-86113911D01*
X171974396Y-86047391D01*
X171974075Y-86038402D01*
X171974075Y-85997187D01*
X171969600Y-85981948D01*
X171968210Y-85980743D01*
X171960527Y-85979072D01*
X170483190Y-85979072D01*
X170467951Y-85983547D01*
X170466746Y-85984937D01*
X170465075Y-85992620D01*
X170465075Y-87469957D01*
X170469550Y-87485196D01*
X170470940Y-87486401D01*
X170478623Y-87488072D01*
X170585120Y-87488072D01*
X170653241Y-87508074D01*
X170699734Y-87561730D01*
X170709838Y-87632004D01*
X170689886Y-87684073D01*
X170658775Y-87730633D01*
X170648727Y-87751008D01*
X170644233Y-87760121D01*
X170596164Y-87812370D01*
X170540215Y-87830071D01*
X170516208Y-87831788D01*
X170474846Y-87843933D01*
X170384617Y-87870426D01*
X170384615Y-87870427D01*
X170375971Y-87872965D01*
X170368392Y-87877836D01*
X170260596Y-87947112D01*
X170260593Y-87947114D01*
X170253016Y-87951984D01*
X170247115Y-87958794D01*
X170163205Y-88055630D01*
X170163203Y-88055633D01*
X170157303Y-88062442D01*
X170096587Y-88195391D01*
X170095305Y-88204306D01*
X170095305Y-88204307D01*
X170076426Y-88335613D01*
X170076425Y-88335620D01*
X170075787Y-88340061D01*
X170075787Y-88978690D01*
X170055785Y-89046811D01*
X170038882Y-89067785D01*
X169596536Y-89510131D01*
X169584668Y-89520595D01*
X169529420Y-89563450D01*
X169516279Y-89579448D01*
X169500751Y-89595277D01*
X169394149Y-89686324D01*
X169385200Y-89693967D01*
X169369205Y-89705589D01*
X169220673Y-89796609D01*
X169203055Y-89805585D01*
X169042116Y-89872247D01*
X169023314Y-89878356D01*
X168939083Y-89898579D01*
X168853935Y-89919022D01*
X168834412Y-89922114D01*
X168763230Y-89927717D01*
X168693530Y-89933202D01*
X168675620Y-89932780D01*
X168675620Y-89932787D01*
X168668582Y-89932689D01*
X168661588Y-89931805D01*
X168568218Y-89940960D01*
X168555923Y-89941561D01*
X158289388Y-89941561D01*
X158273597Y-89940568D01*
X158204227Y-89931805D01*
X158197221Y-89932492D01*
X158197215Y-89932492D01*
X158191772Y-89933026D01*
X158163029Y-89932549D01*
X158148735Y-89930667D01*
X158116968Y-89922155D01*
X158090581Y-89911226D01*
X158062087Y-89894774D01*
X158056158Y-89890224D01*
X158042539Y-89878111D01*
X158041533Y-89877077D01*
X158037220Y-89871516D01*
X157964722Y-89811965D01*
X157955604Y-89803697D01*
X157627875Y-89475968D01*
X157616342Y-89462701D01*
X157582817Y-89418211D01*
X157582815Y-89418208D01*
X157580431Y-89415045D01*
X157577678Y-89412214D01*
X157577672Y-89412207D01*
X157568228Y-89402496D01*
X157568227Y-89402495D01*
X157565473Y-89399663D01*
X157550078Y-89387373D01*
X157545610Y-89383634D01*
X157394028Y-89250699D01*
X157394022Y-89250695D01*
X157390928Y-89247981D01*
X157198715Y-89119549D01*
X157195016Y-89117725D01*
X157195011Y-89117722D01*
X157051217Y-89046811D01*
X156991383Y-89017304D01*
X156982333Y-89014232D01*
X156776386Y-88944322D01*
X156776383Y-88944321D01*
X156772479Y-88942996D01*
X156545748Y-88897897D01*
X156541642Y-88897628D01*
X156541635Y-88897627D01*
X156369921Y-88886373D01*
X156360627Y-88885417D01*
X156340452Y-88882582D01*
X156340451Y-88882582D01*
X156336524Y-88882030D01*
X156325798Y-88881880D01*
X156319032Y-88881785D01*
X156319026Y-88881785D01*
X156315071Y-88881730D01*
X156236293Y-88890567D01*
X156234430Y-88890776D01*
X156220384Y-88891561D01*
X151534660Y-88891561D01*
X151466539Y-88871559D01*
X151420046Y-88817903D01*
X151409886Y-88748025D01*
X151426937Y-88626701D01*
X151426937Y-88626696D01*
X151427488Y-88622778D01*
X151427805Y-88600061D01*
X151407586Y-88419806D01*
X151405269Y-88413152D01*
X151350253Y-88255167D01*
X151350251Y-88255164D01*
X151347934Y-88248509D01*
X151344198Y-88242530D01*
X151266835Y-88118722D01*
X151247689Y-88051953D01*
X151247689Y-86789778D01*
X151267691Y-86721657D01*
X151321347Y-86675164D01*
X151338191Y-86668882D01*
X151418859Y-86645196D01*
X151418861Y-86645195D01*
X151427505Y-86642657D01*
X151473722Y-86612955D01*
X151542880Y-86568510D01*
X151542883Y-86568508D01*
X151550460Y-86563638D01*
X151561310Y-86551117D01*
X151640271Y-86459992D01*
X151640273Y-86459989D01*
X151646173Y-86453180D01*
X151655964Y-86431741D01*
X151703147Y-86328425D01*
X151703147Y-86328424D01*
X151706889Y-86320231D01*
X151710798Y-86293043D01*
X151727050Y-86180009D01*
X151727051Y-86180002D01*
X151727689Y-86175561D01*
X151727689Y-85560155D01*
X151747691Y-85492034D01*
X151764594Y-85471060D01*
X152760582Y-84475072D01*
X155447575Y-84475072D01*
X155447575Y-86975072D01*
X155452802Y-87048151D01*
X155493979Y-87188388D01*
X155515916Y-87222522D01*
X155568126Y-87303763D01*
X155568128Y-87303766D01*
X155572998Y-87311343D01*
X155579808Y-87317244D01*
X155676644Y-87401154D01*
X155676647Y-87401156D01*
X155683456Y-87407056D01*
X155691654Y-87410800D01*
X155806451Y-87463226D01*
X155816405Y-87467772D01*
X155825320Y-87469054D01*
X155825321Y-87469054D01*
X155956627Y-87487933D01*
X155956634Y-87487934D01*
X155961075Y-87488572D01*
X156334370Y-87488572D01*
X156402491Y-87508574D01*
X156448984Y-87562230D01*
X156459088Y-87632504D01*
X156452771Y-87657666D01*
X156424866Y-87734336D01*
X156420272Y-87746958D01*
X156397538Y-87926913D01*
X156415238Y-88107433D01*
X156472493Y-88279546D01*
X156476140Y-88285568D01*
X156476141Y-88285570D01*
X156561523Y-88426553D01*
X156566455Y-88434697D01*
X156571344Y-88439760D01*
X156571345Y-88439761D01*
X156629579Y-88500063D01*
X156692457Y-88565175D01*
X156751823Y-88604023D01*
X156831702Y-88656294D01*
X156844234Y-88664495D01*
X156850838Y-88666951D01*
X156850840Y-88666952D01*
X157007633Y-88725263D01*
X157007635Y-88725263D01*
X157014243Y-88727721D01*
X157098070Y-88738906D01*
X157187055Y-88750780D01*
X157187059Y-88750780D01*
X157194036Y-88751711D01*
X157201047Y-88751073D01*
X157201051Y-88751073D01*
X157343534Y-88738105D01*
X157374675Y-88735271D01*
X157381377Y-88733093D01*
X157381379Y-88733093D01*
X157540484Y-88681397D01*
X157540487Y-88681396D01*
X157547183Y-88679220D01*
X157673327Y-88604023D01*
X157696935Y-88589950D01*
X157696937Y-88589949D01*
X157702987Y-88586342D01*
X157834341Y-88461255D01*
X157934718Y-88310175D01*
X157981228Y-88187737D01*
X157996630Y-88147193D01*
X157996631Y-88147191D01*
X157999130Y-88140611D01*
X158002206Y-88118722D01*
X158023823Y-87964912D01*
X158023823Y-87964909D01*
X158024374Y-87960990D01*
X158024691Y-87938273D01*
X158004472Y-87758018D01*
X157968948Y-87656007D01*
X157965435Y-87585099D01*
X158000817Y-87523547D01*
X158063859Y-87490895D01*
X158087940Y-87488572D01*
X158461075Y-87488572D01*
X158534154Y-87483345D01*
X158630989Y-87454912D01*
X158665745Y-87444707D01*
X158665747Y-87444706D01*
X158674391Y-87442168D01*
X158738863Y-87400734D01*
X158789766Y-87368021D01*
X158789769Y-87368019D01*
X158797346Y-87363149D01*
X158809678Y-87348917D01*
X158887157Y-87259503D01*
X158887159Y-87259500D01*
X158893059Y-87252691D01*
X158932863Y-87165533D01*
X158950033Y-87127936D01*
X158950033Y-87127935D01*
X158953775Y-87119742D01*
X158958388Y-87087655D01*
X158973936Y-86979520D01*
X158973937Y-86979513D01*
X158974575Y-86975072D01*
X158974575Y-85992620D01*
X168448075Y-85992620D01*
X168448075Y-86972815D01*
X168448236Y-86977322D01*
X168452815Y-87041341D01*
X168455201Y-87054563D01*
X168491894Y-87179530D01*
X168499308Y-87195764D01*
X168568501Y-87303432D01*
X168580187Y-87316919D01*
X168676915Y-87400734D01*
X168691923Y-87410379D01*
X168808350Y-87463549D01*
X168825463Y-87468574D01*
X168956629Y-87487433D01*
X168965570Y-87488072D01*
X169938960Y-87488072D01*
X169954199Y-87483597D01*
X169955404Y-87482207D01*
X169957075Y-87474524D01*
X169957075Y-85997187D01*
X169952600Y-85981948D01*
X169951210Y-85980743D01*
X169943527Y-85979072D01*
X168466190Y-85979072D01*
X168450951Y-85983547D01*
X168449746Y-85984937D01*
X168448075Y-85992620D01*
X158974575Y-85992620D01*
X158974575Y-84479567D01*
X168448075Y-84479567D01*
X168448075Y-85452957D01*
X168452550Y-85468196D01*
X168453940Y-85469401D01*
X168461623Y-85471072D01*
X169938960Y-85471072D01*
X169954199Y-85466597D01*
X169955404Y-85465207D01*
X169957075Y-85457524D01*
X169957075Y-83980187D01*
X169955734Y-83975620D01*
X170465075Y-83975620D01*
X170465075Y-85452957D01*
X170469550Y-85468196D01*
X170470940Y-85469401D01*
X170478623Y-85471072D01*
X171955960Y-85471072D01*
X171971199Y-85466597D01*
X171972404Y-85465207D01*
X171974075Y-85457524D01*
X171974075Y-84477329D01*
X171973914Y-84472822D01*
X171969335Y-84408803D01*
X171966949Y-84395581D01*
X171930256Y-84270614D01*
X171922842Y-84254380D01*
X171853649Y-84146712D01*
X171841963Y-84133225D01*
X171745235Y-84049410D01*
X171730227Y-84039765D01*
X171613800Y-83986595D01*
X171596687Y-83981570D01*
X171465521Y-83962711D01*
X171456580Y-83962072D01*
X170483190Y-83962072D01*
X170467951Y-83966547D01*
X170466746Y-83967937D01*
X170465075Y-83975620D01*
X169955734Y-83975620D01*
X169952600Y-83964948D01*
X169951210Y-83963743D01*
X169943527Y-83962072D01*
X168963332Y-83962072D01*
X168958825Y-83962233D01*
X168894806Y-83966812D01*
X168881584Y-83969198D01*
X168756617Y-84005891D01*
X168740383Y-84013305D01*
X168632715Y-84082498D01*
X168619228Y-84094184D01*
X168535413Y-84190912D01*
X168525768Y-84205920D01*
X168472598Y-84322347D01*
X168467573Y-84339460D01*
X168448714Y-84470626D01*
X168448075Y-84479567D01*
X158974575Y-84479567D01*
X158974575Y-84475072D01*
X158969348Y-84401993D01*
X158928171Y-84261756D01*
X158876658Y-84181601D01*
X158854024Y-84146381D01*
X158854022Y-84146378D01*
X158849152Y-84138801D01*
X158797662Y-84094184D01*
X158745506Y-84048990D01*
X158745503Y-84048988D01*
X158738694Y-84043088D01*
X158669861Y-84011653D01*
X158613939Y-83986114D01*
X158613938Y-83986114D01*
X158605745Y-83982372D01*
X158596830Y-83981090D01*
X158596829Y-83981090D01*
X158465523Y-83962211D01*
X158465516Y-83962210D01*
X158461075Y-83961572D01*
X155961075Y-83961572D01*
X155887996Y-83966799D01*
X155822215Y-83986114D01*
X155756405Y-84005437D01*
X155756403Y-84005438D01*
X155747759Y-84007976D01*
X155740180Y-84012847D01*
X155632384Y-84082123D01*
X155632381Y-84082125D01*
X155624804Y-84086995D01*
X155618903Y-84093805D01*
X155534993Y-84190641D01*
X155534991Y-84190644D01*
X155529091Y-84197453D01*
X155525347Y-84205651D01*
X155478428Y-84308390D01*
X155468375Y-84330402D01*
X155467093Y-84339317D01*
X155467093Y-84339318D01*
X155448214Y-84470624D01*
X155448214Y-84470626D01*
X155447575Y-84475072D01*
X152760582Y-84475072D01*
X154274094Y-82961561D01*
X156814335Y-80421320D01*
X156826726Y-80410453D01*
X156872829Y-80375077D01*
X156872830Y-80375076D01*
X156878856Y-80370452D01*
X156890148Y-80356356D01*
X156905405Y-80340406D01*
X157008015Y-80250420D01*
X157021090Y-80240387D01*
X157155437Y-80150619D01*
X157169711Y-80142378D01*
X157314625Y-80070915D01*
X157329851Y-80064608D01*
X157482856Y-80012670D01*
X157498766Y-80008407D01*
X157583773Y-79991498D01*
X157657244Y-79976884D01*
X157673585Y-79974733D01*
X157802575Y-79966279D01*
X157827253Y-79967086D01*
X157828047Y-79967190D01*
X157836318Y-79968279D01*
X157916876Y-79959385D01*
X157930703Y-79958624D01*
X183003287Y-79958624D01*
X183071408Y-79978626D01*
G37*
G04 #@! TD.AperFunction*
G04 #@! TA.AperFunction,Conductor*
G36*
X111568299Y-83869276D02*
G01*
X111614792Y-83922932D01*
X111625857Y-83966285D01*
X111631446Y-84044422D01*
X111635239Y-84061858D01*
X111679967Y-84181780D01*
X111688516Y-84197436D01*
X111767922Y-84303510D01*
X111773804Y-84310298D01*
X112108532Y-84645026D01*
X112122476Y-84652640D01*
X112124311Y-84652509D01*
X112130924Y-84648259D01*
X112597582Y-84181601D01*
X112659894Y-84147575D01*
X112730709Y-84152640D01*
X112775772Y-84181601D01*
X113396612Y-84802441D01*
X113451982Y-84850420D01*
X113506322Y-84880092D01*
X113513259Y-84883880D01*
X113541968Y-84905372D01*
X117989624Y-89353028D01*
X118023650Y-89415340D01*
X118018585Y-89486155D01*
X117989624Y-89531218D01*
X117701172Y-89819670D01*
X117638860Y-89853696D01*
X117568045Y-89848631D01*
X117511209Y-89806084D01*
X117486398Y-89739565D01*
X117482652Y-89687193D01*
X117482291Y-89682151D01*
X117497382Y-89612778D01*
X117518429Y-89584662D01*
X117526220Y-89570394D01*
X117526089Y-89568559D01*
X117521837Y-89561943D01*
X117518170Y-89558276D01*
X117514865Y-89555199D01*
X117466352Y-89513162D01*
X117455333Y-89505512D01*
X117444059Y-89499356D01*
X117403575Y-89464277D01*
X117340145Y-89379544D01*
X116951237Y-88990636D01*
X116895867Y-88942657D01*
X116877653Y-88932711D01*
X116837172Y-88897634D01*
X116832039Y-88890776D01*
X116774459Y-88813859D01*
X116385551Y-88424951D01*
X116330181Y-88376972D01*
X116324261Y-88373739D01*
X116324256Y-88373736D01*
X116311971Y-88367028D01*
X116271489Y-88331950D01*
X116211472Y-88251777D01*
X116211471Y-88251776D01*
X116208774Y-88248173D01*
X115819866Y-87859265D01*
X115764496Y-87811286D01*
X115746282Y-87801340D01*
X115705801Y-87766263D01*
X115704869Y-87765017D01*
X115643088Y-87682488D01*
X115254180Y-87293580D01*
X115198810Y-87245601D01*
X115192890Y-87242368D01*
X115192885Y-87242365D01*
X115180600Y-87235657D01*
X115140118Y-87200579D01*
X115080101Y-87120406D01*
X115080100Y-87120405D01*
X115077403Y-87116802D01*
X114688495Y-86727894D01*
X114633125Y-86679915D01*
X114614913Y-86669971D01*
X114574432Y-86634893D01*
X114572604Y-86632450D01*
X114553960Y-86607545D01*
X114514416Y-86554720D01*
X114514410Y-86554713D01*
X114511718Y-86551117D01*
X114122810Y-86162209D01*
X114067440Y-86114230D01*
X114049226Y-86104284D01*
X114008745Y-86069207D01*
X114006765Y-86066561D01*
X113946032Y-85985432D01*
X113557124Y-85596524D01*
X113555430Y-85595056D01*
X113555417Y-85595044D01*
X113533492Y-85576046D01*
X113495109Y-85516319D01*
X113495110Y-85445323D01*
X113533495Y-85385597D01*
X113540499Y-85379953D01*
X113553173Y-85370466D01*
X113558967Y-85365445D01*
X113566422Y-85351792D01*
X113566291Y-85349959D01*
X113562040Y-85343344D01*
X112870961Y-84652265D01*
X112857017Y-84644651D01*
X112855184Y-84644782D01*
X112848569Y-84649033D01*
X112493366Y-85004236D01*
X112485752Y-85018180D01*
X112485883Y-85020013D01*
X112490134Y-85026628D01*
X112829678Y-85366172D01*
X112832983Y-85369249D01*
X112854582Y-85387965D01*
X112892966Y-85447691D01*
X112892966Y-85518688D01*
X112854583Y-85578414D01*
X112847588Y-85584051D01*
X112830926Y-85596524D01*
X111770266Y-86657184D01*
X111722287Y-86712554D01*
X111652241Y-86840833D01*
X111632138Y-86933246D01*
X111598115Y-86995554D01*
X111556115Y-87023326D01*
X111556048Y-87023353D01*
X111525400Y-87031408D01*
X111483943Y-87036866D01*
X111466185Y-87037936D01*
X111462551Y-87037898D01*
X111455018Y-87036906D01*
X111374460Y-87045800D01*
X111360633Y-87046561D01*
X108193287Y-87046561D01*
X108125166Y-87026559D01*
X108078673Y-86972903D01*
X108067287Y-86920561D01*
X108067287Y-86822176D01*
X108062812Y-86806937D01*
X108061422Y-86805732D01*
X108053739Y-86804061D01*
X105809402Y-86804061D01*
X105794163Y-86808536D01*
X105792958Y-86809926D01*
X105791287Y-86817609D01*
X105791287Y-86920561D01*
X105771285Y-86988682D01*
X105717629Y-87035175D01*
X105665287Y-87046561D01*
X102716626Y-87046561D01*
X102649111Y-87026946D01*
X102637772Y-87019750D01*
X102590974Y-86966361D01*
X102579287Y-86913365D01*
X102579287Y-85234561D01*
X102599289Y-85166440D01*
X102652945Y-85119947D01*
X102705287Y-85108561D01*
X105733161Y-85108561D01*
X105801282Y-85128563D01*
X105839159Y-85166440D01*
X105911338Y-85278752D01*
X105911340Y-85278755D01*
X105916210Y-85286332D01*
X105923021Y-85292234D01*
X105923023Y-85292236D01*
X105994107Y-85353831D01*
X106032491Y-85413557D01*
X106032491Y-85484553D01*
X105994107Y-85544279D01*
X105979713Y-85555054D01*
X105975928Y-85557487D01*
X105962440Y-85569173D01*
X105878625Y-85665901D01*
X105868980Y-85680909D01*
X105815810Y-85797336D01*
X105810785Y-85814449D01*
X105791926Y-85945615D01*
X105791287Y-85954556D01*
X105791287Y-86277946D01*
X105795762Y-86293185D01*
X105797152Y-86294390D01*
X105804835Y-86296061D01*
X108049172Y-86296061D01*
X108064411Y-86291586D01*
X108065616Y-86290196D01*
X108067287Y-86282513D01*
X108067287Y-85952318D01*
X108067126Y-85947811D01*
X108062547Y-85883792D01*
X108060161Y-85870570D01*
X108023468Y-85745603D01*
X108016054Y-85729369D01*
X107946861Y-85621701D01*
X107935175Y-85608214D01*
X107864423Y-85546908D01*
X107826039Y-85487182D01*
X107826039Y-85416185D01*
X107864422Y-85356459D01*
X107878812Y-85345687D01*
X107890558Y-85338138D01*
X107898978Y-85328421D01*
X107980369Y-85234492D01*
X107980371Y-85234489D01*
X107986271Y-85227680D01*
X108009144Y-85177595D01*
X108055637Y-85123939D01*
X108115518Y-85104207D01*
X108130599Y-85103219D01*
X108141633Y-85102496D01*
X108141637Y-85102496D01*
X108145749Y-85102226D01*
X108149789Y-85101422D01*
X108149792Y-85101422D01*
X108368434Y-85057932D01*
X108368440Y-85057930D01*
X108372479Y-85057127D01*
X108376383Y-85055802D01*
X108376386Y-85055801D01*
X108587477Y-84984145D01*
X108587478Y-84984145D01*
X108591383Y-84982819D01*
X108748927Y-84905127D01*
X108795011Y-84882401D01*
X108795016Y-84882398D01*
X108798715Y-84880574D01*
X108990927Y-84752142D01*
X109078246Y-84675566D01*
X109123427Y-84635944D01*
X109130673Y-84630050D01*
X109146928Y-84617801D01*
X109146940Y-84617791D01*
X109150090Y-84615417D01*
X109165472Y-84600460D01*
X109216104Y-84537034D01*
X109225481Y-84526548D01*
X109764218Y-83987811D01*
X109776090Y-83977344D01*
X109782713Y-83972207D01*
X109848799Y-83946262D01*
X109905139Y-83955652D01*
X109905402Y-83954842D01*
X109910800Y-83956596D01*
X109911178Y-83956659D01*
X109911676Y-83956881D01*
X109911679Y-83956882D01*
X109917712Y-83959568D01*
X109951731Y-83966799D01*
X110098056Y-83997902D01*
X110098061Y-83997902D01*
X110104513Y-83999274D01*
X110295487Y-83999274D01*
X110301939Y-83997902D01*
X110301944Y-83997902D01*
X110398659Y-83977344D01*
X110482288Y-83959568D01*
X110488822Y-83956659D01*
X110650722Y-83884577D01*
X110650724Y-83884576D01*
X110656752Y-83881892D01*
X110662091Y-83878013D01*
X110662098Y-83878009D01*
X110668528Y-83873337D01*
X110742587Y-83849274D01*
X111500178Y-83849274D01*
X111568299Y-83869276D01*
G37*
G04 #@! TD.AperFunction*
G04 #@! TA.AperFunction,Conductor*
G36*
X180814213Y-85114277D02*
G01*
X180816342Y-85112206D01*
X180821251Y-85117254D01*
X180825569Y-85122821D01*
X180831013Y-85127293D01*
X180835239Y-85130764D01*
X180855229Y-85151429D01*
X180864006Y-85162868D01*
X180880447Y-85191344D01*
X180891383Y-85217743D01*
X180899894Y-85249509D01*
X180900868Y-85256907D01*
X180901934Y-85275113D01*
X180901914Y-85276556D01*
X180901031Y-85283546D01*
X180901718Y-85290553D01*
X180901718Y-85290556D01*
X180910186Y-85376916D01*
X180910787Y-85389211D01*
X180910787Y-89159968D01*
X180909793Y-89175760D01*
X180901031Y-89245120D01*
X180901719Y-89252136D01*
X180902252Y-89257575D01*
X180901776Y-89286315D01*
X180899893Y-89300620D01*
X180891380Y-89332386D01*
X180880451Y-89358770D01*
X180864012Y-89387246D01*
X180859461Y-89393178D01*
X180847334Y-89406813D01*
X180846309Y-89407810D01*
X180840741Y-89412129D01*
X180788303Y-89475968D01*
X180781191Y-89484626D01*
X180772922Y-89493745D01*
X180653643Y-89613024D01*
X180641775Y-89623488D01*
X180592094Y-89662024D01*
X180592090Y-89662028D01*
X180586527Y-89666343D01*
X180582055Y-89671787D01*
X180578584Y-89676013D01*
X180557919Y-89696003D01*
X180546480Y-89704780D01*
X180518002Y-89721222D01*
X180503824Y-89727095D01*
X180433236Y-89734687D01*
X180369748Y-89702909D01*
X180355845Y-89686324D01*
X180355262Y-89686773D01*
X180352109Y-89682678D01*
X180349301Y-89678338D01*
X180198957Y-89513112D01*
X180194906Y-89509913D01*
X180194902Y-89509909D01*
X180027701Y-89377861D01*
X180027697Y-89377859D01*
X180023646Y-89374659D01*
X179982340Y-89351857D01*
X179932371Y-89301425D01*
X179917599Y-89231982D01*
X179942715Y-89165577D01*
X179970067Y-89138970D01*
X180013890Y-89107711D01*
X180149147Y-89011234D01*
X180153541Y-89006856D01*
X180254391Y-88906357D01*
X180307383Y-88853550D01*
X180327150Y-88826042D01*
X180434722Y-88676338D01*
X180437740Y-88672138D01*
X180441518Y-88664495D01*
X180534423Y-88476514D01*
X180534424Y-88476512D01*
X180536717Y-88471872D01*
X180584061Y-88316046D01*
X180600152Y-88263084D01*
X180600152Y-88263082D01*
X180601657Y-88258130D01*
X180630816Y-88036651D01*
X180630898Y-88033301D01*
X180632361Y-87973426D01*
X180632361Y-87973422D01*
X180632443Y-87970061D01*
X180614139Y-87747422D01*
X180559718Y-87530763D01*
X180470641Y-87325901D01*
X180398630Y-87214589D01*
X180352109Y-87142678D01*
X180352107Y-87142675D01*
X180349301Y-87138338D01*
X180198957Y-86973112D01*
X180194906Y-86969913D01*
X180194902Y-86969909D01*
X180027701Y-86837861D01*
X180027697Y-86837859D01*
X180023646Y-86834659D01*
X180014618Y-86829675D01*
X179986546Y-86814179D01*
X179981856Y-86811590D01*
X179931885Y-86761158D01*
X179917113Y-86691715D01*
X179942229Y-86625309D01*
X179969581Y-86598702D01*
X180144615Y-86473853D01*
X180152487Y-86467200D01*
X180303339Y-86316873D01*
X180310017Y-86309026D01*
X180434290Y-86136081D01*
X180439600Y-86127244D01*
X180533957Y-85936328D01*
X180537757Y-85926730D01*
X180599664Y-85722971D01*
X180601842Y-85712898D01*
X180603273Y-85702023D01*
X180601062Y-85687839D01*
X180587904Y-85684061D01*
X179141287Y-85684061D01*
X179073166Y-85664059D01*
X179026673Y-85610403D01*
X179015287Y-85558061D01*
X179015287Y-85302061D01*
X179035289Y-85233940D01*
X179088945Y-85187447D01*
X179141287Y-85176061D01*
X180587631Y-85176061D01*
X180602870Y-85171586D01*
X180605245Y-85168845D01*
X180629459Y-85115824D01*
X180689185Y-85077441D01*
X180760182Y-85077441D01*
X180814213Y-85114277D01*
G37*
G04 #@! TD.AperFunction*
G04 #@! TA.AperFunction,Conductor*
G36*
X131596507Y-87607607D02*
G01*
X131610899Y-87618381D01*
X131619856Y-87626143D01*
X131619859Y-87626145D01*
X131626668Y-87632045D01*
X131634866Y-87635789D01*
X131759617Y-87692761D01*
X131758659Y-87694859D01*
X131807739Y-87726398D01*
X131829243Y-87764515D01*
X131829631Y-87764338D01*
X131831732Y-87768926D01*
X131832384Y-87770082D01*
X131834936Y-87777960D01*
X131838732Y-87784216D01*
X131841238Y-87789689D01*
X131843957Y-87795119D01*
X131846454Y-87801998D01*
X131850467Y-87808118D01*
X131850467Y-87808119D01*
X131886473Y-87863037D01*
X131888810Y-87866741D01*
X131926692Y-87929168D01*
X131930408Y-87933376D01*
X131930409Y-87933377D01*
X131934090Y-87937545D01*
X131934063Y-87937569D01*
X131936716Y-87940561D01*
X131939419Y-87943794D01*
X131943431Y-87949913D01*
X131948743Y-87954945D01*
X131999670Y-88003189D01*
X132002112Y-88005567D01*
X133398011Y-89401466D01*
X133432037Y-89463778D01*
X133426972Y-89534593D01*
X133384425Y-89591429D01*
X133317905Y-89616240D01*
X133308916Y-89616561D01*
X125734915Y-89616561D01*
X125666794Y-89596559D01*
X125620301Y-89542903D01*
X125610197Y-89472629D01*
X125639691Y-89408049D01*
X125645820Y-89401466D01*
X125966848Y-89080438D01*
X126014827Y-89025068D01*
X126024773Y-89006854D01*
X126059850Y-88966373D01*
X126085328Y-88947301D01*
X126143625Y-88903660D01*
X126362030Y-88685255D01*
X126424342Y-88651229D01*
X126495157Y-88656294D01*
X126504997Y-88660447D01*
X126529716Y-88672138D01*
X126749909Y-88776281D01*
X126877735Y-88822018D01*
X127002653Y-88866715D01*
X127002662Y-88866718D01*
X127005561Y-88867755D01*
X127008557Y-88868505D01*
X127008562Y-88868507D01*
X127171142Y-88909231D01*
X127268948Y-88933730D01*
X127537534Y-88973571D01*
X127540620Y-88973723D01*
X127540624Y-88973723D01*
X127756940Y-88984350D01*
X127768291Y-88985424D01*
X127780855Y-88987189D01*
X127787278Y-88988092D01*
X127795735Y-88988210D01*
X127804770Y-88988337D01*
X127804776Y-88988337D01*
X127808731Y-88988392D01*
X127889376Y-88979346D01*
X127903421Y-88978561D01*
X129346991Y-88978561D01*
X129364527Y-88979787D01*
X129419709Y-88987543D01*
X129419715Y-88987543D01*
X129423618Y-88988092D01*
X129431750Y-88988206D01*
X129441109Y-88988337D01*
X129441115Y-88988337D01*
X129445071Y-88988392D01*
X129464668Y-88986194D01*
X129470455Y-88985681D01*
X129535471Y-88981419D01*
X129671633Y-88972495D01*
X129671637Y-88972494D01*
X129675748Y-88972225D01*
X129679788Y-88971421D01*
X129679791Y-88971421D01*
X129733486Y-88960740D01*
X129902479Y-88927126D01*
X129906383Y-88925801D01*
X129906386Y-88925800D01*
X130117477Y-88854144D01*
X130117478Y-88854144D01*
X130121383Y-88852818D01*
X130253287Y-88787770D01*
X130325011Y-88752400D01*
X130325016Y-88752397D01*
X130328715Y-88750573D01*
X130520928Y-88622141D01*
X130527692Y-88616209D01*
X130653406Y-88505960D01*
X130660656Y-88500063D01*
X130676929Y-88487801D01*
X130676944Y-88487788D01*
X130680092Y-88485416D01*
X130695473Y-88470459D01*
X130697935Y-88467375D01*
X130697944Y-88467365D01*
X130720377Y-88439263D01*
X130743020Y-88417243D01*
X130761139Y-88403590D01*
X130761146Y-88403584D01*
X130764303Y-88401205D01*
X130779685Y-88386247D01*
X130791975Y-88370852D01*
X130795714Y-88366384D01*
X130928649Y-88214802D01*
X130928653Y-88214796D01*
X130931367Y-88211702D01*
X131059799Y-88019489D01*
X131067838Y-88003189D01*
X131160222Y-87815852D01*
X131160223Y-87815850D01*
X131162044Y-87812157D01*
X131172925Y-87780103D01*
X131213762Y-87722027D01*
X131256740Y-87699709D01*
X131358957Y-87669696D01*
X131358959Y-87669695D01*
X131367603Y-87667157D01*
X131375181Y-87662287D01*
X131375183Y-87662286D01*
X131460265Y-87607607D01*
X131528386Y-87587605D01*
X131596507Y-87607607D01*
G37*
G04 #@! TD.AperFunction*
G04 #@! TA.AperFunction,Conductor*
G36*
X144017586Y-79528616D02*
G01*
X144064079Y-79582272D01*
X144074183Y-79652546D01*
X144056898Y-79700447D01*
X143938952Y-79892916D01*
X143937060Y-79897484D01*
X143937058Y-79897488D01*
X143841367Y-80128507D01*
X143839473Y-80133080D01*
X143835257Y-80150641D01*
X143782486Y-80370452D01*
X143778789Y-80385850D01*
X143758393Y-80645000D01*
X143778789Y-80904150D01*
X143779943Y-80908957D01*
X143779944Y-80908963D01*
X143803341Y-81006418D01*
X143839473Y-81156920D01*
X143841366Y-81161491D01*
X143841367Y-81161493D01*
X143934833Y-81387139D01*
X143938952Y-81397084D01*
X144074777Y-81618729D01*
X144077994Y-81622496D01*
X144077995Y-81622497D01*
X144190878Y-81754666D01*
X144243602Y-81816398D01*
X144441271Y-81985223D01*
X144662916Y-82121048D01*
X144667486Y-82122941D01*
X144667488Y-82122942D01*
X144880734Y-82211271D01*
X144903080Y-82220527D01*
X144956584Y-82233372D01*
X145151037Y-82280056D01*
X145151043Y-82280057D01*
X145155850Y-82281211D01*
X145415000Y-82301607D01*
X145674150Y-82281211D01*
X145678957Y-82280057D01*
X145678963Y-82280056D01*
X145873416Y-82233372D01*
X145926920Y-82220527D01*
X145949266Y-82211271D01*
X146162512Y-82122942D01*
X146162514Y-82122941D01*
X146167084Y-82121048D01*
X146388729Y-81985223D01*
X146586398Y-81816398D01*
X146639122Y-81754666D01*
X146752005Y-81622497D01*
X146752006Y-81622496D01*
X146755223Y-81618729D01*
X146891048Y-81397084D01*
X146907949Y-81356281D01*
X146952498Y-81301001D01*
X147024358Y-81278500D01*
X147916871Y-81278500D01*
X147933317Y-81279578D01*
X147990934Y-81287164D01*
X147990939Y-81287164D01*
X147998466Y-81288155D01*
X148006012Y-81287322D01*
X148006020Y-81287322D01*
X148016417Y-81286174D01*
X148038481Y-81285683D01*
X148174670Y-81294609D01*
X148191010Y-81296760D01*
X148243356Y-81307172D01*
X148349488Y-81328283D01*
X148365398Y-81332546D01*
X148513171Y-81382708D01*
X148518403Y-81384484D01*
X148533629Y-81390791D01*
X148678542Y-81462254D01*
X148692816Y-81470495D01*
X148827164Y-81560263D01*
X148840239Y-81570296D01*
X148912184Y-81633389D01*
X148937424Y-81655524D01*
X148954310Y-81673553D01*
X148959873Y-81680803D01*
X148965797Y-81685549D01*
X148965800Y-81685552D01*
X149023129Y-81731480D01*
X149033444Y-81740720D01*
X149463784Y-82171060D01*
X149497810Y-82233372D01*
X149500689Y-82260155D01*
X149500689Y-82875561D01*
X149505916Y-82948640D01*
X149525031Y-83013739D01*
X149540256Y-83065591D01*
X149547093Y-83088877D01*
X149551964Y-83096456D01*
X149621240Y-83204252D01*
X149621242Y-83204255D01*
X149626112Y-83211832D01*
X149632922Y-83217733D01*
X149729758Y-83301643D01*
X149729761Y-83301645D01*
X149736570Y-83307545D01*
X149744768Y-83311289D01*
X149858606Y-83363277D01*
X149869519Y-83368261D01*
X149878434Y-83369543D01*
X149878435Y-83369543D01*
X150009741Y-83388422D01*
X150009748Y-83388423D01*
X150014189Y-83389061D01*
X151214189Y-83389061D01*
X151287268Y-83383834D01*
X151365354Y-83360906D01*
X151418859Y-83345196D01*
X151418861Y-83345195D01*
X151427505Y-83342657D01*
X151491324Y-83301643D01*
X151542880Y-83268510D01*
X151542883Y-83268508D01*
X151550460Y-83263638D01*
X151566648Y-83244956D01*
X151640271Y-83159992D01*
X151640273Y-83159989D01*
X151646173Y-83153180D01*
X151651668Y-83141148D01*
X151703147Y-83028425D01*
X151703147Y-83028424D01*
X151706889Y-83020231D01*
X151714298Y-82968700D01*
X151727050Y-82880009D01*
X151727051Y-82880002D01*
X151727689Y-82875561D01*
X151727689Y-81975561D01*
X151722462Y-81902482D01*
X151681285Y-81762245D01*
X151648699Y-81711540D01*
X151607138Y-81646870D01*
X151607136Y-81646867D01*
X151602266Y-81639290D01*
X151582886Y-81622497D01*
X151498620Y-81549479D01*
X151498617Y-81549477D01*
X151491808Y-81543577D01*
X151483610Y-81539833D01*
X151367053Y-81486603D01*
X151367052Y-81486603D01*
X151358859Y-81482861D01*
X151349944Y-81481579D01*
X151349943Y-81481579D01*
X151218637Y-81462700D01*
X151218630Y-81462699D01*
X151214189Y-81462061D01*
X150598784Y-81462061D01*
X150530663Y-81442059D01*
X150509688Y-81425156D01*
X150232533Y-81148000D01*
X149930640Y-80846107D01*
X149918976Y-80832665D01*
X149901071Y-80808818D01*
X149883643Y-80785606D01*
X149874218Y-80775982D01*
X149870887Y-80773370D01*
X149864679Y-80768173D01*
X149652869Y-80578888D01*
X149411178Y-80407399D01*
X149208110Y-80295167D01*
X149154902Y-80265760D01*
X149154901Y-80265759D01*
X149151806Y-80264049D01*
X149148543Y-80262697D01*
X149148538Y-80262695D01*
X148881284Y-80151995D01*
X148881283Y-80151995D01*
X148878015Y-80150641D01*
X148593247Y-80068601D01*
X148301084Y-80018960D01*
X148189110Y-80012672D01*
X148037374Y-80004151D01*
X148026689Y-80003092D01*
X148024034Y-80002714D01*
X148022760Y-80002533D01*
X148022759Y-80002533D01*
X148018671Y-80001951D01*
X148011160Y-80001872D01*
X148009322Y-80001853D01*
X148009320Y-80001853D01*
X148005201Y-80001810D01*
X148001113Y-80002305D01*
X148001108Y-80002305D01*
X147932672Y-80010587D01*
X147917535Y-80011500D01*
X147024358Y-80011500D01*
X146956237Y-79991498D01*
X146907949Y-79933719D01*
X146904479Y-79925342D01*
X146891048Y-79892916D01*
X146773103Y-79700448D01*
X146754564Y-79631916D01*
X146776020Y-79564239D01*
X146830659Y-79518906D01*
X146880535Y-79508614D01*
X155631042Y-79508614D01*
X155699163Y-79528616D01*
X155745656Y-79582272D01*
X155755760Y-79652546D01*
X155726266Y-79717126D01*
X155720138Y-79723708D01*
X153217039Y-82226806D01*
X150718689Y-84725156D01*
X150656377Y-84759182D01*
X150629594Y-84762061D01*
X150014189Y-84762061D01*
X149941110Y-84767288D01*
X149863024Y-84790216D01*
X149809519Y-84805926D01*
X149809517Y-84805927D01*
X149800873Y-84808465D01*
X149793294Y-84813336D01*
X149685498Y-84882612D01*
X149685495Y-84882614D01*
X149677918Y-84887484D01*
X149672017Y-84894294D01*
X149588107Y-84991130D01*
X149588105Y-84991133D01*
X149582205Y-84997942D01*
X149578461Y-85006140D01*
X149539788Y-85090823D01*
X149521489Y-85130891D01*
X149520207Y-85139806D01*
X149520207Y-85139807D01*
X149501328Y-85271113D01*
X149501327Y-85271120D01*
X149500689Y-85275561D01*
X149500689Y-85280055D01*
X149500368Y-85284547D01*
X149499202Y-85284464D01*
X149480687Y-85347519D01*
X149427031Y-85394012D01*
X149356757Y-85404116D01*
X149292177Y-85374622D01*
X149252485Y-85310094D01*
X149247544Y-85290423D01*
X149247544Y-85290422D01*
X149246285Y-85285411D01*
X149176076Y-85123939D01*
X149159210Y-85085150D01*
X149159208Y-85085147D01*
X149157150Y-85080413D01*
X149035730Y-84892726D01*
X148885286Y-84727390D01*
X148881235Y-84724191D01*
X148881231Y-84724187D01*
X148713914Y-84592048D01*
X148713910Y-84592046D01*
X148709859Y-84588846D01*
X148677066Y-84570743D01*
X148618268Y-84538285D01*
X148514159Y-84480814D01*
X148315973Y-84410633D01*
X148308315Y-84407921D01*
X148308312Y-84407920D01*
X148303443Y-84406196D01*
X148298354Y-84405289D01*
X148298352Y-84405289D01*
X148088458Y-84367901D01*
X148088452Y-84367900D01*
X148083369Y-84366995D01*
X147997707Y-84365948D01*
X147865017Y-84364327D01*
X147865015Y-84364327D01*
X147859848Y-84364264D01*
X147638882Y-84398076D01*
X147513036Y-84439209D01*
X147431325Y-84465916D01*
X147431323Y-84465917D01*
X147426406Y-84467524D01*
X147421820Y-84469911D01*
X147421816Y-84469913D01*
X147263709Y-84552219D01*
X147228125Y-84570743D01*
X147223983Y-84573853D01*
X147105327Y-84662942D01*
X147049365Y-84704959D01*
X146894927Y-84866570D01*
X146892013Y-84870842D01*
X146892012Y-84870843D01*
X146876015Y-84894294D01*
X146768958Y-85051234D01*
X146740656Y-85112206D01*
X146690270Y-85220753D01*
X146674840Y-85253993D01*
X146615102Y-85469401D01*
X146591348Y-85691673D01*
X146591645Y-85696825D01*
X146591645Y-85696829D01*
X146598427Y-85814449D01*
X146604216Y-85914840D01*
X146605353Y-85919886D01*
X146605354Y-85919892D01*
X146625240Y-86008132D01*
X146653360Y-86132909D01*
X146697617Y-86241901D01*
X146734641Y-86333081D01*
X146737460Y-86340024D01*
X146740165Y-86344439D01*
X146740166Y-86344440D01*
X146762099Y-86380231D01*
X146854259Y-86530621D01*
X147000618Y-86699583D01*
X147004593Y-86702883D01*
X147004596Y-86702886D01*
X147033279Y-86726699D01*
X147172608Y-86842372D01*
X147365610Y-86955153D01*
X147370430Y-86956993D01*
X147370435Y-86956996D01*
X147508597Y-87009754D01*
X147574440Y-87034897D01*
X147579508Y-87035928D01*
X147579511Y-87035929D01*
X147639584Y-87048151D01*
X147793490Y-87079464D01*
X147798663Y-87079654D01*
X147798666Y-87079654D01*
X148011714Y-87087466D01*
X148011718Y-87087466D01*
X148016878Y-87087655D01*
X148021998Y-87086999D01*
X148022000Y-87086999D01*
X148233476Y-87059908D01*
X148233477Y-87059908D01*
X148238604Y-87059251D01*
X148276356Y-87047925D01*
X148447760Y-86996501D01*
X148452713Y-86995015D01*
X148457352Y-86992742D01*
X148457358Y-86992740D01*
X148648819Y-86898944D01*
X148653457Y-86896672D01*
X148725924Y-86844982D01*
X148831230Y-86769868D01*
X148831235Y-86769864D01*
X148835442Y-86766863D01*
X148993783Y-86609074D01*
X149001044Y-86598970D01*
X149026432Y-86563638D01*
X149124227Y-86427542D01*
X149129114Y-86417655D01*
X149220976Y-86231786D01*
X149220977Y-86231784D01*
X149223270Y-86227144D01*
X149254130Y-86125571D01*
X149293071Y-86066206D01*
X149357925Y-86037319D01*
X149428102Y-86048080D01*
X149481320Y-86095073D01*
X149500689Y-86162199D01*
X149500689Y-86175561D01*
X149505916Y-86248640D01*
X149519840Y-86296061D01*
X149535253Y-86348552D01*
X149547093Y-86388877D01*
X149565588Y-86417655D01*
X149621240Y-86504252D01*
X149621242Y-86504255D01*
X149626112Y-86511832D01*
X149632922Y-86517733D01*
X149729758Y-86601643D01*
X149729761Y-86601645D01*
X149736570Y-86607545D01*
X149869519Y-86668261D01*
X149878442Y-86669544D01*
X149887083Y-86672081D01*
X149886247Y-86674929D01*
X149937201Y-86698200D01*
X149975585Y-86757926D01*
X149980689Y-86793424D01*
X149980689Y-88053392D01*
X149960600Y-88121647D01*
X149889243Y-88232371D01*
X149889239Y-88232380D01*
X149885424Y-88238299D01*
X149883015Y-88244919D01*
X149883014Y-88244920D01*
X149838570Y-88367028D01*
X149823386Y-88408746D01*
X149800652Y-88588701D01*
X149816636Y-88751711D01*
X149816788Y-88753265D01*
X149803529Y-88823013D01*
X149754666Y-88874520D01*
X149691389Y-88891561D01*
X135643594Y-88891561D01*
X135627802Y-88890567D01*
X135620991Y-88889707D01*
X135558442Y-88881805D01*
X135549427Y-88882689D01*
X135537836Y-88883825D01*
X135515656Y-88884038D01*
X135364168Y-88872116D01*
X135344640Y-88869023D01*
X135342491Y-88868507D01*
X135175254Y-88828356D01*
X135156452Y-88822247D01*
X135136202Y-88813859D01*
X134995512Y-88755583D01*
X134977907Y-88746613D01*
X134829366Y-88655587D01*
X134813382Y-88643975D01*
X134705920Y-88552194D01*
X134693557Y-88539232D01*
X134693552Y-88539237D01*
X134688645Y-88534191D01*
X134684325Y-88528621D01*
X134678882Y-88524150D01*
X134678880Y-88524148D01*
X134611825Y-88469069D01*
X134602706Y-88460799D01*
X133658576Y-87516669D01*
X133624550Y-87454357D01*
X133629615Y-87383542D01*
X133633053Y-87375243D01*
X133646987Y-87344731D01*
X133650133Y-87322853D01*
X133667148Y-87204509D01*
X133667149Y-87204502D01*
X133667787Y-87200061D01*
X133667787Y-87078772D01*
X133687789Y-87010651D01*
X133741445Y-86964158D01*
X133811719Y-86954054D01*
X133876299Y-86983548D01*
X133889598Y-86996941D01*
X133906110Y-87016274D01*
X133909318Y-87020030D01*
X134089871Y-87174237D01*
X134094079Y-87176816D01*
X134094085Y-87176820D01*
X134229191Y-87259613D01*
X134292324Y-87298301D01*
X134296894Y-87300194D01*
X134296898Y-87300196D01*
X134493306Y-87381550D01*
X134511693Y-87389166D01*
X134561627Y-87401154D01*
X134737763Y-87443441D01*
X134737769Y-87443442D01*
X134742576Y-87444596D01*
X134979287Y-87463226D01*
X135215998Y-87444596D01*
X135220805Y-87443442D01*
X135220811Y-87443441D01*
X135396947Y-87401154D01*
X135446881Y-87389166D01*
X135465268Y-87381550D01*
X135661676Y-87300196D01*
X135661680Y-87300194D01*
X135666250Y-87298301D01*
X135729383Y-87259613D01*
X135864489Y-87176820D01*
X135864495Y-87176816D01*
X135868703Y-87174237D01*
X136049256Y-87020030D01*
X136203463Y-86839477D01*
X136206042Y-86835269D01*
X136206046Y-86835263D01*
X136324941Y-86641244D01*
X136327527Y-86637024D01*
X136332269Y-86625577D01*
X136407101Y-86444915D01*
X136451649Y-86389634D01*
X136519013Y-86367213D01*
X136587804Y-86384771D01*
X136630942Y-86427298D01*
X136694259Y-86530621D01*
X136840618Y-86699583D01*
X136844593Y-86702883D01*
X136844596Y-86702886D01*
X136873279Y-86726699D01*
X137012608Y-86842372D01*
X137205610Y-86955153D01*
X137210430Y-86956993D01*
X137210435Y-86956996D01*
X137348597Y-87009754D01*
X137414440Y-87034897D01*
X137419508Y-87035928D01*
X137419511Y-87035929D01*
X137479584Y-87048151D01*
X137633490Y-87079464D01*
X137638663Y-87079654D01*
X137638666Y-87079654D01*
X137851714Y-87087466D01*
X137851718Y-87087466D01*
X137856878Y-87087655D01*
X137861998Y-87086999D01*
X137862000Y-87086999D01*
X138073476Y-87059908D01*
X138073477Y-87059908D01*
X138078604Y-87059251D01*
X138116356Y-87047925D01*
X138287760Y-86996501D01*
X138292713Y-86995015D01*
X138297352Y-86992742D01*
X138297358Y-86992740D01*
X138488819Y-86898944D01*
X138493457Y-86896672D01*
X138565924Y-86844982D01*
X138671230Y-86769868D01*
X138671235Y-86769864D01*
X138675442Y-86766863D01*
X138833783Y-86609074D01*
X138841044Y-86598970D01*
X138866432Y-86563638D01*
X138964227Y-86427542D01*
X138969114Y-86417655D01*
X139060976Y-86231786D01*
X139060977Y-86231784D01*
X139063270Y-86227144D01*
X139128253Y-86013259D01*
X139157431Y-85791634D01*
X139158952Y-85729369D01*
X139158977Y-85728365D01*
X139158977Y-85728361D01*
X139159059Y-85725000D01*
X140367652Y-85725000D01*
X140387423Y-86039254D01*
X140446425Y-86348552D01*
X140543727Y-86648016D01*
X140545414Y-86651602D01*
X140545416Y-86651606D01*
X140676106Y-86929338D01*
X140676110Y-86929345D01*
X140677794Y-86932924D01*
X140679918Y-86936270D01*
X140679918Y-86936271D01*
X140727121Y-87010651D01*
X140846513Y-87198782D01*
X141047222Y-87441398D01*
X141276756Y-87656945D01*
X141279958Y-87659272D01*
X141279960Y-87659273D01*
X141328940Y-87694859D01*
X141531496Y-87842024D01*
X141534965Y-87843931D01*
X141534968Y-87843933D01*
X141803961Y-87991813D01*
X141807423Y-87993716D01*
X142100187Y-88109630D01*
X142405170Y-88187936D01*
X142717562Y-88227400D01*
X143032438Y-88227400D01*
X143344830Y-88187936D01*
X143649813Y-88109630D01*
X143942577Y-87993716D01*
X143946039Y-87991813D01*
X144215032Y-87843933D01*
X144215035Y-87843931D01*
X144218504Y-87842024D01*
X144421060Y-87694859D01*
X144470040Y-87659273D01*
X144470042Y-87659272D01*
X144473244Y-87656945D01*
X144702778Y-87441398D01*
X144903487Y-87198782D01*
X145022879Y-87010651D01*
X145070082Y-86936271D01*
X145070082Y-86936270D01*
X145072206Y-86932924D01*
X145073890Y-86929345D01*
X145073894Y-86929338D01*
X145204584Y-86651606D01*
X145204586Y-86651602D01*
X145206273Y-86648016D01*
X145303575Y-86348552D01*
X145362577Y-86039254D01*
X145382348Y-85725000D01*
X145381759Y-85715630D01*
X145375138Y-85610403D01*
X145362577Y-85410746D01*
X145303575Y-85101448D01*
X145223062Y-84853655D01*
X145207499Y-84805757D01*
X145207499Y-84805756D01*
X145206273Y-84801984D01*
X145193640Y-84775137D01*
X145073894Y-84520662D01*
X145073890Y-84520655D01*
X145072206Y-84517076D01*
X145056051Y-84491619D01*
X144976961Y-84366995D01*
X144903487Y-84251218D01*
X144702778Y-84008602D01*
X144473244Y-83793055D01*
X144218504Y-83607976D01*
X144188646Y-83591561D01*
X143946039Y-83458187D01*
X143946036Y-83458186D01*
X143942577Y-83456284D01*
X143649813Y-83340370D01*
X143344830Y-83262064D01*
X143032438Y-83222600D01*
X142717562Y-83222600D01*
X142405170Y-83262064D01*
X142100187Y-83340370D01*
X141807423Y-83456284D01*
X141803964Y-83458186D01*
X141803961Y-83458187D01*
X141561355Y-83591561D01*
X141531496Y-83607976D01*
X141276756Y-83793055D01*
X141047222Y-84008602D01*
X140846513Y-84251218D01*
X140773039Y-84366995D01*
X140693950Y-84491619D01*
X140677794Y-84517076D01*
X140676110Y-84520655D01*
X140676106Y-84520662D01*
X140556360Y-84775137D01*
X140543727Y-84801984D01*
X140542501Y-84805756D01*
X140542501Y-84805757D01*
X140526938Y-84853655D01*
X140446425Y-85101448D01*
X140387423Y-85410746D01*
X140374862Y-85610403D01*
X140368242Y-85715630D01*
X140367652Y-85725000D01*
X139159059Y-85725000D01*
X139140743Y-85502214D01*
X139086285Y-85285411D01*
X139016076Y-85123939D01*
X138999210Y-85085150D01*
X138999208Y-85085147D01*
X138997150Y-85080413D01*
X138968196Y-85035657D01*
X138947990Y-84967600D01*
X138967786Y-84899419D01*
X139021301Y-84852764D01*
X139065122Y-84843162D01*
X139065000Y-84841607D01*
X139324150Y-84821211D01*
X139328957Y-84820057D01*
X139328963Y-84820056D01*
X139540827Y-84769192D01*
X139576920Y-84760527D01*
X139591625Y-84754436D01*
X139812512Y-84662942D01*
X139812514Y-84662941D01*
X139817084Y-84661048D01*
X140038729Y-84525223D01*
X140081941Y-84488317D01*
X140232636Y-84359611D01*
X140236398Y-84356398D01*
X140323374Y-84254562D01*
X140402005Y-84162497D01*
X140402006Y-84162496D01*
X140405223Y-84158729D01*
X140541048Y-83937084D01*
X140577349Y-83849447D01*
X140638633Y-83701493D01*
X140638634Y-83701491D01*
X140640527Y-83696920D01*
X140678264Y-83539734D01*
X140700056Y-83448963D01*
X140700057Y-83448957D01*
X140701211Y-83444150D01*
X140721607Y-83185000D01*
X140701211Y-82925850D01*
X140699241Y-82917641D01*
X140661285Y-82759543D01*
X140640527Y-82673080D01*
X140637681Y-82666209D01*
X140542942Y-82437488D01*
X140542941Y-82437486D01*
X140541048Y-82432916D01*
X140405223Y-82211271D01*
X140301218Y-82089496D01*
X140239611Y-82017364D01*
X140236398Y-82013602D01*
X140038729Y-81844777D01*
X139817084Y-81708952D01*
X139812514Y-81707059D01*
X139812512Y-81707058D01*
X139581493Y-81611367D01*
X139581491Y-81611366D01*
X139576920Y-81609473D01*
X139452110Y-81579509D01*
X139328963Y-81549944D01*
X139328957Y-81549943D01*
X139324150Y-81548789D01*
X139065000Y-81528393D01*
X138805850Y-81548789D01*
X138801043Y-81549943D01*
X138801037Y-81549944D01*
X138677890Y-81579509D01*
X138553080Y-81609473D01*
X138548509Y-81611366D01*
X138548507Y-81611367D01*
X138317488Y-81707058D01*
X138317486Y-81707059D01*
X138312916Y-81708952D01*
X138091271Y-81844777D01*
X137893602Y-82013602D01*
X137890389Y-82017364D01*
X137828783Y-82089496D01*
X137724777Y-82211271D01*
X137588952Y-82432916D01*
X137587059Y-82437486D01*
X137587058Y-82437488D01*
X137492319Y-82666209D01*
X137489473Y-82673080D01*
X137468715Y-82759543D01*
X137430760Y-82917641D01*
X137428789Y-82925850D01*
X137408393Y-83185000D01*
X137428789Y-83444150D01*
X137429943Y-83448957D01*
X137429944Y-83448963D01*
X137451736Y-83539734D01*
X137489473Y-83696920D01*
X137491366Y-83701491D01*
X137491367Y-83701493D01*
X137552652Y-83849447D01*
X137588952Y-83937084D01*
X137724777Y-84158729D01*
X137730128Y-84164994D01*
X137730641Y-84166138D01*
X137730902Y-84166498D01*
X137730826Y-84166553D01*
X137759160Y-84229780D01*
X137748557Y-84299981D01*
X137701683Y-84353305D01*
X137653377Y-84371375D01*
X137478882Y-84398076D01*
X137353036Y-84439209D01*
X137271325Y-84465916D01*
X137271323Y-84465917D01*
X137266406Y-84467524D01*
X137261820Y-84469911D01*
X137261816Y-84469913D01*
X137103709Y-84552219D01*
X137068125Y-84570743D01*
X137063983Y-84573853D01*
X136945327Y-84662942D01*
X136889365Y-84704959D01*
X136734927Y-84866570D01*
X136732013Y-84870842D01*
X136732012Y-84870843D01*
X136716015Y-84894294D01*
X136608958Y-85051234D01*
X136580656Y-85112206D01*
X136530641Y-85219952D01*
X136483817Y-85273319D01*
X136415574Y-85292899D01*
X136347578Y-85272475D01*
X136308921Y-85232736D01*
X136299730Y-85217737D01*
X136203463Y-85060645D01*
X136061386Y-84894294D01*
X136052464Y-84883848D01*
X136052462Y-84883846D01*
X136049256Y-84880092D01*
X135868703Y-84725885D01*
X135864495Y-84723306D01*
X135864489Y-84723302D01*
X135670470Y-84604407D01*
X135666250Y-84601821D01*
X135661680Y-84599928D01*
X135661676Y-84599926D01*
X135451454Y-84512850D01*
X135451452Y-84512849D01*
X135446881Y-84510956D01*
X135343561Y-84486151D01*
X135220811Y-84456681D01*
X135220805Y-84456680D01*
X135215998Y-84455526D01*
X134979287Y-84436896D01*
X134742576Y-84455526D01*
X134737769Y-84456680D01*
X134737763Y-84456681D01*
X134615013Y-84486151D01*
X134511693Y-84510956D01*
X134507122Y-84512849D01*
X134507120Y-84512850D01*
X134296898Y-84599926D01*
X134296894Y-84599928D01*
X134292324Y-84601821D01*
X134288104Y-84604407D01*
X134094085Y-84723302D01*
X134094079Y-84723306D01*
X134089871Y-84725885D01*
X133909318Y-84880092D01*
X133889098Y-84903767D01*
X133829649Y-84942575D01*
X133758654Y-84943083D01*
X133698655Y-84905127D01*
X133668701Y-84840759D01*
X133667287Y-84821936D01*
X133667287Y-84672176D01*
X133662812Y-84656937D01*
X133661422Y-84655732D01*
X133653739Y-84654061D01*
X129409402Y-84654061D01*
X129394163Y-84658536D01*
X129392958Y-84659926D01*
X129391287Y-84667609D01*
X129391287Y-84997804D01*
X129391448Y-85002311D01*
X129396027Y-85066330D01*
X129398413Y-85079552D01*
X129435106Y-85204519D01*
X129442520Y-85220753D01*
X129511713Y-85328421D01*
X129523399Y-85341908D01*
X129594151Y-85403214D01*
X129632535Y-85462940D01*
X129632535Y-85533937D01*
X129594152Y-85593663D01*
X129579762Y-85604435D01*
X129568016Y-85611984D01*
X129562115Y-85618794D01*
X129478205Y-85715630D01*
X129478203Y-85715633D01*
X129472303Y-85722442D01*
X129411587Y-85855391D01*
X129410305Y-85864306D01*
X129410305Y-85864307D01*
X129391426Y-85995613D01*
X129391425Y-85995620D01*
X129390787Y-86000061D01*
X129390787Y-87200061D01*
X129396014Y-87273140D01*
X129397917Y-87279622D01*
X129397918Y-87279626D01*
X129403919Y-87300064D01*
X129403919Y-87371061D01*
X129365534Y-87430786D01*
X129300953Y-87460279D01*
X129283023Y-87461561D01*
X127904611Y-87461561D01*
X127888832Y-87460569D01*
X127838966Y-87454269D01*
X127773893Y-87425889D01*
X127734490Y-87366830D01*
X127733273Y-87295844D01*
X127744172Y-87268879D01*
X127749292Y-87259503D01*
X127781929Y-87199733D01*
X127786324Y-87179530D01*
X127811081Y-87065726D01*
X127811081Y-87065723D01*
X127812997Y-87056916D01*
X127811701Y-87038790D01*
X127803213Y-86920120D01*
X127803213Y-86920119D01*
X127802570Y-86911131D01*
X127798025Y-86898944D01*
X127781601Y-86854912D01*
X127751493Y-86774189D01*
X127726016Y-86740155D01*
X127666602Y-86660788D01*
X127666601Y-86660787D01*
X127663904Y-86657184D01*
X127654336Y-86647616D01*
X127620310Y-86585304D01*
X127625375Y-86514489D01*
X127644480Y-86480517D01*
X127844449Y-86226857D01*
X127847566Y-86222193D01*
X128089235Y-85860509D01*
X128089236Y-85860507D01*
X128090608Y-85858454D01*
X128244276Y-85584059D01*
X128305900Y-85474022D01*
X128305905Y-85474012D01*
X128307103Y-85471873D01*
X128416506Y-85234561D01*
X128491569Y-85071737D01*
X128491571Y-85071733D01*
X128492601Y-85069498D01*
X128645956Y-84653810D01*
X128647522Y-84648259D01*
X128765552Y-84229758D01*
X128765555Y-84229746D01*
X128766225Y-84227370D01*
X128770546Y-84205651D01*
X128850327Y-83804556D01*
X129391287Y-83804556D01*
X129391287Y-84127946D01*
X129395762Y-84143185D01*
X129397152Y-84144390D01*
X129404835Y-84146061D01*
X130257172Y-84146061D01*
X130272411Y-84141586D01*
X130273616Y-84140196D01*
X130275287Y-84132513D01*
X130275287Y-83305176D01*
X130273946Y-83300609D01*
X130783287Y-83300609D01*
X130783287Y-84127946D01*
X130787762Y-84143185D01*
X130789152Y-84144390D01*
X130796835Y-84146061D01*
X132257172Y-84146061D01*
X132272411Y-84141586D01*
X132273616Y-84140196D01*
X132275287Y-84132513D01*
X132275287Y-83305176D01*
X132273946Y-83300609D01*
X132783287Y-83300609D01*
X132783287Y-84127946D01*
X132787762Y-84143185D01*
X132789152Y-84144390D01*
X132796835Y-84146061D01*
X133649172Y-84146061D01*
X133664411Y-84141586D01*
X133665616Y-84140196D01*
X133667287Y-84132513D01*
X133667287Y-83802318D01*
X133667126Y-83797811D01*
X133662547Y-83733792D01*
X133660161Y-83720570D01*
X133623468Y-83595603D01*
X133616054Y-83579369D01*
X133546861Y-83471701D01*
X133535175Y-83458214D01*
X133438447Y-83374399D01*
X133423439Y-83364754D01*
X133307012Y-83311584D01*
X133289899Y-83306559D01*
X133158733Y-83287700D01*
X133149792Y-83287061D01*
X132801402Y-83287061D01*
X132786163Y-83291536D01*
X132784958Y-83292926D01*
X132783287Y-83300609D01*
X132273946Y-83300609D01*
X132270812Y-83289937D01*
X132269422Y-83288732D01*
X132261739Y-83287061D01*
X131906544Y-83287061D01*
X131902037Y-83287222D01*
X131838018Y-83291801D01*
X131824796Y-83294187D01*
X131699829Y-83330880D01*
X131683595Y-83338294D01*
X131598264Y-83393132D01*
X131530143Y-83413134D01*
X131462023Y-83393132D01*
X131447630Y-83382357D01*
X131438447Y-83374400D01*
X131423439Y-83364754D01*
X131307012Y-83311584D01*
X131289899Y-83306559D01*
X131158733Y-83287700D01*
X131149792Y-83287061D01*
X130801402Y-83287061D01*
X130786163Y-83291536D01*
X130784958Y-83292926D01*
X130783287Y-83300609D01*
X130273946Y-83300609D01*
X130270812Y-83289937D01*
X130269422Y-83288732D01*
X130261739Y-83287061D01*
X129906544Y-83287061D01*
X129902037Y-83287222D01*
X129838018Y-83291801D01*
X129824796Y-83294187D01*
X129699829Y-83330880D01*
X129683595Y-83338294D01*
X129575927Y-83407487D01*
X129562440Y-83419173D01*
X129478625Y-83515901D01*
X129468980Y-83530909D01*
X129415810Y-83647336D01*
X129410785Y-83664449D01*
X129391926Y-83795615D01*
X129391287Y-83804556D01*
X128850327Y-83804556D01*
X128852664Y-83792809D01*
X128883662Y-83530909D01*
X128904452Y-83355259D01*
X128904453Y-83355251D01*
X128904742Y-83352806D01*
X128921077Y-82937041D01*
X128921557Y-82931752D01*
X128921442Y-82931743D01*
X128921755Y-82927623D01*
X128922336Y-82923543D01*
X128922477Y-82910073D01*
X128918028Y-82873304D01*
X128913700Y-82837544D01*
X128912787Y-82822407D01*
X128912787Y-81185681D01*
X128933839Y-81115954D01*
X128999029Y-81017834D01*
X129002930Y-81011963D01*
X129055998Y-80872262D01*
X129064842Y-80848981D01*
X129064843Y-80848979D01*
X129067342Y-80842399D01*
X129069893Y-80824251D01*
X129092035Y-80666700D01*
X129092035Y-80666697D01*
X129092586Y-80662778D01*
X129092903Y-80640061D01*
X129072684Y-80459806D01*
X129057248Y-80415479D01*
X129015351Y-80295167D01*
X129015349Y-80295164D01*
X129013032Y-80288509D01*
X128916913Y-80134685D01*
X128910778Y-80128507D01*
X128794065Y-80010976D01*
X128794061Y-80010973D01*
X128789102Y-80005979D01*
X128782688Y-80001908D01*
X128675238Y-79933719D01*
X128635953Y-79908788D01*
X128606750Y-79898389D01*
X128471712Y-79850304D01*
X128471707Y-79850303D01*
X128465077Y-79847942D01*
X128458085Y-79847108D01*
X128458084Y-79847108D01*
X128456466Y-79846915D01*
X128455500Y-79846502D01*
X128451221Y-79845498D01*
X128451397Y-79844747D01*
X128391192Y-79818990D01*
X128351377Y-79760208D01*
X128347841Y-79743678D01*
X128347835Y-79743679D01*
X128346273Y-79736804D01*
X128345488Y-79729806D01*
X128326768Y-79676049D01*
X128323256Y-79605141D01*
X128358637Y-79543589D01*
X128421680Y-79510936D01*
X128445760Y-79508614D01*
X143949465Y-79508614D01*
X144017586Y-79528616D01*
G37*
G04 #@! TD.AperFunction*
G04 #@! TA.AperFunction,Conductor*
G36*
X127498352Y-80963871D02*
G01*
X127555188Y-81006418D01*
X127562096Y-81016656D01*
X127627563Y-81124755D01*
X127645787Y-81190026D01*
X127645787Y-82821743D01*
X127644709Y-82838189D01*
X127637123Y-82895806D01*
X127637123Y-82895811D01*
X127636132Y-82903338D01*
X127637908Y-82919421D01*
X127638615Y-82925825D01*
X127639256Y-82945149D01*
X127626526Y-83236722D01*
X127626166Y-83244956D01*
X127603212Y-83312140D01*
X127547579Y-83356248D01*
X127476931Y-83363277D01*
X127411191Y-83328555D01*
X127274996Y-83192360D01*
X127219626Y-83144381D01*
X127200368Y-83133866D01*
X127159885Y-83098786D01*
X127100567Y-83019546D01*
X127095535Y-83013739D01*
X127081884Y-83006285D01*
X127080051Y-83006416D01*
X127073436Y-83010667D01*
X127072994Y-83011109D01*
X127071359Y-83012002D01*
X127062043Y-83017989D01*
X127061615Y-83017323D01*
X127010682Y-83045135D01*
X126966375Y-83045134D01*
X126966326Y-83045825D01*
X126957333Y-83045182D01*
X126948530Y-83043267D01*
X126802745Y-83053694D01*
X126802473Y-83049897D01*
X126749599Y-83046170D01*
X126692719Y-83003683D01*
X126667839Y-82937188D01*
X126670388Y-82901292D01*
X126681626Y-82849630D01*
X126674679Y-82752503D01*
X126689770Y-82683130D01*
X126710817Y-82655015D01*
X126718608Y-82640747D01*
X126718477Y-82638912D01*
X126714225Y-82632296D01*
X126710558Y-82628629D01*
X126707253Y-82625552D01*
X126658747Y-82583521D01*
X126647709Y-82575857D01*
X126636445Y-82569707D01*
X126595961Y-82534628D01*
X126535230Y-82453501D01*
X126532533Y-82449898D01*
X126309441Y-82226806D01*
X126275415Y-82164494D01*
X126280480Y-82093679D01*
X126309441Y-82048616D01*
X127365225Y-80992832D01*
X127427537Y-80958806D01*
X127498352Y-80963871D01*
G37*
G04 #@! TD.AperFunction*
G04 #@! TA.AperFunction,Conductor*
G36*
X115129723Y-78406944D02*
G01*
X115175558Y-78443664D01*
X115185873Y-78452904D01*
X115721201Y-78988232D01*
X115755227Y-79050544D01*
X115750162Y-79121359D01*
X115707615Y-79178195D01*
X115641095Y-79203006D01*
X115632106Y-79203327D01*
X115068287Y-79203327D01*
X115000166Y-79183325D01*
X114953673Y-79129669D01*
X114942287Y-79077327D01*
X114942287Y-78972176D01*
X114937812Y-78956937D01*
X114936422Y-78955732D01*
X114928739Y-78954061D01*
X113701287Y-78954061D01*
X113633166Y-78934059D01*
X113586673Y-78880403D01*
X113575287Y-78828061D01*
X113575287Y-78572061D01*
X113595289Y-78503940D01*
X113648945Y-78457447D01*
X113701287Y-78446061D01*
X114924172Y-78446061D01*
X114939411Y-78441586D01*
X114955718Y-78422767D01*
X115015445Y-78384383D01*
X115086441Y-78384383D01*
X115129723Y-78406944D01*
G37*
G04 #@! TD.AperFunction*
G04 #@! TA.AperFunction,Conductor*
G36*
X105308408Y-78303575D02*
G01*
X105354901Y-78357231D01*
X105366287Y-78409573D01*
X105366287Y-78427946D01*
X105370762Y-78443185D01*
X105372152Y-78444390D01*
X105379835Y-78446061D01*
X106607287Y-78446061D01*
X106675408Y-78466063D01*
X106721901Y-78519719D01*
X106733287Y-78572061D01*
X106733287Y-78828061D01*
X106713285Y-78896182D01*
X106659629Y-78942675D01*
X106607287Y-78954061D01*
X105384402Y-78954061D01*
X105369163Y-78958536D01*
X105367958Y-78959926D01*
X105366287Y-78967609D01*
X105366287Y-79017010D01*
X105346285Y-79085131D01*
X105292629Y-79131624D01*
X105240287Y-79143010D01*
X105093929Y-79143010D01*
X105077483Y-79141932D01*
X105019866Y-79134346D01*
X105019861Y-79134346D01*
X105012334Y-79133355D01*
X105004788Y-79134188D01*
X105004780Y-79134188D01*
X104994383Y-79135336D01*
X104972319Y-79135827D01*
X104836130Y-79126901D01*
X104819790Y-79124750D01*
X104740552Y-79108989D01*
X104661312Y-79093227D01*
X104645402Y-79088964D01*
X104492395Y-79037025D01*
X104477171Y-79030719D01*
X104332258Y-78959256D01*
X104317984Y-78951015D01*
X104183636Y-78861247D01*
X104170561Y-78851214D01*
X104073376Y-78765986D01*
X104056488Y-78747955D01*
X104050927Y-78740707D01*
X104045003Y-78735961D01*
X104045000Y-78735958D01*
X103987677Y-78690035D01*
X103977362Y-78680795D01*
X103795235Y-78498668D01*
X103761209Y-78436356D01*
X103766274Y-78365541D01*
X103808821Y-78308705D01*
X103875341Y-78283894D01*
X103884330Y-78283573D01*
X105240287Y-78283573D01*
X105308408Y-78303575D01*
G37*
G04 #@! TD.AperFunction*
G04 #@! TA.AperFunction,Conductor*
G36*
X123465668Y-77227654D02*
G01*
X123512162Y-77281309D01*
X123522267Y-77351583D01*
X123492774Y-77416164D01*
X123486644Y-77422748D01*
X122422417Y-78486975D01*
X122360105Y-78521001D01*
X122342315Y-78523558D01*
X122287643Y-78527468D01*
X122277260Y-78528211D01*
X122276987Y-78524399D01*
X122224216Y-78520724D01*
X122167300Y-78478285D01*
X122142364Y-78411812D01*
X122144905Y-78375808D01*
X122156143Y-78324146D01*
X122149196Y-78227020D01*
X122164287Y-78157647D01*
X122185334Y-78129532D01*
X122193125Y-78115264D01*
X122192994Y-78113429D01*
X122188742Y-78106813D01*
X122185075Y-78103146D01*
X122181770Y-78100069D01*
X122133257Y-78058032D01*
X122122238Y-78050382D01*
X122110964Y-78044226D01*
X122070480Y-78009147D01*
X122007050Y-77924414D01*
X121618142Y-77535506D01*
X121562772Y-77487527D01*
X121483540Y-77444263D01*
X121433338Y-77394061D01*
X121418247Y-77324687D01*
X121443058Y-77258167D01*
X121499894Y-77215620D01*
X121543924Y-77207676D01*
X123397547Y-77207653D01*
X123465668Y-77227654D01*
G37*
G04 #@! TD.AperFunction*
M02*
