G04 #@! TF.GenerationSoftware,KiCad,Pcbnew,(5.99.0-11336-g5116fa6d12)*
G04 #@! TF.CreationDate,2021-07-31T15:39:07+02:00*
G04 #@! TF.ProjectId,plain60-flex-mkd-hhkb,706c6169-6e36-4302-9d66-6c65782d6d6b,rev?*
G04 #@! TF.SameCoordinates,Original*
G04 #@! TF.FileFunction,Soldermask,Bot*
G04 #@! TF.FilePolarity,Negative*
%FSLAX46Y46*%
G04 Gerber Fmt 4.6, Leading zero omitted, Abs format (unit mm)*
G04 Created by KiCad (PCBNEW (5.99.0-11336-g5116fa6d12)) date 2021-07-31 15:39:07*
%MOMM*%
%LPD*%
G01*
G04 APERTURE LIST*
G04 Aperture macros list*
%AMRoundRect*
0 Rectangle with rounded corners*
0 $1 Rounding radius*
0 $2 $3 $4 $5 $6 $7 $8 $9 X,Y pos of 4 corners*
0 Add a 4 corners polygon primitive as box body*
4,1,4,$2,$3,$4,$5,$6,$7,$8,$9,$2,$3,0*
0 Add four circle primitives for the rounded corners*
1,1,$1+$1,$2,$3*
1,1,$1+$1,$4,$5*
1,1,$1+$1,$6,$7*
1,1,$1+$1,$8,$9*
0 Add four rect primitives between the rounded corners*
20,1,$1+$1,$2,$3,$4,$5,0*
20,1,$1+$1,$4,$5,$6,$7,0*
20,1,$1+$1,$6,$7,$8,$9,0*
20,1,$1+$1,$8,$9,$2,$3,0*%
%AMRotRect*
0 Rectangle, with rotation*
0 The origin of the aperture is its center*
0 $1 length*
0 $2 width*
0 $3 Rotation angle, in degrees counterclockwise*
0 Add horizontal line*
21,1,$1,$2,0,0,$3*%
G04 Aperture macros list end*
%ADD10C,2.286000*%
%ADD11C,1.701800*%
%ADD12C,3.987800*%
%ADD13C,3.048000*%
%ADD14O,7.500000X3.000000*%
%ADD15O,5.500000X3.000000*%
%ADD16R,1.200000X0.900000*%
%ADD17RotRect,1.500000X0.550000X135.000000*%
%ADD18RotRect,1.500000X0.550000X45.000000*%
%ADD19R,0.400000X2.000000*%
%ADD20R,1.700000X1.000000*%
%ADD21R,1.200000X1.300000*%
%ADD22C,2.000000*%
%ADD23R,1.300000X1.200000*%
%ADD24C,0.650000*%
%ADD25R,0.600000X1.450000*%
%ADD26R,0.300000X1.450000*%
%ADD27O,1.000000X2.100000*%
%ADD28O,1.000000X1.600000*%
%ADD29R,1.200000X1.250000*%
%ADD30R,1.250000X1.200000*%
%ADD31R,0.600000X1.200000*%
%ADD32R,1.700000X1.700000*%
%ADD33O,1.700000X1.700000*%
%ADD34R,2.500000X2.500000*%
%ADD35RoundRect,0.150000X0.775000X-0.150000X0.775000X0.150000X-0.775000X0.150000X-0.775000X-0.150000X0*%
%ADD36RoundRect,0.332800X0.567200X-0.467200X0.567200X0.467200X-0.567200X0.467200X-0.567200X-0.467200X0*%
G04 APERTURE END LIST*
D10*
X78740000Y-23495000D03*
X72390000Y-26035000D03*
D11*
X71120000Y-28575000D03*
D12*
X76200000Y-28575000D03*
D11*
X81280000Y-28575000D03*
D10*
X97790000Y-23495000D03*
X91440000Y-26035000D03*
D11*
X100330000Y-28575000D03*
D12*
X95250000Y-28575000D03*
D11*
X90170000Y-28575000D03*
D10*
X154940000Y-23495000D03*
X148590000Y-26035000D03*
D12*
X152400000Y-28575000D03*
D11*
X157480000Y-28575000D03*
X147320000Y-28575000D03*
D10*
X173990000Y-23495000D03*
X167640000Y-26035000D03*
D11*
X166370000Y-28575000D03*
D12*
X171450000Y-28575000D03*
D11*
X176530000Y-28575000D03*
D10*
X135890000Y-23495000D03*
X129540000Y-26035000D03*
D12*
X133350000Y-28575000D03*
D11*
X138430000Y-28575000D03*
X128270000Y-28575000D03*
D10*
X116840000Y-23495000D03*
X110490000Y-26035000D03*
D11*
X109220000Y-28575000D03*
X119380000Y-28575000D03*
D12*
X114300000Y-28575000D03*
D10*
X16827500Y-23495000D03*
X10477500Y-26035000D03*
D11*
X19367500Y-28575000D03*
X9207500Y-28575000D03*
D12*
X14287500Y-28575000D03*
D10*
X145415000Y-4445000D03*
X139065000Y-6985000D03*
D12*
X142875000Y-9525000D03*
D11*
X147955000Y-9525000D03*
X137795000Y-9525000D03*
D10*
X183515000Y-4445000D03*
X177165000Y-6985000D03*
D11*
X186055000Y-9525000D03*
X175895000Y-9525000D03*
D12*
X180975000Y-9525000D03*
D10*
X88265000Y-4445000D03*
X81915000Y-6985000D03*
D11*
X90805000Y-9525000D03*
D12*
X85725000Y-9525000D03*
D11*
X80645000Y-9525000D03*
D10*
X240665000Y-4445000D03*
X234315000Y-6985000D03*
D11*
X243205000Y-9525000D03*
D12*
X238125000Y-9525000D03*
D11*
X233045000Y-9525000D03*
D10*
X221615000Y-4445000D03*
X215265000Y-6985000D03*
D11*
X224155000Y-9525000D03*
X213995000Y-9525000D03*
D12*
X219075000Y-9525000D03*
D10*
X202565000Y-4445000D03*
X196215000Y-6985000D03*
D12*
X200025000Y-9525000D03*
D11*
X205105000Y-9525000D03*
X194945000Y-9525000D03*
D10*
X164465000Y-4445000D03*
X158115000Y-6985000D03*
D11*
X156845000Y-9525000D03*
D12*
X161925000Y-9525000D03*
D11*
X167005000Y-9525000D03*
D10*
X126365000Y-4445000D03*
X120015000Y-6985000D03*
D11*
X118745000Y-9525000D03*
D12*
X123825000Y-9525000D03*
D11*
X128905000Y-9525000D03*
D10*
X107315000Y-4445000D03*
X100965000Y-6985000D03*
D11*
X99695000Y-9525000D03*
X109855000Y-9525000D03*
D12*
X104775000Y-9525000D03*
D10*
X69215000Y-4445000D03*
X62865000Y-6985000D03*
D12*
X66675000Y-9525000D03*
D11*
X71755000Y-9525000D03*
X61595000Y-9525000D03*
D10*
X31115000Y-4445000D03*
X24765000Y-6985000D03*
D12*
X28575000Y-9525000D03*
D11*
X33655000Y-9525000D03*
X23495000Y-9525000D03*
D10*
X12065000Y-4445000D03*
X5715000Y-6985000D03*
D11*
X4445000Y-9525000D03*
D12*
X9525000Y-9525000D03*
D11*
X14605000Y-9525000D03*
D10*
X40640000Y-80645000D03*
X34290000Y-83185000D03*
D11*
X43180000Y-85725000D03*
X33020000Y-85725000D03*
D12*
X38100000Y-85725000D03*
D10*
X150177500Y-61595000D03*
X143827500Y-64135000D03*
D11*
X152717500Y-66675000D03*
X142557500Y-66675000D03*
D12*
X147637500Y-66675000D03*
D10*
X226377500Y-61595000D03*
X220027500Y-64135000D03*
D12*
X223837500Y-66675000D03*
D11*
X228917500Y-66675000D03*
X218757500Y-66675000D03*
D10*
X169227500Y-61595000D03*
X162877500Y-64135000D03*
D11*
X171767500Y-66675000D03*
D12*
X166687500Y-66675000D03*
D11*
X161607500Y-66675000D03*
D10*
X131127500Y-61595000D03*
X124777500Y-64135000D03*
D11*
X123507500Y-66675000D03*
D12*
X128587500Y-66675000D03*
D11*
X133667500Y-66675000D03*
D10*
X188277500Y-61595000D03*
X181927500Y-64135000D03*
D11*
X180657500Y-66675000D03*
D12*
X185737500Y-66675000D03*
D11*
X190817500Y-66675000D03*
D10*
X250190000Y-23495000D03*
X243840000Y-26035000D03*
D11*
X252730000Y-28575000D03*
D12*
X247650000Y-28575000D03*
D11*
X242570000Y-28575000D03*
D10*
X54927500Y-61595000D03*
X48577500Y-64135000D03*
D12*
X52387500Y-66675000D03*
D11*
X57467500Y-66675000D03*
X47307500Y-66675000D03*
D10*
X193040000Y-23495000D03*
X186690000Y-26035000D03*
D11*
X195580000Y-28575000D03*
D12*
X190500000Y-28575000D03*
D11*
X185420000Y-28575000D03*
D10*
X121602500Y-42545000D03*
X115252500Y-45085000D03*
D11*
X124142500Y-47625000D03*
D12*
X119062500Y-47625000D03*
D11*
X113982500Y-47625000D03*
D10*
X64452500Y-42545000D03*
X58102500Y-45085000D03*
D11*
X66992500Y-47625000D03*
X56832500Y-47625000D03*
D12*
X61912500Y-47625000D03*
D10*
X266858700Y-42545000D03*
X260508700Y-45085000D03*
D13*
X276256700Y-40640000D03*
X252380700Y-40640000D03*
D12*
X264318700Y-47625000D03*
X252380700Y-55880000D03*
X276256700Y-55880000D03*
D11*
X269398700Y-47625000D03*
X259238700Y-47625000D03*
D10*
X278765000Y-61595000D03*
X272415000Y-64135000D03*
D11*
X281305000Y-66675000D03*
X271145000Y-66675000D03*
D12*
X276225000Y-66675000D03*
D10*
X178752500Y-42545000D03*
X172402500Y-45085000D03*
D11*
X171132500Y-47625000D03*
X181292500Y-47625000D03*
D12*
X176212500Y-47625000D03*
D10*
X274002487Y-23495061D03*
X267652487Y-26035061D03*
D12*
X271462487Y-28575061D03*
D11*
X266382487Y-28575061D03*
X276542487Y-28575061D03*
D10*
X231140000Y-23495000D03*
X224790000Y-26035000D03*
D11*
X233680000Y-28575000D03*
X223520000Y-28575000D03*
D12*
X228600000Y-28575000D03*
D10*
X64452500Y-80645000D03*
X58102500Y-83185000D03*
D11*
X56832500Y-85725000D03*
X66992500Y-85725000D03*
D12*
X61912500Y-85725000D03*
D10*
X83502500Y-42545000D03*
X77152500Y-45085000D03*
D12*
X80962500Y-47625000D03*
D11*
X86042500Y-47625000D03*
X75882500Y-47625000D03*
D10*
X159702500Y-42545000D03*
X153352500Y-45085000D03*
D11*
X152082500Y-47625000D03*
X162242500Y-47625000D03*
D12*
X157162500Y-47625000D03*
D10*
X102552500Y-42545000D03*
X96202500Y-45085000D03*
D12*
X100012500Y-47625000D03*
D11*
X105092500Y-47625000D03*
X94932500Y-47625000D03*
D10*
X45402500Y-42545000D03*
X39052500Y-45085000D03*
D12*
X42862500Y-47625000D03*
D11*
X37782500Y-47625000D03*
X47942500Y-47625000D03*
D10*
X197802500Y-42545000D03*
X191452500Y-45085000D03*
D11*
X200342500Y-47625000D03*
D12*
X195262500Y-47625000D03*
D11*
X190182500Y-47625000D03*
D10*
X23971250Y-61595000D03*
X17621250Y-64135000D03*
D13*
X9493250Y-59690000D03*
D12*
X9493250Y-74930000D03*
D11*
X26511250Y-66675000D03*
D12*
X33369250Y-74930000D03*
D13*
X33369250Y-59690000D03*
D11*
X16351250Y-66675000D03*
D12*
X21431250Y-66675000D03*
D10*
X235902500Y-42545000D03*
X229552500Y-45085000D03*
D12*
X233362500Y-47625000D03*
D11*
X228282500Y-47625000D03*
X238442500Y-47625000D03*
D10*
X216852500Y-42545000D03*
X210502500Y-45085000D03*
D11*
X219392500Y-47625000D03*
X209232500Y-47625000D03*
D12*
X214312500Y-47625000D03*
D10*
X212090000Y-23495000D03*
X205740000Y-26035000D03*
D11*
X204470000Y-28575000D03*
X214630000Y-28575000D03*
D12*
X209550000Y-28575000D03*
D10*
X140652500Y-42545000D03*
X134302500Y-45085000D03*
D12*
X138112500Y-47625000D03*
D11*
X143192500Y-47625000D03*
X133032500Y-47625000D03*
D10*
X19208750Y-42545000D03*
X12858750Y-45085000D03*
D12*
X16668750Y-47625000D03*
D11*
X11588750Y-47625000D03*
X21748750Y-47625000D03*
D10*
X112077500Y-61595000D03*
X105727500Y-64135000D03*
D11*
X104457500Y-66675000D03*
D12*
X109537500Y-66675000D03*
D11*
X114617500Y-66675000D03*
D10*
X250190000Y-80645000D03*
X243840000Y-83185000D03*
D12*
X247650000Y-85725000D03*
D11*
X252730000Y-85725000D03*
X242570000Y-85725000D03*
D10*
X73977500Y-61595000D03*
X67627500Y-64135000D03*
D12*
X71437500Y-66675000D03*
D11*
X76517500Y-66675000D03*
X66357500Y-66675000D03*
D10*
X226377500Y-80645000D03*
X220027500Y-83185000D03*
D11*
X228917500Y-85725000D03*
D12*
X223837500Y-85725000D03*
D11*
X218757500Y-85725000D03*
D14*
X283368988Y-57125000D03*
X2381252Y-57125000D03*
D10*
X40640000Y-23495000D03*
X34290000Y-26035000D03*
D11*
X43180000Y-28575000D03*
X33020000Y-28575000D03*
D12*
X38100000Y-28575000D03*
D15*
X190500160Y-85525000D03*
D10*
X93027500Y-61595000D03*
X86677500Y-64135000D03*
D12*
X90487500Y-66675000D03*
D11*
X95567500Y-66675000D03*
X85407500Y-66675000D03*
D10*
X14446277Y-42544925D03*
X8096277Y-45084925D03*
D11*
X16986277Y-47624925D03*
D12*
X11906277Y-47624925D03*
D11*
X6826277Y-47624925D03*
D15*
X260425000Y-28227050D03*
D10*
X259714977Y-4445061D03*
X253364977Y-6985061D03*
D11*
X262254977Y-9525061D03*
X252094977Y-9525061D03*
D12*
X257174977Y-9525061D03*
D10*
X252571287Y-61595061D03*
X246221287Y-64135061D03*
D11*
X244951287Y-66675061D03*
X255111287Y-66675061D03*
D12*
X250031287Y-66675061D03*
D10*
X278765087Y-4444961D03*
X272415087Y-6984961D03*
D11*
X271145087Y-9524961D03*
X281305087Y-9524961D03*
D12*
X276225087Y-9524961D03*
D10*
X207327500Y-61595000D03*
X200977500Y-64135000D03*
D11*
X199707500Y-66675000D03*
X209867500Y-66675000D03*
D12*
X204787500Y-66675000D03*
D15*
X128587608Y-47425040D03*
D10*
X59690000Y-23495000D03*
X53340000Y-26035000D03*
D12*
X57150000Y-28575000D03*
D11*
X62230000Y-28575000D03*
X52070000Y-28575000D03*
D15*
X25600000Y-28576024D03*
D13*
X85693250Y-92710000D03*
D12*
X85693250Y-77470000D03*
D13*
X200056750Y-92710000D03*
D12*
X200056750Y-77470000D03*
D10*
X145415000Y-80645000D03*
X139065000Y-83185000D03*
D12*
X142875000Y-85725000D03*
D11*
X147955000Y-85725000D03*
X137795000Y-85725000D03*
D10*
X50165000Y-4445000D03*
X43815000Y-6985000D03*
D11*
X52705000Y-9525000D03*
D12*
X47625000Y-9525000D03*
D11*
X42545000Y-9525000D03*
D16*
X239932417Y-85725561D03*
X239932417Y-82425561D03*
X216098619Y-85725561D03*
X216098619Y-82425561D03*
X150614189Y-85725561D03*
X150614189Y-82425561D03*
X69679287Y-85725561D03*
X69679287Y-82425561D03*
X268225000Y-70325000D03*
X268225000Y-67025000D03*
X242031460Y-70325056D03*
X242031460Y-67025056D03*
X215837500Y-70325000D03*
X215837500Y-67025000D03*
X196787500Y-70325000D03*
X196787500Y-67025000D03*
X139637500Y-70325000D03*
X139637500Y-67025000D03*
X101537500Y-70325000D03*
X101537500Y-67025000D03*
X82487500Y-70325000D03*
X82487500Y-67025000D03*
X220600000Y-32225000D03*
X220600000Y-28925000D03*
X225362500Y-51275000D03*
X225362500Y-47975000D03*
X49150000Y-32225000D03*
X49150000Y-28925000D03*
X182500000Y-32225000D03*
X182500000Y-28925000D03*
X206312500Y-51275000D03*
X206312500Y-47975000D03*
X111062500Y-51275000D03*
X111062500Y-47975000D03*
X53912500Y-51275000D03*
X53912500Y-47975000D03*
X187262500Y-51275000D03*
X187262500Y-47975000D03*
X146112500Y-51275000D03*
X146112500Y-47975000D03*
X50862500Y-51275000D03*
X50862500Y-47975000D03*
X72962500Y-51275000D03*
X72962500Y-47975000D03*
X106300000Y-32225000D03*
X106300000Y-28925000D03*
X201550000Y-32225000D03*
X201550000Y-28925000D03*
X125350000Y-32225000D03*
X125350000Y-28925000D03*
X163450000Y-32225000D03*
X163450000Y-28925000D03*
X149162500Y-51275000D03*
X149162500Y-47975000D03*
X92012500Y-51275000D03*
X92012500Y-47975000D03*
X60387500Y-70325000D03*
X60387500Y-67025000D03*
X158687500Y-70325000D03*
X158687500Y-67025000D03*
X272318700Y-51275000D03*
X272318700Y-47975000D03*
X45904299Y-84900061D03*
X45904299Y-81600061D03*
X168212500Y-51275000D03*
X168212500Y-47975000D03*
X87250000Y-32225000D03*
X87250000Y-28925000D03*
X239650000Y-32225000D03*
X239650000Y-28925000D03*
X69912500Y-51275000D03*
X69912500Y-47975000D03*
X144400000Y-32225000D03*
X144400000Y-28925000D03*
X177737500Y-70325000D03*
X177737500Y-67025000D03*
X120587500Y-70325000D03*
X120587500Y-67025000D03*
X68200000Y-32225000D03*
X68200000Y-28925000D03*
D17*
X126576021Y-86684407D03*
X126010335Y-87250092D03*
X125444650Y-87815777D03*
X124878965Y-88381463D03*
X124313279Y-88947148D03*
X123747594Y-89512834D03*
X123181908Y-90078519D03*
X122616223Y-90644205D03*
X122050537Y-91209890D03*
X121484852Y-91775575D03*
X120919167Y-92341261D03*
D18*
X118515003Y-92341261D03*
X117949318Y-91775575D03*
X117383633Y-91209890D03*
X116817947Y-90644205D03*
X116252262Y-90078519D03*
X115686576Y-89512834D03*
X115120891Y-88947148D03*
X114555205Y-88381463D03*
X113989520Y-87815777D03*
X113423835Y-87250092D03*
X112858149Y-86684407D03*
D17*
X112858149Y-84280243D03*
X113423835Y-83714558D03*
X113989520Y-83148873D03*
X114555205Y-82583187D03*
X115120891Y-82017502D03*
X115686576Y-81451816D03*
X116252262Y-80886131D03*
X116817947Y-80320445D03*
X117383633Y-79754760D03*
X117949318Y-79189075D03*
X118515003Y-78623389D03*
D18*
X120919167Y-78623389D03*
X121484852Y-79189075D03*
X122050537Y-79754760D03*
X122616223Y-80320445D03*
X123181908Y-80886131D03*
X123747594Y-81451816D03*
X124313279Y-82017502D03*
X124878965Y-82583187D03*
X125444650Y-83148873D03*
X126010335Y-83714558D03*
X126576021Y-84280243D03*
D19*
X105079287Y-91600061D03*
X107479287Y-91600061D03*
X106279287Y-91600061D03*
D20*
X201079287Y-85300061D03*
X207379287Y-85300061D03*
X207379287Y-89100061D03*
X201079287Y-89100061D03*
D21*
X106479287Y-78700061D03*
X108679287Y-78700061D03*
D16*
X172975000Y-13175000D03*
X172975000Y-9875000D03*
X153925000Y-13175000D03*
X153925000Y-9875000D03*
X230125000Y-13175000D03*
X230125000Y-9875000D03*
X192025000Y-13175000D03*
X192025000Y-9875000D03*
X246125000Y-13175000D03*
X246125000Y-9875000D03*
X46100000Y-32225000D03*
X46100000Y-28925000D03*
X6287500Y-32225000D03*
X6287500Y-28925000D03*
X211075000Y-13175000D03*
X211075000Y-9875000D03*
X115825000Y-13175000D03*
X115825000Y-9875000D03*
X55625000Y-13175000D03*
X55625000Y-9875000D03*
X77725000Y-13175000D03*
X77725000Y-9875000D03*
X134875000Y-13175000D03*
X134875000Y-9875000D03*
X96775000Y-13175000D03*
X96775000Y-9875000D03*
X58675000Y-13175000D03*
X58675000Y-9875000D03*
D22*
X134979287Y-85950061D03*
D23*
X17859390Y-18364077D03*
X17859390Y-16164077D03*
D24*
X21458000Y-5630000D03*
X15678000Y-5630000D03*
D25*
X15343000Y-7075000D03*
X16118000Y-7075000D03*
D26*
X16818000Y-7075000D03*
X17318000Y-7075000D03*
X17818000Y-7075000D03*
X18318000Y-7075000D03*
X18818000Y-7075000D03*
X19318000Y-7075000D03*
X19818000Y-7075000D03*
X20318000Y-7075000D03*
D25*
X21018000Y-7075000D03*
X21793000Y-7075000D03*
D27*
X22888000Y-6160000D03*
D28*
X22888000Y-1980000D03*
X14248000Y-1980000D03*
D27*
X14248000Y-6160000D03*
D16*
X63437500Y-70325000D03*
X63437500Y-67025000D03*
D29*
X110129287Y-92150061D03*
X112329287Y-92150061D03*
D30*
X130529287Y-84400061D03*
X130529287Y-86600061D03*
D16*
X29431250Y-70325000D03*
X29431250Y-67025000D03*
X236600000Y-32225000D03*
X236600000Y-28925000D03*
D23*
X15478138Y-18959390D03*
X15478138Y-16759390D03*
D16*
X36575000Y-13175000D03*
X36575000Y-9875000D03*
D23*
X20240642Y-16164077D03*
X20240642Y-18364077D03*
D29*
X171189287Y-91371313D03*
X173389287Y-91371313D03*
D30*
X106929287Y-86550061D03*
X106929287Y-84350061D03*
D21*
X173389287Y-88990061D03*
X171189287Y-88990061D03*
D23*
X22621894Y-11996886D03*
X22621894Y-14196886D03*
D16*
X39625000Y-13175000D03*
X39625000Y-9875000D03*
D31*
X18100016Y-11351573D03*
X19050016Y-11351573D03*
X20000016Y-11351573D03*
X20000016Y-13651573D03*
X19050016Y-13651573D03*
X18100016Y-13651573D03*
D32*
X176729287Y-90510061D03*
D33*
X179269287Y-90510061D03*
X176729287Y-87970061D03*
X179269287Y-87970061D03*
X176729287Y-85430061D03*
X179269287Y-85430061D03*
D23*
X15478138Y-14196886D03*
X15478138Y-11996886D03*
D34*
X157211075Y-85725072D03*
X170211075Y-85725072D03*
D30*
X132529287Y-84400061D03*
X132529287Y-86600061D03*
D29*
X113829287Y-78700061D03*
X111629287Y-78700061D03*
D35*
X40548273Y-16549549D03*
X40548273Y-17549549D03*
X40548273Y-18549549D03*
X40548273Y-19549549D03*
D36*
X44573273Y-15049549D03*
X44573273Y-21049549D03*
D16*
X249174977Y-13175061D03*
X249174977Y-9875061D03*
M02*
