G04 #@! TF.GenerationSoftware,KiCad,Pcbnew,(5.99.0-11336-g5116fa6d12)*
G04 #@! TF.CreationDate,2021-07-24T21:02:53+02:00*
G04 #@! TF.ProjectId,plain60-flex-mkd-iso,706c6169-6e36-4302-9d66-6c65782d6d6b,rev?*
G04 #@! TF.SameCoordinates,Original*
G04 #@! TF.FileFunction,Profile,NP*
%FSLAX46Y46*%
G04 Gerber Fmt 4.6, Leading zero omitted, Abs format (unit mm)*
G04 Created by KiCad (PCBNEW (5.99.0-11336-g5116fa6d12)) date 2021-07-24 21:02:53*
%MOMM*%
%LPD*%
G01*
G04 APERTURE LIST*
G04 #@! TA.AperFunction,Profile*
%ADD10C,0.100000*%
G04 #@! TD*
G04 APERTURE END LIST*
D10*
X125489285Y-770062D02*
G75*
G03*
X131658024Y-771296I3084566J979917D01*
G01*
X90115786Y-76700063D02*
G75*
G02*
X88105632Y-75686426I0J2499996D01*
G01*
X186579287Y-3010061D02*
G75*
G02*
X183189287Y-770061I-305558J3222772D01*
G01*
X182940498Y-94726245D02*
X102808025Y-94723773D01*
X243833533Y-770061D02*
G75*
G03*
X251318024Y-771296I3742286J244926D01*
G01*
X285225008Y-92725008D02*
G75*
G02*
X283225008Y-94725008I-2000000J0D01*
G01*
X223383534Y-525008D02*
X193556815Y-525008D01*
X243583535Y-525006D02*
G75*
G02*
X243833534Y-770061I2472J-247527D01*
G01*
X186888025Y-92108717D02*
G75*
G02*
X193319287Y-94480061I2687771J-2617267D01*
G01*
X9344234Y-94725008D02*
X2525007Y-94725008D01*
X232862718Y-76700000D02*
G75*
G03*
X232862718Y-75700000I0J500000D01*
G01*
X204479287Y-76700066D02*
G75*
G02*
X202469132Y-75686428I1J2500000D01*
G01*
X42156815Y-525006D02*
X51883534Y-525008D01*
X43363195Y-75700064D02*
G75*
G03*
X43363195Y-76700064I0J-500000D01*
G01*
X186888026Y-92108718D02*
G75*
G02*
X186548026Y-92238718I-231820J96684D01*
G01*
X81206945Y-76700060D02*
G75*
G03*
X83217099Y-75686425I0J2499999D01*
G01*
X251563079Y-523771D02*
X269739287Y-525008D01*
X92439286Y-94480061D02*
G75*
G02*
X98868026Y-92118718I3737092J-242436D01*
G01*
X98859287Y-3140061D02*
G75*
G02*
X99199287Y-3010061I231820J-96684D01*
G01*
X48126422Y-19550136D02*
X237625192Y-19550136D01*
X283225008Y-525007D02*
G75*
G02*
X285225008Y-2525007I0J-2000000D01*
G01*
X41909287Y-780061D02*
G75*
G02*
X42156815Y-525006I250020J4997D01*
G01*
X102806815Y-522534D02*
X125239288Y-525006D01*
X22965040Y-94723771D02*
X44784234Y-94725008D01*
X15449286Y-93430061D02*
G75*
G02*
X15219287Y-93460061I-116285J-5145D01*
G01*
X34189288Y-525006D02*
G75*
G02*
X34439287Y-770061I2472J-247527D01*
G01*
X283225008Y-94725008D02*
X276415040Y-94723771D01*
X251318024Y-771296D02*
G75*
G02*
X251563079Y-523771I246290J1235D01*
G01*
X102561759Y-772533D02*
G75*
G02*
X99199287Y-3010061I-3082219J986581D01*
G01*
X186879286Y-3130062D02*
G75*
G03*
X193311760Y-772533I2694178J2603193D01*
G01*
X48126422Y-18550136D02*
G75*
G03*
X48126422Y-19550136I0J-500000D01*
G01*
X182939288Y-525006D02*
G75*
G02*
X183189287Y-770061I2472J-247527D01*
G01*
X196892619Y-75092173D02*
G75*
G02*
X195687706Y-75698761I-1204913J893412D01*
G01*
X276415040Y-94723770D02*
G75*
G02*
X276169287Y-94480061I-2431J243310D01*
G01*
X276158024Y-771296D02*
G75*
G02*
X276403079Y-523771I246290J1235D01*
G01*
X81206945Y-75700061D02*
G75*
G03*
X82413037Y-75091880I0J1499999D01*
G01*
X230034234Y-94722965D02*
X193568026Y-94723770D01*
X525008Y-2525008D02*
G75*
G02*
X2525008Y-525008I2000000J0D01*
G01*
X270509286Y-93480061D02*
G75*
G02*
X270289287Y-93430061I-105284J45749D01*
G01*
X99168026Y-92238719D02*
G75*
G02*
X102558026Y-94478718I305258J-3223225D01*
G01*
X193311760Y-772533D02*
G75*
G02*
X193556815Y-525008I246290J1235D01*
G01*
X237625192Y-19550264D02*
G75*
G03*
X237625192Y-18550008I0J500128D01*
G01*
X263029287Y-94480061D02*
G75*
G02*
X270289287Y-93430061I3741449J-245591D01*
G01*
X186579287Y-3010061D02*
G75*
G02*
X186879287Y-3130061I97569J-191076D01*
G01*
X193568026Y-94723770D02*
G75*
G02*
X193319287Y-94480061I-2461J246279D01*
G01*
X237625192Y-18550008D02*
X48126422Y-18550136D01*
X196892618Y-75092173D02*
G75*
G02*
X200059287Y-73470061I3215440J-2375121D01*
G01*
X240969286Y-94723773D02*
G75*
G02*
X240719287Y-94478718I-2472J247527D01*
G01*
X51883535Y-525006D02*
G75*
G02*
X52133534Y-770061I2472J-247527D01*
G01*
X125239288Y-525006D02*
G75*
G02*
X125489287Y-770061I2472J-247527D01*
G01*
X9589288Y-94477483D02*
G75*
G02*
X15219287Y-93460061I3084719J-983807D01*
G01*
X45029288Y-94477483D02*
G75*
G02*
X55469287Y-94480061I5219936J-258535D01*
G01*
X269989285Y-770062D02*
G75*
G03*
X276158024Y-771296I3084566J979954D01*
G01*
X525008Y-2525008D02*
X525008Y-92725008D01*
X22965040Y-94723770D02*
G75*
G02*
X22719287Y-94480061I-2431J243310D01*
G01*
X223383535Y-525006D02*
G75*
G02*
X223633534Y-770061I2472J-247527D01*
G01*
X285225008Y-92725008D02*
X285225008Y-2525007D01*
X102808025Y-94723773D02*
G75*
G02*
X102558026Y-94478718I-2472J247527D01*
G01*
X15449286Y-93430061D02*
G75*
G02*
X22719287Y-94480061I3523744J-1295320D01*
G01*
X183189288Y-94480061D02*
G75*
G02*
X182940498Y-94726245I-251302J5158D01*
G01*
X14009287Y-525006D02*
X34189287Y-525008D01*
X92190498Y-94723771D02*
X55715040Y-94723770D01*
X269739288Y-525006D02*
G75*
G02*
X269989287Y-770061I2472J-247527D01*
G01*
X233622995Y-771296D02*
G75*
G02*
X223633534Y-770061I-4994700J246342D01*
G01*
X62118535Y-775813D02*
G75*
G02*
X52133534Y-770061I-4992358J250789D01*
G01*
X83217099Y-75686425D02*
G75*
G02*
X88105632Y-75686426I2444266J-1807311D01*
G01*
X92429285Y-770061D02*
G75*
G03*
X98859287Y-3140061I3742617J246464D01*
G01*
X202469132Y-75686428D02*
G75*
G03*
X200059287Y-74470061I-2412195J-1783642D01*
G01*
X55715040Y-94723770D02*
G75*
G02*
X55469287Y-94480061I-2431J243310D01*
G01*
X41909286Y-780061D02*
G75*
G02*
X34439287Y-770061I-3734665J254835D01*
G01*
X204479287Y-75700059D02*
G75*
G02*
X203273198Y-75091881I0J1499998D01*
G01*
X233622997Y-771296D02*
G75*
G02*
X233868052Y-523771I246290J1235D01*
G01*
X99168026Y-92238718D02*
G75*
G02*
X98868026Y-92118718I-97569J191076D01*
G01*
X43363195Y-75700064D02*
X81206945Y-75700061D01*
X276403079Y-523771D02*
X283225008Y-525010D01*
X270509286Y-93480060D02*
G75*
G02*
X276169287Y-94480061I2567711J-1984558D01*
G01*
X92179288Y-525006D02*
G75*
G02*
X92429287Y-770061I2472J-247527D01*
G01*
X243583534Y-525008D02*
X233868052Y-523771D01*
X13759287Y-770061D02*
G75*
G02*
X7589287Y-770061I-3085000J980150D01*
G01*
X232862718Y-75700000D02*
X204479287Y-75700060D01*
X62118536Y-775813D02*
G75*
G02*
X62363591Y-525814I247527J2472D01*
G01*
X197697860Y-75685126D02*
G75*
G02*
X200059287Y-74470061I2410404J-1782319D01*
G01*
X195687706Y-75698761D02*
X90115786Y-75700069D01*
X90115786Y-75700068D02*
G75*
G02*
X88908032Y-75089636I0J1500001D01*
G01*
X13759287Y-770061D02*
G75*
G02*
X14009287Y-525006I252513J-7559D01*
G01*
X183189287Y-94480061D02*
G75*
G02*
X186548026Y-92238718I3082524J-982010D01*
G01*
X92439287Y-94480061D02*
G75*
G02*
X92190498Y-94723771I-250048J6417D01*
G01*
X102561760Y-772533D02*
G75*
G02*
X102806815Y-522534I247527J2472D01*
G01*
X203273197Y-75091881D02*
G75*
G03*
X200059287Y-73470061I-3216252J-2378183D01*
G01*
X262775008Y-94723773D02*
X240969287Y-94723771D01*
X131903079Y-523771D02*
X182939288Y-525006D01*
X197697860Y-75685126D02*
G75*
G02*
X195687707Y-76698761I-2010153J1486364D01*
G01*
X230279287Y-94470061D02*
G75*
G02*
X230034234Y-94722965I-247530J-5329D01*
G01*
X232862718Y-76700000D02*
X204479287Y-76700066D01*
X2525008Y-525008D02*
X7339287Y-525008D01*
X82413038Y-75091880D02*
G75*
G02*
X88908032Y-75089636I3248327J-2401894D01*
G01*
X131658024Y-771296D02*
G75*
G02*
X131903079Y-523771I246290J1235D01*
G01*
X9589289Y-94477483D02*
G75*
G02*
X9344234Y-94725008I-246290J-1235D01*
G01*
X62363591Y-525814D02*
X92179287Y-525008D01*
X263029287Y-94480061D02*
G75*
G02*
X262775008Y-94723773I-256840J13468D01*
G01*
X240719286Y-94478718D02*
G75*
G03*
X230279287Y-94470061I-5220216J-257307D01*
G01*
X2525007Y-94725007D02*
G75*
G02*
X525008Y-92725008I0J1999999D01*
G01*
X7339288Y-525006D02*
G75*
G02*
X7589287Y-770061I2472J-247527D01*
G01*
X43363195Y-76700064D02*
X81206945Y-76700060D01*
X90115786Y-76700064D02*
X195687707Y-76698761D01*
X45029289Y-94477483D02*
G75*
G02*
X44784234Y-94725008I-246290J-1235D01*
G01*
M02*
