G04 #@! TF.GenerationSoftware,KiCad,Pcbnew,(5.99.0-11336-g5116fa6d12)*
G04 #@! TF.CreationDate,2021-07-24T21:02:53+02:00*
G04 #@! TF.ProjectId,plain60-flex-mkd-iso,706c6169-6e36-4302-9d66-6c65782d6d6b,rev?*
G04 #@! TF.SameCoordinates,Original*
G04 #@! TF.FileFunction,Soldermask,Top*
G04 #@! TF.FilePolarity,Negative*
%FSLAX46Y46*%
G04 Gerber Fmt 4.6, Leading zero omitted, Abs format (unit mm)*
G04 Created by KiCad (PCBNEW (5.99.0-11336-g5116fa6d12)) date 2021-07-24 21:02:53*
%MOMM*%
%LPD*%
G01*
G04 APERTURE LIST*
%ADD10C,1.701800*%
%ADD11C,3.987800*%
%ADD12C,3.048000*%
%ADD13O,7.500000X3.000000*%
%ADD14O,5.500000X3.000000*%
%ADD15C,2.000000*%
%ADD16C,0.650000*%
%ADD17O,1.000000X2.100000*%
%ADD18O,1.000000X1.600000*%
%ADD19R,1.700000X1.700000*%
%ADD20O,1.700000X1.700000*%
G04 APERTURE END LIST*
D10*
X71120000Y-28575000D03*
X81280000Y-28575000D03*
D11*
X76200000Y-28575000D03*
D10*
X90170000Y-28575000D03*
X100330000Y-28575000D03*
D11*
X95250000Y-28575000D03*
X152400000Y-28575000D03*
D10*
X147320000Y-28575000D03*
X157480000Y-28575000D03*
X166370000Y-28575000D03*
X176530000Y-28575000D03*
D11*
X171450000Y-28575000D03*
D10*
X138430000Y-28575000D03*
X128270000Y-28575000D03*
D11*
X133350000Y-28575000D03*
D10*
X119380000Y-28575000D03*
X109220000Y-28575000D03*
D11*
X114300000Y-28575000D03*
D10*
X9207500Y-28575000D03*
D11*
X14287500Y-28575000D03*
D10*
X19367500Y-28575000D03*
D11*
X142875000Y-9525000D03*
D10*
X147955000Y-9525000D03*
X137795000Y-9525000D03*
X175895000Y-9525000D03*
X186055000Y-9525000D03*
D11*
X180975000Y-9525000D03*
D10*
X90805000Y-9525000D03*
X80645000Y-9525000D03*
D11*
X85725000Y-9525000D03*
X238125000Y-9525000D03*
D10*
X243205000Y-9525000D03*
X233045000Y-9525000D03*
X213995000Y-9525000D03*
X224155000Y-9525000D03*
D11*
X219075000Y-9525000D03*
X200025000Y-9525000D03*
D10*
X205105000Y-9525000D03*
X194945000Y-9525000D03*
X156845000Y-9525000D03*
X167005000Y-9525000D03*
D11*
X161925000Y-9525000D03*
X123825000Y-9525000D03*
D10*
X118745000Y-9525000D03*
X128905000Y-9525000D03*
X109855000Y-9525000D03*
X99695000Y-9525000D03*
D11*
X104775000Y-9525000D03*
D10*
X61595000Y-9525000D03*
D11*
X66675000Y-9525000D03*
D10*
X71755000Y-9525000D03*
D11*
X28575000Y-9525000D03*
D10*
X33655000Y-9525000D03*
X23495000Y-9525000D03*
D11*
X9525000Y-9525000D03*
D10*
X14605000Y-9525000D03*
X4445000Y-9525000D03*
X33020000Y-85725000D03*
X43180000Y-85725000D03*
D11*
X38100000Y-85725000D03*
D10*
X152717500Y-66675000D03*
X142557500Y-66675000D03*
D11*
X147637500Y-66675000D03*
X223837500Y-66675000D03*
D10*
X218757500Y-66675000D03*
X228917500Y-66675000D03*
X171767500Y-66675000D03*
D11*
X166687500Y-66675000D03*
D10*
X161607500Y-66675000D03*
X123507500Y-66675000D03*
D11*
X128587500Y-66675000D03*
D10*
X133667500Y-66675000D03*
X190817500Y-66675000D03*
X180657500Y-66675000D03*
D11*
X185737500Y-66675000D03*
D10*
X9207500Y-85725000D03*
X19367500Y-85725000D03*
D11*
X14287500Y-85725000D03*
D10*
X242570000Y-28575000D03*
D11*
X247650000Y-28575000D03*
D10*
X252730000Y-28575000D03*
D11*
X52387500Y-66675000D03*
D10*
X57467500Y-66675000D03*
X47307500Y-66675000D03*
D11*
X190500000Y-28575000D03*
D10*
X185420000Y-28575000D03*
X195580000Y-28575000D03*
X113982500Y-47625000D03*
D11*
X119062500Y-47625000D03*
D10*
X124142500Y-47625000D03*
D11*
X61912500Y-47625000D03*
D10*
X66992500Y-47625000D03*
X56832500Y-47625000D03*
D11*
X252412500Y-47625000D03*
D10*
X257492500Y-47625000D03*
X247332500Y-47625000D03*
X271145000Y-66675000D03*
X281305000Y-66675000D03*
D11*
X276225000Y-66675000D03*
D10*
X181292500Y-47625000D03*
D11*
X176212500Y-47625000D03*
D10*
X171132500Y-47625000D03*
D11*
X265588787Y-26162961D03*
X265588787Y-50038961D03*
D10*
X273844687Y-33020061D03*
D11*
X273844687Y-38100061D03*
D12*
X280828787Y-26162961D03*
X280828787Y-50038961D03*
D10*
X273844687Y-43180061D03*
D11*
X228600000Y-28575000D03*
D10*
X233680000Y-28575000D03*
X223520000Y-28575000D03*
D11*
X61912500Y-85725000D03*
D10*
X66992500Y-85725000D03*
X56832500Y-85725000D03*
D11*
X80962500Y-47625000D03*
D10*
X75882500Y-47625000D03*
X86042500Y-47625000D03*
X162242500Y-47625000D03*
X152082500Y-47625000D03*
D11*
X157162500Y-47625000D03*
D10*
X105092500Y-47625000D03*
D11*
X100012500Y-47625000D03*
D10*
X94932500Y-47625000D03*
D11*
X42862500Y-47625000D03*
D10*
X37782500Y-47625000D03*
X47942500Y-47625000D03*
X190182500Y-47625000D03*
D11*
X195262500Y-47625000D03*
D10*
X200342500Y-47625000D03*
X6826277Y-66674925D03*
D11*
X11906277Y-66674925D03*
D10*
X16986277Y-66674925D03*
D11*
X233362500Y-47625000D03*
D10*
X238442500Y-47625000D03*
X228282500Y-47625000D03*
X209232500Y-47625000D03*
X219392500Y-47625000D03*
D11*
X214312500Y-47625000D03*
D10*
X204470000Y-28575000D03*
X214630000Y-28575000D03*
D11*
X209550000Y-28575000D03*
D10*
X133032500Y-47625000D03*
D11*
X138112500Y-47625000D03*
D10*
X143192500Y-47625000D03*
X11588750Y-47625000D03*
D11*
X16668750Y-47625000D03*
D10*
X21748750Y-47625000D03*
X114617500Y-66675000D03*
X104457500Y-66675000D03*
D11*
X109537500Y-66675000D03*
X247650000Y-85725000D03*
D10*
X242570000Y-85725000D03*
X252730000Y-85725000D03*
X76517500Y-66675000D03*
X66357500Y-66675000D03*
D11*
X71437500Y-66675000D03*
X223837500Y-85725000D03*
D10*
X218757500Y-85725000D03*
X228917500Y-85725000D03*
X266382728Y-85725072D03*
X276542728Y-85725072D03*
D11*
X271462728Y-85725072D03*
D13*
X283368988Y-57125000D03*
X2381252Y-57125000D03*
D11*
X38100000Y-28575000D03*
D10*
X43180000Y-28575000D03*
X33020000Y-28575000D03*
X281304977Y-9525061D03*
X271144977Y-9525061D03*
D11*
X276224977Y-9525061D03*
X32887500Y-66675000D03*
D10*
X27807500Y-66675000D03*
X37967500Y-66675000D03*
D14*
X190500160Y-85525000D03*
D10*
X85407500Y-66675000D03*
X95567500Y-66675000D03*
D11*
X90487500Y-66675000D03*
X11906277Y-47624925D03*
D10*
X16986277Y-47624925D03*
X6826277Y-47624925D03*
D14*
X260425000Y-28227050D03*
D11*
X257174977Y-9525061D03*
D10*
X252094977Y-9525061D03*
X262254977Y-9525061D03*
D11*
X250031287Y-66675061D03*
D10*
X244951287Y-66675061D03*
X255111287Y-66675061D03*
X271780087Y-9524961D03*
D12*
X278638087Y-2539961D03*
D11*
X254762087Y-17779961D03*
D10*
X261620087Y-9524961D03*
D11*
X266700087Y-9524961D03*
D12*
X254762087Y-2539961D03*
D11*
X278638087Y-17779961D03*
D10*
X199707500Y-66675000D03*
X209867500Y-66675000D03*
D11*
X204787500Y-66675000D03*
D14*
X128587608Y-47425040D03*
D11*
X57150000Y-28575000D03*
D10*
X62230000Y-28575000D03*
X52070000Y-28575000D03*
D14*
X25600000Y-28576024D03*
D10*
X264636347Y-66675011D03*
D12*
X271494347Y-59690011D03*
X247618347Y-59690011D03*
D10*
X254476347Y-66675011D03*
D11*
X259556347Y-66675011D03*
X247618347Y-74930011D03*
X271494347Y-74930011D03*
X200056750Y-77470000D03*
D12*
X200056750Y-92710000D03*
X85693250Y-92710000D03*
D11*
X85693250Y-77470000D03*
D10*
X147955000Y-85725000D03*
D11*
X142875000Y-85725000D03*
D10*
X137795000Y-85725000D03*
D11*
X47625000Y-9525000D03*
D10*
X52705000Y-9525000D03*
X42545000Y-9525000D03*
D15*
X134979287Y-85950061D03*
D16*
X21458000Y-5630000D03*
X15678000Y-5630000D03*
D17*
X22888000Y-6160000D03*
D18*
X22888000Y-1980000D03*
X14248000Y-1980000D03*
D17*
X14248000Y-6160000D03*
D19*
X176729287Y-90510061D03*
D20*
X179269287Y-90510061D03*
X176729287Y-87970061D03*
X179269287Y-87970061D03*
X176729287Y-85430061D03*
X179269287Y-85430061D03*
M02*
