G04 #@! TF.GenerationSoftware,KiCad,Pcbnew,(5.99.0-11336-g5116fa6d12)*
G04 #@! TF.CreationDate,2021-07-24T21:02:53+02:00*
G04 #@! TF.ProjectId,plain60-flex-mkd-iso,706c6169-6e36-4302-9d66-6c65782d6d6b,rev?*
G04 #@! TF.SameCoordinates,Original*
G04 #@! TF.FileFunction,Paste,Bot*
G04 #@! TF.FilePolarity,Positive*
%FSLAX46Y46*%
G04 Gerber Fmt 4.6, Leading zero omitted, Abs format (unit mm)*
G04 Created by KiCad (PCBNEW (5.99.0-11336-g5116fa6d12)) date 2021-07-24 21:02:53*
%MOMM*%
%LPD*%
G01*
G04 APERTURE LIST*
G04 Aperture macros list*
%AMRoundRect*
0 Rectangle with rounded corners*
0 $1 Rounding radius*
0 $2 $3 $4 $5 $6 $7 $8 $9 X,Y pos of 4 corners*
0 Add a 4 corners polygon primitive as box body*
4,1,4,$2,$3,$4,$5,$6,$7,$8,$9,$2,$3,0*
0 Add four circle primitives for the rounded corners*
1,1,$1+$1,$2,$3*
1,1,$1+$1,$4,$5*
1,1,$1+$1,$6,$7*
1,1,$1+$1,$8,$9*
0 Add four rect primitives between the rounded corners*
20,1,$1+$1,$2,$3,$4,$5,0*
20,1,$1+$1,$4,$5,$6,$7,0*
20,1,$1+$1,$6,$7,$8,$9,0*
20,1,$1+$1,$8,$9,$2,$3,0*%
%AMRotRect*
0 Rectangle, with rotation*
0 The origin of the aperture is its center*
0 $1 length*
0 $2 width*
0 $3 Rotation angle, in degrees counterclockwise*
0 Add horizontal line*
21,1,$1,$2,0,0,$3*%
G04 Aperture macros list end*
%ADD10R,1.200000X0.900000*%
%ADD11RotRect,1.500000X0.550000X135.000000*%
%ADD12RotRect,1.500000X0.550000X45.000000*%
%ADD13R,0.400000X2.000000*%
%ADD14R,1.700000X1.000000*%
%ADD15R,1.200000X1.300000*%
%ADD16R,1.300000X1.200000*%
%ADD17R,0.600000X1.450000*%
%ADD18R,0.300000X1.450000*%
%ADD19R,1.200000X1.250000*%
%ADD20R,1.250000X1.200000*%
%ADD21R,0.600000X1.200000*%
%ADD22RoundRect,0.150000X0.775000X-0.150000X0.775000X0.150000X-0.775000X0.150000X-0.775000X-0.150000X0*%
%ADD23RoundRect,0.332800X0.567200X-0.467200X0.567200X0.467200X-0.567200X0.467200X-0.567200X-0.467200X0*%
%ADD24R,2.500000X2.500000*%
G04 APERTURE END LIST*
D10*
X239932417Y-85725561D03*
X239932417Y-82425561D03*
X216098619Y-85725561D03*
X216098619Y-82425561D03*
X150614189Y-85725561D03*
X150614189Y-82425561D03*
X69679287Y-85725561D03*
X69679287Y-82425561D03*
X268225000Y-70325000D03*
X268225000Y-67025000D03*
X242031460Y-70325056D03*
X242031460Y-67025056D03*
X215837500Y-70325000D03*
X215837500Y-67025000D03*
X196787500Y-70325000D03*
X196787500Y-67025000D03*
X139637500Y-70325000D03*
X139637500Y-67025000D03*
X101537500Y-70325000D03*
X101537500Y-67025000D03*
X82487500Y-70325000D03*
X82487500Y-67025000D03*
X220600000Y-32225000D03*
X220600000Y-28925000D03*
X225362500Y-51275000D03*
X225362500Y-47975000D03*
X49150000Y-32225000D03*
X49150000Y-28925000D03*
X182500000Y-32225000D03*
X182500000Y-28925000D03*
X206312500Y-51275000D03*
X206312500Y-47975000D03*
X111062500Y-51275000D03*
X111062500Y-47975000D03*
X53912500Y-51275000D03*
X53912500Y-47975000D03*
X187262500Y-51275000D03*
X187262500Y-47975000D03*
X146112500Y-51275000D03*
X146112500Y-47975000D03*
X50862500Y-51275000D03*
X50862500Y-47975000D03*
X72962500Y-51275000D03*
X72962500Y-47975000D03*
X106300000Y-32225000D03*
X106300000Y-28925000D03*
X201550000Y-32225000D03*
X201550000Y-28925000D03*
X125350000Y-32225000D03*
X125350000Y-28925000D03*
X163450000Y-32225000D03*
X163450000Y-28925000D03*
X149162500Y-51275000D03*
X149162500Y-47975000D03*
X92012500Y-51275000D03*
X92012500Y-47975000D03*
X60387500Y-70325000D03*
X60387500Y-67025000D03*
X158687500Y-70325000D03*
X158687500Y-67025000D03*
X244412500Y-51275000D03*
X244412500Y-47975000D03*
X45904299Y-84900061D03*
X45904299Y-81600061D03*
X168212500Y-51275000D03*
X168212500Y-47975000D03*
X87250000Y-32225000D03*
X87250000Y-28925000D03*
X239650000Y-32225000D03*
X239650000Y-28925000D03*
X69912500Y-51275000D03*
X69912500Y-47975000D03*
X144400000Y-32225000D03*
X144400000Y-28925000D03*
X177737500Y-70325000D03*
X177737500Y-67025000D03*
X120587500Y-70325000D03*
X120587500Y-67025000D03*
X68200000Y-32225000D03*
X68200000Y-28925000D03*
D11*
X126576021Y-86684407D03*
X126010335Y-87250092D03*
X125444650Y-87815777D03*
X124878965Y-88381463D03*
X124313279Y-88947148D03*
X123747594Y-89512834D03*
X123181908Y-90078519D03*
X122616223Y-90644205D03*
X122050537Y-91209890D03*
X121484852Y-91775575D03*
X120919167Y-92341261D03*
D12*
X118515003Y-92341261D03*
X117949318Y-91775575D03*
X117383633Y-91209890D03*
X116817947Y-90644205D03*
X116252262Y-90078519D03*
X115686576Y-89512834D03*
X115120891Y-88947148D03*
X114555205Y-88381463D03*
X113989520Y-87815777D03*
X113423835Y-87250092D03*
X112858149Y-86684407D03*
D11*
X112858149Y-84280243D03*
X113423835Y-83714558D03*
X113989520Y-83148873D03*
X114555205Y-82583187D03*
X115120891Y-82017502D03*
X115686576Y-81451816D03*
X116252262Y-80886131D03*
X116817947Y-80320445D03*
X117383633Y-79754760D03*
X117949318Y-79189075D03*
X118515003Y-78623389D03*
D12*
X120919167Y-78623389D03*
X121484852Y-79189075D03*
X122050537Y-79754760D03*
X122616223Y-80320445D03*
X123181908Y-80886131D03*
X123747594Y-81451816D03*
X124313279Y-82017502D03*
X124878965Y-82583187D03*
X125444650Y-83148873D03*
X126010335Y-83714558D03*
X126576021Y-84280243D03*
D13*
X105079287Y-91600061D03*
X107479287Y-91600061D03*
X106279287Y-91600061D03*
D14*
X201079287Y-85300061D03*
X207379287Y-85300061D03*
X207379287Y-89100061D03*
X201079287Y-89100061D03*
D15*
X106479287Y-78700061D03*
X108679287Y-78700061D03*
D10*
X172975000Y-13175000D03*
X172975000Y-9875000D03*
X153925000Y-13175000D03*
X153925000Y-9875000D03*
X230125000Y-13175000D03*
X230125000Y-9875000D03*
X192025000Y-13175000D03*
X192025000Y-9875000D03*
X246125000Y-13175000D03*
X246125000Y-9875000D03*
X46100000Y-32225000D03*
X46100000Y-28925000D03*
X6287500Y-32225000D03*
X6287500Y-28925000D03*
X211075000Y-13175000D03*
X211075000Y-9875000D03*
X115825000Y-13175000D03*
X115825000Y-9875000D03*
X55625000Y-13175000D03*
X55625000Y-9875000D03*
X77725000Y-13175000D03*
X77725000Y-9875000D03*
X134875000Y-13175000D03*
X134875000Y-9875000D03*
X96775000Y-13175000D03*
X96775000Y-9875000D03*
X58675000Y-13175000D03*
X58675000Y-9875000D03*
X233979287Y-85725561D03*
X233979287Y-82425561D03*
D16*
X17859390Y-18364077D03*
X17859390Y-16164077D03*
D17*
X15343000Y-7075000D03*
X16118000Y-7075000D03*
D18*
X16818000Y-7075000D03*
X17318000Y-7075000D03*
X17818000Y-7075000D03*
X18318000Y-7075000D03*
X18818000Y-7075000D03*
X19318000Y-7075000D03*
X19818000Y-7075000D03*
X20318000Y-7075000D03*
D17*
X21018000Y-7075000D03*
X21793000Y-7075000D03*
D10*
X63437500Y-70325000D03*
X63437500Y-67025000D03*
D19*
X110129287Y-92150061D03*
X112329287Y-92150061D03*
D20*
X130529287Y-84400061D03*
X130529287Y-86600061D03*
D10*
X19906277Y-70324925D03*
X19906277Y-67024925D03*
X236600000Y-32225000D03*
X236600000Y-28925000D03*
D16*
X15478138Y-18959390D03*
X15478138Y-16759390D03*
D10*
X36575000Y-13175000D03*
X36575000Y-9875000D03*
D16*
X20240642Y-16164077D03*
X20240642Y-18364077D03*
D19*
X171189287Y-91371313D03*
X173389287Y-91371313D03*
D20*
X106929287Y-86550061D03*
X106929287Y-84350061D03*
D15*
X173389287Y-88990061D03*
X171189287Y-88990061D03*
D16*
X22621894Y-11996886D03*
X22621894Y-14196886D03*
D10*
X39625000Y-13175000D03*
X39625000Y-9875000D03*
X54128819Y-84900061D03*
X54128819Y-81600061D03*
D21*
X18100016Y-11351573D03*
X19050016Y-11351573D03*
X20000016Y-11351573D03*
X20000016Y-13651573D03*
X19050016Y-13651573D03*
X18100016Y-13651573D03*
D16*
X15478138Y-14196886D03*
X15478138Y-11996886D03*
D22*
X40531287Y-16566061D03*
X40531287Y-17566061D03*
X40531287Y-18566061D03*
X40531287Y-19566061D03*
D23*
X44556287Y-15066061D03*
X44556287Y-21066061D03*
D24*
X157211075Y-85725072D03*
X170211075Y-85725072D03*
D20*
X132529287Y-84400061D03*
X132529287Y-86600061D03*
D19*
X113829287Y-78700061D03*
X111629287Y-78700061D03*
D10*
X24887500Y-70325000D03*
X24887500Y-67025000D03*
X249174977Y-13175061D03*
X249174977Y-9875061D03*
M02*
