M48
; DRILL file {KiCad (5.99.0-11336-g5116fa6d12)} date Sat Jul 24 21:02:59 2021
; FORMAT={-:-/ absolute / inch / decimal}
; #@! TF.CreationDate,2021-07-24T21:02:59+02:00
; #@! TF.GenerationSoftware,Kicad,Pcbnew,(5.99.0-11336-g5116fa6d12)
; #@! TF.FileFunction,Plated,1,2,PTH
FMAT,2
INCH
; #@! TA.AperFunction,Plated,PTH,ViaDrill
T1C0.0157
; #@! TA.AperFunction,Plated,PTH,ComponentDrill
T2C0.0236
; #@! TA.AperFunction,Plated,PTH,ComponentDrill
T3C0.0335
; #@! TA.AperFunction,Plated,PTH,ComponentDrill
T4C0.0394
; #@! TA.AperFunction,Plated,PTH,ComponentDrill
T5C0.0590
; #@! TA.AperFunction,Plated,PTH,ComponentDrill
T6C0.0984
%
G90
G05
T1
X0.4834Y-0.7884
X0.6094Y-0.6094
X0.6934Y-0.3522
X0.7333Y-0.8012
X0.75Y-0.4015
X0.7584Y-0.3522
X0.7667Y-0.8012
X0.858Y-0.3774
X0.9532Y-0.5589
X1.0673Y-3.0
X1.4136Y-3.175
X1.4804Y-0.8113
X1.496Y-2.5197
X1.5645Y-2.8106
X2.1625Y-2.8106
X2.9126Y-2.8106
X3.2575Y-3.4106
X3.6626Y-2.8106
X4.0224Y-3.452
X4.1393Y-3.0984
X4.2531Y-3.2008
X4.2534Y-3.2359
X4.2538Y-3.271
X4.2834Y-3.665
X4.285Y-3.4075
X4.3386Y-3.0817
X4.3386Y-3.1244
X4.3386Y-3.2713
X4.3764Y-3.3181
X4.4126Y-2.8106
X4.5271Y-3.0984
X4.6308Y-3.0602
X4.6319Y-3.5165
X4.6622Y-3.1807
X4.7132Y-3.6677
X4.8244Y-3.0762
X4.8763Y-3.3949
X4.8783Y-3.4414
X4.9933Y-3.5201
X5.0149Y-3.242
X5.0217Y-3.1461
X5.0504Y-3.1748
X5.1626Y-2.8106
X5.1775Y-3.2413
X5.3141Y-3.6146
X5.9126Y-2.8106
X5.9297Y-3.4882
X6.1894Y-3.4621
X6.6626Y-2.8106
X6.7012Y-3.2824
X6.8692Y-3.5973
X6.9086Y-3.6476
X7.1878Y-3.4134
X7.4126Y-2.8106
X8.1626Y-2.8106
X8.9125Y-2.8106
T3
X6.9578Y-3.3634
X6.9578Y-3.4634
X6.9578Y-3.5634
X7.0578Y-3.3634
X7.0578Y-3.4634
X7.0578Y-3.5634
T4
X5.3141Y-3.3839
T5
X0.225Y-0.275
X0.3188Y-1.775
X0.3188Y-2.525
X0.4125Y-1.025
X0.4125Y-3.275
X0.475Y-0.175
X0.5062Y-1.775
X0.5688Y-1.675
X0.5688Y-2.425
X0.6625Y-0.925
X0.6625Y-3.175
X0.7562Y-1.675
X0.975Y-0.275
X1.1448Y-2.525
X1.225Y-0.175
X1.35Y-1.025
X1.35Y-3.275
X1.3948Y-2.425
X1.5375Y-1.775
X1.6Y-0.925
X1.6Y-3.175
X1.725Y-0.275
X1.7875Y-1.675
X1.9125Y-2.525
X1.975Y-0.175
X2.1Y-1.025
X2.1625Y-2.425
X2.2875Y-1.775
X2.2875Y-3.275
X2.35Y-0.925
X2.475Y-0.275
X2.5375Y-1.675
X2.5375Y-3.175
X2.6625Y-2.525
X2.725Y-0.175
X2.85Y-1.025
X2.9125Y-2.425
X3.0375Y-1.775
X3.1Y-0.925
X3.225Y-0.275
X3.2875Y-1.675
X3.4125Y-2.525
X3.475Y-0.175
X3.6Y-1.025
X3.6625Y-2.425
X3.7875Y-1.775
X3.85Y-0.925
X3.975Y-0.275
X4.0375Y-1.675
X4.1625Y-2.525
X4.225Y-0.175
X4.35Y-1.025
X4.4125Y-2.425
X4.5375Y-1.775
X4.6Y-0.925
X4.725Y-0.275
X4.7875Y-1.675
X4.9125Y-2.525
X4.975Y-0.175
X5.1Y-1.025
X5.1625Y-2.425
X5.2875Y-1.775
X5.35Y-0.925
X5.475Y-0.275
X5.475Y-3.275
X5.5375Y-1.675
X5.6625Y-2.525
X5.725Y-0.175
X5.725Y-3.175
X5.85Y-1.025
X5.9125Y-2.425
X6.0375Y-1.775
X6.1Y-0.925
X6.225Y-0.275
X6.2875Y-1.675
X6.4125Y-2.525
X6.475Y-0.175
X6.6Y-1.025
X6.6625Y-2.425
X6.7875Y-1.775
X6.85Y-0.925
X6.975Y-0.275
X7.0375Y-1.675
X7.1625Y-2.525
X7.225Y-0.175
X7.35Y-1.025
X7.4125Y-2.425
X7.5375Y-1.775
X7.6Y-0.925
X7.725Y-0.275
X7.7875Y-1.675
X7.9125Y-2.525
X7.975Y-0.175
X8.1Y-1.025
X8.1625Y-2.425
X8.2875Y-1.775
X8.35Y-0.925
X8.475Y-0.275
X8.5375Y-1.675
X8.6625Y-2.525
X8.6625Y-3.275
X8.725Y-0.175
X8.85Y-1.025
X8.9125Y-2.425
X8.9125Y-3.175
X9.0375Y-1.775
X9.1Y-0.925
X9.225Y-0.275
X9.2875Y-1.675
X9.475Y-0.175
X9.6Y-1.025
X9.6Y-3.275
X9.6938Y-2.525
X9.7875Y-1.775
X9.85Y-0.925
X9.85Y-3.175
X9.9438Y-2.425
X9.975Y-0.275
X10.0375Y-1.675
X10.0688Y-2.525
X10.225Y-0.175
X10.3188Y-2.425
X10.35Y-0.275
X10.5375Y-3.275
X10.6Y-0.175
X10.725Y-0.275
X10.725Y-2.525
X10.7875Y-3.175
X10.8813Y-1.35
X10.975Y-0.175
X10.975Y-2.425
X10.9813Y-1.6
T2
G00X0.5609Y-0.0898
M15
G01X0.5609Y-0.0661
M16
G05
G00X0.5609Y-0.2642
M15
G01X0.5609Y-0.2209
M16
G05
G00X0.9011Y-0.0898
M15
G01X0.9011Y-0.0661
M16
G05
G00X0.9011Y-0.2642
M15
G01X0.9011Y-0.2209
M16
G05
T6
G00X0.0052Y-2.249
M15
G01X0.1823Y-2.249
M16
G05
G00X0.9587Y-1.125
M15
G01X1.0571Y-1.125
M16
G05
G00X5.0133Y-1.8671
M15
G01X5.1117Y-1.8671
M16
G05
G00X7.4508Y-3.3671
M15
G01X7.5492Y-3.3671
M16
G05
G00X10.2037Y-1.1113
M15
G01X10.3022Y-1.1113
M16
G05
G00X11.0677Y-2.249
M15
G01X11.2448Y-2.249
M16
G05
T0
M30
